<svg version="1.2" xmlns="http://www.w3.org/2000/svg" xmlns:xlink="http://www.w3.org/1999/xlink" overflow="visible" preserveAspectRatio="none" viewBox="0 0 24 24" width="15.999112588215107" height="16.021105285886993"><g><path xmlns:default="http://www.w3.org/2000/svg" id="map-pin" d="M12,14c-0.45,0-0.89-0.05-1.33-0.16v6.82c0.01,0.37,0.3,0.66,0.67,0.67h1.33c0.37-0.01,0.66-0.3,0.67-0.67  v-6.82C12.9,13.95,12.45,14,12,14L12,14z M12,2.67c-1.42-0.02-2.78,0.54-3.77,1.56C7.21,5.22,6.65,6.58,6.67,8  c-0.02,1.42,0.54,2.78,1.56,3.77c0.99,1.02,2.35,1.58,3.77,1.56c1.42,0.02,2.78-0.54,3.77-1.56c1.02-0.99,1.58-2.35,1.56-3.77  c0.02-1.42-0.54-2.78-1.56-3.77C14.78,3.21,13.42,2.65,12,2.67L12,2.67z M12,5c-1.66,0-3,1.34-3,3c0,0.19-0.15,0.34-0.34,0.34  S8.33,8.19,8.33,8c0-2.02,1.64-3.66,3.66-3.66c0,0,0.01,0,0.01,0c0.18,0,0.33,0.15,0.33,0.33S12.18,5,12,5C12,5,12,5,12,5L12,5z" style="fill: rgb(40, 141, 192);" vector-effect="non-scaling-stroke"/></g></svg>