<svg width="9" height="6" viewBox="0 0 9 6" fill="none" xmlns="http://www.w3.org/2000/svg">
<path d="M4.45909 5.20909C4.2605 5.20825 4.07035 5.12869 3.93034 4.98784L0.180343 1.23784C0.057473 1.09437 -0.00673153 0.90981 0.000559336 0.721053C0.0078502 0.532296 0.0860993 0.353241 0.21967 0.21967C0.353241 0.0860995 0.532296 0.0078502 0.721053 0.000559336C0.90981 -0.00673153 1.09437 0.057473 1.23784 0.180343L4.45909 3.39784L7.68034 0.180343C7.82382 0.057473 8.00838 -0.00673153 8.19713 0.000559336C8.38589 0.0078502 8.56494 0.0860995 8.69851 0.21967C8.83209 0.353241 8.91034 0.532296 8.91763 0.721053C8.92492 0.90981 8.86071 1.09437 8.73784 1.23784L4.98784 4.98784C4.84784 5.12869 4.65768 5.20825 4.45909 5.20909Z" fill="#333333"/>
</svg>
