<svg id="Layer_1" data-name="Layer 1" xmlns="http://www.w3.org/2000/svg" viewBox="0 0 48 48"><defs><style>.cls-1{fill:#fff;}</style></defs><g id="Layer_1-2" data-name="Layer 1"><path class="cls-1" d="M9,13H1V44a5,5,0,0,0,5,5H44a5,5,0,0,0,5-5V1H9ZM3,44V15H9V44a3,3,0,0,1-6,0ZM11,3H47V44a3,3,0,0,1-3,3H10l.08-.12.16-.26a4.3,4.3,0,0,0,.28-.52c.05-.1.09-.2.13-.29s.13-.4.19-.6.05-.19.07-.28A5.64,5.64,0,0,0,11,44V3Z" transform="translate(-1 -1)"/><rect class="cls-1" x="14" y="7" width="28" height="2"/><rect class="cls-1" x="18" y="12" width="20" height="2"/><rect class="cls-1" x="30" y="20" width="12" height="2"/><rect class="cls-1" x="30" y="25" width="12" height="2"/><path class="cls-1" d="M27,21H15V33H27ZM25,31H17V23h8Z" transform="translate(-1 -1)"/><rect class="cls-1" x="30" y="30" width="12" height="2"/><rect class="cls-1" x="14" y="35" width="12" height="2"/><rect class="cls-1" x="30" y="35" width="12" height="2"/><rect class="cls-1" x="14" y="40" width="12" height="2"/><rect class="cls-1" x="30" y="40" width="12" height="2"/></g></svg>