<svg width="22" height="21" viewBox="0 0 22 21" fill="none" xmlns="http://www.w3.org/2000/svg">
<path d="M11.108 0.558594C8.35857 0.558594 8.01382 0.570248 6.93403 0.619515C5.85649 0.668703 5.12057 0.839813 4.47659 1.09009C3.81088 1.34881 3.24631 1.69496 2.68351 2.25777C2.12071 2.82057 1.77455 3.38514 1.51583 4.05085C1.26555 4.69479 1.09444 5.43071 1.04526 6.50825C0.995989 7.58804 0.984375 7.93279 0.984375 10.6822C0.984375 13.4316 0.995989 13.7764 1.04526 14.8561C1.09444 15.9337 1.26555 16.6696 1.51583 17.3135C1.77455 17.9793 2.12071 18.5438 2.68351 19.1067C3.24631 19.6695 3.81088 20.0156 4.47659 20.2743C5.12057 20.5246 5.85649 20.6957 6.93403 20.7449C8.01382 20.7941 8.35857 20.8058 11.108 20.8058C13.8574 20.8058 14.2021 20.7941 15.2819 20.7449C16.3595 20.6957 17.0954 20.5246 17.7393 20.2743C18.405 20.0156 18.9696 19.6695 19.5324 19.1067C20.0952 18.5438 20.4414 17.9793 20.7001 17.3135C20.9504 16.6696 21.1215 15.9337 21.1707 14.8561C21.2199 13.7764 21.2316 13.4316 21.2316 10.6822C21.2316 7.93279 21.2199 7.58804 21.1707 6.50825C21.1215 5.43071 20.9504 4.69479 20.7001 4.05085C20.4414 3.38514 20.0952 2.82057 19.5324 2.25777C18.9696 1.69496 18.405 1.34881 17.7393 1.09009C17.0954 0.839813 16.3595 0.668703 15.2819 0.619515C14.2021 0.570248 13.8574 0.558594 11.108 0.558594ZM11.108 2.3827C13.8111 2.3827 14.1313 2.39299 15.1988 2.4417C16.1858 2.48674 16.7219 2.65167 17.0786 2.79027C17.5511 2.97391 17.8884 3.19333 18.2426 3.54757C18.5969 3.9018 18.8163 4.23908 18.9999 4.71158C19.1385 5.06831 19.3035 5.60435 19.3485 6.59139C19.3972 7.65888 19.4075 7.97908 19.4075 10.6822C19.4075 13.3853 19.3972 13.7055 19.3485 14.773C19.3035 15.76 19.1385 16.2961 18.9999 16.6528C18.8163 17.1253 18.5969 17.4626 18.2426 17.8168C17.8884 18.1711 17.5511 18.3905 17.0786 18.5741C16.7219 18.7128 16.1858 18.8777 15.1988 18.9227C14.1314 18.9714 13.8113 18.9817 11.108 18.9817C8.40466 18.9817 8.08454 18.9714 7.01717 18.9227C6.03013 18.8777 5.49409 18.7128 5.13737 18.5741C4.66482 18.3905 4.32758 18.1711 3.97331 17.8168C3.61907 17.4626 3.39966 17.1253 3.21605 16.6528C3.07741 16.2961 2.91248 15.76 2.86744 14.773C2.81873 13.7055 2.80844 13.3853 2.80844 10.6822C2.80844 7.97908 2.81873 7.65888 2.86744 6.59139C2.91248 5.60435 3.07741 5.06831 3.21605 4.71158C3.39966 4.23908 3.61907 3.9018 3.97331 3.54757C4.32758 3.19333 4.66482 2.97391 5.13737 2.79027C5.49409 2.65167 6.03013 2.48674 7.01717 2.4417C8.08467 2.39299 8.40487 2.3827 11.108 2.3827Z" fill="white"/>
<path d="M11.1049 14.0565C9.24114 14.0565 7.73032 12.5457 7.73032 10.682C7.73032 8.81829 9.24114 7.30747 11.1049 7.30747C12.9686 7.30747 14.4794 8.81829 14.4794 10.682C14.4794 12.5457 12.9686 14.0565 11.1049 14.0565ZM11.1049 5.4834C8.23373 5.4834 5.90625 7.81087 5.90625 10.682C5.90625 13.5531 8.23373 15.8806 11.1049 15.8806C13.976 15.8806 16.3035 13.5531 16.3035 10.682C16.3035 7.81087 13.976 5.4834 11.1049 5.4834Z" fill="white"/>
<path d="M17.7265 5.27829C17.7265 5.94923 17.1826 6.4931 16.5117 6.4931C15.8408 6.4931 15.2969 5.94923 15.2969 5.27829C15.2969 4.60735 15.8408 4.06348 16.5117 4.06348C17.1826 4.06348 17.7265 4.60735 17.7265 5.27829Z" fill="white"/>
</svg>
