<?xml version="1.0" encoding="UTF-8"?>
<svg id="Layer_1" data-name="Layer 1" xmlns="http://www.w3.org/2000/svg" viewBox="0 0 317.4106 33.0071">
  <defs>
    <style>
      .cls-1 {
        fill: #fff;
        stroke-width: 0px;
      }
    </style>
  </defs>
  <g>
    <path class="cls-1" d="M104.4874,19.8708c1.0634,0,1.8067-.199,2.1184-.2723l-.0007-14.6557c-.5395-.0195-1.2026-.1031-1.5451-.1467v7.9619c0,3.8562-3.9441,5.1841-5.0432,5.7555,1.2064.8111,2.7663,1.3573,4.4706,1.3573M99.853,18.3852c.7218-.6947,1.3866-1.9121,1.3866-3.8239V3.9533c-.2113-.0575-.6515-.1747-.8443-.217v10.8375c0,2.0883-.7083,2.9187-1.0551,3.4127.135.1139.3635.2941.5128.3987M113.0019.438c-.0623.5045-.6816,4.5381-5.2665,4.5381-.269.0015-.6126-.0078-.8358-.0193v14.5551c2.3995-.7408,4.3817-2.722,5.2412-5.5108l.1106.0138c-.333,5.1048-4.4296,9.1274-9.3698,9.1274-5.3627,0-9.3378-4.1475-9.3378-9.8157,0-3.734,1.8827-7.1107,4.8037-8.7698l.0675.0776c-1.4076,1.6478-2.1612,3.5936-2.1612,6.0503,0,3.0941,1.1959,5.5688,2.9075,7.146.3767-.5378.9425-1.4666.9425-3.402V3.6703c-.1502-.0313-.8136-.1845-1.4761-.1845-1.9134,0-3.5428.5168-4.9849,2.1986l-.0918-.0503C94.015,2.3721,96.3346.0118,100.5758.0118c3.8196,0,5.7905,1.4348,8.7527,1.4348,1.9819,0,3.1508-.7793,3.5758-1.0579l.0975.0493ZM114.6398,1.2586l2.558,2.5613-2.558,2.561-2.5593-2.561,2.5593-2.5613ZM162.1751,7.2599l-4.1059,5.6316,3.34,2.4404v4.1245l-4.8734,3.7303c-.305-.2107-1.4351-1.0261-3.1928-1.0261-1.4631,0-2.3587.6755-2.874,1.0336l-.17-.1474,4.3291-5.9379-3.081-1.7416v-4.56l4.7769-3.7215c.4265.3069,1.2999.939,2.941.939,1.4511,0,2.3242-.6552,2.6897-.942l.2203.1772ZM160.9195,8.48l-.084-.0681c-.3253.3756-1.7367,1.8793-3.4828,1.8793-1.1916,0-1.8297-.4287-2.1047-.6176v3.44l1.6084.9383,4.0631-5.5718ZM157.706,17.5411l-1.9984-1.4091-4.1834,5.7405.074.0754c.5898-.5934,1.9329-1.9196,3.7553-1.9196,1.3319,0,2.0859.481,2.3525.6149v-3.1021ZM111.7917,9.2939l2.8507-2.1904,2.33,3.0333v8.786s.4943.4443.8413.7634c.425.3897.8388.5135,1.2123.5135.4196,0,.7118-.174.8376-.2565v-8.7427l-1.4776-1.9058,2.8495-2.1904,2.3325,3.0301,4.5446-3.025,2.3287,3.025,4.6571-3.0331,2.333,3.0298v8.7926l1.0129.913c.4083.3722.8283.5726,1.2924.5726.357,0,.5335-.1039.6773-.1987l.085-.0568v-8.9212l6.1743-4.1283,4.1251,5.5108-6.5838,4.2056v1.7374s2.666,1.3304,3.6083,1.795c.427.2102.8693.4024,1.4511.4024.6431,0,1.2686-.2458,1.5947-.3937l.502-.2335.1178.2666-5.405,2.792-5.4782-2.8561-3.4201,2.8131-3.4548-2.9447v-9.017l-1.4712-1.8815-1.8229,1.187v8.4419l2.1721,1.9436-2.4194,2.2782-3.4535-2.9522v-9.01l-1.4384-1.8541-1.7321,1.1523v8.4384l2.1717,1.9474-2.4187,2.2782-3.4543-2.9522-3.1595,2.9347c-.4908-.4463-3.4351-2.9219-3.4351-2.9219v-9.0028l-1.4774-1.9151ZM144.2173,16.4769l3.2358-2.0802-3.2358-4.3332v6.4134ZM42.5525,11.2089l6.0238-4.101,4.1074,3.8765v7.9544s.6255.4965,1.1761.9533c.4881.4019.7506.457.9366.457.3463,0,.6683-.2678.8871-.4708l-.004-15.2568c0-.8131-.141-1.9083-.9893-2.6789l.0602-.0891c.9713.2705,1.7164,1.1893,1.9392,1.9021.6843-2.3636,3.2828-3.2125,5.3235-2.9439v.1251c-1.5094.3131-2.6315,1.3835-2.6315,4.0086v14.077s.6593.6022.8316.7516c.4015.3897.6508.5884,1.0421.5884.351,0,.6616-.1867.8158-.3031l.1183-.0951v-8.7318l6.1751-4.1283,4.1246,5.5108-6.5833,4.2056v1.7374s2.6645,1.3304,3.608,1.795c.4276.2102.8696.4024,1.4511.4024.6435,0,1.2684-.2458,1.5949-.3937.2948-.1394.5526-.2565.6161-.2853v-8.8439l6.1748-4.1283,4.1241,5.5108-6.5828,4.2056v1.7374s2.6647,1.3304,3.6073,1.795c.4271.2102.9423.3226,1.4719.3226.6895,0,1.2626-.2935,1.5784-.4455l.8031-.4142v-8.1594l-1.5914-2.0613,2.931-2.491,2.3597,3.0363v14.3636c-3.8553,0-5.716,5.0279-12.4086,5.0279-3.8956,0-5.864-1.7949-5.864-4.0639,0-1.7248,1.5104-3.0736,3.3325-3.0736,2.1069,0,3.1193.9946,3.6483,1.7714l-.168.0913c-.2985-.3071-.7438-.6672-1.5902-.6672-.9213,0-1.8116.6614-1.8116,1.7604,0,1.7126,1.9724,3.1522,4.6129,3.1522,2.5018,0,6.5493-1.7952,6.5493-5.2908v-3.055l-5.5922,3.0298-5.5845-2.758-5.402,2.758-5.58-2.9092-3.49,2.8736-3.0243-2.9279-3.4568,2.9299-3.1598-2.8723-2.7875,2.8723-3.7228-2.9211-3.4978,2.9091-3.2445-2.9422v-8.5608l-1.4841-2.1516-1.4599,1.0061v8.4074l2.0437,1.8312-2.7147,2.4194-3.0305-2.9382-3.0143,2.9217-3.383-1.5407c-1.1946-.5353-2.0959-1.2171-2.757-2.5593-1.3718,1.1958-3.0822,2.7738-4.4544,4.0644-1.0954-.7078-3.0428-1.8442-6.3093-1.8442-4.7359,0-8.9145,2.2707-8.9145,4.9606,0,1.7061,1.2409,2.6078,2.7347,2.6078l-.016.2498c-2.0057,0-3.0508-1.3755-3.0508-2.9735,0-4.5297,5.7083-7.9449,10.703-8.2803.5097-.6845,1.2516-1.5336,1.2516-3.9083l-.0005-6.6717c0-1.0737.3468-1.5267.482-1.7031-.0508.1699-.189.6046-.189,1.7859l.0002,6.8547c0,2.1323-.7328,2.9464-1.2409,3.6274.181-.0083.3593-.0128.5371-.0128l.3088.0037c1.1108-1.2559,1.2261-2.6604,1.2261-3.9898,0,0-.0103-4.7742,0-6.6842.012-2.2425.7296-3.0771,2.0924-4.4353.3303-.3293.6671-.662.9228-.9107l-.0575-.0668c-1.6677,1.2726-3.0438,2.2872-5.2072,2.2872-1.7212,0-3.2215-.7621-4.8507-.7621-1.2308,0-1.8597.5789-2.1.7535.6508-1.2278,2.536-3.9866,5.3657-3.9866,2.0984,0,3.09.8935,5.1612.8935,1.2036,0,2.2702-.1569,3.1938-.6199l.0803.0778c-.6073.9843-.8614,2.3466-.8614,4.0694v4.5479L22.6355.2578c.6906.445,1.4341.9591,2.7797.9591,1.5932,0,2.266-.4605,2.816-.7884l.0668.0395c-.332,1.0366-1.9269,3.6725-4.4762,3.6725-1.3451,0-2.3817-.6164-2.8347-.887l-2.7835,4.1698,3.1733,2.5683s1.3531,4.6075,1.8982,6.3809c.607,1.9734,1.1543,2.2314,2.2992,2.7635.4518.2095.9088.4139,1.5696.7088.7036.3149.9148.3068,1.2691.3068.372,0,.6538-.1576.7516-.2255V4.5852c0-1.4451-.5018-2.1841-.9934-2.6434l.061-.0878c.4936.0991,1.5271.6973,1.9394,1.9048.4126-1.629,2.3244-3.277,5.312-2.9482v.1449c-1.6481.3234-2.6177,1.5264-2.6177,4.1082v5.0737l4.3452-2.9925,2.3007,2.9802v8.9022l.9803.8232c.3248.2725.6315.4845,1.1091.4845.4313,0,.7731-.2873.9541-.4232l-.0028-8.703ZM46.254,18.8304l1.3604,1.0687c.382.2993.5923.3586.8248.3586.3106,0,.5423-.2099.5423-.2099l.005-7.1848-2.7325-2.6942v8.6617ZM76.8942,16.4769l3.2355-2.0802-3.2355-4.3332v6.4134ZM65.9078,16.4769l3.236-2.0802-3.236-4.3332v6.4134ZM18.3361,20.1371l1.5351-1.3938c-.0653-.1742-.272-.8031-.5243-1.5842-.5193-1.9045-1.3159-4.793-1.3159-4.793l-1.2131-1.1395v1.2856c0,2.7637-1.9489,4.1492-4.6004,5.297,3.707.209,5.7177,1.9791,6.1185,2.3278M88.2857,3.8199l-2.5585,2.561-2.5577-2.561,2.5577-2.5613,2.5585,2.5613Z"/>
    <path class="cls-1" d="M55.6794,4.6216c0-.8131-.141-1.9083-.9894-2.6789l.0603-.0894c.9713.2708,1.7164,1.1896,1.9392,1.9024.6843-2.3638,3.2828-3.2128,5.3234-2.944v.1249c-1.5094.3131-2.6314,1.3837-2.6314,4.0088v14.0768s.6593.6024.8316.7516c.4015.3897.6508.5887,1.0421.5887.351,0,.6615-.187.8158-.3031.0588-.045.1302-.1051.1302-.1051l.137.2042-3.6345,2.9928-3.0243-2.9282V4.6216Z"/>
    <path class="cls-1" d="M42.7021,20.1075l-.1467-.1957c-.181.1361-.5228.4232-.9541.4232-.4775,0-.7846-.212-1.1091-.4845-.5565-.4658-.9803-.8232-.9803-.8232v-8.9022l-2.3009-2.98-4.3449,2.9923v-5.0737c0-2.5816.9693-3.7846,2.6177-4.108v-.1452c-2.9875-.3288-4.8994,1.3194-5.3122,2.9482-.4123-1.2076-1.4456-1.8057-1.9391-1.9048l-.061.0881c.4916.459.9933,1.1983.9933,2.6434v15.627l3.0305,2.9382,2.7147-2.4194-2.0437-1.831v-8.4076l1.4599-1.0061,1.4841,2.1516v8.561l3.2446,2.942,3.6473-3.0335Z"/>
    <path class="cls-1" d="M88.2856,3.82l-2.5582,2.561-2.558-2.561,2.558-2.5613,2.5582,2.5613ZM76.7598,24.1661c-.5291-.7771-1.5411-1.7717-3.6483-1.7717-1.8221,0-3.3323,1.349-3.3323,3.0736,0,2.269,1.9684,4.0639,5.8638,4.0639,6.6926,0,8.5535-5.028,12.4085-5.028v-14.3636l-2.3594-3.0363-2.9313,2.491,1.5917,2.0613v11.5558c0,3.4956-4.0476,5.2908-6.5496,5.2908-2.6405,0-4.6127-1.4395-4.6127-3.1524,0-1.0987.8903-1.7601,1.8117-1.7601.8463,0,1.2913.3601,1.5901.667l.1678-.0911Z"/>
    <path class="cls-1" d="M18.3359,20.1371l1.5354-1.3937c-.0653-.1742-.272-.8031-.5246-1.5845-.5191-1.9043-1.3156-4.7927-1.3156-4.7927l-1.2131-1.1395v1.2856c0,2.7635-1.9489,4.1492-4.6004,5.297,3.7068.2087,5.7178,1.9792,6.1183,2.3278M17.6793.3514c-.6073.9841-.8614,2.3466-.8614,4.0694v4.548L22.6355.2578c.6906.4447,1.4341.959,2.7797.959,1.5929,0,2.266-.4605,2.816-.7883l.0668.0395c-.332,1.0366-1.9269,3.6724-4.4764,3.6724-1.3449,0-2.3815-.6164-2.8345-.8869l-2.7835,4.1698,3.1733,2.5683s1.3531,4.6075,1.8982,6.3809c.607,1.9734,1.1543,2.2314,2.2992,2.7635.4518.2095.9086.4137,1.5696.7088.7035.3148.9148.3068,1.2689.3068.4305,0,.74-.2107.7838-.25l.1278.1644-3.174,3.0678s-1.9804-.9028-3.383-1.5404c-1.1946-.5354-2.0959-1.2171-2.757-2.5593-1.3718,1.1958-3.0822,2.7738-4.4544,4.0644-1.0954-.708-3.0428-1.8442-6.3093-1.8442-4.7359,0-8.9148,2.2707-8.9148,4.9604,0,1.7063,1.2411,2.6081,2.735,2.6081l-.0163.2498C1.0452,29.0726,0,27.6971,0,26.0989,0,21.5695,5.7083,18.154,10.703,17.8189c.5098-.6845,1.2517-1.5339,1.2517-3.9083,0,0-.0005-6.3915-.0005-6.6718,0-1.0736.3468-1.5269.4818-1.7031l.003.0023c-.0505.1697-.1918.6021-.1918,1.7837v6.8547c0,2.1321-.7326,2.9464-1.2406,3.6274.181-.0082.3593-.0128.5371-.0128.1042,0,.207.0013.3085.0038,1.1108-1.2561,1.2264-2.6607,1.2264-3.9898,0,0-.0103-4.7745,0-6.6845.012-2.2422.7296-3.0768,2.0924-4.4351.3303-.3293.6671-.662.9228-.9107l-.0575-.0669c-1.6679,1.2726-3.0441,2.2872-5.2072,2.2872-1.7212,0-3.2218-.7621-4.8507-.7621-1.2308,0-1.8597.5786-2.1.7535l-.0455-.0378C4.5292,2.7588,6.4144,0,9.2441,0,11.3425,0,12.3341.8935,14.4053.8935c1.2036,0,2.2702-.1569,3.1938-.6202l.0803.0781Z"/>
    <path class="cls-1" d="M65.9078,16.4769l3.236-2.0802-3.236-4.3332v6.4134ZM62.1892,11.2325l6.1748-4.1282,4.1249,5.5108-6.5833,4.2056v1.7374s2.6645,1.3304,3.608,1.795c.4276.21.8696.4022,1.4511.4022.6435,0,1.2684-.2455,1.5949-.3934.3401-.1607.6308-.2923.6308-.2923v.3487l-5.4167,2.7687-5.5845-2.9117v-9.0426Z"/>
    <path class="cls-1" d="M144.2175,16.4769l3.2355-2.0802-3.2355-4.3332v6.4134ZM140.4989,11.2325l6.1743-4.1282,4.1251,5.5108-6.5838,4.2056v1.7374s2.6659,1.3304,3.6085,1.795c.4268.21.8693.4022,1.4508.4022.6431,0,1.2686-.2455,1.5949-.3934.0952-.0436.5018-.2335.5018-.2335l.1177.2666-5.405,2.792-5.5845-2.9117v-9.0426Z"/>
    <path class="cls-1" d="M76.8942,16.4769l3.2355-2.0802-3.2355-4.3332v6.4134ZM73.1757,11.2325l6.1748-4.1282,4.1241,5.5108-6.5831,4.2056v1.7374s2.665,1.3304,3.6073,1.795c.4272.21.9426.3226,1.4721.3226.6895,0,1.2624-.2935,1.5784-.4455.299-.1524.8758-.4517.8758-.4517v.3391l-5.665,3.0693-5.5845-2.758v-9.1962Z"/>
    <path class="cls-1" d="M42.5523,11.209l6.024-4.1009,4.1074,3.8765v7.9541s.6255.4968,1.1761.9535c.4881.4017.7506.457.9366.457.346,0,.6683-.2678.8868-.4708l.1603.2067-3.6208,3.0681-3.1598-2.8723-2.7875,2.8723-3.7231-2.9211v-9.023ZM46.2541,18.8305s1.1268.887,1.3603,1.0687c.382.2993.5923.3586.8248.3586.3106,0,.5423-.2099.5423-.2099l.005-7.1848-2.7325-2.6941v8.6616Z"/>
    <path class="cls-1" d="M130.4415,10.1342l-2.3289-3.025-4.5446,3.025-2.3322-3.03-2.8495,2.1904,1.4776,1.906v8.9985l3.4543,2.9522,2.4185-2.2784-2.1714-1.9474v-8.4384l1.7319-1.1523,1.4386,1.854v9.0103l3.4536,2.9522,2.4192-2.2784-2.1722-1.9434v-8.4419l1.8232-1.1873,1.4711,1.8815v9.0173l3.4546,2.9444,3.4473-2.8351-.115-.1669s-.05.0348-.1033.0691c-.1438.0949-.3205.1984-.6773.1984-.464,0-.8843-.2005-1.2924-.5726-.2673-.241-1.0128-.9127-1.0128-.9127v-8.7928l-2.333-3.0295-4.6572,3.0328Z"/>
    <path class="cls-1" d="M162.1752,7.2599l-4.1059,5.6316,3.3401,2.4404v4.1245l-4.8735,3.7303c-.3053-.2107-1.4351-1.0261-3.1928-1.0261-1.4631,0-2.3587.6755-2.874,1.0336l-.17-.1474,4.3291-5.9379-3.081-1.7416v-4.5599l4.7769-3.7213c.4265.3066,1.2998.9388,2.941.9388,1.4511,0,2.3242-.6552,2.6897-.942l.2203.1772ZM160.9195,8.4799l-.084-.0681c-.3253.3757-1.7366,1.8793-3.4828,1.8793-1.1919,0-1.8297-.4287-2.1047-.6177v3.44l1.6084.9383,4.0631-5.5718ZM157.706,17.541l-1.9984-1.409-4.1834,5.7405.074.0753c.5898-.5934,1.9329-1.9196,3.7553-1.9196,1.3319,0,2.0859.481,2.3525.6149v-3.1021Z"/>
    <path class="cls-1" d="M111.7916,9.2939l2.8508-2.1904,2.3302,3.0333v8.7861s.494.4442.8413.763c.425.3899.8386.5138,1.2124.5138.4453,0,.7463-.1955.8583-.2703.0273.0363.1123.1457.1123.1457l-3.2926,3.0586c-.4911-.4463-3.4351-2.9219-3.4351-2.9219v-9.0028l-1.4776-1.9151ZM114.6399,1.2586l-2.5595,2.5613,2.5595,2.561,2.5577-2.561-2.5577-2.5613Z"/>
    <path class="cls-1" d="M104.4873,19.8707c1.0633,0,1.8067-.1987,2.1185-.2721l-.0007-14.6559c-.5396-.0195-1.2026-.1028-1.5449-.1467v7.9619c0,3.8562-3.9443,5.1844-5.0435,5.7558,1.2064.8109,2.7663,1.357,4.4706,1.357M99.8529,18.3851c.7218-.6947,1.3867-1.9118,1.3867-3.8239V3.9534c-.2113-.0578-.6516-.1747-.8444-.217v10.8375c0,2.0883-.7083,2.9187-1.0551,3.4125.135.1141.3638.2943.5128.3987M113.0019.4381c-.0623.5046-.6813,4.5382-5.2664,4.5382-.269.0015-.6126-.0078-.8358-.0195v14.5553c2.3997-.7408,4.3816-2.722,5.2412-5.511l.1105.014c-.333,5.1048-4.4296,9.1274-9.3698,9.1274-5.3627,0-9.3378-4.1475-9.3378-9.8156,0-3.7343,1.8827-7.111,4.8036-8.77l.0675.0776c-1.4076,1.648-2.1612,3.5936-2.1612,6.0503,0,3.0944,1.1958,5.5691,2.9075,7.146.3768-.5376.9426-1.4663.9426-3.402V3.6701c-.1503-.0313-.8136-.1845-1.4759-.1845-1.9137,0-3.5431.517-4.9852,2.1989l-.0918-.0503C94.0149,2.3722,96.3347.0116,100.5758.0116c3.8196,0,5.7905,1.435,8.7527,1.435,1.9819,0,3.1508-.7793,3.5758-1.0579l.0975.0493Z"/>
  </g>
  <g>
    <path class="cls-1" d="M185.7677,13.4264c0,1.9692-1.0955,3.2129-3.1529,3.2129h-1.8951v3.4342h-1.5099v-9.8888h3.1529c2.561,0,3.405,1.3763,3.405,3.2417M180.7197,11.4724v3.8789h1.9692c.7991,0,1.5392-.4144,1.5392-1.9248,0-1.1399-.5329-1.9541-1.5392-1.9541h-1.9692Z"/>
    <path class="cls-1" d="M192.0218,15.5288v3.2719c0,.2511.1038.3847.3554.3847.1331,0,.2369,0,.3549-.0444l.178.7996c-.3554.1775-.6367.2365-1.1252.2365-1.0365,0-1.1696-.7401-1.1696-1.0068-.2218.3998-.6957,1.0068-2.0277,1.0068-1.525,0-2.2359-.7845-2.2359-2.0579,0-1.8356,1.4953-2.4128,3.1237-2.4128.3852,0,.977.0741,1.1399.0887v-.6514c0-.9917-.8434-1.0658-1.6874-1.0658-.8737,0-1.5694.1926-2.0725.3852l.2369-1.1701c.4885-.1775,1.3763-.3696,2.2354-.3696,1.8059,0,2.6941.5178,2.6941,2.6054M187.8324,17.9714c0,1.0068.8883,1.0511,1.2437,1.0511.8434,0,1.5392-.6367,1.5392-1.525v-.7103c-.2218-.0151-.7103-.0595-1.0068-.0595-1.1399,0-1.7761.2964-1.7761,1.2437"/>
    <path class="cls-1" d="M197.9731,13.2932l-.2662,1.1696c-.37-.1331-.7108-.2072-1.155-.2072-.6216,0-1.0658.6514-1.214.9327v4.8852h-1.4212v-7.0318h1.4212v.9176c.2813-.666.8293-1.036,1.3178-1.036.5329,0,.977.1926,1.3173.37"/>
    <path class="cls-1" d="M200.9932,13.0417h1.4655v1.1252h-1.4655v4.0412c0,.7255.1926.8142.7255.8142.1926,0,.5329-.0887.6957-.1775l.2072,1.0658c-.4739.1628-.7698.2667-1.5543.2667-.977,0-1.4655-.4144-1.4655-1.7917v-4.2187h-1.1252l.2369-1.1252h.8883v-1.88l1.3914-.4593v2.3392Z"/>
    <path class="cls-1" d="M213.1472,16.5798c0,2.9165-1.6138,3.5976-3.405,3.5976-1.8059,0-3.4045-.6811-3.4045-3.5976,0-2.9014,1.5986-3.6566,3.4045-3.6566,1.821,0,3.405.7552,3.405,3.6566M207.8326,16.5798c0,2.1613.7849,2.5167,1.9097,2.5167,1.0955,0,1.9248-.3554,1.9248-2.5167,0-2.1764-.8293-2.5757-1.9248-2.5757-1.1248,0-1.9097.3993-1.9097,2.5757"/>
    <path class="cls-1" d="M218.5657,10.0217l-.2516,1.1545c-.3111-.0741-.6514-.1628-.9478-.1628-.6216,0-.7996.1482-.7996.8439v1.1842h1.525v1.1252h-1.525v5.907h-1.4061v-5.907h-1.1252l.2369-1.1252h.8883v-.9917c0-1.2437.2218-2.2651,1.9541-2.2651.548,0,1.0068.0595,1.4509.2369"/>
    <path class="cls-1" d="M252.4361,14.892v.2335c0,1.1257-.2194,2.0769-.6518,2.8541-.432.7737-1.0209,1.352-1.7629,1.7352-.7459.3837-1.586.5719-2.5264.5719-.4705,0-.92-.0492-1.3451-.1468-.4602-.1112-.8956-.275-1.3037-.5017-.7908-.432-1.4075-1.0419-1.857-1.8258-.4461-.784-.6728-1.6835-.6728-2.701,0-1.0141.2267-1.9131.6728-2.6902.4495-.784,1.0628-1.3866,1.8468-1.8156.784-.4285,1.6728-.6445,2.659-.6445.9234,0,1.742.1848,2.4533.5543.1151.059.2331.1219.3447.1984.0317.0141.0595.0312.0873.0522.8083.5368,1.3797,1.2686,1.7074,2.2022l.0663.2057h-1.8088c-.1672-.3832-.3759-.7074-.6411-.9653-.0941-.1009-.2018-.1916-.3169-.2716-.4983-.3554-1.1291-.5368-1.8921-.5368-.6553,0-1.2408.1463-1.7566.4354-.5192.293-.9234.7181-1.2125,1.2827-.2925.5646-.4359,1.2267-.4359,1.9931,0,.7737.1433,1.4426.4359,2.0072.2891.5646.6933.9897,1.2125,1.2861.2964.1706.6099.2891.9551.3622.1321.0278.2681.0488.4076.0595.1287.0137.2579.021.3939.021.627,0,1.1706-.1151,1.6274-.3554.4563-.2408.8083-.5577,1.0589-.9444.2477-.3871.3871-.8015.4149-1.2476h-2.7985l.5543-1.408h4.0841Z"/>
    <path class="cls-1" d="M263.3216,20.0675h-1.9082l-.7611-2.0486-.0005-.0005h-4.7126l-.7547,2.0491h-1.8848l3.8896-9.8844h2.2451l3.8872,9.8844ZM260.1321,16.6201l-1.8215-4.9003h-.0527l-1.8044,4.9003h3.6785Z"/>
    <polygon class="cls-1" points="271.8327 18.572 271.2442 20.0678 265.0076 20.0678 265.0076 10.1834 266.7637 10.1834 266.7637 18.572 271.8327 18.572"/>
    <path class="cls-1" d="M282.617,20.0675h-1.9087l-.7611-2.0486v-.0005h-4.7131l-.7542,2.0491h-1.8848l3.8896-9.8844h2.2451l3.8872,9.8844ZM279.4275,16.6201l-1.8215-4.9003h-.0527l-1.8044,4.9003h3.6785Z"/>
    <path class="cls-1" d="M293.186,15.1241c0,1.6157-.43,2.8419-1.2876,3.6824-.8576.84-2.0257,1.2613-3.504,1.2613h-4.0797v-9.8844h4.0797c1.4782,0,2.6464.4212,3.504,1.2583.8576.8405,1.2876,2.0696,1.2876,3.6824M291.4124,15.1241c0-1.1618-.2808-2.0369-.843-2.6283-.5651-.5914-1.3671-.8868-2.4089-.8868h-2.1013v7.0333h2.1013c1.0419,0,1.8439-.2955,2.4089-.8868.5621-.5914.843-1.4665.843-2.6313"/>
    <path class="cls-1" d="M304.057,20.0675h-1.9082l-.7611-2.0486-.0005-.0005h-4.7126l-.7547,2.0491h-1.8848l3.8896-9.8844h2.2451l3.8872,9.8844ZM300.8675,16.6201l-1.8215-4.9003h-.0527l-1.8044,4.9003h3.6785Z"/>
    <path class="cls-1" d="M311.3136,16.1485c.7289-.1843,1.2851-.53,1.6742-1.036.3861-.5095.5797-1.136.5797-1.8853,0-.9395-.3047-1.683-.9132-2.2271-.6089-.5446-1.4665-.8166-2.5728-.8166h-4.3269v9.8844h1.7444v-8.4593h2.3451c.6294,0,1.1096.1409,1.449.4217.3364.2837.5036.6821.5036,1.1969,0,.527-.1672.9312-.4978,1.212-.3335.2808-.8166.4217-1.4548.4217h-1.2793v1.428h.5733c1.0877.608,2.3173,2.3212,2.7449,3.7789h1.8512c-.4027-1.3812-1.5879-3.2704-2.4206-3.9193"/>
    <rect class="cls-1" x="315.6662" y="10.1834" width="1.7444" height="9.8844"/>
    <path class="cls-1" d="M225.9378,28.0746c-1.3622,0-2.4665,1.1043-2.4665,2.4665s1.1043,2.466,2.4665,2.466,2.4665-1.1043,2.4665-2.466-1.1043-2.4665-2.4665-2.4665"/>
    <path class="cls-1" d="M225.1517,20.8575c-.3423,1.0058.2686,1.5821.5777,1.7878.5802.3866,1.2856.7854,4.0939.8746,3.4752.1107,5.0353.2087,6.2649,1.0282,1.4226.9483,2.6966,3.2987.9444,5.9953-1.7376,2.6746-5.5638,2.5723-6.8431,2.3548,2.3451-.3111,3.8028-1.096,4.2182-2.4128.4154-1.3164-.1745-2.1798-.8747-2.6079-.8746-.5343-2.7526-.6016-4.1221-.7103-1.4558-.1151-3.7838-.1794-4.815-.7791-1.1915-.6928-1.8044-1.76-1.5133-3.0886.2911-1.3281,1.6776-2.2129,2.0691-2.4421"/>
    <path class="cls-1" d="M236.0975,11.4344c-.4037.2876-.8961.4588-1.4295.4588-1.3617,0-2.466-1.1043-2.466-2.4665,0-.1736.0185-.3432.0527-.507-.6167-.1614-1.2666-.2496-1.9394-.2496-3.895,0-7.0518,2.8926-7.0518,6.4604s3.1568,6.4604,7.0518,6.4604,7.0518-2.8926,7.0518-6.4604c0-1.3749-.4705-2.6488-1.2696-3.696M234.3306,15.1304c0,2.1354-1.7981,3.8662-4.0154,3.8662s-4.0159-1.7308-4.0159-3.8662,1.798-3.8662,4.0159-3.8662,4.0154,1.7308,4.0154,3.8662"/>
    <path class="cls-1" d="M236.0973,11.4345c.627-.4471,1.037-1.1789,1.037-2.0077,0-1.3617-1.1038-2.466-2.466-2.466-1.1881,0-2.1798.8405-2.4138,1.9589,1.5762.4125,2.9262,1.3139,3.8428,2.5147"/>
  </g>
</svg>