<?xml version="1.0" encoding="utf-8"?>
<!-- Generator: Adobe Illustrator 26.0.3, SVG Export Plug-In . SVG Version: 6.00 Build 0)  -->
<svg version="1.1" id="Layer_1" xmlns="http://www.w3.org/2000/svg" xmlns:xlink="http://www.w3.org/1999/xlink" x="0px" y="0px"
	 viewBox="0 0 80 80" style="enable-background:new 0 0 80 80;" xml:space="preserve">
<style type="text/css">
	.st0{fill:#29AAE2;}
	.st1{fill:#FFFFFF;}
</style>
<g>
	<g>
		<path class="st0" d="M79.9,40.2c0,22-17.8,39.8-39.8,39.8c-22,0-39.8-17.8-39.8-39.8S18.2,0.5,40.2,0.5
			C62.1,0.5,79.9,18.3,79.9,40.2"/>
	</g>
	<g>
		<path class="st1" d="M32.5,49.2l1.9-1.8c-0.1-0.2-0.3-1-0.7-2c-0.7-2.4-1.7-6.1-1.7-6.1l-1.5-1.4v1.6c0,3.5-2.5,5.3-5.8,6.7
			C29.4,46.5,32,48.8,32.5,49.2 M31.6,24.2c-0.8,1.2-1.1,3-1.1,5.2v5.8l7.4-11c0.9,0.6,1.8,1.2,3.5,1.2c2,0,2.9-0.6,3.6-1l0.1,0.1
			c-0.4,1.3-2.4,4.6-5.7,4.6c-1.7,0-3-0.8-3.6-1.1l-3.5,5.3l4,3.3c0,0,1.7,5.8,2.4,8.1c0.8,2.5,1.5,2.8,2.9,3.5
			c0.6,0.3,1.2,0.5,2,0.9c0.9,0.4,1.2,0.4,1.6,0.4c0.5,0,0.9-0.3,1-0.3l0.2,0.2l-4,3.9c0,0-2.5-1.1-4.3-2c-1.5-0.7-2.7-1.5-3.5-3.2
			c-1.7,1.5-3.9,3.5-5.6,5.1c-1.4-0.9-3.9-2.3-8-2.3c-6,0-11.3,2.9-11.3,6.3c0,2.2,1.6,3.3,3.5,3.3l0,0.3c-2.5,0-3.9-1.7-3.9-3.8
			c0-5.7,7.2-10.1,13.6-10.5c0.6-0.9,1.6-1.9,1.6-4.9c0,0,0-8.1,0-8.4c0-1.4,0.4-1.9,0.6-2.2l0,0c-0.1,0.2-0.2,0.8-0.2,2.3
			c0,3,0,8.7,0,8.7c0,2.7-0.9,3.7-1.6,4.6c0.2,0,0.5,0,0.7,0c0.1,0,0.3,0,0.4,0c1.4-1.6,1.6-3.4,1.6-5.1c0,0,0-6,0-8.5
			c0-2.8,0.9-3.9,2.7-5.6c0.4-0.4,0.8-0.8,1.2-1.2l-0.1-0.1c-2.1,1.6-3.9,2.9-6.6,2.9c-2.2,0-4.1-1-6.1-1c-1.6,0-2.4,0.7-2.7,1
			l-0.1,0c0.9-1.5,3.3-5,6.9-5c2.7,0,3.9,1.1,6.5,1.1c1.5,0,2.9-0.2,4-0.8L31.6,24.2z"/>
	</g>
	<g>
		<path class="st1" d="M58.6,48.9c1.3,0,2.3-0.3,2.7-0.3l0-18.6c-0.7,0-1.5-0.1-2-0.2v10.1c0,4.9-5,6.6-6.4,7.3
			C54.4,48.2,56.4,48.9,58.6,48.9 M52.7,47c0.9-0.9,1.8-2.4,1.8-4.8V28.7c-0.3-0.1-0.8-0.2-1.1-0.3v13.7c0,2.6-0.9,3.7-1.3,4.3
			C52.2,46.6,52.5,46.9,52.7,47 M69.4,24.3c-0.1,0.6-0.9,5.7-6.7,5.7c-0.3,0-0.8,0-1.1,0v18.4c3-0.9,5.6-3.4,6.6-7l0.1,0
			C68,47.9,62.8,53,56.5,53c-6.8,0-11.8-5.3-11.8-12.4c0-4.7,2.4-9,6.1-11.1l0.1,0.1c-1.8,2.1-2.7,4.5-2.7,7.7c0,3.9,1.5,7.1,3.7,9
			c0.5-0.7,1.2-1.9,1.2-4.3V28.4c-0.2,0-1-0.2-1.9-0.2c-2.4,0-4.5,0.7-6.3,2.8l-0.1-0.1c0.6-4.1,3.5-7.1,8.9-7.1
			c4.8,0,7.3,1.8,11.1,1.8c2.5,0,4-1,4.5-1.3L69.4,24.3z"/>
	</g>
</g>
</svg>
