<?xml version="1.0" encoding="UTF-8"?>
<svg id="Layer_1" data-name="Layer 1" xmlns="http://www.w3.org/2000/svg" viewBox="0 0 845.6052 245.493">
  <defs>
    <style>
      .cls-1 {
        fill: #000;
      }

      .cls-1, .cls-2 {
        stroke-width: 0px;
      }

      .cls-2 {
        fill: #373b37;
      }
    </style>
  </defs>
  <g>
    <path class="cls-1" d="M544.8125,103.6095c5.5445,0,9.4202-1.0374,11.0458-1.4199l-.0039-76.4168c-2.8132-.1017-6.2706-.5375-8.0566-.7647v41.5145c0,20.1067-20.5649,27.0308-26.2959,30.0099,6.2902,4.2294,14.4238,7.077,23.3106,7.077M520.648,95.8632c3.7636-3.6224,7.2301-9.9698,7.2301-19.9385V20.6129c-1.1015-.3001-3.3972-.9107-4.4025-1.1313v56.5084c0,10.8886-3.6932,15.2184-5.5013,17.7944.704.5938,1.8955,1.5332,2.6738,2.0788M589.2084,2.2837c-.3247,2.6306-3.5537,23.6626-27.4603,23.6626-1.4025.008-3.1939-.0405-4.3581-.1004v75.8923c12.5112-3.8628,22.8467-14.1927,27.3284-28.7339l.5765.0719c-1.7365,26.6171-23.0968,47.5915-48.8557,47.5915-27.9621,0-48.6889-21.6257-48.6889-51.1804,0-19.4697,9.8165-37.0762,25.0471-45.7268l.352.4046c-7.3395,8.5917-11.2688,18.7377-11.2688,31.5471,0,16.1332,6.2355,29.0366,15.1604,37.2605,1.9644-2.8044,4.9146-7.6471,4.9146-17.7383V19.1372c-.7834-.1633-4.2421-.9619-7.6968-.9619-9.9767,0-18.4725,2.6947-25.9922,11.4641l-.4785-.2623C490.2079,12.3684,502.303.0614,524.417.0614c19.9158,0,30.1925,7.4811,45.6381,7.4811,10.334,0,16.4286-4.0634,18.6449-5.5159l.5085.2572ZM597.7486,6.5626l13.3376,13.3549-13.3376,13.3537-13.3444-13.3537,13.3444-13.3549ZM845.6051,37.854l-21.4086,29.3642,17.4154,12.7245v21.5056l-25.4106,19.4505c-1.5905-1.0988-7.483-5.3504-16.6477-5.3504-7.6288,0-12.2987,3.522-14.9854,5.3894l-.8865-.7686,22.5727-30.9613-16.0649-9.0811v-23.7764l24.9076-19.4046c2.224,1.6,6.7777,4.8963,15.3349,4.8963,7.5662,0,12.1186-3.4165,14.0244-4.9119l1.1486.9238ZM839.058,44.2158l-.4378-.3549c-1.6961,1.9586-9.0553,9.7987-18.16,9.7987-6.2131,0-9.5401-2.2352-10.9741-3.2205v17.9365l8.3864,4.8924,21.1855-29.0522ZM822.3023,91.4617l-10.4201-7.347-21.8127,29.9317.3859.3929c3.0754-3.0942,10.0785-10.0091,19.5808-10.0091,6.9446,0,10.8764,2.5082,12.266,3.2064v-16.1749ZM582.8986,48.4596l14.8642-11.4212,12.1488,15.8161v45.8116s2.5772,2.3164,4.3868,3.9803c2.2162,2.0317,4.3737,2.6777,6.3213,2.6777,2.1877,0,3.7117-.907,4.3674-1.3375v-45.5859l-7.7046-9.9372,14.8576-11.4212,12.1619,15.7992,23.6964-15.7729,12.1422,15.7729,24.2829-15.8149,12.1644,15.7978v45.8458l5.2812,4.7603c2.1287,1.9405,4.3189,2.9858,6.7386,2.9858,1.8616,0,2.7819-.5416,3.5315-1.0362l.4431-.2962v-46.5163l32.1938-21.5253,21.509,28.7339-34.3291,21.9285v9.0589s13.9007,6.937,18.8143,9.3592c2.2265,1.0962,4.5326,2.0982,7.5662,2.0982,3.3531,0,6.6148-1.2814,8.315-2.0527l2.6174-1.2176.6143,1.3899-28.1825,14.5581-28.5643-14.8922-17.8327,14.6677-18.0137-15.3542v-47.016l-7.6708-9.8107-9.5047,6.1894v44.0174l11.3259,10.1341-12.6154,11.8789-18.0072-15.3932v-46.9795l-7.5001-9.6673-9.0316,6.0081v43.9991l11.3236,10.1539-12.6114,11.8789-18.0113-15.3932-16.4742,15.302c-2.5592-2.3269-17.9109-15.2354-17.9109-15.2354v-46.9417l-7.7034-9.9854ZM751.9703,85.9128l16.872-10.8466-16.872-22.5939v33.4406ZM221.8748,58.445l31.4089-21.383,21.4164,20.2125v41.4752s3.2617,2.5889,6.1324,4.9707c2.5448,2.0956,3.9135,2.3827,4.8834,2.3827,1.8057,0,3.4847-1.3962,4.6255-2.4546l-.0209-79.5513c0-4.2396-.7352-9.9501-5.1584-13.9682l.3139-.4646c5.0647,1.4106,8.9497,6.2011,10.1112,9.9177,3.5681-12.324,17.117-16.7504,27.7574-15.35v.6523c-7.8701,1.6327-13.721,7.214-13.721,20.9015v73.3996s3.4377,3.1398,4.3359,3.9189c2.0936,2.0317,3.3933,3.0679,5.4336,3.0679,1.8303,0,3.4496-.9736,4.2538-1.5803l.6167-.4958v-45.5286l32.1977-21.5253,21.5063,28.7339-34.3264,21.9285v9.0589s13.8928,6.937,18.8128,9.3592c2.2294,1.0962,4.5341,2.0982,7.5664,2.0982,3.3555,0,6.6136-1.2814,8.316-2.0527,1.5371-.7269,2.8812-1.3375,3.2122-1.4876v-46.1132l32.1962-21.5253,21.5039,28.7339-34.3239,21.9285v9.0589s13.8943,6.937,18.8091,9.3592c2.2267,1.0962,4.9134,1.6819,7.6746,1.6819,3.5954,0,6.5834-1.5305,8.2299-2.3227l4.1872-2.1597v-42.5441l-8.2977-10.7477,15.2827-12.9883,12.3038,15.8319v74.8939c-20.1023,0-29.804,26.2164-64.7002,26.2164-20.3122,0-30.5757-9.359-30.5757-21.1899,0-8.9936,7.8752-16.0259,17.3764-16.0259,10.9858,0,16.2643,5.1859,19.0229,9.2364l-.8761.4763c-1.5566-1.6012-3.8784-3.4789-8.2913-3.4789-4.8039,0-9.446,3.4489-9.446,9.1789,0,8.93,10.2843,16.4359,24.0521,16.4359,13.0446,0,34.1492-9.3605,34.1492-27.5868v-15.9294l-29.1588,15.7978-29.1183-14.3806-28.1667,14.3806-29.0949-15.1689-18.1975,14.9834-15.769-15.2666-18.0242,15.2771-16.4755-14.9768-14.5344,14.9768-19.4115-15.2313-18.238,15.1687-16.9174-15.341v-44.6372l-7.7385-11.2186-7.612,5.2459v43.8372l10.656,9.5484-14.1551,12.6151-15.8015-15.3203-15.7168,15.234-17.6396-8.0332c-6.2289-2.7912-10.9285-6.3459-14.3755-13.3444-7.153,6.235-16.0713,14.4627-23.2257,21.1923-5.7114-3.6905-15.8656-9.6162-32.8977-9.6162-24.6936,0-46.4815,11.8399-46.4815,25.8654,0,8.8959,6.47,13.5977,14.2592,13.5977l-.0833,1.3024c-10.4579,0-15.9072-7.172-15.9072-15.5041,0-23.6184,29.7638-41.4258,55.8069-43.1745,2.6579-3.5691,6.5258-7.9966,6.5258-20.3782l-.0024-34.7873c0-5.5983,1.8082-7.9603,2.5134-8.8802-.2647.8861-.9855,3.1527-.9855,9.3122l.0012,35.7414c0,11.1182-3.8208,15.3632-6.47,18.914.9438-.0431,1.8735-.0665,2.8003-.0665l1.61.0195c5.7921-6.5483,6.3932-13.8716,6.3932-20.8035,0,0-.0536-24.8933,0-34.8526.0624-11.6925,3.804-16.0445,10.9103-23.1265,1.7221-1.7173,3.4781-3.4516,4.8117-4.7486l-.2998-.3483c-8.6955,6.6355-15.8706,11.9257-27.1512,11.9257-8.9743,0-16.7974-3.9734-25.2921-3.9734-6.4178,0-9.6966,3.0184-10.9495,3.9291C23.6158,14.3845,33.4452,0,48.2,0c10.9414,0,16.1118,4.6587,26.9111,4.6587,6.276,0,11.8373-.8183,16.6529-3.2324l.4185.4059c-3.1666,5.1325-4.4912,12.2353-4.4912,21.2187v23.7135L118.0247,1.3441c3.6007,2.3203,7.4777,5.0006,14.494,5.0006,8.3069,0,11.8151-2.4012,14.6831-4.1107l.3481.2062c-1.7311,5.405-10.0471,19.1489-23.3393,19.1489-7.0136,0-12.4186-3.2142-14.7806-4.6248l-14.5137,21.7418,16.5459,13.3914s7.0555,24.0243,9.8974,33.2712c3.1652,10.2897,6.0188,11.6349,11.9884,14.4094,2.3556,1.0923,4.7389,2.1582,8.1843,3.6956,3.6685,1.6417,4.7701,1.5998,6.6173,1.5998,1.9398,0,3.4092-.8219,3.9188-1.1756V23.908c0-7.5347-2.6164-11.3883-5.1795-13.7829l.3181-.458c2.5736.5168,7.9628,3.6356,10.1124,9.9321,2.1512-8.4939,12.12-17.087,27.6975-15.3724v.7556c-8.5936,1.6861-13.6493,7.9589-13.6493,21.4208v26.4553l22.6563-15.6033,11.9962,15.5394v46.4171l5.1115,4.292c1.6934,1.4211,3.2929,2.5263,5.7829,2.5263,2.2489,0,4.031-1.4979,4.9748-2.2065l-.0144-45.3785ZM241.1753,98.1847l7.0933,5.5723c1.992,1.5605,3.0884,1.8698,4.3006,1.8698,1.6193,0,2.8278-1.0947,2.8278-1.0947l.0261-37.4628-14.2477-14.0479v45.1632ZM400.9378,85.9128l16.8706-10.8466-16.8706-22.5939v33.4406ZM343.6528,85.9128l16.873-10.8466-16.873-22.5939v33.4406ZM95.6072,104.9979l8.0044-7.2673c-.3403-.9082-1.4184-4.1877-2.7337-8.2604-2.7079-9.9306-6.8612-24.9913-6.8612-24.9913l-6.3255-5.9413v6.7035c0,14.4106-10.1619,21.6348-23.987,27.6194,19.3291,1.0896,29.813,10.3194,31.903,12.1373M460.3347,19.9175l-13.3403,13.3537-13.3364-13.3537,13.3364-13.3549,13.3403,13.3549Z"/>
    <path class="cls-1" d="M290.3204,24.0978c0-4.2399-.7352-9.9503-5.1586-13.9682l.3142-.4661c5.0647,1.4121,8.9495,6.2026,10.1112,9.9191,3.5681-12.3253,17.1168-16.7519,27.7572-15.3503v.6513c-7.8701,1.6324-13.7208,7.2149-13.7208,20.9025v73.3984s3.4377,3.141,4.3359,3.9189c2.0936,2.0319,3.3933,3.0694,5.4336,3.0694,1.8304,0,3.4494-.975,4.2538-1.5805.3064-.2347.6791-.548.6791-.548l.7145,1.0647-18.951,15.6047-15.769-15.2679V24.0978Z"/>
    <path class="cls-1" d="M222.6548,104.8434l-.7652-1.0204c-.9438.7098-2.7259,2.2065-4.9748,2.2065-2.49,0-4.0909-1.1052-5.7831-2.5263-2.9019-2.4285-5.1115-4.292-5.1115-4.292v-46.4171l-11.9974-15.5382-22.6549,15.6021v-26.4553c0-13.4607,5.0543-19.7335,13.6491-21.4195v-.7569c-15.5772-1.7146-25.5463,6.8798-27.6987,15.3724-2.1497-6.2965-7.5376-9.4153-10.111-9.9321l-.3181.4592c2.5631,2.3934,5.1793,6.2482,5.1793,13.7829v81.4814l15.8017,15.3203,14.1549-12.6151-10.656-9.5469v-43.8387l7.612-5.2459,7.7385,11.2186v44.6385l16.9176,15.3398,19.0176-15.8173Z"/>
    <path class="cls-1" d="M460.334,19.918l-13.3387,13.3537-13.3378-13.3537,13.3378-13.3549,13.3387,13.3549ZM400.2371,126.0055c-2.7586-4.0519-8.0357-9.2378-19.0229-9.2378-9.5009,0-17.3749,7.0338-17.3749,16.0262,0,11.8307,10.2636,21.1899,30.5745,21.1899,34.896,0,44.5992-26.2166,64.7-26.2166V52.8733l-12.3023-15.8317-15.2842,12.9883,8.2991,10.7477v60.2534c0,18.2263-21.1048,27.5868-34.1504,27.5868-13.768,0-24.0511-7.506-24.0511-16.4372,0-5.7287,4.6423-9.1776,9.4463-9.1776,4.413,0,6.7332,1.8776,8.2911,3.4777l.8749-.4751Z"/>
    <path class="cls-1" d="M95.606,104.998l8.0059-7.2671c-.3403-.9082-1.4184-4.1877-2.7352-8.2618-2.7064-9.9294-6.8598-24.9898-6.8598-24.9898l-6.3255-5.9413v6.7035c0,14.4091-10.1619,21.6348-23.987,27.6192,19.3279,1.0884,29.8132,10.3196,31.9015,12.1373M92.1827,1.8324c-3.1666,5.1311-4.4912,12.2353-4.4912,21.2184v23.7137L118.0249,1.3444c3.6008,2.3188,7.4777,5.0004,14.4939,5.0004,8.3057,0,11.8151-2.401,14.6831-4.1104l.3481.2062c-1.7312,5.405-10.0474,19.1487-23.3406,19.1487-7.0124,0-12.4174-3.2139-14.7794-4.6245l-14.5137,21.7418,16.5459,13.3914s7.0555,24.024,9.8974,33.2712c3.1652,10.2894,6.0188,11.6349,11.9884,14.4091,2.3557,1.0923,4.7374,2.1572,8.1843,3.6958,3.6683,1.6415,4.77,1.5998,6.616,1.5998,2.2448,0,3.8587-1.0989,4.0868-1.3036l.6662.8573-16.5498,15.9962s-10.3262-4.7072-17.6396-8.032c-6.2289-2.7915-10.9285-6.3462-14.3755-13.3446-7.153,6.2353-16.0713,14.463-23.2258,21.1926-5.7114-3.6917-15.8655-9.6162-32.8977-9.6162-24.6936,0-46.483,11.8397-46.483,25.8642,0,8.8971,6.4715,13.5989,14.2607,13.5989l-.0848,1.3024C5.4497,151.589.0003,144.4169.0003,136.0834.0003,112.4664,29.764,94.6577,55.8069,92.9104c2.6582-3.5691,6.5263-7.9981,6.5263-20.3782,0,0-.0027-33.326-.0027-34.7876,0-5.5981,1.8082-7.9615,2.5121-8.8803l.0156.0119c-.2633.8846-.9999,3.1396-.9999,9.3002v35.7414c0,11.117-3.8196,15.3632-6.4688,18.914.9438-.0429,1.8735-.0665,2.8003-.0665.5436,0,1.0793.0066,1.6088.0198,5.7921-6.5497,6.3944-13.8731,6.3944-20.8035,0,0-.0536-24.8947,0-34.8541.0624-11.691,3.8041-16.043,10.9103-23.1251,1.7221-1.7173,3.4781-3.4516,4.8117-4.7486l-.2998-.3486c-8.6967,6.6357-15.8721,11.926-27.1512,11.926-8.9743,0-16.7989-3.9734-25.2921-3.9734-6.4178,0-9.6966,3.017-10.9495,3.9291l-.2372-.197C23.616,14.3849,33.4455.0004,48.2002.0004,59.1417.0004,64.312,4.659,75.1113,4.659c6.276,0,11.8372-.8183,16.6529-3.2337l.4185.4071Z"/>
    <path class="cls-1" d="M343.6529,85.9131l16.873-10.8466-16.873-22.5939v33.4406ZM324.2636,58.5679l32.1962-21.5253,21.5078,28.7339-34.3264,21.9285v9.0589s13.8928,6.937,18.8128,9.3592c2.2294,1.0947,4.5341,2.097,7.5664,2.097,3.3555,0,6.6136-1.2802,8.316-2.0514,1.7731-.8378,3.2892-1.5242,3.2892-1.5242v1.8179l-28.2437,14.4367-29.1183-15.1818v-47.1494Z"/>
    <path class="cls-1" d="M751.9714,85.9131l16.8705-10.8466-16.8705-22.5939v33.4406ZM732.5821,58.5679l32.1938-21.5253,21.5087,28.7339-34.3288,21.9285v9.0589s13.9006,6.937,18.8155,9.3592c2.2252,1.0947,4.5329,2.097,7.5649,2.097,3.3531,0,6.6148-1.2802,8.3162-2.0514.4966-.2272,2.6165-1.2176,2.6165-1.2176l.6138,1.3899-28.1823,14.5581-29.1182-15.1818v-47.1494Z"/>
    <path class="cls-1" d="M400.9379,85.9131l16.8706-10.8466-16.8706-22.5939v33.4406ZM381.5487,58.5679l32.1962-21.5253,21.5039,28.7339-34.3252,21.9285v9.0589s13.8955,6.937,18.8091,9.3592c2.2277,1.0947,4.9146,1.6819,7.6759,1.6819,3.5954,0,6.5821-1.5305,8.2299-2.3228,1.5591-.7946,4.5665-2.3554,4.5665-2.3554v1.7682l-29.5381,16.004-29.1183-14.3806v-47.9506Z"/>
    <path class="cls-1" d="M221.8737,58.4454l31.4101-21.383,21.4164,20.2125v41.474s3.2617,2.5904,6.1324,4.9719c2.5448,2.0943,3.9135,2.3827,4.8834,2.3827,1.8043,0,3.4847-1.3962,4.624-2.4546l.8356,1.0779-18.8793,15.9974-16.4755-14.9768-14.5344,14.9768-19.4127-15.2313v-47.0475ZM241.1755,98.1851s5.8755,4.6248,7.093,5.5723c1.992,1.5605,3.0884,1.8698,4.3008,1.8698,1.6193,0,2.8276-1.0947,2.8276-1.0947l.0261-37.4628-14.2475-14.0476v45.163Z"/>
    <path class="cls-1" d="M680.141,52.841l-12.1434-15.7729-23.6965,15.7729-12.1605-15.799-14.8578,11.4209,7.7046,9.9384v46.9198l18.0114,15.3932,12.6102-11.8801-11.3222-10.1539v-43.9991l9.0304-6.0081,7.5011,9.6671v46.9809l18.0074,15.3932,12.6141-11.8801-11.3261-10.1332v-44.0174l9.5062-6.1907,7.6705,9.8107v47.0175l18.0126,15.3527,17.9748-14.7826-.5996-.8704s-.2608.1816-.5385.3603c-.7496.4946-1.6712,1.0347-3.5315,1.0347-2.4195,0-4.6111-1.0452-6.7386-2.9858-1.3936-1.2566-5.281-4.7591-5.281-4.7591v-45.847l-12.1644-15.7963-24.2831,15.8134Z"/>
    <path class="cls-1" d="M845.6052,37.8542l-21.4085,29.364,17.4155,12.7245v21.5058l-25.411,19.4502c-1.5917-1.0988-7.4828-5.3502-16.6476-5.3502-7.629,0-12.2986,3.522-14.9854,5.3894l-.8865-.7688,22.5727-30.9613-16.0649-9.0811v-23.7762l24.9077-19.4034c2.224,1.5985,6.7776,4.8949,15.3349,4.8949,7.5662,0,12.1186-3.4162,14.0245-4.9119l1.1486.9241ZM839.0582,44.2157l-.4381-.3549c-1.6961,1.9588-9.055,9.799-18.1598,9.799-6.2145,0-9.5401-2.2355-10.9741-3.2207v17.9368l8.3864,4.8922,21.1855-29.0522ZM822.3024,91.4616l-10.4201-7.3468-21.8127,29.9317.3859.3927c3.0752-3.094,10.0785-10.0091,19.5809-10.0091,6.9446,0,10.8763,2.5082,12.266,3.2064v-16.1749Z"/>
    <path class="cls-1" d="M582.8979,48.4597l14.8644-11.4212,12.15,15.8161v45.8119s2.576,2.3162,4.3866,3.9786c2.2162,2.0332,4.3725,2.6791,6.3216,2.6791,2.3217,0,3.8913-1.0191,4.4754-1.4094.1421.1894.5855.7595.5855.7595l-17.1679,15.9479c-2.5604-2.3269-17.9109-15.2354-17.9109-15.2354v-46.9417l-7.7046-9.9854ZM597.7492,6.5627l-13.3454,13.3549,13.3454,13.3537,13.3363-13.3537-13.3363-13.3549Z"/>
    <path class="cls-1" d="M544.8124,103.6087c5.5444,0,9.4202-1.0362,11.046-1.4187l-.0039-76.4181c-2.8134-.1016-6.2706-.5363-8.0554-.7647v41.5145c0,20.1067-20.5664,27.0322-26.2973,30.0114,6.2904,4.2279,14.4238,7.0755,23.3106,7.0755M520.648,95.8624c3.7636-3.6225,7.2302-9.9686,7.2302-19.9385V20.6136c-1.1017-.3015-3.3975-.9109-4.4027-1.1315v56.5084c0,10.8886-3.6932,15.2184-5.5013,17.7932.704.595,1.8969,1.5347,2.6738,2.0788M589.2083,2.2842c-.3247,2.6309-3.5525,23.6628-27.46,23.6628-1.4028.0078-3.1942-.0405-4.3581-.1019v75.8935c12.5125-3.8626,22.8465-14.1927,27.3284-28.7351l.5762.0731c-1.7365,26.6171-23.0968,47.5915-48.8557,47.5915-27.9621,0-48.6887-21.6255-48.6887-51.1801,0-19.4712,9.8165-37.0776,25.0468-45.7283l.352.4046c-7.3395,8.5931-11.2686,18.7377-11.2686,31.5471,0,16.1347,6.2352,29.0379,15.1601,37.2605,1.9644-2.8029,4.9146-7.6456,4.9146-17.7383V19.1365c-.7835-.1633-4.2421-.9619-7.6954-.9619-9.9781,0-18.474,2.6959-25.9933,11.4653l-.4785-.2623C490.2077,12.3688,502.3032.0607,524.4169.0607c19.9158,0,30.1925,7.4826,45.6381,7.4826,10.334,0,16.4286-4.0636,18.6449-5.5162l.5085.2572Z"/>
  </g>
  <g>
    <path class="cls-2" d="M254.1554,193.2391c0,5.255-2.9235,8.5741-8.4141,8.5741h-5.0573v9.1648h-4.0294v-26.3897h8.4141c6.8346,0,9.0867,3.6729,9.0867,8.6509M240.684,188.0244v10.3514h5.255c2.1325,0,4.1075-1.1059,4.1075-5.1366,0-3.0419-1.4221-5.2147-4.1075-5.2147h-5.255Z"/>
    <path class="cls-2" d="M270.8456,198.8496v8.7315c0,.6701.2771,1.0266.9485,1.0266.3552,0,.6323,0,.9472-.1184l.4749,2.1338c-.9485.4736-1.6992.631-3.0029.631-2.7661,0-3.1213-1.975-3.1213-2.6867-.592,1.0669-1.8566,2.6867-5.4112,2.6867-4.0698,0-5.9667-2.0934-5.9667-5.4918,0-4.8986,3.9904-6.439,8.336-6.439,1.0279,0,2.6074.1978,3.0419.2368v-1.7382c0-2.6464-2.2509-2.8442-4.503-2.8442-2.3315,0-4.1882.5139-5.5309,1.0279l.6323-3.1226c1.3037-.4736,3.6729-.9862,5.9654-.9862,4.8192,0,7.1897,1.3817,7.1897,6.953M259.6654,205.368c0,2.6867,2.3706,2.8051,3.319,2.8051,2.2509,0,4.1075-1.6992,4.1075-4.0698v-1.8957c-.592-.0403-1.8957-.1587-2.6867-.1587-3.0419,0-4.7398.7911-4.7398,3.319"/>
    <path class="cls-2" d="M286.7276,192.8835l-.7104,3.1213c-.9875-.3552-1.897-.553-3.0822-.553-1.6589,0-2.8442,1.7382-3.2397,2.489v13.0368h-3.7926v-18.7654h3.7926v2.4486c.7507-1.7773,2.2131-2.7648,3.5168-2.7648,1.4221,0,2.6074.5139,3.5155.9875"/>
    <path class="cls-2" d="M294.787,192.2123h3.911v3.0029h-3.911v10.7846c0,1.936.5139,2.1728,1.936,2.1728.5139,0,1.4221-.2368,1.8566-.4736l.553,2.8442c-1.2646.4346-2.0544.7117-4.1478.7117-2.6073,0-3.911-1.1059-3.911-4.7815v-11.2582h-3.0029l.6323-3.0029h2.3706v-5.0169l3.7133-1.2256v6.2426Z"/>
    <path class="cls-2" d="M327.222,201.6542c0,7.783-4.3066,9.6006-9.0867,9.6006-4.8192,0-9.0854-1.8176-9.0854-9.6006,0-7.7427,4.2662-9.7581,9.0854-9.7581,4.8595,0,9.0867,2.0154,9.0867,9.7581M313.039,201.6542c0,5.7677,2.0947,6.7162,5.0963,6.7162,2.9235,0,5.1366-.9485,5.1366-6.7162,0-5.808-2.2131-6.8736-5.1366-6.8736-3.0016,0-5.0963,1.0656-5.0963,6.8736"/>
    <path class="cls-2" d="M341.6819,184.1529l-.6714,3.081c-.8301-.1978-1.7382-.4346-2.5293-.4346-1.6589,0-2.1338.3955-2.1338,2.2522v3.1603h4.0698v3.0029h-4.0698v15.7638h-3.7523v-15.7638h-3.0029l.6323-3.0029h2.3706v-2.6464c0-3.319.592-6.0448,5.2147-6.0448,1.4624,0,2.6867.1587,3.872.6323"/>
    <path class="cls-2" d="M432.0703,197.1503v.6232c0,3.0042-.5855,5.5426-1.7395,7.6165-1.1528,2.0648-2.7245,3.6079-4.7047,4.6305-1.9906,1.0239-4.2324,1.5262-6.7422,1.5262-1.2555,0-2.4551-.1314-3.5897-.3916-1.2282-.2966-2.3901-.7338-3.4791-1.3388-2.1103-1.1528-3.7562-2.7804-4.9558-4.8725-1.1905-2.0921-1.7955-4.4926-1.7955-7.208,0-2.7062.605-5.1054,1.7955-7.1793,1.1996-2.0921,2.8364-3.7003,4.9285-4.8452,2.0921-1.1436,4.464-1.72,7.0961-1.72,2.4642,0,4.6487.4931,6.547,1.4793.3071.1574.6219.3253.9199.5295.0846.0377.1587.0833.2329.1392,2.1572,1.4325,3.682,3.3854,4.5564,5.877l.1769.5491h-4.827c-.4463-1.0226-1.0031-1.8879-1.7109-2.5761-.2511-.2693-.5386-.5113-.8457-.7247-1.3297-.9485-3.0133-1.4325-5.0495-1.4325-1.7486,0-3.3112.3903-4.6878,1.1619-1.3856.7819-2.4642,1.9165-3.2358,3.4231-.7807,1.5066-1.1632,3.2735-1.1632,5.3188,0,2.0648.3825,3.8499,1.1632,5.3565.7715,1.5066,1.8501,2.6412,3.2358,3.4322.7911.4554,1.6276.7715,2.5488.9667.3526.0742.7156.1301,1.0877.1587.3435.0364.6883.056,1.0513.056,1.6732,0,3.1239-.3071,4.343-.9485,1.2178-.6427,2.1572-1.4884,2.826-2.5202.6609-1.0331,1.033-2.139,1.1072-3.3295h-7.4682l1.4793-3.7575h10.8991Z"/>
    <path class="cls-2" d="M461.1199,210.9617h-5.0924l-2.031-5.4671-.0013-.0013h-12.5762l-2.0141,5.4684h-5.03l10.38-26.378h5.9915l10.3735,26.378ZM452.6083,201.7618l-4.8608-13.0771h-.1405l-4.8153,13.0771h9.8166Z"/>
    <polygon class="cls-2" points="483.8331 206.9709 482.2627 210.9626 465.6193 210.9626 465.6193 184.5846 470.3058 184.5846 470.3058 206.9709 483.8331 206.9709"/>
    <path class="cls-2" d="M512.6128,210.9617h-5.0937l-2.031-5.4671v-.0013h-12.5775l-2.0128,5.4684h-5.03l10.38-26.378h5.9915l10.3735,26.378ZM504.1011,201.7618l-4.8608-13.0771h-.1405l-4.8153,13.0771h9.8166Z"/>
    <path class="cls-2" d="M540.8178,197.7694c0,4.3118-1.1475,7.584-3.4361,9.827-2.2886,2.2418-5.406,3.3659-9.3508,3.3659h-10.8874v-26.378h10.8874c3.9449,0,7.0622,1.1241,9.3508,3.3581,2.2886,2.243,3.4361,5.5231,3.4361,9.827M536.0845,197.7694c0-3.1005-.7494-5.4359-2.2496-7.0141-1.5079-1.5782-3.6482-2.3667-6.4286-2.3667h-5.6076v18.7693h5.6076c2.7804,0,4.9207-.7885,6.4286-2.3667,1.5001-1.5782,2.2496-3.9136,2.2496-7.0219"/>
    <path class="cls-2" d="M569.8287,210.9617h-5.0924l-2.031-5.4671-.0013-.0013h-12.5762l-2.0141,5.4684h-5.03l10.38-26.378h5.9914l10.3735,26.378ZM561.317,201.7618l-4.8609-13.0771h-.1405l-4.8153,13.0771h9.8166Z"/>
    <path class="cls-2" d="M589.194,200.5033c1.9451-.4918,3.4296-1.4143,4.4679-2.7648,1.0304-1.3596,1.547-3.0315,1.547-5.0313,0-2.5072-.8132-4.4913-2.4369-5.9433-1.6251-1.4533-3.9137-2.1793-6.8658-2.1793h-11.5471v26.378h4.6553v-22.575h6.2582c1.6797,0,2.9613.376,3.8668,1.1254.8977.7572,1.344,1.8202,1.344,3.1941,0,1.4065-.4463,2.4851-1.3284,3.2345-.8899.7494-2.1793,1.1254-3.8824,1.1254h-3.414v3.8109h1.5301c2.9027,1.6224,6.184,6.1944,7.3251,10.0846h4.9402c-1.0747-3.6859-4.2376-8.7276-6.4598-10.4594"/>
    <rect class="cls-2" x="600.8096" y="184.5846" width="4.6553" height="26.378"/>
    <path class="cls-2" d="M361.3555,232.3301c-3.6352,0-6.5822,2.9469-6.5822,6.5821s2.9469,6.5808,6.5822,6.5808,6.5821-2.9469,6.5821-6.5808-2.9469-6.5821-6.5821-6.5821"/>
    <path class="cls-2" d="M359.2578,213.07c-.9134,2.6841.7169,4.222,1.5418,4.7711,1.5483,1.0318,3.4309,2.096,10.9251,2.3341,9.2741.2953,13.4375.5569,16.7188,2.744,3.7965,2.5306,7.1962,8.8031,2.5202,15.9993-4.637,7.1377-14.8479,6.8645-18.2619,6.2842,6.2582-.8301,10.1484-2.9248,11.2569-6.439,1.1085-3.5129-.4658-5.8171-2.3341-6.9595-2.3341-1.426-7.3459-1.6055-11.0006-1.8957-3.885-.3071-10.0977-.4788-12.8494-2.0791-3.1798-1.8488-4.8153-4.6969-4.0385-8.2423.7767-3.5441,4.477-5.9056,5.5218-6.5171"/>
    <path class="cls-2" d="M388.4682,187.923c-1.0773.7676-2.3914,1.2243-3.8148,1.2243-3.6339,0-6.5808-2.9469-6.5808-6.5821,0-.4632.0495-.916.1405-1.3531-1.6459-.4307-3.3802-.6662-5.1757-.6662-10.3943,0-18.8188,7.7193-18.8188,17.2406s8.4245,17.2406,18.8188,17.2406,18.8188-7.7193,18.8188-17.2406c0-3.669-1.2556-7.0687-3.388-9.8635M383.7531,197.7865c0,5.6987-4.7984,10.3175-10.7157,10.3175s-10.717-4.6188-10.717-10.3175,4.7984-10.3175,10.717-10.3175,10.7157,4.6188,10.7157,10.3175"/>
    <path class="cls-2" d="M388.4677,187.9231c1.6732-1.1931,2.7674-3.146,2.7674-5.3578,0-3.6339-2.9456-6.5808-6.5809-6.5808-3.1707,0-5.8171,2.2431-6.4416,5.2277,4.2064,1.1007,7.8091,3.5064,10.2551,6.7109"/>
  </g>
</svg>