<?xml version="1.0" encoding="UTF-8"?><svg id="uuid-77102795-7ab9-4732-bcd0-67b4315a4eeb" xmlns="http://www.w3.org/2000/svg" viewBox="0 0 671.77 235"><defs><style>.uuid-e489fd61-2912-42fa-baae-2764ceace0af{fill:#000;}.uuid-e489fd61-2912-42fa-baae-2764ceace0af,.uuid-b21105f6-de3e-4af1-8d34-71243288dd6e{stroke-width:0px;}.uuid-b21105f6-de3e-4af1-8d34-71243288dd6e{fill:#373b37;}</style></defs><path class="uuid-e489fd61-2912-42fa-baae-2764ceace0af" d="M421.28,104.67c3.88,0,6.59-.73,7.73-.99v-53.49c-1.97-.07-4.39-.38-5.64-.54v29.06c0,14.07-14.39,18.92-18.4,21,4.4,2.96,10.1,4.95,16.32,4.95M404.37,99.25c2.63-2.54,5.06-6.98,5.06-13.96v-38.71c-.77-.21-2.38-.64-3.08-.79v39.55c0,7.62-2.58,10.65-3.85,12.45.49.42,1.33,1.07,1.87,1.45M452.35,33.75c-.23,1.84-2.49,16.56-19.22,16.56-.98,0-2.24-.03-3.05-.07v53.12c8.76-2.7,15.99-9.93,19.13-20.11l.4.05c-1.22,18.63-16.17,33.31-34.19,33.31-19.57,0-34.08-15.14-34.08-35.82,0-13.63,6.87-25.95,17.53-32l.25.28c-5.14,6.01-7.89,13.11-7.89,22.08,0,11.29,4.36,20.32,10.61,26.08,1.37-1.96,3.44-5.35,3.44-12.42v-39.26c-.55-.11-2.97-.67-5.39-.67-6.98,0-12.93,1.89-18.19,8.02l-.33-.18c1.69-11.9,10.16-20.52,25.64-20.52,13.94,0,21.13,5.24,31.94,5.24,7.23,0,11.5-2.84,13.05-3.86l.36.18ZM458.33,36.75l9.34,9.35-9.34,9.35-9.34-9.35,9.34-9.35ZM631.81,58.65l-14.98,20.55,12.19,8.91v15.05l-17.79,13.61c-1.11-.77-5.24-3.74-11.65-3.74-5.34,0-8.61,2.47-10.49,3.77l-.62-.54,15.8-21.67-11.24-6.36v-16.64l17.43-13.58c1.56,1.12,4.74,3.43,10.73,3.43,5.3,0,8.48-2.39,9.82-3.44l.8.65ZM627.23,63.1l-.31-.25c-1.19,1.37-6.34,6.86-12.71,6.86-4.35,0-6.68-1.56-7.68-2.25v12.55l5.87,3.42,14.83-20.33ZM615.5,96.17l-7.29-5.14-15.27,20.95.27.28c2.15-2.17,7.05-7.01,13.7-7.01,4.86,0,7.61,1.76,8.59,2.24v-11.32ZM447.94,66.07l10.4-7.99,8.5,11.07v32.06s1.8,1.62,3.07,2.79c1.55,1.42,3.06,1.87,4.42,1.87,1.53,0,2.6-.63,3.06-.94v-31.91l-5.39-6.96,10.4-7.99,8.51,11.06,16.59-11.04,8.5,11.04,17-11.07,8.51,11.06v32.09l3.7,3.33c1.49,1.36,3.02,2.09,4.72,2.09,1.3,0,1.95-.38,2.47-.73l.31-.21v-32.56l22.53-15.07,15.05,20.11-24.03,15.35v6.34s9.73,4.86,13.17,6.55c1.56.77,3.17,1.47,5.3,1.47,2.35,0,4.63-.9,5.82-1.44l1.83-.85.43.97-19.73,10.19-19.99-10.42-12.48,10.27-12.61-10.75v-32.91l-5.37-6.87-6.65,4.33v30.81l7.93,7.09-8.83,8.31-12.6-10.77v-32.88l-5.25-6.77-6.32,4.21v30.8l7.93,7.11-8.83,8.31-12.61-10.77-11.53,10.71c-1.79-1.63-12.54-10.66-12.54-10.66v-32.86l-5.39-6.99ZM566.27,92.29l11.81-7.59-11.81-15.81v23.41ZM195.25,73.06l21.98-14.97,14.99,14.15v29.03s2.28,1.81,4.29,3.48c1.78,1.47,2.74,1.67,3.42,1.67,1.26,0,2.44-.98,3.24-1.72v-55.68c-.01-2.97-.53-6.96-3.63-9.78l.22-.33c3.54.99,6.26,4.34,7.08,6.94,2.5-8.63,11.98-11.72,19.43-10.74v.46c-5.51,1.14-9.6,5.05-9.6,14.63v51.37s2.41,2.2,3.03,2.74c1.47,1.42,2.38,2.15,3.8,2.15,1.28,0,2.41-.68,2.98-1.11l.43-.35v-31.87l22.54-15.07,15.05,20.11-24.03,15.35v6.34s9.72,4.86,13.17,6.55c1.56.77,3.17,1.47,5.3,1.47,2.35,0,4.63-.9,5.82-1.44,1.08-.51,2.02-.94,2.25-1.04v-32.28l22.53-15.07,15.05,20.11-24.02,15.35v6.34s9.72,4.86,13.16,6.55c1.56.77,3.44,1.18,5.37,1.18,2.52,0,4.61-1.07,5.76-1.63l2.93-1.51v-29.78l-5.81-7.52,10.7-9.09,8.61,11.08v52.42c-14.07,0-20.86,18.35-45.28,18.35-14.22,0-21.4-6.55-21.4-14.83,0-6.29,5.51-11.22,12.16-11.22,7.69,0,11.38,3.63,13.31,6.46l-.61.33c-1.09-1.12-2.71-2.43-5.8-2.43-3.36,0-6.61,2.41-6.61,6.42,0,6.25,7.2,11.5,16.83,11.5,9.13,0,23.9-6.55,23.9-19.31v-11.15l-20.41,11.06-20.38-10.07-19.71,10.07-20.36-10.62-12.74,10.49-11.04-10.69-12.62,10.69-11.53-10.48-10.17,10.48-13.59-10.66-12.77,10.62-11.84-10.74v-31.24l-5.42-7.85-5.33,3.67v30.68l7.46,6.68-9.91,8.83-11.06-10.72-11,10.66-12.35-5.62c-4.36-1.95-7.65-4.44-10.06-9.34-5.01,4.36-11.25,10.12-16.26,14.83-4-2.58-11.1-6.73-23.03-6.73-17.28,0-32.53,8.29-32.53,18.1,0,6.23,4.53,9.52,9.98,9.52l-.06.91c-7.32,0-11.13-5.02-11.13-10.85,0-16.53,20.83-28.99,39.06-30.22,1.86-2.5,4.57-5.6,4.57-14.26v-24.35c0-3.92,1.26-5.57,1.76-6.22-.19.62-.69,2.21-.69,6.52v25.02c0,7.78-2.67,10.75-4.53,13.24.66-.03,1.31-.05,1.96-.05h1.13c4.05-4.57,4.47-9.7,4.47-14.55,0,0-.04-17.42,0-24.39.04-8.18,2.66-11.23,7.64-16.19,1.21-1.2,2.43-2.42,3.37-3.32l-.21-.24c-6.09,4.64-11.11,8.35-19,8.35-6.28,0-11.76-2.78-17.7-2.78-4.49,0-6.79,2.11-7.66,2.75,2.38-4.48,9.25-14.55,19.58-14.55,7.66,0,11.28,3.26,18.84,3.26,4.39,0,8.29-.57,11.66-2.26l.29.28c-2.22,3.59-3.14,8.56-3.14,14.85v16.6l21.23-31.79c2.52,1.62,5.23,3.5,10.14,3.5,5.81,0,8.27-1.68,10.28-2.88l.24.14c-1.21,3.78-7.03,13.4-16.34,13.4-4.91,0-8.69-2.25-10.35-3.24l-10.16,15.22,11.58,9.37s4.94,16.81,6.93,23.29c2.22,7.2,4.21,8.14,8.39,10.09,1.65.76,3.32,1.51,5.73,2.59,2.57,1.15,3.34,1.12,4.63,1.12,1.36,0,2.39-.58,2.74-.82v-55.99c0-5.27-1.83-7.97-3.63-9.65l.22-.32c1.8.36,5.57,2.54,7.08,6.95,1.51-5.95,8.48-11.96,19.39-10.76v.53c-6.01,1.18-9.55,5.57-9.55,14.99v18.52l15.86-10.92,8.4,10.88v32.49l3.58,3c1.19.99,2.3,1.77,4.05,1.77,1.57,0,2.82-1.05,3.48-1.54v-31.76ZM208.76,100.88l4.96,3.9c1.39,1.09,2.16,1.31,3.01,1.31,1.13,0,1.98-.77,1.98-.77l.02-26.22-9.97-9.83v31.61ZM320.58,92.29l11.81-7.59-11.81-15.81v23.41ZM280.48,92.29l11.81-7.59-11.81-15.81v23.41ZM106.87,105.64l5.6-5.09c-.24-.64-.99-2.93-1.91-5.78-1.9-6.95-4.8-17.49-4.8-17.49l-4.43-4.16v4.69c0,10.09-7.11,15.14-16.79,19.33,13.53.76,20.87,7.22,22.33,8.5M362.15,46.1l-9.34,9.35-9.33-9.35,9.33-9.35,9.34,9.35Z"/><path class="uuid-e489fd61-2912-42fa-baae-2764ceace0af" d="M243.16,49.02c0-2.97-.51-6.96-3.61-9.78l.22-.33c3.54.99,6.26,4.34,7.08,6.94,2.5-8.63,11.98-11.72,19.43-10.74v.46c-5.51,1.14-9.6,5.05-9.6,14.63v51.37s2.41,2.2,3.03,2.74c1.47,1.42,2.38,2.15,3.8,2.15,1.28,0,2.41-.68,2.98-1.11.21-.16.48-.38.48-.38l.5.75-13.26,10.92-11.04-10.69v-56.94Z"/><path class="uuid-e489fd61-2912-42fa-baae-2764ceace0af" d="M195.8,105.54l-.54-.71c-.66.5-1.91,1.54-3.48,1.54-1.74,0-2.86-.77-4.05-1.77-2.03-1.7-3.58-3-3.58-3v-32.49l-8.4-10.88-15.86,10.92v-18.52c0-9.42,3.54-13.81,9.55-14.99v-.53c-10.9-1.2-17.88,4.82-19.39,10.76-1.5-4.41-5.28-6.59-7.08-6.95l-.22.32c1.79,1.68,3.63,4.37,3.63,9.65v57.03l11.06,10.72,9.91-8.83-7.46-6.68v-30.68l5.33-3.67,5.42,7.85v31.24l11.84,10.74,13.31-11.07Z"/><path class="uuid-e489fd61-2912-42fa-baae-2764ceace0af" d="M362.15,46.1l-9.34,9.35-9.34-9.35,9.34-9.35,9.34,9.35ZM320.09,120.35c-1.93-2.84-5.62-6.47-13.31-6.47-6.65,0-12.16,4.92-12.16,11.22,0,8.28,7.18,14.83,21.4,14.83,24.42,0,31.22-18.35,45.28-18.35v-52.42l-8.61-11.08-10.7,9.09,5.81,7.52v42.17c0,12.76-14.77,19.31-23.9,19.31-9.64,0-16.83-5.25-16.83-11.5,0-4.01,3.25-6.42,6.61-6.42,3.09,0,4.71,1.31,5.8,2.43l.61-.33Z"/><path class="uuid-e489fd61-2912-42fa-baae-2764ceace0af" d="M106.87,105.64l5.6-5.09c-.24-.64-.99-2.93-1.91-5.78-1.89-6.95-4.8-17.49-4.8-17.49l-4.43-4.16v4.69c0,10.09-7.11,15.14-16.79,19.33,13.53.76,20.87,7.22,22.33,8.5M104.48,33.44c-2.22,3.59-3.14,8.56-3.14,14.85v16.6l21.23-31.79c2.52,1.62,5.23,3.5,10.14,3.5,5.81,0,8.27-1.68,10.28-2.88l.24.14c-1.21,3.78-7.03,13.4-16.34,13.4-4.91,0-8.69-2.25-10.34-3.24l-10.16,15.22,11.58,9.37s4.94,16.81,6.93,23.29c2.22,7.2,4.21,8.14,8.39,10.09,1.65.76,3.32,1.51,5.73,2.59,2.57,1.15,3.34,1.12,4.63,1.12,1.57,0,2.7-.77,2.86-.91l.47.6-11.58,11.2s-7.23-3.29-12.35-5.62c-4.36-1.95-7.65-4.44-10.06-9.34-5.01,4.36-11.25,10.12-16.26,14.83-4-2.58-11.1-6.73-23.03-6.73-17.28,0-32.53,8.29-32.53,18.1,0,6.23,4.53,9.52,9.98,9.52l-.06.91c-7.32,0-11.13-5.02-11.13-10.85,0-16.53,20.83-28.99,39.06-30.22,1.86-2.5,4.57-5.6,4.57-14.26,0,0,0-23.33,0-24.35,0-3.92,1.27-5.57,1.76-6.22h.01c-.18.63-.7,2.21-.7,6.52v25.02c0,7.78-2.67,10.75-4.53,13.24.66-.03,1.31-.05,1.96-.05.38,0,.76,0,1.13.01,4.05-4.58,4.48-9.71,4.48-14.56,0,0-.04-17.42,0-24.39.04-8.18,2.66-11.23,7.64-16.19,1.21-1.2,2.43-2.42,3.37-3.32l-.21-.24c-6.09,4.64-11.11,8.35-19,8.35-6.28,0-11.76-2.78-17.7-2.78-4.49,0-6.79,2.11-7.66,2.75l-.17-.14c2.54-4.34,9.42-14.41,19.75-14.41,7.66,0,11.28,3.26,18.84,3.26,4.39,0,8.29-.57,11.66-2.26l.29.28Z"/><path class="uuid-e489fd61-2912-42fa-baae-2764ceace0af" d="M280.48,92.29l11.81-7.59-11.81-15.81v23.41ZM266.91,73.15l22.53-15.07,15.05,20.11-24.03,15.35v6.34s9.72,4.86,13.17,6.55c1.56.77,3.17,1.47,5.3,1.47,2.35,0,4.63-.9,5.82-1.44,1.24-.59,2.3-1.07,2.3-1.07v1.27l-19.77,10.1-20.38-10.63v-33Z"/><path class="uuid-e489fd61-2912-42fa-baae-2764ceace0af" d="M566.27,92.29l11.81-7.59-11.81-15.81v23.41ZM552.7,73.15l22.53-15.07,15.05,20.11-24.03,15.35v6.34s9.73,4.86,13.17,6.55c1.56.77,3.17,1.47,5.29,1.47,2.35,0,4.63-.9,5.82-1.44.35-.16,1.83-.85,1.83-.85l.43.97-19.73,10.19-20.38-10.63v-33Z"/><path class="uuid-e489fd61-2912-42fa-baae-2764ceace0af" d="M320.58,92.29l11.81-7.59-11.81-15.81v23.41ZM307.01,73.15l22.53-15.07,15.05,20.11-24.02,15.35v6.34s9.73,4.86,13.16,6.55c1.56.77,3.44,1.18,5.37,1.18,2.52,0,4.61-1.07,5.76-1.63,1.09-.56,3.2-1.65,3.2-1.65v1.24l-20.67,11.2-20.38-10.07v-33.56Z"/><path class="uuid-e489fd61-2912-42fa-baae-2764ceace0af" d="M195.25,73.06l21.98-14.97,14.99,14.15v29.03s2.28,1.81,4.29,3.48c1.78,1.47,2.74,1.67,3.42,1.67,1.26,0,2.44-.98,3.24-1.72l.58.75-13.21,11.2-11.53-10.48-10.17,10.48-13.59-10.66v-32.93ZM208.76,100.88s4.11,3.24,4.96,3.9c1.39,1.09,2.16,1.31,3.01,1.31,1.13,0,1.98-.77,1.98-.77l.02-26.22-9.97-9.83v31.61Z"/><path class="uuid-e489fd61-2912-42fa-baae-2764ceace0af" d="M516,69.14l-8.5-11.04-16.59,11.04-8.51-11.06-10.4,7.99,5.39,6.96v32.84l12.61,10.77,8.83-8.32-7.92-7.11v-30.8l6.32-4.21,5.25,6.77v32.88l12.6,10.77,8.83-8.32-7.93-7.09v-30.81l6.65-4.33,5.37,6.87v32.91l12.61,10.75,12.58-10.35-.42-.61s-.18.13-.38.25c-.52.35-1.17.72-2.47.72-1.69,0-3.23-.73-4.72-2.09-.98-.88-3.7-3.33-3.7-3.33v-32.09l-8.51-11.06-17,11.07Z"/><path class="uuid-e489fd61-2912-42fa-baae-2764ceace0af" d="M631.81,58.65l-14.98,20.55,12.19,8.91v15.05l-17.79,13.61c-1.11-.77-5.24-3.74-11.65-3.74-5.34,0-8.61,2.47-10.49,3.77l-.62-.54,15.8-21.67-11.24-6.36v-16.64l17.43-13.58c1.56,1.12,4.74,3.43,10.73,3.43,5.3,0,8.48-2.39,9.82-3.44l.8.65ZM627.23,63.1l-.31-.25c-1.19,1.37-6.34,6.86-12.71,6.86-4.35,0-6.68-1.56-7.68-2.25v12.55l5.87,3.42,14.83-20.33ZM615.5,96.17l-7.29-5.14-15.27,20.95.27.27c2.15-2.17,7.05-7.01,13.7-7.01,4.86,0,7.61,1.76,8.59,2.24v-11.32Z"/><path class="uuid-e489fd61-2912-42fa-baae-2764ceace0af" d="M447.94,66.07l10.4-7.99,8.5,11.07v32.06s1.8,1.62,3.07,2.78c1.55,1.42,3.06,1.88,4.42,1.88,1.63,0,2.72-.71,3.13-.99.1.13.41.53.41.53l-12.02,11.16c-1.79-1.63-12.54-10.66-12.54-10.66v-32.86l-5.39-6.99ZM458.33,36.75l-9.34,9.35,9.34,9.35,9.33-9.35-9.33-9.35Z"/><path class="uuid-e489fd61-2912-42fa-baae-2764ceace0af" d="M421.28,104.67c3.88,0,6.59-.73,7.73-.99v-53.49c-1.97-.07-4.39-.38-5.64-.54v29.06c0,14.07-14.39,18.92-18.41,21.01,4.4,2.96,10.1,4.95,16.32,4.95M404.37,99.25c2.63-2.54,5.06-6.98,5.06-13.96v-38.71c-.77-.21-2.38-.64-3.08-.79v39.55c0,7.62-2.58,10.65-3.85,12.45.49.42,1.33,1.07,1.87,1.45M452.35,33.75c-.23,1.84-2.49,16.56-19.22,16.56-.98,0-2.24-.03-3.05-.07v53.12c8.76-2.7,15.99-9.93,19.13-20.11l.4.05c-1.22,18.63-16.17,33.31-34.19,33.31-19.57,0-34.08-15.14-34.08-35.82,0-13.63,6.87-25.95,17.53-32.01l.25.28c-5.14,6.01-7.89,13.11-7.89,22.08,0,11.29,4.36,20.32,10.61,26.08,1.37-1.96,3.44-5.35,3.44-12.42v-39.26c-.55-.11-2.97-.67-5.39-.67-6.98,0-12.93,1.89-18.19,8.02l-.33-.18c1.69-11.9,10.16-20.52,25.64-20.52,13.94,0,21.13,5.24,31.94,5.24,7.23,0,11.5-2.84,13.05-3.86l.36.18Z"/><path class="uuid-b21105f6-de3e-4af1-8d34-71243288dd6e" d="M216.61,172.92c0,3.76-2.09,6.13-6.01,6.13h-3.61v6.55h-2.88v-18.86h6.01c4.88,0,6.49,2.62,6.49,6.18M206.98,169.19v7.4h3.76c1.52,0,2.94-.79,2.94-3.67,0-2.17-1.02-3.73-2.94-3.73h-3.76Z"/><path class="uuid-b21105f6-de3e-4af1-8d34-71243288dd6e" d="M228.53,176.93v6.24c0,.48.2.73.68.73.25,0,.45,0,.68-.08l.34,1.52c-.68.34-1.21.45-2.15.45-1.98,0-2.23-1.41-2.23-1.92-.42.76-1.33,1.92-3.87,1.92-2.91,0-4.26-1.5-4.26-3.92,0-3.5,2.85-4.6,5.96-4.6.73,0,1.86.14,2.17.17v-1.24c0-1.89-1.61-2.03-3.22-2.03s-2.99.37-3.95.73l.45-2.23c.93-.34,2.62-.7,4.26-.7,3.44,0,5.14.99,5.14,4.97M220.54,181.59c0,1.92,1.69,2,2.37,2,1.61,0,2.94-1.21,2.94-2.91v-1.35c-.42-.03-1.35-.11-1.92-.11-2.17,0-3.39.57-3.39,2.37"/><path class="uuid-b21105f6-de3e-4af1-8d34-71243288dd6e" d="M239.88,172.67l-.51,2.23c-.71-.25-1.36-.4-2.2-.4-1.19,0-2.03,1.24-2.32,1.78v9.32h-2.71v-13.41h2.71v1.75c.54-1.27,1.58-1.98,2.51-1.98,1.02,0,1.86.37,2.51.71"/><path class="uuid-b21105f6-de3e-4af1-8d34-71243288dd6e" d="M245.64,172.19h2.79v2.15h-2.79v7.71c0,1.38.37,1.55,1.38,1.55.37,0,1.02-.17,1.33-.34l.4,2.03c-.9.31-1.47.51-2.96.51-1.86,0-2.79-.79-2.79-3.42v-8.05h-2.15l.45-2.15h1.69v-3.59l2.65-.88v4.46Z"/><path class="uuid-b21105f6-de3e-4af1-8d34-71243288dd6e" d="M268.82,178.94c0,5.56-3.08,6.86-6.49,6.86s-6.49-1.3-6.49-6.86,3.05-6.97,6.49-6.97,6.49,1.44,6.49,6.97M258.69,178.94c0,4.12,1.5,4.8,3.64,4.8s3.67-.68,3.67-4.8-1.58-4.91-3.67-4.91-3.64.76-3.64,4.91"/><path class="uuid-b21105f6-de3e-4af1-8d34-71243288dd6e" d="M279.16,166.43l-.48,2.2c-.59-.14-1.24-.31-1.81-.31-1.19,0-1.52.28-1.52,1.61v2.26h2.91v2.15h-2.91v11.27h-2.68v-11.27h-2.15l.45-2.15h1.69v-1.89c0-2.37.42-4.32,3.73-4.32,1.05,0,1.92.11,2.77.45"/><path class="uuid-b21105f6-de3e-4af1-8d34-71243288dd6e" d="M343.75,175.72v.45c0,2.15-.42,3.96-1.24,5.44-.82,1.48-1.95,2.58-3.36,3.31-1.42.73-3.02,1.09-4.82,1.09-.9,0-1.75-.09-2.57-.28-.88-.21-1.71-.52-2.49-.96-1.51-.82-2.68-1.99-3.54-3.48-.85-1.5-1.28-3.21-1.28-5.15s.43-3.65,1.28-5.13c.86-1.5,2.03-2.64,3.52-3.46,1.5-.82,3.19-1.23,5.07-1.23,1.76,0,3.32.35,4.68,1.06.22.11.44.23.66.38.06.03.11.06.17.1,1.54,1.02,2.63,2.42,3.26,4.2l.13.39h-3.45c-.32-.73-.72-1.35-1.22-1.84-.18-.19-.38-.37-.6-.52-.95-.68-2.15-1.02-3.61-1.02-1.25,0-2.37.28-3.35.83-.99.56-1.76,1.37-2.31,2.45-.56,1.08-.83,2.34-.83,3.8s.27,2.75.83,3.83c.55,1.08,1.32,1.89,2.31,2.45.57.33,1.16.55,1.82.69.25.05.51.09.78.11.25.03.49.04.75.04,1.2,0,2.23-.22,3.1-.68.87-.46,1.54-1.06,2.02-1.8.47-.74.74-1.53.79-2.38h-5.34l1.06-2.69h7.79Z"/><path class="uuid-b21105f6-de3e-4af1-8d34-71243288dd6e" d="M364.51,185.59h-3.64l-1.45-3.91h0s-8.99,0-8.99,0l-1.44,3.91h-3.59l7.42-18.85h4.28l7.41,18.85ZM358.43,179.01l-3.47-9.35h-.1l-3.44,9.35h7.02Z"/><polygon class="uuid-b21105f6-de3e-4af1-8d34-71243288dd6e" points="380.74 182.73 379.62 185.59 367.73 185.59 367.73 166.74 371.08 166.74 371.08 182.73 380.74 182.73"/><path class="uuid-b21105f6-de3e-4af1-8d34-71243288dd6e" d="M401.31,185.59h-3.64l-1.45-3.91h0s-8.99,0-8.99,0l-1.44,3.91h-3.59l7.42-18.85h4.28l7.41,18.85ZM395.23,179.01l-3.47-9.35h-.1l-3.44,9.35h7.02Z"/><path class="uuid-b21105f6-de3e-4af1-8d34-71243288dd6e" d="M421.47,176.16c0,3.08-.82,5.42-2.46,7.02-1.64,1.6-3.86,2.41-6.68,2.41h-7.78v-18.85h7.78c2.82,0,5.05.8,6.68,2.4,1.64,1.6,2.46,3.95,2.46,7.02M418.08,176.16c0-2.22-.54-3.88-1.61-5.01-1.08-1.13-2.61-1.69-4.59-1.69h-4.01v13.41h4.01c1.99,0,3.52-.56,4.59-1.69,1.07-1.13,1.61-2.8,1.61-5.02"/><path class="uuid-b21105f6-de3e-4af1-8d34-71243288dd6e" d="M442.2,185.59h-3.64l-1.45-3.91h0s-8.99,0-8.99,0l-1.44,3.91h-3.59l7.42-18.85h4.28l7.41,18.85ZM436.12,179.01l-3.47-9.35h-.1l-3.44,9.35h7.02Z"/><path class="uuid-b21105f6-de3e-4af1-8d34-71243288dd6e" d="M456.04,178.11c1.39-.35,2.45-1.01,3.19-1.98.74-.97,1.11-2.17,1.11-3.6,0-1.79-.58-3.21-1.74-4.25-1.16-1.04-2.8-1.56-4.91-1.56h-8.25v18.85h3.33v-16.13h4.47c1.2,0,2.12.27,2.76.8.64.54.96,1.3.96,2.28s-.32,1.78-.95,2.31c-.64.54-1.56.8-2.77.8h-2.44v2.72h1.09c2.07,1.16,4.42,4.43,5.23,7.21h3.53c-.77-2.63-3.03-6.24-4.62-7.47"/><rect class="uuid-b21105f6-de3e-4af1-8d34-71243288dd6e" x="464.34" y="166.74" width="3.33" height="18.85"/><path class="uuid-b21105f6-de3e-4af1-8d34-71243288dd6e" d="M293.22,200.86c-2.6,0-4.7,2.11-4.7,4.7s2.11,4.7,4.7,4.7,4.7-2.11,4.7-4.7-2.11-4.7-4.7-4.7"/><path class="uuid-b21105f6-de3e-4af1-8d34-71243288dd6e" d="M291.72,187.09c-.65,1.92.51,3.02,1.1,3.41,1.11.74,2.45,1.5,7.81,1.67,6.63.21,9.6.4,11.95,1.96,2.71,1.81,5.14,6.29,1.8,11.43-3.31,5.1-10.61,4.91-13.05,4.49,4.47-.59,7.25-2.09,8.04-4.6.79-2.51-.33-4.16-1.67-4.97-1.67-1.02-5.25-1.15-7.86-1.35-2.78-.22-7.22-.34-9.18-1.49-2.27-1.32-3.44-3.36-2.89-5.89.56-2.53,3.2-4.22,3.95-4.66"/><path class="uuid-b21105f6-de3e-4af1-8d34-71243288dd6e" d="M312.59,169.12c-.77.55-1.71.87-2.73.87-2.6,0-4.7-2.11-4.7-4.7,0-.33.04-.65.1-.97-1.18-.31-2.42-.48-3.7-.48-7.43,0-13.45,5.52-13.45,12.32s6.02,12.32,13.45,12.32,13.45-5.52,13.45-12.32c0-2.62-.9-5.05-2.42-7.05M309.22,176.17c0,4.07-3.43,7.37-7.66,7.37s-7.66-3.3-7.66-7.37,3.43-7.37,7.66-7.37,7.66,3.3,7.66,7.37"/><path class="uuid-b21105f6-de3e-4af1-8d34-71243288dd6e" d="M312.59,169.12c1.2-.85,1.98-2.25,1.98-3.83,0-2.6-2.11-4.7-4.7-4.7-2.27,0-4.16,1.6-4.6,3.74,3.01.79,5.58,2.51,7.33,4.8"/></svg>