<?xml version="1.0" encoding="UTF-8"?>
<svg id="Layer_1" data-name="Layer 1" xmlns="http://www.w3.org/2000/svg" viewBox="0 0 912.46 230.98">
  <defs>
    <style>
      .cls-1 {
        fill: #000;
      }

      .cls-1, .cls-2 {
        stroke-width: 0px;
      }

      .cls-2 {
        fill: #373b37;
      }
    </style>
  </defs>
  <g>
    <path class="cls-1" d="M587.89,111.8c5.98,0,10.17-1.12,11.92-1.53V27.81c-3.04-.11-6.77-.58-8.7-.83v44.8c0,21.7-22.19,29.17-28.38,32.38,6.79,4.56,15.56,7.64,25.15,7.64M561.81,103.44c4.06-3.91,7.8-10.76,7.8-21.51V22.24c-1.19-.32-3.67-.98-4.75-1.22v60.98c0,11.75-3.99,16.42-5.94,19.2.76.64,2.05,1.65,2.89,2.24M635.8,2.46c-.35,2.84-3.83,25.53-29.63,25.53-1.51,0-3.45-.04-4.7-.11v81.89c13.5-4.17,24.65-15.31,29.49-31.01l.62.08c-1.87,28.72-24.92,51.35-52.72,51.35-30.17,0-52.54-23.34-52.54-55.23,0-21.01,10.59-40.01,27.03-49.34l.38.44c-7.92,9.27-12.16,20.22-12.16,34.04,0,17.41,6.73,31.33,16.36,40.21,2.12-3.03,5.3-8.25,5.3-19.14V20.65c-.85-.18-4.58-1.04-8.31-1.04-10.77,0-19.93,2.91-28.05,12.37l-.52-.28c2.61-18.35,15.66-31.63,39.53-31.63,21.49,0,32.58,8.07,49.25,8.07,11.15,0,17.73-4.38,20.12-5.95l.55.28ZM645.01,7.08l14.39,14.41-14.39,14.41-14.4-14.41,14.4-14.41ZM912.46,40.85l-23.1,31.69,18.79,13.73v23.21l-27.42,20.99c-1.72-1.19-8.07-5.77-17.96-5.77-8.23,0-13.27,3.8-16.17,5.82l-.96-.83,24.36-33.41-17.34-9.8v-25.66l26.88-20.94c2.4,1.73,7.31,5.28,16.55,5.28,8.16,0,13.08-3.69,15.13-5.3l1.24,1ZM905.4,47.71l-.47-.38c-1.83,2.11-9.77,10.57-19.6,10.57-6.7,0-10.29-2.41-11.84-3.48v19.35l9.05,5.28,22.86-31.35ZM887.32,98.69l-11.24-7.93-23.54,32.3.42.42c3.32-3.34,10.88-10.8,21.13-10.8,7.49,0,11.74,2.71,13.24,3.46v-17.45ZM628.99,52.29l16.04-12.32,13.11,17.07v49.43s2.78,2.5,4.73,4.29c2.39,2.19,4.72,2.89,6.82,2.89,2.36,0,4.01-.98,4.71-1.44v-49.19l-8.31-10.72,16.03-12.32,13.12,17.05,25.57-17.02,13.1,17.02,26.2-17.07,13.13,17.05v49.47l5.7,5.14c2.3,2.09,4.66,3.22,7.27,3.22,2.01,0,3-.58,3.81-1.12l.48-.32v-50.19l34.74-23.23,23.21,31.01-37.04,23.66v9.78s15,7.49,20.3,10.1c2.4,1.18,4.89,2.26,8.16,2.26,3.62,0,7.14-1.38,8.97-2.21l2.82-1.31.66,1.5-30.41,15.71-30.82-16.07-19.24,15.83-19.44-16.57v-50.73l-8.28-10.59-10.26,6.68v47.5l12.22,10.94-13.61,12.82-19.43-16.61v-50.69l-8.09-10.43-9.75,6.48v47.48l12.22,10.96-13.61,12.82-19.44-16.61-17.78,16.51c-2.76-2.51-19.33-16.44-19.33-16.44v-50.65l-8.31-10.77ZM811.43,92.71l18.21-11.7-18.21-24.38v36.08ZM239.42,63.07l33.89-23.07,23.11,21.81v44.75s3.52,2.79,6.62,5.36c2.75,2.26,4.22,2.57,5.27,2.57,1.95,0,3.76-1.51,4.99-2.65l-.02-85.84c0-4.57-.79-10.74-5.57-15.07l.34-.5c5.47,1.52,9.66,6.69,10.91,10.7,3.85-13.3,18.47-18.07,29.95-16.56v.7c-8.49,1.76-14.81,7.78-14.81,22.55v79.2s3.71,3.39,4.68,4.23c2.26,2.19,3.66,3.31,5.86,3.31,1.98,0,3.72-1.05,4.59-1.71l.67-.53v-49.13l34.74-23.23,23.21,31.01-37.04,23.66v9.78s14.99,7.49,20.3,10.1c2.41,1.18,4.89,2.26,8.16,2.26,3.62,0,7.14-1.38,8.97-2.21,1.66-.78,3.11-1.44,3.47-1.61v-49.76l34.74-23.23,23.2,31.01-37.04,23.66v9.78s14.99,7.49,20.3,10.1c2.4,1.18,5.3,1.81,8.28,1.81,3.88,0,7.1-1.65,8.88-2.51l4.52-2.33v-45.91l-8.95-11.6,16.49-14.02,13.28,17.08v80.82c-21.69,0-32.16,28.29-69.82,28.29-21.92,0-32.99-10.1-32.99-22.87,0-9.7,8.5-17.29,18.75-17.29,11.85,0,17.55,5.6,20.53,9.97l-.95.51c-1.68-1.73-4.19-3.75-8.95-3.75-5.18,0-10.19,3.72-10.19,9.9,0,9.64,11.1,17.74,25.95,17.74,14.08,0,36.85-10.1,36.85-29.77v-17.19l-31.46,17.05-31.42-15.52-30.39,15.52-31.4-16.37-19.64,16.17-17.02-16.47-19.45,16.49-17.78-16.16-15.68,16.16-20.95-16.44-19.68,16.37-18.25-16.55v-48.17l-8.35-12.11-8.21,5.66v47.3l11.5,10.3-15.27,13.61-17.05-16.53-16.96,16.44-19.03-8.67c-6.72-3.01-11.79-6.85-15.51-14.4-7.72,6.73-17.34,15.61-25.06,22.87-6.16-3.98-17.12-10.38-35.5-10.38-26.65,0-50.16,12.78-50.16,27.91,0,9.6,6.98,14.67,15.39,14.67l-.09,1.41c-11.28,0-17.16-7.74-17.16-16.73,0-25.49,32.12-44.7,60.22-46.59,2.87-3.85,7.04-8.63,7.04-21.99v-37.54c0-6.04,1.95-8.59,2.71-9.58-.29.96-1.06,3.4-1.06,10.05v38.57c0,12-4.12,16.58-6.98,20.41,1.02-.05,2.02-.07,3.02-.07l1.74.02c6.25-7.07,6.9-14.97,6.9-22.45,0,0-.06-26.86,0-37.61.07-12.62,4.1-17.31,11.77-24.96,1.86-1.85,3.75-3.72,5.19-5.12l-.32-.38c-9.38,7.16-17.13,12.87-29.3,12.87-9.68,0-18.13-4.29-27.29-4.29-6.93,0-10.46,3.26-11.82,4.24C25.48,15.52,36.09,0,52.01,0c11.81,0,17.39,5.03,29.04,5.03,6.77,0,12.77-.88,17.97-3.49l.45.44c-3.42,5.54-4.85,13.2-4.85,22.9v25.59L127.36,1.45c3.89,2.5,8.07,5.4,15.64,5.4,8.96,0,12.75-2.59,15.84-4.44l.38.22c-1.87,5.83-10.84,20.66-25.18,20.66-7.57,0-13.4-3.47-15.95-4.99l-15.66,23.46,17.85,14.45s7.61,25.92,10.68,35.9c3.42,11.1,6.49,12.55,12.94,15.55,2.54,1.18,5.11,2.33,8.83,3.99,3.96,1.77,5.15,1.73,7.14,1.73,2.09,0,3.68-.89,4.23-1.27V25.8c0-8.13-2.82-12.29-5.59-14.87l.34-.49c2.78.56,8.59,3.92,10.91,10.72,2.32-9.17,13.08-18.44,29.89-16.59v.82c-9.27,1.82-14.73,8.59-14.73,23.11v28.55l24.45-16.84,12.94,16.77v50.09l5.52,4.63c1.83,1.53,3.55,2.73,6.24,2.73,2.43,0,4.35-1.62,5.37-2.38l-.02-48.97ZM260.24,105.95l7.65,6.01c2.15,1.68,3.33,2.02,4.64,2.02,1.75,0,3.05-1.18,3.05-1.18l.03-40.42-15.37-15.16v48.73ZM432.64,92.71l18.2-11.7-18.2-24.38v36.08ZM370.82,92.71l18.21-11.7-18.21-24.38v36.08ZM103.17,113.3l8.64-7.84c-.37-.98-1.53-4.52-2.95-8.91-2.92-10.72-7.4-26.97-7.4-26.97l-6.83-6.41v7.23c0,15.55-10.97,23.35-25.88,29.8,20.86,1.18,32.17,11.14,34.43,13.1M496.73,21.49l-14.4,14.41-14.39-14.41,14.39-14.41,14.4,14.41Z"/>
    <path class="cls-1" d="M313.28,26c0-4.58-.79-10.74-5.57-15.07l.34-.5c5.47,1.52,9.66,6.69,10.91,10.7,3.85-13.3,18.47-18.08,29.95-16.56v.7c-8.49,1.76-14.81,7.79-14.81,22.56v79.2s3.71,3.39,4.68,4.23c2.26,2.19,3.66,3.31,5.86,3.31,1.98,0,3.72-1.05,4.59-1.71.33-.25.73-.59.73-.59l.77,1.15-20.45,16.84-17.02-16.48V26Z"/>
    <path class="cls-1" d="M240.26,113.13l-.83-1.1c-1.02.77-2.94,2.38-5.37,2.38-2.69,0-4.41-1.19-6.24-2.73-3.13-2.62-5.52-4.63-5.52-4.63v-50.09l-12.95-16.77-24.45,16.84v-28.55c0-14.52,5.45-21.29,14.73-23.11v-.82c-16.81-1.85-27.57,7.42-29.89,16.59-2.32-6.79-8.13-10.16-10.91-10.72l-.34.5c2.77,2.58,5.59,6.74,5.59,14.87v87.92l17.05,16.53,15.27-13.61-11.5-10.3v-47.3l8.21-5.66,8.35,12.11v48.17l18.26,16.55,20.52-17.07Z"/>
    <path class="cls-1" d="M496.73,21.49l-14.39,14.41-14.39-14.41,14.39-14.41,14.39,14.41ZM431.88,135.97c-2.98-4.37-8.67-9.97-20.53-9.97-10.25,0-18.75,7.59-18.75,17.29,0,12.77,11.08,22.87,32.99,22.87,37.66,0,48.13-28.29,69.82-28.29V57.05l-13.28-17.08-16.49,14.02,8.96,11.6v65.02c0,19.67-22.77,29.77-36.85,29.77-14.86,0-25.95-8.1-25.95-17.74,0-6.18,5.01-9.9,10.19-9.9,4.76,0,7.27,2.03,8.95,3.75l.94-.51Z"/>
    <path class="cls-1" d="M103.17,113.3l8.64-7.84c-.37-.98-1.53-4.52-2.95-8.92-2.92-10.71-7.4-26.97-7.4-26.97l-6.83-6.41v7.23c0,15.55-10.97,23.35-25.88,29.8,20.86,1.17,32.17,11.14,34.42,13.1M99.47,1.98c-3.42,5.54-4.85,13.2-4.85,22.9v25.59L127.36,1.45c3.89,2.5,8.07,5.4,15.64,5.4,8.96,0,12.75-2.59,15.84-4.44l.38.22c-1.87,5.83-10.84,20.66-25.19,20.66-7.57,0-13.4-3.47-15.95-4.99l-15.66,23.46,17.85,14.45s7.61,25.92,10.68,35.9c3.42,11.1,6.49,12.55,12.94,15.55,2.54,1.18,5.11,2.33,8.83,3.99,3.96,1.77,5.15,1.73,7.14,1.73,2.42,0,4.16-1.19,4.41-1.41l.72.93-17.86,17.26s-11.14-5.08-19.03-8.67c-6.72-3.01-11.79-6.85-15.51-14.4-7.72,6.73-17.34,15.61-25.06,22.87-6.16-3.98-17.12-10.38-35.5-10.38-26.65,0-50.16,12.78-50.16,27.91,0,9.6,6.98,14.67,15.39,14.67l-.09,1.41C5.88,163.57,0,155.84,0,146.84,0,121.36,32.12,102.14,60.22,100.26c2.87-3.85,7.04-8.63,7.04-21.99,0,0,0-35.96,0-37.54,0-6.04,1.95-8.59,2.71-9.58h.02c-.28.97-1.08,3.4-1.08,10.05v38.57c0,12-4.12,16.58-6.98,20.41,1.02-.05,2.02-.07,3.02-.07.59,0,1.16,0,1.74.02,6.25-7.07,6.9-14.97,6.9-22.45,0,0-.06-26.86,0-37.61.07-12.62,4.1-17.31,11.77-24.95,1.86-1.85,3.75-3.72,5.19-5.12l-.32-.38c-9.38,7.16-17.13,12.87-29.3,12.87-9.68,0-18.13-4.29-27.29-4.29-6.93,0-10.46,3.26-11.82,4.24l-.26-.21C25.48,15.52,36.09,0,52.01,0,63.82,0,69.4,5.03,81.05,5.03c6.77,0,12.77-.88,17.97-3.49l.45.44Z"/>
    <path class="cls-1" d="M370.82,92.71l18.21-11.7-18.21-24.38v36.08ZM349.9,63.2l34.74-23.23,23.21,31.01-37.04,23.66v9.78s14.99,7.49,20.3,10.1c2.41,1.18,4.89,2.26,8.16,2.26,3.62,0,7.14-1.38,8.97-2.21,1.91-.9,3.55-1.64,3.55-1.64v1.96l-30.48,15.58-31.42-16.38v-50.88Z"/>
    <path class="cls-1" d="M811.43,92.71l18.2-11.7-18.2-24.38v36.08ZM790.51,63.2l34.74-23.23,23.21,31.01-37.04,23.66v9.78s15,7.49,20.3,10.1c2.4,1.18,4.89,2.26,8.16,2.26,3.62,0,7.14-1.38,8.97-2.21.54-.25,2.82-1.31,2.82-1.31l.66,1.5-30.41,15.71-31.42-16.38v-50.88Z"/>
    <path class="cls-1" d="M432.64,92.71l18.2-11.7-18.2-24.38v36.08ZM411.72,63.2l34.74-23.23,23.2,31.01-37.04,23.66v9.78s14.99,7.49,20.3,10.1c2.4,1.18,5.3,1.81,8.28,1.81,3.88,0,7.1-1.65,8.88-2.51,1.68-.86,4.93-2.54,4.93-2.54v1.91l-31.87,17.27-31.42-15.52v-51.74Z"/>
    <path class="cls-1" d="M239.42,63.07l33.89-23.07,23.11,21.81v44.75s3.52,2.8,6.62,5.36c2.75,2.26,4.22,2.57,5.27,2.57,1.95,0,3.76-1.51,4.99-2.65l.9,1.16-20.37,17.26-17.78-16.16-15.68,16.16-20.95-16.44v-50.77ZM260.24,105.95s6.34,4.99,7.65,6.01c2.15,1.68,3.33,2.02,4.64,2.02,1.75,0,3.05-1.18,3.05-1.18l.03-40.42-15.37-15.16v48.73Z"/>
    <path class="cls-1" d="M733.92,57.02l-13.1-17.02-25.57,17.02-13.12-17.05-16.03,12.32,8.31,10.72v50.63l19.44,16.61,13.61-12.82-12.22-10.96v-47.48l9.74-6.48,8.09,10.43v50.7l19.43,16.61,13.61-12.82-12.22-10.93v-47.5l10.26-6.68,8.28,10.59v50.74l19.44,16.57,19.4-15.95-.65-.94s-.28.2-.58.39c-.81.53-1.8,1.12-3.81,1.12-2.61,0-4.98-1.13-7.27-3.22-1.5-1.36-5.7-5.14-5.7-5.14v-49.47l-13.13-17.05-26.2,17.06Z"/>
    <path class="cls-1" d="M912.46,40.85l-23.1,31.69,18.79,13.73v23.21l-27.42,20.99c-1.72-1.19-8.07-5.77-17.96-5.77-8.23,0-13.27,3.8-16.17,5.82l-.96-.83,24.36-33.41-17.34-9.8v-25.66l26.88-20.94c2.4,1.72,7.31,5.28,16.55,5.28,8.16,0,13.08-3.69,15.13-5.3l1.24,1ZM905.4,47.71l-.47-.38c-1.83,2.11-9.77,10.57-19.6,10.57-6.71,0-10.29-2.41-11.84-3.48v19.35l9.05,5.28,22.86-31.35ZM887.32,98.69l-11.24-7.93-23.54,32.3.42.42c3.32-3.34,10.88-10.8,21.13-10.8,7.49,0,11.74,2.71,13.24,3.46v-17.45Z"/>
    <path class="cls-1" d="M628.99,52.29l16.04-12.32,13.11,17.07v49.43s2.78,2.5,4.73,4.29c2.39,2.19,4.72,2.89,6.82,2.89,2.51,0,4.2-1.1,4.83-1.52.15.2.63.82.63.82l-18.53,17.21c-2.76-2.51-19.33-16.44-19.33-16.44v-50.65l-8.31-10.77ZM645.01,7.08l-14.4,14.41,14.4,14.41,14.39-14.41-14.39-14.41Z"/>
    <path class="cls-1" d="M587.89,111.8c5.98,0,10.17-1.12,11.92-1.53V27.81c-3.04-.11-6.77-.58-8.7-.83v44.8c0,21.7-22.19,29.17-28.38,32.38,6.79,4.56,15.56,7.63,25.15,7.63M561.81,103.44c4.06-3.91,7.8-10.76,7.8-21.51V22.24c-1.19-.33-3.67-.98-4.75-1.22v60.98c0,11.75-3.99,16.42-5.94,19.2.76.64,2.05,1.66,2.89,2.24M635.8,2.46c-.35,2.84-3.83,25.53-29.63,25.53-1.51,0-3.45-.04-4.7-.11v81.89c13.5-4.17,24.65-15.31,29.49-31.01l.62.08c-1.87,28.72-24.92,51.35-52.72,51.35-30.17,0-52.54-23.34-52.54-55.23,0-21.01,10.59-40.01,27.03-49.34l.38.44c-7.92,9.27-12.16,20.22-12.16,34.04,0,17.41,6.73,31.33,16.36,40.21,2.12-3.02,5.3-8.25,5.3-19.14V20.65c-.85-.18-4.58-1.04-8.3-1.04-10.77,0-19.93,2.91-28.05,12.37l-.52-.28c2.61-18.35,15.66-31.63,39.52-31.63,21.49,0,32.58,8.07,49.25,8.07,11.15,0,17.73-4.38,20.12-5.95l.55.28Z"/>
  </g>
  <g>
    <path class="cls-2" d="M351.5,189.64c0,4.16-2.31,6.78-6.66,6.78h-4v7.25h-3.19v-20.88h6.66c5.41,0,7.19,2.91,7.19,6.85M340.84,185.51v8.19h4.16c1.69,0,3.25-.88,3.25-4.06,0-2.41-1.13-4.13-3.25-4.13h-4.16Z"/>
    <path class="cls-2" d="M364.71,194.08v6.91c0,.53.22.81.75.81.28,0,.5,0,.75-.09l.38,1.69c-.75.37-1.34.5-2.38.5-2.19,0-2.47-1.56-2.47-2.13-.47.84-1.47,2.13-4.28,2.13-3.22,0-4.72-1.66-4.72-4.35,0-3.88,3.16-5.1,6.6-5.1.81,0,2.06.16,2.41.19v-1.38c0-2.09-1.78-2.25-3.56-2.25s-3.31.41-4.38.81l.5-2.47c1.03-.37,2.91-.78,4.72-.78,3.81,0,5.69,1.09,5.69,5.5M355.86,199.23c0,2.13,1.88,2.22,2.63,2.22,1.78,0,3.25-1.34,3.25-3.22v-1.5c-.47-.03-1.5-.13-2.13-.13-2.41,0-3.75.63-3.75,2.63"/>
    <path class="cls-2" d="M377.28,189.36l-.56,2.47c-.78-.28-1.5-.44-2.44-.44-1.31,0-2.25,1.38-2.56,1.97v10.32h-3v-14.85h3v1.94c.59-1.41,1.75-2.19,2.78-2.19,1.13,0,2.06.41,2.78.78"/>
    <path class="cls-2" d="M383.65,188.83h3.09v2.38h-3.09v8.53c0,1.53.41,1.72,1.53,1.72.41,0,1.13-.19,1.47-.37l.44,2.25c-1,.34-1.63.56-3.28.56-2.06,0-3.09-.88-3.09-3.78v-8.91h-2.38l.5-2.38h1.88v-3.97l2.94-.97v4.94Z"/>
    <path class="cls-2" d="M409.32,196.3c0,6.16-3.41,7.6-7.19,7.6s-7.19-1.44-7.19-7.6,3.38-7.72,7.19-7.72,7.19,1.59,7.19,7.72M398.1,196.3c0,4.56,1.66,5.31,4.03,5.31s4.06-.75,4.06-5.31-1.75-5.44-4.06-5.44-4.03.84-4.03,5.44"/>
    <path class="cls-2" d="M420.76,182.45l-.53,2.44c-.66-.16-1.38-.34-2-.34-1.31,0-1.69.31-1.69,1.78v2.5h3.22v2.38h-3.22v12.47h-2.97v-12.47h-2.38l.5-2.38h1.88v-2.09c0-2.63.47-4.78,4.13-4.78,1.16,0,2.13.13,3.06.5"/>
    <path class="cls-2" d="M492.28,192.73v.49c0,2.38-.46,4.39-1.38,6.03-.91,1.63-2.16,2.85-3.72,3.66-1.58.81-3.35,1.21-5.33,1.21-.99,0-1.94-.1-2.84-.31-.97-.23-1.89-.58-2.75-1.06-1.67-.91-2.97-2.2-3.92-3.86-.94-1.66-1.42-3.55-1.42-5.7s.48-4.04,1.42-5.68c.95-1.66,2.24-2.93,3.9-3.83,1.66-.9,3.53-1.36,5.61-1.36,1.95,0,3.68.39,5.18,1.17.24.12.49.26.73.42.07.03.13.07.18.11,1.71,1.13,2.91,2.68,3.61,4.65l.14.43h-3.82c-.35-.81-.79-1.49-1.35-2.04-.2-.21-.43-.4-.67-.57-1.05-.75-2.38-1.13-4-1.13-1.38,0-2.62.31-3.71.92-1.1.62-1.95,1.52-2.56,2.71-.62,1.19-.92,2.59-.92,4.21s.3,3.05.92,4.24c.61,1.19,1.46,2.09,2.56,2.72.63.36,1.29.61,2.02.76.28.06.57.1.86.13.27.03.54.04.83.04,1.32,0,2.47-.24,3.44-.75.96-.51,1.71-1.18,2.24-1.99.52-.82.82-1.69.88-2.63h-5.91l1.17-2.97h8.62Z"/>
    <path class="cls-2" d="M515.27,203.66h-4.03l-1.61-4.33h0s-9.95,0-9.95,0l-1.59,4.33h-3.98l8.21-20.87h4.74l8.21,20.87ZM508.53,196.38l-3.85-10.35h-.11l-3.81,10.35h7.77Z"/>
    <polygon class="cls-2" points="533.24 200.5 532 203.66 518.83 203.66 518.83 182.79 522.54 182.79 522.54 200.5 533.24 200.5"/>
    <path class="cls-2" d="M556.01,203.66h-4.03l-1.61-4.33h0s-9.95,0-9.95,0l-1.59,4.33h-3.98l8.21-20.87h4.74l8.21,20.87ZM549.28,196.38l-3.85-10.35h-.11l-3.81,10.35h7.77Z"/>
    <path class="cls-2" d="M578.33,193.22c0,3.41-.91,6-2.72,7.78-1.81,1.77-4.28,2.66-7.4,2.66h-8.61v-20.87h8.61c3.12,0,5.59.89,7.4,2.66,1.81,1.77,2.72,4.37,2.72,7.78M574.58,193.22c0-2.45-.59-4.3-1.78-5.55-1.19-1.25-2.89-1.87-5.09-1.87h-4.44v14.85h4.44c2.2,0,3.89-.62,5.09-1.87,1.19-1.25,1.78-3.1,1.78-5.56"/>
    <path class="cls-2" d="M601.29,203.66h-4.03l-1.61-4.33h0s-9.95,0-9.95,0l-1.59,4.33h-3.98l8.21-20.87h4.74l8.21,20.87ZM594.55,196.38l-3.85-10.35h-.11l-3.81,10.35h7.77Z"/>
    <path class="cls-2" d="M616.61,195.39c1.54-.39,2.71-1.12,3.54-2.19.82-1.08,1.22-2.4,1.22-3.98,0-1.98-.64-3.55-1.93-4.7-1.29-1.15-3.1-1.72-5.43-1.72h-9.14v20.87h3.68v-17.86h4.95c1.33,0,2.34.3,3.06.89.71.6,1.06,1.44,1.06,2.53s-.35,1.97-1.05,2.56c-.7.59-1.72.89-3.07.89h-2.7v3.02h1.21c2.3,1.28,4.89,4.9,5.8,7.98h3.91c-.85-2.92-3.35-6.91-5.11-8.28"/>
    <rect class="cls-2" x="625.8" y="182.79" width="3.68" height="20.87"/>
    <path class="cls-2" d="M436.33,220.57c-2.88,0-5.21,2.33-5.21,5.21s2.33,5.21,5.21,5.21,5.21-2.33,5.21-5.21-2.33-5.21-5.21-5.21"/>
    <path class="cls-2" d="M434.67,205.33c-.72,2.12.57,3.34,1.22,3.78,1.23.82,2.71,1.66,8.64,1.85,7.34.23,10.63.44,13.23,2.17,3,2,5.69,6.97,1.99,12.66-3.67,5.65-11.75,5.43-14.45,4.97,4.95-.66,8.03-2.31,8.91-5.1.88-2.78-.37-4.6-1.85-5.51-1.85-1.13-5.81-1.27-8.7-1.5-3.07-.24-7.99-.38-10.17-1.65-2.52-1.46-3.81-3.72-3.2-6.52.61-2.8,3.54-4.67,4.37-5.16"/>
    <path class="cls-2" d="M457.78,185.43c-.85.61-1.89.97-3.02.97-2.88,0-5.21-2.33-5.21-5.21,0-.37.04-.72.11-1.07-1.3-.34-2.67-.53-4.1-.53-8.22,0-14.89,6.11-14.89,13.64s6.67,13.64,14.89,13.64,14.89-6.11,14.89-13.64c0-2.9-.99-5.59-2.68-7.8M454.05,193.24c0,4.51-3.8,8.16-8.48,8.16s-8.48-3.65-8.48-8.16,3.8-8.16,8.48-8.16,8.48,3.65,8.48,8.16"/>
    <path class="cls-2" d="M457.78,185.43c1.32-.94,2.19-2.49,2.19-4.24,0-2.88-2.33-5.21-5.21-5.21-2.51,0-4.6,1.77-5.1,4.14,3.33.87,6.18,2.77,8.11,5.31"/>
  </g>
</svg>