<?xml version="1.0" encoding="UTF-8"?>
<svg id="Layer_1" data-name="Layer 1" xmlns="http://www.w3.org/2000/svg" viewBox="0 0 1082 312.05">
  <defs>
    <style>
      .cls-1 {
        fill: #000;
      }

      .cls-1, .cls-2 {
        stroke-width: 0px;
      }

      .cls-2 {
        fill: #373b37;
      }
    </style>
  </defs>
  <g>
    <path class="cls-1" d="M697.12,132.57c7.09,0,12.05-1.33,14.13-1.82V32.98c-3.6-.13-8.03-.69-10.31-.98v53.12c0,25.73-26.31,34.59-33.65,38.4,8.05,5.41,18.46,9.06,29.83,9.06M666.2,122.66c4.82-4.64,9.25-12.76,9.25-25.51V26.38c-1.41-.38-4.35-1.17-5.63-1.45v72.31c0,13.93-4.73,19.47-7.04,22.77.9.76,2.43,1.96,3.42,2.66M753.93,2.92c-.42,3.37-4.55,30.28-35.14,30.28-1.79.01-4.09-.05-5.58-.13v97.11c16.01-4.94,29.23-18.16,34.97-36.77l.74.09c-2.22,34.06-29.55,60.9-62.51,60.9-35.78,0-62.3-27.67-62.3-65.49,0-24.91,12.56-47.44,32.05-58.51l.45.52c-9.39,10.99-14.42,23.98-14.42,40.37,0,20.64,7.98,37.15,19.4,47.68,2.51-3.59,6.29-9.78,6.29-22.7V24.49c-1-.21-5.43-1.23-9.85-1.23-12.77,0-23.64,3.45-33.26,14.67l-.61-.34C627.25,15.83,642.73.08,671.02.08c25.48,0,38.63,9.57,58.4,9.57,13.22,0,21.02-5.2,23.86-7.06l.65.33ZM764.85,8.4l17.07,17.09-17.07,17.09-17.07-17.09,17.07-17.09ZM1082,48.44l-27.39,37.57,22.28,16.28v27.52l-32.51,24.89c-2.04-1.41-9.57-6.85-21.3-6.85-9.76,0-15.74,4.51-19.17,6.9l-1.13-.98,28.88-39.62-20.56-11.62v-30.42l31.87-24.83c2.85,2.05,8.67,6.27,19.62,6.27,9.68,0,15.51-4.37,17.95-6.29l1.47,1.18ZM1073.62,56.58l-.56-.45c-2.17,2.51-11.59,12.54-23.24,12.54-7.95,0-12.21-2.86-14.04-4.12v22.95l10.73,6.26,27.11-37.17ZM1052.18,117.03l-13.33-9.4-27.91,38.3.49.5c3.94-3.96,12.9-12.81,25.05-12.81,8.89,0,13.92,3.21,15.7,4.1v-20.7ZM745.85,62.01l19.02-14.61,15.55,20.24v58.62s3.3,2.96,5.61,5.09c2.84,2.6,5.6,3.43,8.09,3.43,2.8,0,4.75-1.16,5.59-1.71v-58.33l-9.86-12.72,19.01-14.61,15.56,20.22,30.32-20.18,15.54,20.18,31.07-20.24,15.57,20.21v58.66l6.76,6.09c2.72,2.48,5.53,3.82,8.62,3.82,2.38,0,3.56-.69,4.52-1.33l.57-.38v-59.52l41.19-27.54,27.52,36.77-43.93,28.06v11.59s17.79,8.88,24.07,11.98c2.85,1.4,5.8,2.68,9.68,2.68,4.29,0,8.46-1.64,10.64-2.63l3.35-1.56.79,1.78-36.06,18.63-36.55-19.06-22.82,18.77-23.05-19.65v-60.16l-9.82-12.55-12.16,7.92v56.32l14.49,12.97-16.14,15.2-23.04-19.7v-60.11l-9.6-12.37-11.56,7.69v56.3l14.49,12.99-16.14,15.2-23.05-19.7-21.08,19.58c-3.27-2.98-22.92-19.49-22.92-19.49v-60.06l-9.86-12.78ZM962.19,109.93l21.59-13.88-21.59-28.91v42.79ZM283.9,74.78l40.19-27.36,27.4,25.86v53.07s4.17,3.31,7.85,6.36c3.26,2.68,5.01,3.05,6.25,3.05,2.31,0,4.46-1.79,5.92-3.14l-.03-101.79c0-5.42-.94-12.73-6.6-17.87l.4-.59c6.48,1.8,11.45,7.93,12.94,12.69,4.57-15.77,21.9-21.43,35.52-19.64v.83c-10.07,2.09-17.56,9.23-17.56,26.74v93.92s4.4,4.02,5.55,5.01c2.68,2.6,4.34,3.93,6.95,3.93,2.34,0,4.41-1.25,5.44-2.02l.79-.63v-58.26l41.2-27.54,27.52,36.77-43.92,28.06v11.59s17.78,8.88,24.07,11.98c2.85,1.4,5.8,2.68,9.68,2.68,4.29,0,8.46-1.64,10.64-2.63,1.97-.93,3.69-1.71,4.11-1.9v-59l41.2-27.54,27.52,36.77-43.92,28.06v11.59s17.78,8.88,24.07,11.98c2.85,1.4,6.29,2.15,9.82,2.15,4.6,0,8.42-1.96,10.53-2.97l5.36-2.76v-54.44l-10.62-13.75,19.56-16.62,15.74,20.26v95.83c-25.72,0-38.14,33.55-82.79,33.55-25.99,0-39.12-11.98-39.12-27.11,0-11.51,10.08-20.51,22.23-20.51,14.06,0,20.81,6.64,24.34,11.82l-1.12.61c-1.99-2.05-4.96-4.45-10.61-4.45-6.15,0-12.09,4.41-12.09,11.74,0,11.43,13.16,21.03,30.78,21.03,16.69,0,43.7-11.98,43.7-35.3v-20.38l-37.31,20.21-37.26-18.4-36.04,18.4-37.23-19.41-23.28,19.17-20.18-19.53-23.06,19.55-21.08-19.16-18.6,19.16-24.84-19.49-23.34,19.41-21.65-19.63v-57.12l-9.9-14.35-9.74,6.71v56.09l13.63,12.22-18.11,16.14-20.22-19.6-20.11,19.49-22.57-10.28c-7.97-3.57-13.98-8.12-18.39-17.07-9.15,7.98-20.56,18.51-29.72,27.12-7.31-4.72-20.3-12.3-42.09-12.3-31.6,0-59.48,15.15-59.48,33.1,0,11.38,8.28,17.4,18.25,17.4l-.11,1.67c-13.38,0-20.35-9.18-20.35-19.84,0-30.22,38.08-53.01,71.41-55.24,3.4-4.57,8.35-10.23,8.35-26.08v-44.51c0-7.16,2.31-10.19,3.21-11.36-.34,1.13-1.26,4.03-1.26,11.92v45.73c0,14.23-4.89,19.66-8.28,24.2,1.21-.06,2.4-.09,3.58-.09l2.06.02c7.41-8.38,8.18-17.75,8.18-26.62,0,0-.07-31.85,0-44.6.08-14.96,4.87-20.53,13.96-29.59,2.2-2.2,4.45-4.42,6.16-6.08l-.38-.45c-11.13,8.49-20.31,15.26-34.74,15.26-11.48,0-21.49-5.08-32.36-5.08-8.21,0-12.41,3.86-14.01,5.03C30.22,18.41,42.8,0,61.67,0c14,0,20.62,5.96,34.43,5.96,8.03,0,15.15-1.05,21.31-4.14l.54.52c-4.05,6.57-5.75,15.66-5.75,27.15v30.34L151.02,1.72c4.61,2.97,9.57,6.4,18.55,6.4,10.63,0,15.12-3.07,18.79-5.26l.45.26c-2.22,6.92-12.86,24.5-29.86,24.5-8.97,0-15.89-4.11-18.91-5.92l-18.57,27.82,21.17,17.14s9.03,30.74,12.66,42.57c4.05,13.17,7.7,14.89,15.34,18.44,3.01,1.4,6.06,2.76,10.47,4.73,4.69,2.1,6.1,2.05,8.47,2.05,2.48,0,4.36-1.05,5.01-1.5V30.59c0-9.64-3.35-14.57-6.63-17.64l.41-.59c3.29.66,10.19,4.65,12.94,12.71,2.75-10.87,15.51-21.86,35.44-19.67v.97c-11,2.16-17.47,10.18-17.47,27.41v33.85l28.99-19.97,15.35,19.88v59.39l6.54,5.49c2.17,1.82,4.21,3.23,7.4,3.23,2.88,0,5.16-1.92,6.37-2.82l-.02-58.06ZM308.6,125.63l9.08,7.13c2.55,2,3.95,2.39,5.5,2.39,2.07,0,3.62-1.4,3.62-1.4l.03-47.94-18.23-17.98v57.79ZM513.02,109.93l21.59-13.88-21.59-28.91v42.79ZM439.72,109.93l21.59-13.88-21.59-28.91v42.79ZM122.34,134.35l10.24-9.3c-.44-1.16-1.81-5.36-3.5-10.57-3.46-12.71-8.78-31.98-8.78-31.98l-8.09-7.6v8.58c0,18.44-13,27.68-30.69,35.34,24.73,1.39,38.15,13.2,40.82,15.53M589.03,25.49l-17.07,17.09-17.06-17.09,17.06-17.09,17.07,17.09Z"/>
    <path class="cls-1" d="M371.48,30.83c0-5.43-.94-12.73-6.6-17.87l.4-.6c6.48,1.81,11.45,7.94,12.94,12.69,4.57-15.77,21.9-21.43,35.52-19.64v.83c-10.07,2.09-17.56,9.23-17.56,26.75v93.92s4.4,4.02,5.55,5.01c2.68,2.6,4.34,3.93,6.95,3.93,2.34,0,4.41-1.25,5.44-2.02.39-.3.87-.7.87-.7l.91,1.36-24.25,19.97-20.18-19.54V30.83Z"/>
    <path class="cls-1" d="M284.9,134.15l-.98-1.31c-1.21.91-3.49,2.82-6.37,2.82-3.19,0-5.23-1.41-7.4-3.23-3.71-3.11-6.54-5.49-6.54-5.49v-59.39l-15.35-19.88-28.99,19.96v-33.85c0-17.22,6.47-25.25,17.46-27.41v-.97c-19.93-2.19-32.69,8.8-35.44,19.67-2.75-8.06-9.64-12.05-12.94-12.71l-.41.59c3.28,3.06,6.63,7.99,6.63,17.64v104.26l20.22,19.6,18.11-16.14-13.64-12.22v-56.09l9.74-6.71,9.9,14.35v57.12l21.65,19.63,24.33-20.24Z"/>
    <path class="cls-1" d="M589.02,25.49l-17.07,17.09-17.07-17.09,17.07-17.09,17.07,17.09ZM512.13,161.23c-3.53-5.18-10.28-11.82-24.34-11.82-12.16,0-22.23,9-22.23,20.51,0,15.14,13.13,27.11,39.12,27.11,44.65,0,57.07-33.55,82.79-33.55v-95.83l-15.74-20.26-19.56,16.62,10.62,13.75v77.1c0,23.32-27,35.3-43.7,35.3-17.62,0-30.77-9.6-30.77-21.03,0-7.33,5.94-11.74,12.09-11.74,5.65,0,8.62,2.4,10.61,4.45l1.12-.61Z"/>
    <path class="cls-1" d="M122.33,134.35l10.24-9.3c-.44-1.16-1.81-5.36-3.5-10.57-3.46-12.71-8.78-31.98-8.78-31.98l-8.09-7.6v8.58c0,18.44-13,27.68-30.69,35.34,24.73,1.39,38.15,13.2,40.82,15.53M117.95,2.34c-4.05,6.57-5.75,15.66-5.75,27.15v30.34L151.02,1.72c4.61,2.97,9.57,6.4,18.55,6.4,10.63,0,15.12-3.07,18.79-5.26l.45.26c-2.22,6.92-12.86,24.5-29.87,24.5-8.97,0-15.89-4.11-18.91-5.92l-18.57,27.82,21.17,17.14s9.03,30.74,12.66,42.57c4.05,13.17,7.7,14.89,15.34,18.44,3.01,1.4,6.06,2.76,10.47,4.73,4.69,2.1,6.1,2.05,8.47,2.05,2.87,0,4.94-1.41,5.23-1.67l.85,1.1-21.18,20.47s-13.21-6.02-22.57-10.28c-7.97-3.57-13.98-8.12-18.39-17.08-9.15,7.98-20.56,18.51-29.72,27.12-7.31-4.72-20.3-12.3-42.09-12.3-31.6,0-59.48,15.15-59.48,33.09,0,11.38,8.28,17.4,18.25,17.4l-.11,1.67C6.97,193.97,0,184.79,0,174.13,0,143.91,38.08,121.12,71.41,118.88c3.4-4.57,8.35-10.23,8.35-26.08,0,0,0-42.64,0-44.51,0-7.16,2.31-10.19,3.21-11.36l.02.02c-.34,1.13-1.28,4.02-1.28,11.9v45.73c0,14.22-4.89,19.66-8.28,24.2,1.21-.05,2.4-.09,3.58-.09.7,0,1.38,0,2.06.03,7.41-8.38,8.18-17.75,8.18-26.62,0,0-.07-31.85,0-44.6.08-14.96,4.87-20.53,13.96-29.59,2.2-2.2,4.45-4.42,6.16-6.08l-.38-.45c-11.13,8.49-20.31,15.26-34.74,15.26-11.48,0-21.5-5.08-32.36-5.08-8.21,0-12.41,3.86-14.01,5.03l-.3-.25C30.22,18.41,42.8,0,61.68,0,75.68,0,82.29,5.96,96.11,5.96c8.03,0,15.15-1.05,21.31-4.14l.54.52Z"/>
    <path class="cls-1" d="M439.72,109.93l21.59-13.88-21.59-28.91v42.79ZM414.91,74.94l41.2-27.54,27.52,36.77-43.92,28.06v11.59s17.78,8.88,24.07,11.98c2.85,1.4,5.8,2.68,9.68,2.68,4.29,0,8.46-1.64,10.64-2.62,2.27-1.07,4.21-1.95,4.21-1.95v2.33l-36.14,18.47-37.26-19.43v-60.33Z"/>
    <path class="cls-1" d="M962.19,109.93l21.59-13.88-21.59-28.91v42.79ZM937.38,74.94l41.19-27.54,27.52,36.77-43.93,28.06v11.59s17.79,8.88,24.08,11.98c2.85,1.4,5.8,2.68,9.68,2.68,4.29,0,8.46-1.64,10.64-2.62.64-.29,3.35-1.56,3.35-1.56l.79,1.78-36.06,18.63-37.26-19.43v-60.33Z"/>
    <path class="cls-1" d="M513.02,109.93l21.59-13.88-21.59-28.91v42.79ZM488.21,74.94l41.2-27.54,27.52,36.77-43.92,28.06v11.59s17.78,8.88,24.07,11.98c2.85,1.4,6.29,2.15,9.82,2.15,4.6,0,8.42-1.96,10.53-2.97,1.99-1.02,5.84-3.01,5.84-3.01v2.26l-37.8,20.48-37.26-18.4v-61.36Z"/>
    <path class="cls-1" d="M283.9,74.78l40.19-27.36,27.4,25.86v53.07s4.17,3.31,7.85,6.36c3.26,2.68,5.01,3.05,6.25,3.05,2.31,0,4.46-1.79,5.92-3.14l1.07,1.38-24.16,20.47-21.08-19.16-18.6,19.16-24.84-19.49v-60.2ZM308.6,125.63s7.52,5.92,9.08,7.13c2.55,2,3.95,2.39,5.5,2.39,2.07,0,3.62-1.4,3.62-1.4l.03-47.94-18.23-17.97v57.79Z"/>
    <path class="cls-1" d="M870.28,67.61l-15.54-20.18-30.32,20.18-15.56-20.22-19.01,14.61,9.86,12.72v60.04l23.05,19.7,16.14-15.2-14.49-12.99v-56.3l11.55-7.69,9.6,12.37v60.11l23.04,19.7,16.14-15.2-14.49-12.97v-56.32l12.16-7.92,9.81,12.55v60.16l23.05,19.64,23-18.92-.77-1.11s-.33.23-.69.46c-.96.63-2.14,1.32-4.52,1.32-3.1,0-5.9-1.34-8.62-3.82-1.78-1.61-6.76-6.09-6.76-6.09v-58.66l-15.57-20.21-31.07,20.23Z"/>
    <path class="cls-1" d="M1082,48.44l-27.39,37.57,22.28,16.28v27.52l-32.51,24.89c-2.04-1.41-9.57-6.85-21.3-6.85-9.76,0-15.74,4.51-19.17,6.9l-1.13-.98,28.88-39.62-20.56-11.62v-30.42l31.87-24.83c2.85,2.05,8.67,6.26,19.62,6.26,9.68,0,15.51-4.37,17.95-6.29l1.47,1.18ZM1073.62,56.58l-.56-.45c-2.17,2.51-11.59,12.54-23.24,12.54-7.95,0-12.21-2.86-14.04-4.12v22.95l10.73,6.26,27.11-37.17ZM1052.18,117.03l-13.33-9.4-27.91,38.3.49.5c3.93-3.96,12.9-12.81,25.05-12.81,8.89,0,13.92,3.21,15.7,4.1v-20.7Z"/>
    <path class="cls-1" d="M745.85,62.01l19.02-14.61,15.55,20.24v58.62s3.3,2.96,5.61,5.09c2.84,2.6,5.59,3.43,8.09,3.43,2.97,0,4.98-1.3,5.73-1.8.18.24.75.97.75.97l-21.97,20.41c-3.28-2.98-22.92-19.49-22.92-19.49v-60.06l-9.86-12.78ZM764.86,8.4l-17.08,17.09,17.08,17.09,17.06-17.09-17.06-17.09Z"/>
    <path class="cls-1" d="M697.12,132.57c7.09,0,12.05-1.33,14.13-1.82V32.98c-3.6-.13-8.03-.69-10.31-.98v53.12c0,25.73-26.32,34.59-33.65,38.4,8.05,5.41,18.46,9.05,29.83,9.05M666.2,122.66c4.82-4.64,9.25-12.76,9.25-25.51V26.38c-1.41-.39-4.35-1.17-5.63-1.45v72.31c0,13.93-4.73,19.47-7.04,22.77.9.76,2.43,1.96,3.42,2.66M753.93,2.92c-.42,3.37-4.55,30.28-35.14,30.28-1.8,0-4.09-.05-5.58-.13v97.11c16.01-4.94,29.23-18.16,34.97-36.77l.74.09c-2.22,34.06-29.55,60.9-62.51,60.9-35.78,0-62.3-27.67-62.3-65.49,0-24.91,12.56-47.44,32.05-58.51l.45.52c-9.39,11-14.42,23.98-14.42,40.37,0,20.65,7.98,37.16,19.4,47.68,2.51-3.59,6.29-9.78,6.29-22.7V24.49c-1-.21-5.43-1.23-9.85-1.23-12.77,0-23.64,3.45-33.26,14.67l-.61-.34C627.25,15.83,642.73.08,671.02.08c25.48,0,38.63,9.57,58.4,9.57,13.22,0,21.02-5.2,23.86-7.06l.65.33Z"/>
  </g>
  <g>
    <path class="cls-2" d="M388.08,264.17c0,4.81-2.68,7.86-7.71,7.86h-4.63v8.4h-3.69v-24.18h7.71c6.26,0,8.33,3.37,8.33,7.93M375.73,259.4v9.48h4.81c1.95,0,3.76-1.01,3.76-4.71,0-2.79-1.3-4.78-3.76-4.78h-4.81Z"/>
    <path class="cls-2" d="M403.37,269.31v8c0,.61.25.94.87.94.33,0,.58,0,.87-.11l.44,1.96c-.87.43-1.56.58-2.75.58-2.53,0-2.86-1.81-2.86-2.46-.54.98-1.7,2.46-4.96,2.46-3.73,0-5.47-1.92-5.47-5.03,0-4.49,3.66-5.9,7.64-5.9.94,0,2.39.18,2.79.22v-1.59c0-2.42-2.06-2.61-4.13-2.61s-3.84.47-5.07.94l.58-2.86c1.19-.43,3.37-.9,5.47-.9,4.42,0,6.59,1.27,6.59,6.37M393.13,275.29c0,2.46,2.17,2.57,3.04,2.57,2.06,0,3.76-1.56,3.76-3.73v-1.74c-.54-.04-1.74-.15-2.46-.15-2.79,0-4.34.72-4.34,3.04"/>
    <path class="cls-2" d="M417.92,263.85l-.65,2.86c-.9-.33-1.74-.51-2.82-.51-1.52,0-2.61,1.59-2.97,2.28v11.94h-3.47v-17.19h3.47v2.24c.69-1.63,2.03-2.53,3.22-2.53,1.3,0,2.39.47,3.22.9"/>
    <path class="cls-2" d="M425.3,263.23h3.58v2.75h-3.58v9.88c0,1.77.47,1.99,1.77,1.99.47,0,1.3-.22,1.7-.43l.51,2.61c-1.16.4-1.88.65-3.8.65-2.39,0-3.58-1.01-3.58-4.38v-10.32h-2.75l.58-2.75h2.17v-4.6l3.4-1.12v5.72Z"/>
    <path class="cls-2" d="M455.02,271.88c0,7.13-3.95,8.8-8.33,8.8s-8.32-1.67-8.32-8.8,3.91-8.94,8.32-8.94,8.33,1.85,8.33,8.94M442.03,271.88c0,5.28,1.92,6.15,4.67,6.15s4.71-.87,4.71-6.15-2.03-6.3-4.71-6.3-4.67.98-4.67,6.3"/>
    <path class="cls-2" d="M468.27,255.85l-.62,2.82c-.76-.18-1.59-.4-2.32-.4-1.52,0-1.96.36-1.96,2.06v2.9h3.73v2.75h-3.73v14.44h-3.44v-14.44h-2.75l.58-2.75h2.17v-2.42c0-3.04.54-5.54,4.78-5.54,1.34,0,2.46.15,3.55.58"/>
    <path class="cls-2" d="M551.09,267.76v.57c0,2.75-.54,5.08-1.59,6.98-1.06,1.89-2.5,3.31-4.31,4.24-1.82.94-3.88,1.4-6.18,1.4-1.15,0-2.25-.12-3.29-.36-1.13-.27-2.19-.67-3.19-1.23-1.93-1.06-3.44-2.55-4.54-4.46-1.09-1.92-1.65-4.12-1.65-6.6s.55-4.68,1.65-6.58c1.1-1.92,2.6-3.39,4.52-4.44,1.92-1.05,4.09-1.58,6.5-1.58,2.26,0,4.26.45,6,1.36.28.14.57.3.84.49.08.03.15.08.21.13,1.98,1.31,3.37,3.1,4.17,5.38l.16.5h-4.42c-.41-.94-.92-1.73-1.57-2.36-.23-.25-.49-.47-.77-.66-1.22-.87-2.76-1.31-4.63-1.31-1.6,0-3.03.36-4.3,1.06-1.27.72-2.26,1.76-2.96,3.14-.72,1.38-1.07,3-1.07,4.87s.35,3.53,1.07,4.91c.71,1.38,1.7,2.42,2.96,3.14.72.42,1.49.71,2.34.89.32.07.66.12,1,.15.31.03.63.05.96.05,1.53,0,2.86-.28,3.98-.87,1.12-.59,1.98-1.36,2.59-2.31.61-.95.95-1.96,1.01-3.05h-6.84l1.36-3.44h9.99Z"/>
    <path class="cls-2" d="M577.7,280.41h-4.67l-1.86-5.01h0s-11.52,0-11.52,0l-1.85,5.01h-4.61l9.51-24.17h5.49l9.5,24.17ZM569.91,271.98l-4.45-11.98h-.13l-4.41,11.98h8.99Z"/>
    <polygon class="cls-2" points="598.52 276.75 597.08 280.41 581.83 280.41 581.83 256.24 586.12 256.24 586.12 276.75 598.52 276.75"/>
    <path class="cls-2" d="M624.88,280.41h-4.67l-1.86-5.01h0s-11.52,0-11.52,0l-1.84,5.01h-4.61l9.51-24.17h5.49l9.5,24.17ZM617.09,271.98l-4.45-11.98h-.13l-4.41,11.98h8.99Z"/>
    <path class="cls-2" d="M650.73,268.32c0,3.95-1.05,6.95-3.15,9-2.1,2.05-4.95,3.08-8.57,3.08h-9.98v-24.17h9.98c3.61,0,6.47,1.03,8.57,3.08,2.1,2.06,3.15,5.06,3.15,9M646.39,268.32c0-2.84-.69-4.98-2.06-6.43-1.38-1.45-3.34-2.17-5.89-2.17h-5.14v17.2h5.14c2.55,0,4.51-.72,5.89-2.17,1.37-1.45,2.06-3.59,2.06-6.43"/>
    <path class="cls-2" d="M677.31,280.41h-4.67l-1.86-5.01h0s-11.52,0-11.52,0l-1.85,5.01h-4.61l9.51-24.17h5.49l9.5,24.17ZM669.51,271.98l-4.45-11.98h-.13l-4.41,11.98h8.99Z"/>
    <path class="cls-2" d="M695.05,270.83c1.78-.45,3.14-1.3,4.09-2.53.94-1.25,1.42-2.78,1.42-4.61,0-2.3-.75-4.12-2.23-5.45-1.49-1.33-3.59-2-6.29-2h-10.58v24.17h4.27v-20.68h5.73c1.54,0,2.71.34,3.54,1.03.82.69,1.23,1.67,1.23,2.93s-.41,2.28-1.22,2.96c-.82.69-2,1.03-3.56,1.03h-3.13v3.49h1.4c2.66,1.49,5.67,5.68,6.71,9.24h4.53c-.98-3.38-3.88-8-5.92-9.58"/>
    <rect class="cls-2" x="705.69" y="256.24" width="4.27" height="24.17"/>
    <path class="cls-2" d="M486.3,299.99c-3.33,0-6.03,2.7-6.03,6.03s2.7,6.03,6.03,6.03,6.03-2.7,6.03-6.03-2.7-6.03-6.03-6.03"/>
    <path class="cls-2" d="M484.38,282.34c-.84,2.46.66,3.87,1.41,4.37,1.42.95,3.14,1.92,10.01,2.14,8.5.27,12.31.51,15.32,2.51,3.48,2.32,6.59,8.07,2.31,14.66-4.25,6.54-13.6,6.29-16.73,5.76,5.73-.76,9.3-2.68,10.31-5.9,1.02-3.22-.43-5.33-2.14-6.38-2.14-1.31-6.73-1.47-10.08-1.74-3.56-.28-9.25-.44-11.77-1.9-2.91-1.69-4.41-4.3-3.7-7.55.71-3.25,4.1-5.41,5.06-5.97"/>
    <path class="cls-2" d="M511.14,259.3c-.99.7-2.19,1.12-3.5,1.12-3.33,0-6.03-2.7-6.03-6.03,0-.42.05-.84.13-1.24-1.51-.39-3.1-.61-4.74-.61-9.52,0-17.24,7.07-17.24,15.8s7.72,15.8,17.24,15.8,17.24-7.07,17.24-15.8c0-3.36-1.15-6.48-3.1-9.04M506.82,268.34c0,5.22-4.4,9.45-9.82,9.45s-9.82-4.23-9.82-9.45,4.4-9.45,9.82-9.45,9.82,4.23,9.82,9.45"/>
    <path class="cls-2" d="M511.14,259.3c1.53-1.09,2.54-2.88,2.54-4.91,0-3.33-2.7-6.03-6.03-6.03-2.91,0-5.33,2.06-5.9,4.79,3.85,1.01,7.15,3.21,9.4,6.15"/>
  </g>
</svg>