<?xml version="1.0" encoding="UTF-8"?>
<svg id="Layer_1" data-name="Layer 1" xmlns="http://www.w3.org/2000/svg" viewBox="0 0 3469.07 1000.48">
  <defs>
    <style>
      .cls-1 {
        fill: #000;
      }

      .cls-1, .cls-2 {
        stroke-width: 0px;
      }

      .cls-2 {
        fill: #373b37;
      }
    </style>
  </defs>
  <g>
    <path class="cls-1" d="M2235.08,425.05c22.75,0,38.65-4.26,45.31-5.82l-.02-313.5c-11.54-.42-25.73-2.21-33.05-3.14v170.31c0,82.49-84.37,110.89-107.88,123.11,25.81,17.35,59.17,29.03,95.63,29.03M2135.94,393.28c15.44-14.86,29.66-40.9,29.66-81.8V84.56c-4.52-1.23-13.94-3.74-18.06-4.64v231.82c0,44.67-15.15,62.43-22.57,73,2.89,2.44,7.78,6.29,10.97,8.53M2417.21,9.37c-1.33,10.79-14.58,97.08-112.66,97.08-5.75.03-13.1-.17-17.88-.41v311.35c51.33-15.85,93.73-58.23,112.11-117.88l2.36.29c-7.12,109.2-94.75,195.24-200.43,195.24-114.71,0-199.74-88.72-199.74-209.97,0-79.87,40.27-152.1,102.75-187.59l1.44,1.66c-30.11,35.25-46.23,76.87-46.23,129.42,0,66.19,25.58,119.12,62.2,152.86,8.06-11.51,20.16-31.37,20.16-72.77V78.51c-3.21-.67-17.4-3.95-31.58-3.95-40.93,0-75.78,11.05-106.63,47.03l-1.96-1.08c9.93-69.78,59.55-120.27,150.27-120.27,81.7,0,123.86,30.69,187.23,30.69,42.39,0,67.4-16.67,76.49-22.63l2.09,1.05ZM2452.25,26.92l54.72,54.79-54.72,54.78-54.74-54.78,54.74-54.79ZM3469.07,155.3l-87.83,120.47,71.45,52.2v88.23l-104.25,79.8c-6.52-4.51-30.7-21.95-68.3-21.95-31.3,0-50.46,14.45-61.48,22.11l-3.64-3.15,92.6-127.02-65.91-37.25v-97.54l102.18-79.61c9.12,6.56,27.81,20.09,62.91,20.09,31.04,0,49.72-14.02,57.53-20.15l4.71,3.79ZM3442.21,181.39l-1.8-1.46c-6.96,8.03-37.15,40.2-74.5,40.2-25.49,0-39.14-9.17-45.02-13.21v73.58l34.4,20.07,86.91-119.19ZM3373.47,375.22l-42.75-30.14-89.49,122.79,1.58,1.61c12.62-12.69,41.35-41.06,80.33-41.06,28.49,0,44.62,10.29,50.32,13.15v-66.36ZM2391.32,198.8l60.98-46.85,49.84,64.89v187.94s10.57,9.5,18,16.33c9.09,8.33,17.94,10.98,25.93,10.98,8.97,0,15.23-3.72,17.92-5.49v-187.01l-31.61-40.77,60.95-46.85,49.89,64.82,97.21-64.71,49.81,64.71,99.62-64.88,49.9,64.81v188.08l21.67,19.53c8.73,7.96,17.72,12.25,27.65,12.25,7.64,0,11.41-2.22,14.49-4.25l1.82-1.21v-190.83l132.07-88.31,88.24,117.88-140.83,89.96v37.16s57.03,28.46,77.19,38.4c9.13,4.5,18.59,8.61,31.04,8.61,13.76,0,27.14-5.26,34.11-8.42l10.74-5,2.52,5.7-115.62,59.72-117.18-61.1-73.16,60.17-73.9-62.99v-192.88l-31.47-40.25-38.99,25.39v180.58l46.46,41.57-51.75,48.73-73.87-63.15v-192.73l-30.77-39.66-37.05,24.65v180.5l46.45,41.66-51.74,48.73-73.89-63.15-67.58,62.78c-10.5-9.55-73.48-62.5-73.48-62.5v-192.58l-31.6-40.97ZM3084.94,352.45l69.22-44.5-69.22-92.69v137.19ZM910.23,239.77l128.85-87.72,87.86,82.92v170.15s13.38,10.62,25.16,20.39c10.44,8.6,16.06,9.77,20.03,9.77,7.41,0,14.3-5.73,18.98-10.07l-.09-326.36c0-17.39-3.02-40.82-21.16-57.3l1.29-1.91c20.78,5.79,36.72,25.44,41.48,40.69,14.64-50.56,70.22-68.72,113.87-62.97v2.68c-32.29,6.7-56.29,29.6-56.29,85.75v301.12s14.1,12.88,17.79,16.08c8.59,8.33,13.92,12.59,22.29,12.59,7.51,0,14.15-3.99,17.45-6.48l2.53-2.03v-186.78l132.09-88.31,88.23,117.88-140.82,89.96v37.16s56.99,28.46,77.18,38.4c9.15,4.5,18.6,8.61,31.04,8.61,13.77,0,27.13-5.26,34.12-8.42,6.31-2.98,11.82-5.49,13.18-6.1v-189.18l132.08-88.31,88.22,117.88-140.81,89.96v37.16s57,28.46,77.16,38.4c9.14,4.5,20.16,6.9,31.48,6.9,14.75,0,27.01-6.28,33.76-9.53l17.18-8.86v-174.54l-34.04-44.09,62.7-53.28,50.48,64.95v307.25c-82.47,0-122.27,107.55-265.43,107.55-83.33,0-125.44-38.39-125.44-86.93,0-36.9,32.31-65.75,71.29-65.75,45.07,0,66.72,21.27,78.04,37.89l-3.59,1.95c-6.39-6.57-15.91-14.27-34.02-14.27-19.71,0-38.75,14.15-38.75,37.66,0,36.64,42.19,67.43,98.67,67.43,53.52,0,140.1-38.4,140.1-113.17v-65.35l-119.62,64.81-119.46-59-115.55,59-119.36-62.23-74.65,61.47-64.69-62.63-73.94,62.67-67.59-61.44-59.63,61.44-79.64-62.49-74.82,62.23-69.4-62.94v-183.12l-31.75-46.02-31.23,21.52v179.84l43.72,39.17-58.07,51.75-64.83-62.85-64.48,62.5-72.37-32.96c-25.55-11.45-44.83-26.03-58.97-54.74-29.34,25.58-65.93,59.33-95.28,86.94-23.43-15.14-65.09-39.45-134.96-39.45-101.3,0-190.69,48.57-190.69,106.11,0,36.49,26.54,55.78,58.5,55.78l-.34,5.34c-42.9,0-65.26-29.42-65.26-63.61,0-96.89,122.1-169.95,228.95-177.12,10.9-14.64,26.77-32.81,26.77-83.6v-142.71c-.01-22.97,7.41-32.66,10.3-36.43-1.09,3.64-4.04,12.93-4.04,38.2v146.63c0,45.61-15.67,63.03-26.54,77.59,3.87-.18,7.69-.27,11.49-.27l6.6.08c23.76-26.86,26.23-56.91,26.23-85.35,0,0-.22-102.12,0-142.98.26-47.97,15.61-65.82,44.76-94.88,7.06-7.05,14.27-14.16,19.74-19.48l-1.23-1.43c-35.67,27.22-65.11,48.92-111.39,48.92-36.82,0-68.91-16.3-103.76-16.3-26.33,0-39.78,12.38-44.92,16.12C96.88,59.01,137.21,0,197.74,0c44.89,0,66.1,19.11,110.4,19.11,25.75,0,48.56-3.36,68.32-13.26l1.72,1.67c-12.99,21.06-18.43,50.19-18.43,87.05v97.28L484.19,5.51c14.77,9.52,30.68,20.52,59.46,20.52,34.08,0,48.47-9.85,60.24-16.86l1.43.85c-7.1,22.17-41.22,78.56-95.75,78.56-28.77,0-50.95-13.19-60.64-18.97l-59.54,89.2,67.88,54.94s28.94,98.56,40.6,136.49c12.98,42.21,24.69,47.73,49.18,59.11,9.66,4.48,19.44,8.85,33.58,15.16,15.05,6.74,19.57,6.56,27.15,6.56,7.96,0,13.99-3.37,16.08-4.82V98.08c0-30.91-10.73-46.72-21.25-56.54l1.3-1.88c10.56,2.12,32.67,14.91,41.49,40.75,8.83-34.85,49.72-70.1,113.63-63.07v3.1c-35.26,6.92-56,32.65-56,87.88v108.53l92.95-64.01,49.21,63.75v190.42l20.97,17.61c6.95,5.83,13.51,10.36,23.72,10.36,9.23,0,16.54-6.14,20.41-9.05l-.06-186.16ZM989.42,402.8l29.1,22.86c8.17,6.4,12.67,7.67,17.64,7.67,6.64,0,11.6-4.49,11.6-4.49l.11-153.69-58.45-57.63v185.28ZM1644.84,352.45l69.21-44.5-69.21-92.69v137.19ZM1409.83,352.45l69.22-44.5-69.22-92.69v137.19ZM392.23,430.75l32.84-29.81c-1.4-3.73-5.82-17.18-11.21-33.89-11.11-40.74-28.15-102.53-28.15-102.53l-25.95-24.37v27.5c0,59.12-41.69,88.76-98.41,113.31,79.3,4.47,122.31,42.33,130.88,49.79M1888.51,81.71l-54.73,54.78-54.71-54.78,54.71-54.79,54.73,54.79Z"/>
    <path class="cls-1" d="M1191.03,98.86c0-17.39-3.02-40.82-21.16-57.3l1.29-1.91c20.78,5.79,36.71,25.45,41.48,40.69,14.64-50.56,70.22-68.72,113.87-62.97v2.67c-32.29,6.7-56.29,29.6-56.29,85.75v301.11s14.1,12.89,17.79,16.08c8.59,8.34,13.92,12.59,22.29,12.59,7.51,0,14.15-4,17.45-6.48,1.26-.96,2.79-2.25,2.79-2.25l2.93,4.37-77.75,64.02-64.69-62.64V98.86Z"/>
    <path class="cls-1" d="M913.44,430.12l-3.14-4.19c-3.87,2.91-11.18,9.05-20.41,9.05-10.21,0-16.78-4.53-23.72-10.36-11.91-9.96-20.97-17.61-20.97-17.61v-190.42l-49.22-63.74-92.94,64.01v-108.53c0-55.22,20.73-80.96,55.99-87.87v-3.1c-63.91-7.03-104.8,28.22-113.63,63.07-8.82-25.83-30.92-38.63-41.48-40.75l-1.3,1.88c10.51,9.82,21.25,25.63,21.25,56.54v334.28l64.83,62.85,58.07-51.75-43.72-39.17v-179.85l31.23-21.52,31.75,46.02v183.13l69.4,62.93,78.02-64.89Z"/>
    <path class="cls-1" d="M1888.51,81.71l-54.72,54.78-54.72-54.78,54.72-54.79,54.72,54.79ZM1641.96,516.93c-11.32-16.62-32.97-37.9-78.04-37.9-38.98,0-71.28,28.86-71.28,65.75,0,48.53,42.11,86.93,125.43,86.93,143.16,0,182.97-107.55,265.43-107.55V216.91l-50.47-64.95-62.7,53.28,34.05,44.09v247.19c0,74.77-86.58,113.17-140.1,113.17-56.48,0-98.67-30.79-98.67-67.43,0-23.5,19.05-37.65,38.75-37.65,18.1,0,27.62,7.7,34.01,14.27l3.59-1.95Z"/>
    <path class="cls-1" d="M392.22,430.75l32.84-29.81c-1.4-3.73-5.82-17.18-11.22-33.89-11.1-40.74-28.14-102.52-28.14-102.52l-25.95-24.37v27.5c0,59.11-41.69,88.76-98.41,113.31,79.29,4.46,122.31,42.34,130.87,49.79M378.18,7.52c-12.99,21.05-18.43,50.2-18.43,87.05v97.28L484.19,5.52c14.77,9.51,30.68,20.51,59.46,20.51,34.07,0,48.47-9.85,60.24-16.86l1.43.85c-7.1,22.17-41.22,78.56-95.75,78.56-28.77,0-50.94-13.18-60.63-18.97l-59.54,89.2,67.88,54.94s28.95,98.56,40.6,136.49c12.98,42.21,24.69,47.73,49.18,59.11,9.66,4.48,19.43,8.85,33.58,15.16,15.05,6.73,19.57,6.56,27.14,6.56,9.21,0,15.83-4.51,16.77-5.35l2.73,3.52-67.9,65.62s-42.36-19.31-72.37-32.95c-25.55-11.45-44.83-26.04-58.98-54.75-29.34,25.58-65.93,59.33-95.28,86.94-23.43-15.15-65.09-39.45-134.96-39.45-101.3,0-190.7,48.57-190.7,106.11,0,36.5,26.55,55.79,58.5,55.79l-.35,5.34C22.36,621.89,0,592.47,0,558.28,0,461.39,122.11,388.33,228.95,381.16c10.9-14.64,26.77-32.81,26.77-83.6,0,0-.01-136.72-.01-142.71,0-22.97,7.42-32.66,10.31-36.43l.06.05c-1.08,3.63-4.1,12.88-4.1,38.15v146.63c0,45.61-15.67,63.03-26.54,77.59,3.87-.18,7.69-.27,11.49-.27,2.23,0,4.43.03,6.6.08,23.76-26.87,26.23-56.91,26.23-85.35,0,0-.22-102.13,0-142.99.26-47.96,15.61-65.82,44.76-94.87,7.07-7.04,14.27-14.16,19.74-19.48l-1.23-1.43c-35.68,27.22-65.11,48.93-111.39,48.93-36.82,0-68.92-16.3-103.76-16.3-26.33,0-39.78,12.38-44.92,16.12l-.97-.81C96.88,59.01,137.21,0,197.74,0,242.63,0,263.84,19.11,308.14,19.11c25.75,0,48.56-3.36,68.32-13.27l1.72,1.67Z"/>
    <path class="cls-1" d="M1409.83,352.46l69.22-44.5-69.22-92.69v137.19ZM1330.28,240.27l132.08-88.31,88.23,117.88-140.82,89.96v37.16s56.99,28.46,77.18,38.4c9.15,4.49,18.6,8.6,31.04,8.6,13.77,0,27.13-5.25,34.12-8.42,7.27-3.44,13.49-6.25,13.49-6.25v7.46l-115.87,59.23-119.46-62.28v-193.43Z"/>
    <path class="cls-1" d="M3084.94,352.46l69.21-44.5-69.21-92.69v137.19ZM3005.4,240.27l132.07-88.31,88.24,117.88-140.83,89.96v37.16s57.03,28.46,77.19,38.4c9.13,4.49,18.6,8.6,31.03,8.6,13.76,0,27.14-5.25,34.12-8.42,2.04-.93,10.73-4.99,10.73-4.99l2.52,5.7-115.62,59.72-119.46-62.28v-193.43Z"/>
    <path class="cls-1" d="M1644.84,352.46l69.21-44.5-69.21-92.69v137.19ZM1565.29,240.27l132.08-88.31,88.22,117.88-140.82,89.96v37.16s57.01,28.46,77.16,38.4c9.14,4.49,20.16,6.9,31.49,6.9,14.75,0,27-6.28,33.76-9.53,6.4-3.26,18.73-9.66,18.73-9.66v7.25l-121.18,65.66-119.46-59v-196.72Z"/>
    <path class="cls-1" d="M910.23,239.77l128.86-87.72,87.86,82.92v170.15s13.38,10.63,25.16,20.4c10.44,8.59,16.06,9.77,20.03,9.77,7.4,0,14.3-5.73,18.97-10.07l3.43,4.42-77.45,65.63-67.59-61.44-59.63,61.44-79.64-62.49v-193.01ZM989.42,402.8s24.1,18.97,29.1,22.86c8.17,6.4,12.67,7.67,17.64,7.67,6.64,0,11.6-4.49,11.6-4.49l.11-153.69-58.45-57.63v185.28Z"/>
    <path class="cls-1" d="M2790.26,216.78l-49.82-64.71-97.21,64.71-49.89-64.82-60.95,46.85,31.61,40.77v192.49l73.89,63.15,51.73-48.74-46.45-41.66v-180.51l37.05-24.65,30.77,39.66v192.74l73.88,63.15,51.75-48.74-46.46-41.57v-180.58l39-25.4,31.47,40.25v192.89l73.9,62.98,73.74-60.65-2.46-3.57s-1.07.74-2.21,1.48c-3.08,2.03-6.86,4.24-14.49,4.24-9.93,0-18.92-4.29-27.65-12.25-5.72-5.15-21.67-19.52-21.67-19.52v-188.09l-49.9-64.8-99.62,64.87Z"/>
    <path class="cls-1" d="M3469.07,155.3l-87.83,120.47,71.45,52.2v88.23l-104.25,79.79c-6.53-4.51-30.7-21.95-68.3-21.95-31.3,0-50.45,14.45-61.48,22.11l-3.64-3.15,92.6-127.02-65.91-37.26v-97.54l102.18-79.6c9.12,6.56,27.8,20.08,62.91,20.08,31.04,0,49.72-14.02,57.54-20.15l4.71,3.79ZM3442.21,181.39l-1.8-1.46c-6.96,8.04-37.15,40.2-74.5,40.2-25.49,0-39.14-9.17-45.02-13.21v73.59l34.41,20.07,86.91-119.19ZM3373.47,375.22l-42.75-30.14-89.49,122.79,1.58,1.61c12.62-12.69,41.35-41.06,80.33-41.06,28.49,0,44.62,10.29,50.32,13.15v-66.36Z"/>
    <path class="cls-1" d="M2391.32,198.8l60.98-46.86,49.84,64.89v187.94s10.57,9.5,18,16.32c9.09,8.34,17.94,10.99,25.93,10.99,9.52,0,15.96-4.18,18.36-5.78.58.78,2.4,3.12,2.4,3.12l-70.43,65.43c-10.5-9.55-73.48-62.5-73.48-62.5v-192.58l-31.61-40.96ZM2452.25,26.92l-54.75,54.79,54.75,54.78,54.71-54.78-54.71-54.79Z"/>
    <path class="cls-1" d="M2235.08,425.05c22.75,0,38.65-4.25,45.32-5.82l-.02-313.5c-11.54-.42-25.73-2.2-33.05-3.14v170.31c0,82.49-84.37,110.9-107.88,123.12,25.81,17.35,59.17,29.03,95.63,29.03M2135.94,393.27c15.44-14.86,29.66-40.9,29.66-81.8V84.57c-4.52-1.24-13.94-3.74-18.06-4.64v231.82c0,44.67-15.15,62.43-22.57,73,2.89,2.44,7.78,6.3,10.97,8.53M2417.21,9.37c-1.33,10.79-14.57,97.08-112.65,97.08-5.76.03-13.1-.17-17.88-.42v311.35c51.33-15.85,93.73-58.23,112.11-117.88l2.36.3c-7.12,109.2-94.75,195.24-200.43,195.24-114.71,0-199.74-88.72-199.74-209.96,0-79.88,40.27-152.11,102.75-187.6l1.44,1.66c-30.11,35.25-46.23,76.87-46.23,129.42,0,66.19,25.58,119.13,62.19,152.86,8.06-11.5,20.16-31.37,20.16-72.77V78.51c-3.21-.67-17.4-3.95-31.57-3.95-40.94,0-75.79,11.06-106.64,47.04l-1.96-1.08C2011.06,50.74,2060.68.25,2151.41.25c81.7,0,123.86,30.7,187.23,30.7,42.4,0,67.4-16.67,76.49-22.63l2.09,1.05Z"/>
  </g>
  <g>
    <path class="cls-2" d="M1244.24,846.98c0,15.44-8.59,25.19-24.72,25.19h-14.86v26.92h-11.84v-77.52h24.72c20.08,0,26.69,10.79,26.69,25.41M1204.66,831.66v30.41h15.44c6.26,0,12.07-3.25,12.07-15.09,0-8.94-4.18-15.32-12.07-15.32h-15.44Z"/>
    <path class="cls-2" d="M1293.27,863.46v25.65c0,1.97.81,3.02,2.79,3.02,1.04,0,1.86,0,2.78-.35l1.4,6.27c-2.79,1.39-4.99,1.85-8.82,1.85-8.13,0-9.17-5.8-9.17-7.89-1.74,3.13-5.45,7.89-15.9,7.89-11.96,0-17.53-6.15-17.53-16.13,0-14.39,11.72-18.92,24.49-18.92,3.02,0,7.66.58,8.94.7v-5.11c0-7.77-6.61-8.35-13.23-8.35s-12.3,1.51-16.25,3.02l1.86-9.17c3.83-1.39,10.79-2.9,17.52-2.9,14.16,0,21.12,4.06,21.12,20.42M1260.42,882.61c0,7.89,6.96,8.24,9.75,8.24,6.61,0,12.07-4.99,12.07-11.96v-5.57c-1.74-.12-5.57-.47-7.89-.47-8.94,0-13.92,2.32-13.92,9.75"/>
    <path class="cls-2" d="M1339.92,845.94l-2.09,9.17c-2.9-1.04-5.57-1.62-9.05-1.62-4.87,0-8.35,5.11-9.52,7.31v38.3h-11.14v-55.13h11.14v7.19c2.21-5.22,6.5-8.12,10.33-8.12,4.18,0,7.66,1.51,10.33,2.9"/>
    <path class="cls-2" d="M1363.6,843.97h11.49v8.82h-11.49v31.68c0,5.69,1.51,6.38,5.69,6.38,1.51,0,4.18-.7,5.45-1.39l1.62,8.35c-3.72,1.28-6.03,2.09-12.18,2.09-7.66,0-11.49-3.25-11.49-14.05v-33.07h-8.82l1.86-8.82h6.96v-14.74l10.91-3.6v18.34Z"/>
    <path class="cls-2" d="M1458.88,871.7c0,22.86-12.65,28.2-26.69,28.2s-26.69-5.34-26.69-28.2,12.53-28.67,26.69-28.67,26.69,5.92,26.69,28.67M1417.21,871.7c0,16.94,6.15,19.73,14.97,19.73s15.09-2.79,15.09-19.73-6.5-20.19-15.09-20.19-14.97,3.13-14.97,20.19"/>
    <path class="cls-2" d="M1501.35,820.29l-1.97,9.05c-2.44-.58-5.11-1.28-7.43-1.28-4.87,0-6.27,1.16-6.27,6.62v9.28h11.96v8.82h-11.96v46.31h-11.02v-46.31h-8.82l1.86-8.82h6.96v-7.77c0-9.75,1.74-17.76,15.32-17.76,4.3,0,7.89.47,11.37,1.86"/>
    <path class="cls-2" d="M1766.88,858.47v1.83c0,8.83-1.72,16.28-5.11,22.37-3.39,6.07-8,10.6-13.82,13.6-5.85,3.01-12.43,4.48-19.81,4.48-3.69,0-7.21-.39-10.54-1.15-3.61-.87-7.02-2.16-10.22-3.93-6.2-3.39-11.03-8.17-14.56-14.31-3.5-6.15-5.27-13.2-5.27-21.17s1.78-15,5.27-21.09c3.52-6.15,8.33-10.87,14.48-14.23,6.15-3.36,13.11-5.05,20.85-5.05,7.24,0,13.66,1.45,19.23,4.35.9.46,1.83.96,2.7,1.56.25.11.47.24.68.41,6.34,4.21,10.82,9.94,13.38,17.26l.52,1.61h-14.18c-1.31-3-2.95-5.55-5.03-7.57-.74-.79-1.58-1.5-2.48-2.13-3.91-2.79-8.85-4.21-14.83-4.21-5.14,0-9.73,1.15-13.77,3.41-4.07,2.3-7.24,5.63-9.51,10.06-2.29,4.43-3.42,9.62-3.42,15.62s1.12,11.31,3.42,15.74c2.27,4.43,5.43,7.76,9.51,10.08,2.32,1.34,4.78,2.27,7.49,2.84,1.04.22,2.1.38,3.2.47,1.01.11,2.02.16,3.09.16,4.92,0,9.18-.9,12.76-2.79,3.58-1.89,6.34-4.37,8.3-7.4,1.94-3.03,3.03-6.28,3.25-9.78h-21.94l4.35-11.04h32.02Z"/>
    <path class="cls-2" d="M1852.21,899.04h-14.96l-5.97-16.06h0s-36.94,0-36.94,0l-5.92,16.06h-14.78l30.49-77.49h17.6l30.47,77.49ZM1827.21,872.02l-14.28-38.42h-.41l-14.15,38.42h28.84Z"/>
    <polygon class="cls-2" points="1918.94 887.32 1914.32 899.05 1865.43 899.05 1865.43 821.56 1879.2 821.56 1879.2 887.32 1918.94 887.32"/>
    <path class="cls-2" d="M2003.48,899.04h-14.96l-5.97-16.06h0s-36.95,0-36.95,0l-5.91,16.06h-14.78l30.49-77.49h17.6l30.47,77.49ZM1978.47,872.02l-14.28-38.42h-.41l-14.15,38.42h28.84Z"/>
    <path class="cls-2" d="M2086.33,860.29c0,12.67-3.37,22.28-10.09,28.87-6.72,6.59-15.88,9.89-27.47,9.89h-31.98v-77.49h31.98c11.59,0,20.75,3.3,27.47,9.86,6.72,6.59,10.09,16.22,10.09,28.87M2072.43,860.29c0-9.11-2.2-15.97-6.61-20.6-4.43-4.64-10.72-6.95-18.88-6.95h-16.47v55.14h16.47c8.17,0,14.45-2.32,18.88-6.95,4.41-4.64,6.61-11.5,6.61-20.63"/>
    <path class="cls-2" d="M2171.55,899.04h-14.96l-5.97-16.06h0s-36.94,0-36.94,0l-5.92,16.06h-14.78l30.49-77.49h17.6l30.47,77.49ZM2146.55,872.02l-14.28-38.42h-.41l-14.15,38.42h28.84Z"/>
    <path class="cls-2" d="M2228.44,868.32c5.71-1.44,10.07-4.15,13.12-8.12,3.03-3.99,4.54-8.91,4.54-14.78,0-7.37-2.39-13.19-7.16-17.46-4.77-4.27-11.5-6.4-20.17-6.4h-33.92v77.49h13.68v-66.32h18.38c4.93,0,8.7,1.1,11.36,3.31,2.64,2.22,3.95,5.35,3.95,9.38s-1.31,7.3-3.9,9.5c-2.61,2.2-6.4,3.31-11.4,3.31h-10.03v11.19h4.49c8.53,4.77,18.17,18.2,21.52,29.62h14.51c-3.16-10.83-12.45-25.64-18.98-30.73"/>
    <rect class="cls-2" x="2262.56" y="821.56" width="13.68" height="77.49"/>
    <path class="cls-2" d="M1559.15,961.81c-10.68,0-19.34,8.66-19.34,19.34s8.66,19.33,19.34,19.33,19.34-8.66,19.34-19.33-8.66-19.34-19.34-19.34"/>
    <path class="cls-2" d="M1552.98,905.24c-2.68,7.88,2.11,12.4,4.53,14.02,4.55,3.03,10.08,6.16,32.09,6.86,27.24.87,39.47,1.64,49.11,8.06,11.15,7.43,21.14,25.86,7.4,47-13.62,20.97-43.62,20.16-53.65,18.46,18.38-2.44,29.81-8.59,33.07-18.92,3.26-10.32-1.37-17.09-6.86-20.44-6.86-4.19-21.58-4.72-32.32-5.57-11.41-.9-29.66-1.41-37.75-6.11-9.34-5.43-14.15-13.8-11.86-24.21,2.28-10.41,13.15-17.35,16.22-19.14"/>
    <path class="cls-2" d="M1638.79,831.37c-3.16,2.25-7.02,3.6-11.21,3.6-10.67,0-19.33-8.66-19.33-19.34,0-1.36.15-2.69.41-3.97-4.83-1.27-9.93-1.96-15.2-1.96-30.53,0-55.28,22.68-55.28,50.65s24.75,50.65,55.28,50.65,55.28-22.68,55.28-50.65c0-10.78-3.69-20.77-9.95-28.97M1624.94,860.34c0,16.74-14.1,30.31-31.48,30.31s-31.48-13.57-31.48-30.31,14.1-30.31,31.48-30.31,31.48,13.57,31.48,30.31"/>
    <path class="cls-2" d="M1638.79,831.37c4.92-3.5,8.13-9.24,8.13-15.74,0-10.67-8.65-19.33-19.33-19.33-9.31,0-17.09,6.59-18.92,15.36,12.36,3.23,22.94,10.3,30.13,19.71"/>
  </g>
</svg>