<?xml version="1.0" encoding="utf-8"?>
<!-- Generator: Adobe Illustrator 25.4.1, SVG Export Plug-In . SVG Version: 6.00 Build 0)  -->
<svg version="1.1" id="Layer_1" focusable="false" xmlns="http://www.w3.org/2000/svg" xmlns:xlink="http://www.w3.org/1999/xlink"
	 x="0px" y="0px" viewBox="0 0 640 512" style="enable-background:new 0 0 640 512;" xml:space="preserve">
<path d="M0,480c0,17.7,14.3,32,32,32h64c17.7,0,32-14.3,32-32V160H0V480z M579.2,288c17.9-17.4,28.8-37.3,28.8-58.9
	c0-52.9-41.8-93.8-87.9-122.9c-41.9-26.5-80.6-57.8-112-96.2L400,0l-8.1,10c-31.3,38.5-70,69.8-112,96.2
	c-46.1,29.1-87.9,70-87.9,122.9c0,21.6,11,41.5,28.8,58.9H579.2L579.2,288z M608,320H192c-17.7,0-32,14.3-32,32v128
	c0,17.7,14.3,32,32,32h32v-64c0-17.7,14.3-32,32-32s32,14.3,32,32v64h64v-72c0-48,48-72,48-72s48,24,48,72v72h64v-64
	c0-17.7,14.3-32,32-32s32,14.3,32,32v64h32c17.7,0,32-14.3,32-32V352C640,334.3,625.7,320,608,320z M64,0C64,0,0,32,0,96v32h128V96
	C128,32,64,0,64,0z"/>
<rect x="192" y="336" width="395" height="176"/>
</svg>
