<svg width="13" height="8" viewBox="0 0 13 8" fill="none" xmlns="http://www.w3.org/2000/svg">
<path d="M6.50064 7.6875C6.2193 7.68631 5.94992 7.57359 5.75158 7.37406L0.439079 2.06156C0.265014 1.85831 0.174057 1.59685 0.184386 1.32944C0.194715 1.06204 0.305568 0.808378 0.494793 0.619153C0.684019 0.429927 0.937679 0.319074 1.20509 0.308745C1.47249 0.298417 1.73395 0.389373 1.9372 0.563439L6.50064 5.12156L11.0641 0.563439C11.2673 0.389373 11.5288 0.298417 11.7962 0.308745C12.0636 0.319074 12.3173 0.429927 12.5065 0.619153C12.6957 0.808378 12.8066 1.06204 12.8169 1.32944C12.8272 1.59685 12.7363 1.85831 12.5622 2.06156L7.2497 7.37406C7.05136 7.57359 6.78198 7.68631 6.50064 7.6875Z" fill="white"/>
</svg>
