<svg width="16" height="22" viewBox="0 0 16 22" fill="none" xmlns="http://www.w3.org/2000/svg">
<path d="M15.252 11.5117L1.08228 20.9581C0.981622 21.0251 0.864677 21.0635 0.743904 21.0693C0.62313 21.0751 0.503051 21.048 0.396456 20.9909C0.289861 20.9339 0.200741 20.849 0.138589 20.7452C0.0764371 20.6415 0.0435805 20.5229 0.0435181 20.402V1.50904C0.0435805 1.38813 0.0764371 1.2695 0.138589 1.16579C0.200741 1.06207 0.289861 0.977158 0.396456 0.920088C0.503051 0.863018 0.62313 0.835929 0.743904 0.841706C0.864677 0.847484 0.981622 0.885912 1.08228 0.952896L15.252 10.3994C15.3435 10.4604 15.4186 10.5431 15.4705 10.6401C15.5224 10.7371 15.5496 10.8455 15.5496 10.9555C15.5496 11.0655 15.5224 11.1739 15.4705 11.2709C15.4186 11.3679 15.3435 11.4506 15.252 11.5117Z" fill="white"/>
</svg>
