<svg width="23" height="23" viewBox="0 0 23 23" fill="none" xmlns="http://www.w3.org/2000/svg">
<path d="M10.3213 17.5375C8.89401 17.5375 7.49882 17.1143 6.31212 16.3214C5.12541 15.5284 4.20049 14.4013 3.6543 13.0828C3.10812 11.7642 2.96522 10.3132 3.24366 8.91341C3.5221 7.5136 4.20938 6.22779 5.21859 5.21858C6.2278 4.20937 7.51362 3.52209 8.91343 3.24364C10.3132 2.9652 11.7642 3.10811 13.0828 3.65429C14.4014 4.20047 15.5285 5.1254 16.3214 6.3121C17.1143 7.49881 17.5375 8.894 17.5375 10.3212C17.5375 11.2688 17.3508 12.2072 16.9882 13.0828C16.6256 13.9583 16.094 14.7538 15.4239 15.4239C14.7538 16.094 13.9583 16.6255 13.0828 16.9882C12.2073 17.3508 11.2689 17.5375 10.3213 17.5375ZM10.3213 4.55207C9.18401 4.55207 8.07231 4.8893 7.12672 5.52112C6.18114 6.15293 5.44415 7.05097 5.00895 8.10164C4.57374 9.15231 4.45987 10.3084 4.68173 11.4238C4.9036 12.5392 5.45124 13.5638 6.25538 14.3679C7.05954 15.172 8.08409 15.7197 9.19948 15.9416C10.3148 16.1634 11.471 16.0496 12.5217 15.6144C13.5723 15.1791 14.4704 14.4422 15.1022 13.4966C15.734 12.551 16.0713 11.4393 16.0713 10.3021C16.0713 8.77707 15.4655 7.31454 14.3871 6.2362C13.3088 5.15787 11.8463 4.55207 10.3213 4.55207Z" fill="black"/>
<path d="M19.1667 19.8854C19.0723 19.8858 18.9786 19.8674 18.8914 19.8312C18.8042 19.795 18.7251 19.7418 18.6587 19.6746L14.7008 15.7167C14.5739 15.5804 14.5048 15.4001 14.508 15.2139C14.5113 15.0277 14.5868 14.8501 14.7185 14.7184C14.8501 14.5867 15.0278 14.5113 15.214 14.508C15.4002 14.5048 15.5804 14.5739 15.7167 14.7008L19.6746 18.6587C19.8091 18.7935 19.8847 18.9761 19.8847 19.1667C19.8847 19.3571 19.8091 19.5397 19.6746 19.6746C19.6083 19.7418 19.5291 19.795 19.4419 19.8312C19.3547 19.8674 19.2611 19.8858 19.1667 19.8854Z" fill="black"/>
</svg>
