<svg width="30" height="30" viewBox="0 0 30 30" fill="none" xmlns="http://www.w3.org/2000/svg">
<path d="M13.4625 22.875C11.6009 22.875 9.78107 22.323 8.23319 21.2888C6.68532 20.2545 5.47889 18.7844 4.76648 17.0645C4.05407 15.3446 3.86767 13.452 4.23085 11.6262C4.59404 9.80036 5.49049 8.12321 6.80685 6.80685C8.12321 5.49049 9.80036 4.59404 11.6262 4.23085C13.452 3.86767 15.3446 4.05407 17.0645 4.76648C18.7844 5.47889 20.2545 6.68532 21.2888 8.23319C22.323 9.78107 22.875 11.6009 22.875 13.4625C22.875 14.6985 22.6315 15.9225 22.1585 17.0645C21.6855 18.2065 20.9921 19.2441 20.1181 20.1181C19.2441 20.9921 18.2065 21.6855 17.0645 22.1585C15.9225 22.6315 14.6985 22.875 13.4625 22.875ZM13.4625 5.93749C11.9791 5.93749 10.5291 6.37737 9.29572 7.20148C8.06235 8.02558 7.10105 9.19693 6.5334 10.5674C5.96574 11.9378 5.81722 13.4458 6.1066 14.9006C6.39599 16.3555 7.1103 17.6919 8.15919 18.7408C9.20809 19.7896 10.5445 20.504 11.9993 20.7934C13.4541 21.0828 14.9621 20.9343 16.3326 20.3666C17.703 19.7989 18.8744 18.8376 19.6985 17.6043C20.5226 16.3709 20.9625 14.9209 20.9625 13.4375C20.9625 11.4484 20.1724 9.54071 18.7658 8.13419C17.3593 6.72767 15.4516 5.93749 13.4625 5.93749Z" fill="black"/>
<path d="M25 25.9375C24.8769 25.938 24.7547 25.914 24.641 25.8667C24.5272 25.8196 24.424 25.7501 24.3375 25.6625L19.175 20.5C19.0094 20.3222 18.9192 20.0871 18.9235 19.8442C18.9277 19.6014 19.0262 19.3697 19.198 19.1979C19.3697 19.0261 19.6015 18.9277 19.8444 18.9235C20.0872 18.9192 20.3222 19.0094 20.5 19.175L25.6625 24.3375C25.838 24.5132 25.9366 24.7515 25.9366 25C25.9366 25.2484 25.838 25.4866 25.6625 25.6625C25.576 25.7501 25.4728 25.8196 25.359 25.8667C25.2453 25.914 25.1231 25.938 25 25.9375Z" fill="black"/>
</svg>
