<svg width="22" height="25" viewBox="0 0 22 25" fill="none" xmlns="http://www.w3.org/2000/svg">
<path d="M14.2964 2.23159L14.5666 1.82709L14.8318 1.42803L15.4289 0.532614C15.502 0.422477 15.4724 0.274311 15.3632 0.200721C15.2521 0.127132 15.1039 0.156765 15.0303 0.267396L14.3908 1.22751L14.1216 1.63102L13.8485 2.03996C12.9832 1.70461 12.0186 1.51644 10.9997 1.51644C9.98182 1.51644 9.01726 1.70461 8.15197 2.03996L7.88033 1.63102L7.61116 1.22751L6.97059 0.266902C6.89749 0.156765 6.74883 0.127132 6.6382 0.200227C6.52856 0.273323 6.49892 0.421983 6.57202 0.53212L7.16864 1.42754L7.43484 1.8266L7.705 2.2311C5.67265 3.17738 4.29816 4.9702 4.29816 7.0223H17.7033C17.7033 4.97069 16.3288 3.17788 14.2964 2.23159ZM8.12826 5.1075C7.73068 5.1075 7.40965 4.78598 7.40965 4.38939C7.40965 3.99279 7.73068 3.67177 8.12826 3.67177C8.52485 3.67177 8.84588 3.99279 8.84588 4.38939C8.84588 4.78598 8.52485 5.1075 8.12826 5.1075ZM13.8727 5.1075C13.4761 5.1075 13.1551 4.78598 13.1551 4.38939C13.1551 3.99279 13.4761 3.67177 13.8727 3.67177C14.2703 3.67177 14.5913 3.99279 14.5913 4.38939C14.5913 4.78598 14.2703 5.1075 13.8727 5.1075Z" fill="white"/>
<path d="M4.40138 7.98047H4.29816V9.17469V10.1491V18.5136C4.29816 19.3498 4.97775 20.0299 5.8139 20.0299H6.90836C6.87181 20.1563 6.85106 20.2901 6.85106 20.4284V20.5084V20.987V23.4614C6.85106 24.2541 7.4946 24.8976 8.28779 24.8976C9.08097 24.8976 9.72401 24.2541 9.72401 23.4614V20.987V20.5084V20.4284C9.72401 20.2906 9.70278 20.1563 9.66722 20.0299H12.3342C12.2977 20.1563 12.2774 20.2901 12.2774 20.4284V20.5084V20.987V23.4614C12.2774 24.2541 12.9209 24.8976 13.7136 24.8976C14.5063 24.8976 15.1499 24.2541 15.1499 23.4614V20.987V20.5084V20.4284C15.1499 20.2906 15.1296 20.1563 15.0931 20.0299H16.187C17.0232 20.0299 17.7033 19.3498 17.7033 18.5136V10.1491V9.17469V7.98047H17.6H4.40138Z" fill="white"/>
<path d="M1.90382 7.98047C1.11063 7.98047 0.46759 8.62302 0.46759 9.41719V15.5607C0.46759 16.3534 1.11063 16.9969 1.90382 16.9969C2.69651 16.9969 3.34004 16.3534 3.34004 15.5607V9.4167C3.34004 8.62302 2.697 7.98047 1.90382 7.98047Z" fill="white"/>
<path d="M20.0977 7.98047C19.304 7.98047 18.6614 8.62302 18.6614 9.41719V15.5607C18.6614 16.3534 19.304 16.9969 20.0977 16.9969C20.8904 16.9969 21.5329 16.3534 21.5329 15.5607V9.4167C21.5329 8.62302 20.8904 7.98047 20.0977 7.98047Z" fill="white"/>
</svg>
