<svg width="28" height="28" viewBox="0 0 28 28" fill="none" xmlns="http://www.w3.org/2000/svg">
<rect width="28" height="28" fill="white"/>
<path d="M17.2951 4.23159L17.5653 3.82709L17.8305 3.42803L18.4276 2.53261C18.5007 2.42248 18.4711 2.27431 18.3619 2.20072C18.2508 2.12713 18.1027 2.15677 18.0291 2.2674L17.3895 3.22751L17.1203 3.63102L16.8472 4.03996C15.9819 3.70461 15.0173 3.51644 13.9984 3.51644C12.9805 3.51644 12.016 3.70461 11.1507 4.03996L10.879 3.63102L10.6099 3.22751L9.9693 2.2669C9.89621 2.15677 9.74755 2.12713 9.63692 2.20023C9.52727 2.27332 9.49764 2.42198 9.57074 2.53212L10.1674 3.42754L10.4336 3.8266L10.7037 4.2311C8.67137 5.17738 7.29688 6.9702 7.29688 9.0223H20.702C20.702 6.97069 19.3275 5.17788 17.2951 4.23159ZM11.127 7.1075C10.7294 7.1075 10.4084 6.78598 10.4084 6.38939C10.4084 5.99279 10.7294 5.67177 11.127 5.67177C11.5236 5.67177 11.8446 5.99279 11.8446 6.38939C11.8446 6.78598 11.5236 7.1075 11.127 7.1075ZM16.8714 7.1075C16.4748 7.1075 16.1538 6.78598 16.1538 6.38939C16.1538 5.99279 16.4748 5.67177 16.8714 5.67177C17.269 5.67177 17.59 5.99279 17.59 6.38939C17.59 6.78598 17.269 7.1075 16.8714 7.1075Z" fill="#333333"/>
<path d="M7.4001 9.98047H7.29688V11.1747V12.1491V20.5136C7.29688 21.3498 7.97647 22.0299 8.81262 22.0299H9.90707C9.87053 22.1563 9.84978 22.2901 9.84978 22.4284V22.5084V22.987V25.4614C9.84978 26.2541 10.4933 26.8976 11.2865 26.8976C12.0797 26.8976 12.7227 26.2541 12.7227 25.4614V22.987V22.5084V22.4284C12.7227 22.2906 12.7015 22.1563 12.6659 22.0299H15.3329C15.2964 22.1563 15.2761 22.2901 15.2761 22.4284V22.5084V22.987V25.4614C15.2761 26.2541 15.9197 26.8976 16.7124 26.8976C17.505 26.8976 18.1486 26.2541 18.1486 25.4614V22.987V22.5084V22.4284C18.1486 22.2906 18.1283 22.1563 18.0918 22.0299H19.1858C20.0219 22.0299 20.702 21.3498 20.702 20.5136V12.1491V11.1747V9.98047H20.5988H7.4001Z" fill="#333333"/>
<path d="M4.90498 9.98047C4.11179 9.98047 3.46875 10.623 3.46875 11.4172V17.5607C3.46875 18.3534 4.11179 18.9969 4.90498 18.9969C5.69767 18.9969 6.3412 18.3534 6.3412 17.5607V11.4167C6.3412 10.623 5.69816 9.98047 4.90498 9.98047Z" fill="#333333"/>
<path d="M23.1003 9.98047C22.3066 9.98047 21.6641 10.623 21.6641 11.4172V17.5607C21.6641 18.3534 22.3066 18.9969 23.1003 18.9969C23.893 18.9969 24.5355 18.3534 24.5355 17.5607V11.4167C24.5355 10.623 23.893 9.98047 23.1003 9.98047Z" fill="#333333"/>
</svg>
