<svg width="10" height="7" viewBox="0 0 10 7" fill="none" xmlns="http://www.w3.org/2000/svg">
<path d="M5 6.1046C4.80141 6.10376 4.61126 6.0242 4.47125 5.88335L0.721252 2.13335C0.598382 1.98987 0.534177 1.80532 0.541468 1.61656C0.548759 1.4278 0.627008 1.24875 0.760579 1.11518C0.89415 0.981607 1.0732 0.903358 1.26196 0.896067C1.45072 0.888776 1.63528 0.952981 1.77875 1.07585L5 4.29335L8.22125 1.07585C8.36473 0.952981 8.54928 0.888776 8.73804 0.896067C8.9268 0.903358 9.10585 0.981607 9.23942 1.11518C9.373 1.24875 9.45124 1.4278 9.45854 1.61656C9.46583 1.80532 9.40162 1.98987 9.27875 2.13335L5.52875 5.88335C5.38875 6.0242 5.19859 6.10376 5 6.1046Z" fill="#333333"/>
</svg>
