<svg width="9" height="7" viewBox="0 0 9 7" fill="none" xmlns="http://www.w3.org/2000/svg">
<path d="M4.5 6.1046C4.30141 6.10376 4.11126 6.0242 3.97125 5.88335L0.221252 2.13335C0.0983818 1.98987 0.0341773 1.80532 0.0414681 1.61656C0.048759 1.4278 0.127008 1.24875 0.260579 1.11518C0.39415 0.981607 0.573204 0.903358 0.761962 0.896067C0.950719 0.888776 1.13528 0.952981 1.27875 1.07585L4.5 4.29335L7.72125 1.07585C7.86473 0.952981 8.04928 0.888776 8.23804 0.896067C8.4268 0.903358 8.60585 0.981607 8.73942 1.11518C8.873 1.24875 8.95124 1.4278 8.95854 1.61656C8.96583 1.80532 8.90162 1.98987 8.77875 2.13335L5.02875 5.88335C4.88875 6.0242 4.69859 6.10376 4.5 6.1046Z" fill="#333333"/>
</svg>
