<svg width="13" height="17" viewBox="0 0 13 17" fill="none" xmlns="http://www.w3.org/2000/svg">
<path fill-rule="evenodd" clip-rule="evenodd" d="M11.1042 16.6459H1.89585C1.1135 16.6459 0.479187 16.0116 0.479187 15.2292V1.77091C0.479187 0.988561 1.1135 0.354248 1.89585 0.354248H8.61546C8.61617 0.354248 8.61723 0.354248 8.61794 0.354248H8.62502C8.73835 0.354248 8.83504 0.411269 8.89985 0.494144L12.381 3.97525C12.4642 4.04006 12.5209 4.13675 12.5209 4.25008V4.25752C12.5209 4.25823 12.5209 4.25858 12.5209 4.25929V15.2292C12.5209 16.0116 11.8865 16.6459 11.1042 16.6459ZM8.97919 1.55169V3.89592H11.3234L8.97919 1.55169ZM11.8125 4.60425H8.62502C8.42917 4.60425 8.27085 4.44558 8.27085 4.25008V1.06258H1.89585C1.50485 1.06258 1.18752 1.37991 1.18752 1.77091V15.2292C1.18752 15.6202 1.50485 15.9376 1.89585 15.9376H11.1042C11.4952 15.9376 11.8125 15.6202 11.8125 15.2292V4.60425ZM9.68752 13.8126H3.31252C3.11667 13.8126 2.95835 13.6543 2.95835 13.4584C2.95835 13.2629 3.11667 13.1042 3.31252 13.1042H9.68752C9.88337 13.1042 10.0417 13.2629 10.0417 13.4584C10.0417 13.6543 9.88337 13.8126 9.68752 13.8126ZM9.68752 10.9792H3.31252C3.11667 10.9792 2.95835 10.8209 2.95835 10.6251C2.95835 10.4296 3.11667 10.2709 3.31252 10.2709H9.68752C9.88337 10.2709 10.0417 10.4296 10.0417 10.6251C10.0417 10.8209 9.88337 10.9792 9.68752 10.9792ZM9.68752 8.14592H3.31252C3.11667 8.14592 2.95835 7.9876 2.95835 7.79175C2.95835 7.59625 3.11667 7.43758 3.31252 7.43758H9.68752C9.88337 7.43758 10.0417 7.59625 10.0417 7.79175C10.0417 7.9876 9.88337 8.14592 9.68752 8.14592Z" fill="black"/>
</svg>
