<svg width="39" height="39" viewBox="0 0 39 39" fill="none" xmlns="http://www.w3.org/2000/svg">
<g opacity="0.7" clip-path="url(#clip0_6834_3755)">
<path d="M38.9994 8.40334V30.2769C38.9994 30.4962 38.9714 30.7132 38.93 30.9271V30.9295L38.9214 30.9655C38.7694 31.6874 38.3735 32.3351 37.8002 32.7995C37.2269 33.2639 36.5112 33.5168 35.7734 33.5157H3.84948C3.2408 33.5188 2.63978 33.3799 2.09423 33.1099C1.54868 32.8399 1.07366 32.4464 0.706933 31.9606C0.243471 31.3285 -0.00436094 30.564 5.80852e-05 29.7802V8.99809C-0.000357279 8.39595 0.191878 7.80947 0.548654 7.32442C0.905431 6.83936 1.40803 6.48117 1.98296 6.30221L2.011 6.29429L2.01892 6.29125C2.47201 6.158 2.94211 6.09149 3.41439 6.09381H37.0604C37.111 6.11331 37.161 6.14073 37.214 6.14865C38.1859 6.31318 38.76 6.87807 38.9409 7.84332V7.84637C38.9745 8.02979 38.9994 8.21626 38.9994 8.40273V8.40334ZM19.4994 22.5177L36.682 8.06514C34.158 7.91706 2.8434 7.99932 2.48692 8.15532L19.4994 22.5165V22.5189V22.5177ZM24.5975 20.798L20.2514 24.4598C19.7274 24.8985 19.2764 24.904 18.7584 24.4677L16.92 22.9156L14.4886 20.8614L3.08532 31.4316L3.12432 31.5194H36.3858L24.595 20.798H24.5975ZM12.9864 19.5915L1.972 10.2845V29.8028L12.9895 19.5921H12.9864V19.5915ZM26.1014 19.5287L37.0354 29.4676V10.3192L26.1014 19.5293V19.5287Z" fill="white"/>
</g>
<defs>
<clipPath id="clip0_6834_3755">
<rect width="39" height="39" fill="white"/>
</clipPath>
</defs>
</svg>
