<svg width="28" height="28" viewBox="0 0 28 28" fill="none" xmlns="http://www.w3.org/2000/svg">
<path d="M16.1402 18.0596C16.1085 18.0681 16.0811 18.088 16.0632 18.1156C16.061 18.1322 16.0639 18.149 16.0714 18.164C16.0789 18.179 16.0906 18.1913 16.1052 18.1996C17.1545 18.9959 18.2911 19.6699 19.4932 20.2086C19.6146 20.2401 19.7389 20.2589 19.8642 20.2646H19.9972C20.6062 20.2646 21.6562 19.9286 22.6152 18.2836L16.1402 18.0596Z" fill="#333333"/>
<path d="M24.3066 12.5996C24.3066 12.5996 18.8256 15.5466 15.9836 17.4576C15.974 17.4708 15.9688 17.4867 15.9688 17.5031C15.9688 17.5195 15.974 17.5354 15.9836 17.5486C15.9836 17.5486 15.9836 17.5976 16.0466 17.5976C17.0616 17.5976 20.9466 17.5976 21.0026 17.5976C21.3844 17.5667 21.7595 17.4794 22.1156 17.3386C23.0506 16.9792 23.8055 16.2645 24.2156 15.3506C24.4195 14.8465 24.5149 14.3051 24.4956 13.7616V13.7266C24.4948 13.3431 24.4309 12.9624 24.3066 12.5996Z" fill="#333333"/>
<path d="M21.2911 7.22396C18.9858 10.1398 17.0267 13.3134 15.4531 16.681C15.4531 16.681 15.4531 16.744 15.4531 16.779H15.4881C16.4121 16.324 20.2551 14.364 21.8511 12.81C22.4662 12.2756 22.8481 11.522 22.9151 10.71C23.0341 8.89696 21.2141 7.20996 21.2141 7.20996L21.2911 7.22396Z" fill="#333333"/>
<path d="M15.5389 4.43766C15.5389 4.43766 13.6209 6.90166 14.5519 16.1907C14.5511 16.2085 14.5567 16.226 14.5674 16.2402C14.5782 16.2545 14.5936 16.2645 14.611 16.2686C14.6283 16.2728 14.6466 16.2707 14.6626 16.2629C14.6786 16.2551 14.6915 16.2419 14.6989 16.2257C15.3149 15.3297 18.1079 11.1927 18.6749 8.66566C18.8395 7.99428 18.8395 7.29305 18.6749 6.62166C18.5179 6.13584 18.2393 5.69819 17.8657 5.35025C17.492 5.00232 17.0356 4.75566 16.5399 4.63366C16.5399 4.63366 16.0429 4.50766 15.5249 4.43066L15.5389 4.43766Z" fill="#333333"/>
<path d="M5.40625 18.2836C6.36525 19.9286 7.41525 20.2436 8.02425 20.2646H8.15725C8.28253 20.2589 8.40687 20.2401 8.52825 20.2086C9.72545 19.669 10.8574 18.995 11.9022 18.1996C11.9096 18.1868 11.9135 18.1723 11.9135 18.1576C11.9135 18.1428 11.9096 18.1283 11.9022 18.1156C11.9062 18.0971 11.9062 18.078 11.9022 18.0596L5.40625 18.2836Z" fill="#333333"/>
<path d="M3.689 12.5997C3.56468 12.9624 3.50083 13.3432 3.5 13.7267V13.7617C3.5001 14.2992 3.61214 14.8308 3.829 15.3227C4.23911 16.2366 4.99401 16.9512 5.929 17.3107C6.27185 17.4475 6.63249 17.5348 7 17.5697C7.091 17.5697 10.941 17.5697 11.956 17.5697C11.998 17.5697 12.019 17.5207 12.019 17.5207C12.0287 17.5075 12.0339 17.4915 12.0339 17.4752C12.0339 17.4588 12.0287 17.4429 12.019 17.4297C9.17 15.5257 3.689 12.5997 3.689 12.5997Z" fill="#333333"/>
<path d="M6.7144 7.22363C6.7144 7.22363 4.8944 8.89663 5.0134 10.7236C5.08045 11.5357 5.46229 12.2893 6.0774 12.8236C7.6734 14.3776 11.5164 16.3236 12.4404 16.7926H12.4754C12.5244 16.7926 12.4754 16.6946 12.4754 16.6946C10.927 13.3259 8.99377 10.1478 6.7144 7.22363Z" fill="#333333"/>
<path d="M12.461 4.4375C11.943 4.5145 11.446 4.6405 11.446 4.6405C10.9502 4.76249 10.4938 5.00916 10.1202 5.35709C9.74652 5.70502 9.46797 6.14267 9.31098 6.6285C9.14634 7.29989 9.14634 8.00111 9.31098 8.6725C9.87798 11.1995 12.671 15.3365 13.287 16.2325C13.2944 16.2487 13.3072 16.2619 13.3232 16.2697C13.3393 16.2776 13.3575 16.2796 13.3749 16.2755C13.3922 16.2713 13.4076 16.2613 13.4184 16.2471C13.4292 16.2329 13.4347 16.2153 13.434 16.1975C14.379 6.9015 12.461 4.4375 12.461 4.4375Z" fill="#333333"/>
</svg>
