<svg width="22" height="17" viewBox="0 0 22 17" fill="none" xmlns="http://www.w3.org/2000/svg">
<path d="M13.135 14.0598C13.1033 14.0683 13.0759 14.0883 13.058 14.1158C13.0559 14.1324 13.0587 14.1493 13.0662 14.1642C13.0737 14.1792 13.0854 14.1916 13.1 14.1998C14.1493 14.9961 15.286 15.6702 16.488 16.2088C16.6094 16.2404 16.7337 16.2591 16.859 16.2648H16.992C17.601 16.2648 18.651 15.9288 19.61 14.2838L13.135 14.0598Z" fill="white"/>
<path d="M21.311 8.59985C21.311 8.59985 15.83 11.5469 12.988 13.4579C12.9784 13.4711 12.9731 13.487 12.9731 13.5034C12.9731 13.5197 12.9784 13.5357 12.988 13.5489C12.988 13.5489 12.988 13.5979 13.051 13.5979C14.066 13.5979 17.951 13.5979 18.007 13.5979C18.3888 13.567 18.7639 13.4797 19.12 13.3389C20.055 12.9794 20.8099 12.2648 21.22 11.3509C21.4239 10.8467 21.5193 10.3053 21.5 9.76185V9.72685C21.4992 9.34337 21.4353 8.96263 21.311 8.59985Z" fill="white"/>
<path d="M18.287 3.22396C15.9817 6.13983 14.0226 9.31339 12.449 12.681C12.449 12.681 12.449 12.744 12.449 12.779H12.484C13.408 12.324 17.251 10.364 18.847 8.80996C19.4621 8.27562 19.8439 7.52199 19.911 6.70996C20.03 4.89696 18.21 3.20996 18.21 3.20996L18.287 3.22396Z" fill="white"/>
<path d="M12.54 0.437908C12.54 0.437908 10.622 2.90191 11.553 12.1909C11.5523 12.2087 11.5578 12.2263 11.5686 12.2405C11.5794 12.2547 11.5948 12.2647 11.6121 12.2689C11.6295 12.273 11.6477 12.271 11.6638 12.2631C11.6798 12.2553 11.6926 12.2421 11.7 12.2259C12.316 11.3299 15.109 7.19291 15.676 4.66591C15.8407 3.99452 15.8407 3.2933 15.676 2.62191C15.519 2.13608 15.2405 1.69843 14.8668 1.3505C14.4932 1.00257 14.0368 0.755901 13.541 0.633908C13.541 0.633908 13.044 0.507908 12.526 0.430908L12.54 0.437908Z" fill="white"/>
<path d="M2.40399 14.2838C3.36299 15.9288 4.41299 16.2438 5.02199 16.2648H5.15499C5.28027 16.2591 5.40461 16.2404 5.52599 16.2088C6.72319 15.6692 7.85513 14.9952 8.89999 14.1998C8.90736 14.187 8.91125 14.1726 8.91125 14.1578C8.91125 14.1431 8.90736 14.1286 8.89999 14.1158C8.90397 14.0974 8.90397 14.0783 8.89999 14.0598L2.40399 14.2838Z" fill="white"/>
<path d="M0.689 8.59985C0.564684 8.96263 0.500834 9.34337 0.5 9.72685V9.76185C0.500096 10.2994 0.612141 10.831 0.829 11.3229C1.23911 12.2368 1.99401 12.9514 2.929 13.3109C3.27185 13.4477 3.63249 13.5349 4 13.5699C4.091 13.5699 7.941 13.5699 8.956 13.5699C8.998 13.5699 9.019 13.5209 9.019 13.5209C9.02867 13.5077 9.03388 13.4917 9.03388 13.4754C9.03388 13.459 9.02867 13.4431 9.019 13.4299C6.17 11.5259 0.689 8.59985 0.689 8.59985Z" fill="white"/>
<path d="M3.713 3.22388C3.713 3.22388 1.893 4.89688 2.012 6.72388C2.07905 7.5359 2.46089 8.28954 3.076 8.82388C4.672 10.3779 8.515 12.3239 9.439 12.7929H9.474C9.523 12.7929 9.474 12.6949 9.474 12.6949C7.92556 9.32615 5.99236 6.148 3.713 3.22388Z" fill="white"/>
<path d="M9.46001 0.437988C8.94201 0.514988 8.44501 0.640988 8.44501 0.640988C7.94923 0.762981 7.49286 1.00965 7.1192 1.35758C6.74554 1.70551 6.467 2.14316 6.31001 2.62899C6.14536 3.30038 6.14536 4.0016 6.31001 4.67299C6.87701 7.19999 9.67001 11.337 10.286 12.233C10.2934 12.2492 10.3062 12.2624 10.3223 12.2702C10.3383 12.2781 10.3565 12.2801 10.3739 12.276C10.3913 12.2718 10.4066 12.2618 10.4174 12.2476C10.4282 12.2333 10.4337 12.2158 10.433 12.198C11.378 2.90199 9.46001 0.437988 9.46001 0.437988Z" fill="white"/>
</svg>
