<svg width="28" height="28" viewBox="0 0 28 28" fill="none" xmlns="http://www.w3.org/2000/svg">
<g clip-path="url(#clip0_3805_2672)">
<path d="M18.0322 5.65645C17.835 6.26175 17.5159 6.82276 17.1313 7.28936V7.29022C16.7432 7.75949 16.2248 8.1744 15.6481 8.44949C15.1188 8.70196 14.5387 8.83793 13.9613 8.79292L13.7846 8.77915L13.7614 8.60322C13.6864 8.03585 13.773 7.46148 13.9554 6.92996C14.1677 6.31143 14.5115 5.74706 14.8805 5.31941L14.8804 5.31935C15.2623 4.87208 15.7743 4.48294 16.3226 4.20098C16.8728 3.91805 17.4638 3.74113 18.0016 3.71922L18.2049 3.71094L18.2272 3.91405C18.2923 4.50806 18.2131 5.10142 18.0322 5.65645Z" fill="#333333"/>
<path d="M21.7714 10.9928C21.5765 11.1133 19.6927 12.279 19.716 14.6286C19.7407 17.4612 22.1424 18.4431 22.275 18.4973H22.2759L22.2816 18.4997L22.47 18.5777L22.4055 18.7705C22.4017 18.782 22.406 18.7698 22.4004 18.7877C22.3391 18.9841 21.9237 20.315 20.9852 21.6864C20.5594 22.3084 20.1255 22.9295 19.6132 23.4086C19.0828 23.9047 18.4771 24.2395 17.7288 24.2534C17.0234 24.2667 16.5617 24.0669 16.0816 23.8592C15.6239 23.6611 15.1479 23.4551 14.403 23.4551C13.6205 23.4551 13.1203 23.6682 12.6385 23.8735C12.185 24.0667 11.7464 24.2536 11.1145 24.2788H11.1136C10.384 24.3059 9.75124 23.9502 9.18892 23.4234C8.65094 22.9193 8.1796 22.2593 7.75008 21.6381C6.78051 20.2381 5.9373 18.2011 5.67678 16.1298C5.4625 14.4261 5.64161 12.6953 6.46531 11.266C6.92514 10.4663 7.56781 9.81359 8.31919 9.35818C9.06715 8.90486 9.92289 8.64688 10.8136 8.63353V8.63351C11.5935 8.61936 12.3288 8.91117 12.9722 9.1665C13.4276 9.3472 13.8333 9.50821 14.1374 9.50821C14.4061 9.50821 14.8022 9.35204 15.2639 9.17001C16.0437 8.86257 16.9977 8.48648 18.0065 8.58679C18.4301 8.60522 19.3125 8.70669 20.2145 9.19552C20.7891 9.50693 21.3719 9.97446 21.851 10.6757L21.9774 10.8606L21.7886 10.9824C21.7786 10.9889 21.7884 10.9823 21.7714 10.9928Z" fill="#333333"/>
</g>
<defs>
<clipPath id="clip0_3805_2672">
<rect width="28" height="28" fill="white"/>
</clipPath>
</defs>
</svg>
