<svg width="18" height="22" viewBox="0 0 18 22" fill="none" xmlns="http://www.w3.org/2000/svg">
<path d="M13.0283 2.65694C12.831 3.26224 12.5119 3.82325 12.1273 4.28985V4.29071C11.7392 4.75998 11.2208 5.17488 10.6442 5.44998C10.1149 5.70245 9.5347 5.83842 8.95736 5.79341L8.78067 5.77964L8.7574 5.60371C8.68239 5.03634 8.76901 4.46197 8.95143 3.93045C9.16371 3.31192 9.50757 2.74755 9.87653 2.3199L9.87647 2.31984C10.2583 1.87257 10.7703 1.48342 11.3187 1.20147C11.8689 0.918539 12.4598 0.741622 12.9976 0.71971L13.2009 0.711426L13.2232 0.914534C13.2883 1.50855 13.2091 2.10191 13.0283 2.65694Z" fill="white"/>
<path d="M16.7663 7.9933C16.5714 8.11389 14.6876 9.27956 14.7109 11.6292C14.7355 14.4617 17.1373 15.4437 17.2699 15.4978H17.2707L17.2765 15.5002L17.4649 15.5782L17.4004 15.7711C17.3965 15.7825 17.4009 15.7703 17.3953 15.7883C17.334 15.9846 16.9186 17.3155 15.9801 18.6869C15.5543 19.309 15.1204 19.9301 14.6081 20.4092C14.0777 20.9052 13.4719 21.2401 12.7236 21.254C12.0183 21.2672 11.5565 21.0674 11.0765 20.8597C10.6188 20.6617 10.1428 20.4557 9.3979 20.4557C8.61541 20.4557 8.11521 20.6688 7.63341 20.874C7.17988 21.0673 6.74125 21.2541 6.10935 21.2793H6.10849C5.37884 21.3064 4.74611 20.9507 4.18379 20.4239C3.64581 19.9199 3.17447 19.2599 2.74495 18.6386C1.77538 17.2387 0.932172 15.2016 0.671654 13.1304C0.457372 11.4266 0.636484 9.6959 1.46019 8.26654C1.92002 7.4668 2.56269 6.81414 3.31407 6.35873C4.06202 5.90541 4.91776 5.64743 5.80851 5.63407V5.63406C6.58836 5.61991 7.32367 5.91172 7.96708 6.16705C8.42244 6.34775 8.82814 6.50876 9.13228 6.50876C9.40098 6.50876 9.79706 6.35259 10.2588 6.17056C11.0386 5.86312 11.9926 5.48703 13.0013 5.58734C13.425 5.60577 14.3074 5.70724 15.2094 6.19607C15.784 6.50748 16.3668 6.97501 16.8459 7.6762L16.9722 7.86111L16.7835 7.98296C16.7734 7.98949 16.7832 7.98284 16.7663 7.9933Z" fill="white"/>
</svg>
