<svg width="21" height="21" viewBox="0 0 21 21" fill="none" xmlns="http://www.w3.org/2000/svg">
<g clip-path="url(#clip0_4_7608)">
<path d="M10.4994 14.4376C12.6742 14.4376 14.4369 12.6749 14.4369 10.5001V3.93762C14.4369 1.76281 12.6742 0.00012207 10.4994 0.00012207C8.32458 0.00012207 6.56189 1.76281 6.56189 3.93762V10.5001C6.56189 12.6749 8.32458 14.4376 10.4994 14.4376Z" fill="white"/>
<path d="M17.0619 10.5001V7.87512H15.7494V10.2954C15.7494 12.8154 14.0668 15.1359 11.5966 15.6386C8.22352 16.325 5.24939 13.7538 5.24939 10.5001V7.87512H3.93689V10.5001C3.93689 13.6685 6.1957 16.3197 9.18689 16.9301V19.6876H6.56189V21.0001H14.4369V19.6876H11.8119V16.9301C14.8031 16.3197 17.0619 13.6685 17.0619 10.5001Z" fill="white"/>
</g>
<defs>
<clipPath id="clip0_4_7608">
<rect width="21" height="21" fill="white" transform="translate(-0.000610352 0.00012207)"/>
</clipPath>
</defs>
</svg>
