<svg width="7" height="10" viewBox="0 0 7 10" fill="none" xmlns="http://www.w3.org/2000/svg">
<g clip-path="url(#clip0_1_2946)">
<path d="M6.80473 4.99967C6.80408 5.16516 6.7425 5.32362 6.6335 5.44029L3.7314 8.56529C3.62036 8.66768 3.47753 8.72119 3.33146 8.71511C3.18538 8.70903 3.04681 8.64383 2.94344 8.53252C2.84007 8.42121 2.77951 8.272 2.77387 8.1147C2.76823 7.9574 2.81792 7.8036 2.913 7.68404L5.40301 4.99967L2.913 2.31529C2.81792 2.19573 2.76823 2.04193 2.77387 1.88463C2.77951 1.72733 2.84007 1.57812 2.94344 1.46681C3.04681 1.3555 3.18538 1.2903 3.33146 1.28422C3.47753 1.27814 3.62036 1.33165 3.7314 1.43404L6.6335 4.55904C6.7425 4.67571 6.80408 4.83417 6.80473 4.99967Z" fill="#333333"/>
</g>
<defs>
<clipPath id="clip0_1_2946">
<rect width="10" height="7" fill="white" transform="translate(0 10) rotate(-90)"/>
</clipPath>
</defs>
</svg>
