<svg width="15" height="15" viewBox="0 0 15 15" fill="none" xmlns="http://www.w3.org/2000/svg">
<path d="M11.9333 11.75V0.5875C11.9333 0.431685 11.8715 0.282252 11.7613 0.172075C11.6511 0.0618972 11.5017 0 11.3458 0L0.77085 0C0.615035 0 0.465602 0.0618972 0.355424 0.172075C0.245247 0.282252 0.18335 0.431685 0.18335 0.5875L0.18335 11.75C0.18335 11.9058 0.245247 12.0552 0.355424 12.1654C0.465602 12.2756 0.615035 12.3375 0.77085 12.3375H11.3458C11.5017 12.3375 11.6511 12.2756 11.7613 12.1654C11.8715 12.0552 11.9333 11.9058 11.9333 11.75ZM0.77085 0.5875H11.3458V8.10456L9.49816 6.25688C9.44312 6.20216 9.36867 6.17145 9.29107 6.17145C9.21346 6.17145 9.13901 6.20216 9.08397 6.25688L7.23335 8.10456L5.11541 5.98663C5.06037 5.93191 4.98592 5.90121 4.90832 5.90121C4.83071 5.90121 4.75626 5.93191 4.70122 5.98663L0.77085 9.91113V0.5875ZM0.77085 11.75V10.7424L4.90685 6.60644L10.0504 11.75H0.77085ZM7.64754 8.51875L9.2896 6.87669L11.3458 8.93294V11.75H10.8788L7.64754 8.51875Z" fill="white"/>
<path d="M13.6958 1.76245H12.5208V2.34995H13.6958V13.5125H3.12083V12.925H2.53333V13.5125C2.53333 13.6683 2.59522 13.8177 2.7054 13.9279C2.81558 14.0381 2.96501 14.1 3.12083 14.1H13.6958C13.8516 14.1 14.0011 14.0381 14.1113 13.9279C14.2214 13.8177 14.2833 13.6683 14.2833 13.5125V2.34995C14.2833 2.19414 14.2214 2.0447 14.1113 1.93453C14.0011 1.82435 13.8516 1.76245 13.6958 1.76245Z" fill="white"/>
<path d="M6.6458 5.28745C6.99439 5.28745 7.33515 5.18408 7.62499 4.99042C7.91484 4.79675 8.14074 4.52149 8.27414 4.19943C8.40754 3.87738 8.44244 3.523 8.37444 3.18111C8.30643 2.83921 8.13857 2.52517 7.89208 2.27868C7.64559 2.03219 7.33154 1.86432 6.98965 1.79632C6.64776 1.72831 6.29338 1.76321 5.97132 1.89661C5.64927 2.03001 5.374 2.25592 5.18034 2.54576C4.98667 2.8356 4.8833 3.17636 4.8833 3.52495C4.8833 3.9924 5.06899 4.4407 5.39952 4.77123C5.73006 5.10176 6.17836 5.28745 6.6458 5.28745ZM6.6458 2.34995C6.87819 2.34995 7.10537 2.41886 7.2986 2.54798C7.49182 2.67709 7.64243 2.8606 7.73136 3.0753C7.82029 3.29 7.84356 3.52626 7.79822 3.75418C7.75289 3.98211 7.64098 4.19148 7.47665 4.3558C7.31232 4.52013 7.10296 4.63204 6.87503 4.67737C6.6471 4.72271 6.41085 4.69944 6.19615 4.61051C5.98144 4.52158 5.79793 4.37097 5.66882 4.17775C5.53971 3.98452 5.4708 3.75734 5.4708 3.52495C5.4708 3.21332 5.5946 2.91446 5.81495 2.6941C6.03531 2.47375 6.33417 2.34995 6.6458 2.34995Z" fill="white"/>
</svg>
