<svg width="28" height="36" viewBox="0 0 28 36" fill="none" xmlns="http://www.w3.org/2000/svg">
<path d="M27.2106 18.9706L2.47963 35.458C2.30394 35.5749 2.09983 35.6419 1.88904 35.652C1.67825 35.6621 1.46867 35.6148 1.28262 35.5152C1.09658 35.4156 0.941034 35.2674 0.832558 35.0864C0.724081 34.9054 0.666735 34.6983 0.666626 34.4873V1.51262C0.666735 1.30159 0.724081 1.09454 0.832558 0.913523C0.941034 0.732506 1.09658 0.584301 1.28262 0.484694C1.46867 0.385087 1.67825 0.337807 1.88904 0.34789C2.09983 0.357974 2.30394 0.425044 2.47963 0.541956L27.2106 17.0293C27.3704 17.1358 27.5014 17.2802 27.592 17.4495C27.6826 17.6188 27.7301 17.8079 27.7301 18C27.7301 18.192 27.6826 18.3811 27.592 18.5504C27.5014 18.7197 27.3704 18.8641 27.2106 18.9706Z" fill="white"/>
</svg>
