<svg width="33" height="33" viewBox="0 0 33 33" fill="none" xmlns="http://www.w3.org/2000/svg">
<g clip-path="url(#clip0_4_7596)">
<path d="M26.252 17.5115L12.0823 26.958C11.9816 27.025 11.8647 27.0634 11.7439 27.0692C11.6231 27.075 11.5031 27.0479 11.3965 26.9908C11.2899 26.9337 11.2007 26.8488 11.1386 26.7451C11.0764 26.6414 11.0436 26.5228 11.0435 26.4019V7.50892C11.0436 7.38801 11.0764 7.26938 11.1386 7.16567C11.2007 7.06195 11.2899 6.97704 11.3965 6.91997C11.5031 6.8629 11.6231 6.83581 11.7439 6.84158C11.8647 6.84736 11.9816 6.88579 12.0823 6.95277L26.252 16.3992C26.3435 16.4603 26.4186 16.543 26.4705 16.64C26.5224 16.737 26.5496 16.8454 26.5496 16.9554C26.5496 17.0654 26.5224 17.1738 26.4705 17.2708C26.4186 17.3678 26.3435 17.4505 26.252 17.5115Z" fill="white"/>
</g>
<defs>
<clipPath id="clip0_4_7596">
<rect width="32.0854" height="32.0854" fill="white" transform="translate(0.348389 0.91272)"/>
</clipPath>
</defs>
</svg>
