<svg width="13" height="15" viewBox="0 0 13 15" fill="none" xmlns="http://www.w3.org/2000/svg">
<path d="M8.081 7.87412C9.186 7.19412 9.90001 5.85112 9.90001 4.61012C9.90001 2.84212 8.455 0.870117 6.5 0.870117C4.545 0.870117 3.1 2.84212 3.1 4.61012C3.1 5.85112 3.81401 7.19412 4.919 7.87412C2.30101 8.57112 0.380005 10.9681 0.380005 13.7901C0.380005 13.9771 0.533005 14.1301 0.720005 14.1301H12.28C12.467 14.1301 12.62 13.9771 12.62 13.7901C12.62 10.9681 10.699 8.57112 8.081 7.87412ZM3.78 4.61012C3.78 2.85912 5.22501 1.55012 6.5 1.55012C7.775 1.55012 9.22001 2.85912 9.22001 4.61012C9.22001 6.36112 7.775 7.67012 6.5 7.67012C5.22501 7.67012 3.78 6.36112 3.78 4.61012ZM1.077 13.4501C1.247 10.6111 3.62701 8.35012 6.5 8.35012C9.373 8.35012 11.753 10.6111 11.923 13.4501H1.077Z" fill="black"/>
</svg>
