<svg width="17" height="17" viewBox="0 0 17 17" fill="none" xmlns="http://www.w3.org/2000/svg">
<g clip-path="url(#clip0_4_7528)">
<path d="M8.5 13.8125C5.57069 13.8125 3.1875 11.4293 3.1875 8.5C3.1875 5.57069 5.57069 3.1875 8.5 3.1875C11.4293 3.1875 13.8125 5.57069 13.8125 8.5C13.8125 11.4293 11.4293 13.8125 8.5 13.8125ZM8.5 4.25C6.15666 4.25 4.25 6.15666 4.25 8.5C4.25 10.8433 6.15666 12.75 8.5 12.75C10.8433 12.75 12.75 10.8433 12.75 8.5C12.75 6.15666 10.8433 4.25 8.5 4.25Z" fill="#595959"/>
<path d="M9.03125 0H7.96875V2.125H9.03125V0Z" fill="#595959"/>
<path d="M2.86555 2.11394L2.11426 2.86523L3.61685 4.36782L4.36814 3.61653L2.86555 2.11394Z" fill="#595959"/>
<path d="M2.125 7.96875H0V9.03125H2.125V7.96875Z" fill="#595959"/>
<path d="M3.61685 12.6322L2.11426 14.1348L2.86555 14.8861L4.36814 13.3835L3.61685 12.6322Z" fill="#595959"/>
<path d="M9.03125 14.875H7.96875V17H9.03125V14.875Z" fill="#595959"/>
<path d="M13.3837 12.632L12.6324 13.3833L14.135 14.8859L14.8863 14.1346L13.3837 12.632Z" fill="#595959"/>
<path d="M17 7.96875H14.875V9.03125H17V7.96875Z" fill="#595959"/>
<path d="M14.135 2.11411L12.6324 3.6167L13.3837 4.36799L14.8863 2.86541L14.135 2.11411Z" fill="#595959"/>
</g>
<defs>
<clipPath id="clip0_4_7528">
<rect width="17" height="17" fill="white"/>
</clipPath>
</defs>
</svg>
