<?xml version="1.0" encoding="UTF-8"?>
<svg version="1.1" xmlns="http://www.w3.org/2000/svg" width="512" height="512">
<path d="M0 0 C0.91366388 -0.0461595 1.82732776 -0.09231899 2.76867843 -0.13987726 C5.84568651 -0.2912445 8.92314481 -0.42744463 12.00091553 -0.56236267 C13.07786682 -0.61248693 14.15481812 -0.6626112 15.2644043 -0.71425438 C36.048622 -1.68070411 56.84295192 -2.2745444 77.64431418 -2.72010661 C81.069873 -2.79353705 84.49537063 -2.86952783 87.9208374 -2.9471283 C88.6024192 -2.96252285 89.28400099 -2.9779174 89.98623678 -2.99377846 C99.53530181 -3.21532704 109.06718095 -3.59033713 118.60546077 -4.0923622 C222.1555497 -9.53808786 222.1555497 -9.53808786 255.77037048 19.20082092 C279.3282414 40.49372124 292.29258209 65.30686159 294.10408866 97.06313986 C294.70525257 111.38551978 293.85143058 125.63469941 292.71741807 139.90864533 C291.99390949 149.17812562 291.66235592 158.45185107 291.35001361 167.74280822 C290.70294988 186.74869285 289.60666344 205.70186667 288.17962646 224.66444397 C289.24922607 224.6434967 290.31882568 224.62254944 291.4208374 224.60096741 C295.39400819 224.52849771 299.36712072 224.48261934 303.34075928 224.44471741 C305.05960925 224.42461769 306.77839099 224.39733308 308.49700928 224.36268616 C310.96951136 224.31409363 313.44110857 224.29145962 315.91400146 224.27381897 C317.06421783 224.24285126 317.06421783 224.24285126 318.2376709 224.21125793 C321.65656987 224.20982419 323.78969645 224.40314063 326.66084766 226.32718182 C328.55141521 229.23659296 328.70265014 230.99048336 328.74571228 234.45126343 C328.76974121 235.63304169 328.79377014 236.81481995 328.81852722 238.03240967 C328.82449417 239.32548538 328.83046112 240.6185611 328.83660889 241.95082092 C328.85680826 243.32922258 328.87864927 244.70760102 328.90200806 246.08595276 C328.95980465 249.82775302 328.99198099 253.56935727 329.01765227 257.31150079 C329.04094335 260.43767323 329.07551645 263.56368319 329.10970575 266.68975228 C329.1897312 274.06754572 329.24778143 281.44529851 329.29315186 288.82337952 C329.34037715 296.42768905 329.42832639 304.03077541 329.53580397 311.63445121 C329.62648951 318.1677921 329.68985658 324.70102488 329.73189431 331.23485917 C329.75738034 335.13497996 329.79355288 339.03426235 329.85680199 342.9339695 C329.91529297 346.60401927 329.93962273 350.27275997 329.93815231 353.94326019 C329.94573829 355.92570089 329.98806048 357.90791422 330.03153992 359.88989258 C329.9743241 369.63364742 329.9743241 369.63364742 325.85853577 373.81915283 C324.6564609 374.79810916 323.42980919 375.74772011 322.17962646 376.66444397 C320.96275842 377.72258965 319.7522851 378.78817123 318.55072021 379.86366272 C317.54887695 380.73257141 317.54887695 380.73257141 316.52679443 381.61903381 C298.5566864 395.52064349 298.5566864 395.52064349 287.53900146 414.05897522 C287.34811826 417.11433213 287.57457234 420.03663221 287.91009521 423.07460022 C288.17962646 426.66444397 288.17962646 426.66444397 286.98040771 429.28553772 C284.62860701 432.01011802 282.60046947 433.52416297 279.17962646 434.66444397 C277.57447926 434.75755047 275.96572513 434.79355464 274.35788155 434.79587173 C273.35874076 434.79971288 272.35959997 434.80355402 271.33018219 434.80751157 C270.22952011 434.80664509 269.12885802 434.8057786 267.99484253 434.80488586 C266.2444454 434.80934255 266.2444454 434.80934255 264.45868671 434.81388927 C261.21425924 434.82107662 257.969864 434.82374913 254.72542977 434.82448673 C251.22841564 434.82633633 247.73141301 434.83388315 244.23440552 434.84062195 C236.58573264 434.85420904 228.93706499 434.86023042 221.28838205 434.86463261 C216.51413137 434.86739409 211.73988271 434.87163124 206.96563339 434.87613678 C193.75141845 434.88832937 180.53720514 434.89862907 167.3229847 434.90201187 C166.47711105 434.90223144 165.63123741 434.902451 164.75973123 434.90267722 C163.9118177 434.9028955 163.06390417 434.90311378 162.19029629 434.90333867 C160.47205869 434.90378214 158.75382109 434.9042287 157.0355835 434.90467834 C156.18327573 434.90489977 155.33096796 434.9051212 154.45283268 434.90534934 C140.63740984 434.90929872 126.82203971 434.92675705 113.00663723 434.95003787 C98.82825041 434.97373788 84.64989006 434.98621309 70.47148311 434.98737979 C62.50849785 434.98829725 54.54558127 434.99406749 46.5826149 435.0121994 C39.80306249 435.02758211 33.0236 435.03273167 26.24403347 435.0244613 C22.78417017 435.02054841 19.32448804 435.02151527 15.86464691 435.03551865 C12.11573284 435.04814788 8.36728787 435.04241019 4.61837769 435.03193665 C3.52217704 435.03999305 2.42597639 435.04804945 1.29655755 435.05634999 C-5.51781011 435.01163914 -9.07886274 434.22274707 -14.15118408 429.48939514 C-16.03926107 426.29399675 -15.96063433 424.36660965 -15.67601013 420.73065186 C-15.25062636 414.24585333 -15.89380152 409.29734159 -19.97808838 404.09169006 C-24.1958667 399.37073729 -28.8349318 395.11394268 -33.50787354 390.85194397 C-35.09439258 389.34229398 -36.67711315 387.82864156 -38.25592041 386.31092834 C-45.64616836 378.91995158 -45.64616836 378.91995158 -54.01622009 372.79222107 C-56.25537811 370.90813303 -56.7765261 369.88520723 -57.35447598 366.97534275 C-57.55056838 363.37522737 -57.54183497 359.82189269 -57.47320557 356.2169342 C-57.46819632 354.83354872 -57.46578583 353.45015175 -57.46577454 352.0667572 C-57.45785442 348.31632508 -57.4121451 344.56722124 -57.35853434 340.81719851 C-57.3077099 336.89142164 -57.28800482 332.96547429 -57.26394653 329.03945923 C-57.21873432 322.44773944 -57.14951396 315.8566067 -57.06549072 309.26527405 C-56.96859371 301.64507509 -56.90705276 294.02522693 -56.86501992 286.40454143 C-56.82397396 279.0717882 -56.76040107 271.73940586 -56.68569565 264.40692329 C-56.65415801 261.28701381 -56.63007288 258.16717796 -56.61188126 255.04716301 C-56.58926555 251.37373284 -56.54679302 247.70105069 -56.48896599 244.02801132 C-56.46221841 242.03701625 -56.45491859 240.04578975 -56.44816589 238.05462646 C-56.42558212 236.86995789 -56.40299835 235.68528931 -56.37973022 234.46472168 C-56.36825014 233.43512046 -56.35677006 232.40551924 -56.34494209 231.34471798 C-55.82037354 228.66444397 -55.82037354 228.66444397 -54.3020153 226.32634068 C-50.80632992 223.98536298 -47.61314395 224.16455325 -43.55474854 224.27381897 C-42.76135071 224.27947876 -41.96795288 224.28513855 -41.1505127 224.29096985 C-38.6231788 224.3133125 -36.09727688 224.36350221 -33.57037354 224.41444397 C-31.85424822 224.43451183 -30.13810062 224.4527621 -28.42193604 224.46913147 C-24.22086573 224.51317002 -20.02086219 224.58218071 -15.82037354 224.66444397 C-15.82406071 223.55069303 -15.82774788 222.43694208 -15.83154678 221.28944111 C-15.92028791 194.20754097 -15.98604941 167.12565966 -16.02762222 140.04364491 C-16.04826014 126.94705861 -16.07640436 113.85056828 -16.12213135 100.75404358 C-16.16196131 89.34104099 -16.18779739 77.92810788 -16.19672751 66.51503772 C-16.20194873 60.47014083 -16.21424629 54.42544277 -16.24329376 48.38060951 C-16.27040202 42.693364 -16.27882774 37.0063996 -16.27280426 31.31909561 C-16.27390655 29.22969346 -16.28188754 27.14028211 -16.29719543 25.05093575 C-16.31705129 22.20156835 -16.31232863 19.35326699 -16.3013916 16.50387573 C-16.31304297 15.67410416 -16.32469433 14.84433259 -16.33669877 13.98941642 C-16.29596841 10.07270693 -16.11260467 8.12874071 -13.97780991 4.73697948 C-9.52513888 0.4595329 -5.90190501 0.25529907 0 0 Z " fill="#BB3F43" transform="translate(119.82037353515625,39.33555603027344)"/>
<path d="M0 0 C0.91366388 -0.0461595 1.82732776 -0.09231899 2.76867843 -0.13987726 C5.84568651 -0.2912445 8.92314481 -0.42744463 12.00091553 -0.56236267 C13.07786682 -0.61248693 14.15481812 -0.6626112 15.2644043 -0.71425438 C36.048622 -1.68070411 56.84295192 -2.2745444 77.64431418 -2.72010661 C81.069873 -2.79353705 84.49537063 -2.86952783 87.9208374 -2.9471283 C88.6024192 -2.96252285 89.28400099 -2.9779174 89.98623678 -2.99377846 C99.53530181 -3.21532704 109.06718095 -3.59033713 118.60546077 -4.0923622 C222.1555497 -9.53808786 222.1555497 -9.53808786 255.77037048 19.20082092 C279.38763463 40.54740411 292.30902302 65.38399467 294.0940513 97.21270895 C294.81251808 114.25394923 293.36409382 131.0747703 292.11712646 148.10194397 C290.81775146 173.36756897 289.51837646 198.63319397 288.17962646 224.66444397 C187.85962646 224.66444397 87.53962646 224.66444397 -15.82037354 224.66444397 C-15.90287354 188.96256897 -15.98537354 153.26069397 -16.07037354 116.47694397 C-16.10678955 105.19353821 -16.14320557 93.91013245 -16.1807251 82.2848053 C-16.1987915 68.53297424 -16.1987915 68.53297424 -16.20214844 62.10028076 C-16.20588322 57.59625407 -16.22090535 53.09241492 -16.24267578 48.58843994 C-16.27005736 42.84779625 -16.27834842 37.10742635 -16.27266264 31.36672342 C-16.27385203 29.2571155 -16.28181643 27.14749826 -16.29723406 25.03794634 C-16.31706523 22.1929072 -16.31235878 19.34893831 -16.3013916 16.50387573 C-16.31304226 15.6743423 -16.32469292 14.84480886 -16.33669662 13.99013805 C-16.29597941 10.07312699 -16.1127553 8.12898002 -13.97780991 4.73697948 C-9.52513888 0.4595329 -5.90190501 0.25529907 0 0 Z " fill="#FEFEFE" transform="translate(119.82037353515625,39.33555603027344)"/>
<path d="M0 0 C100.32 0 200.64 0 304 0 C304 58 304 58 298 65 C295.07919702 65.97360099 293.21819612 66.12704684 290.17825508 66.13142776 C289.1791143 66.13526891 288.17997351 66.13911005 287.15055573 66.1430676 C286.04989364 66.14220112 284.94923155 66.14133463 283.81521606 66.14044189 C282.06481893 66.14489858 282.06481893 66.14489858 280.27906024 66.1494453 C277.03463278 66.15663265 273.79023754 66.15930516 270.54580331 66.16004276 C267.04878917 66.16189237 263.55178654 66.16943918 260.05477905 66.17617798 C252.40610617 66.18976507 244.75743853 66.19578645 237.10875559 66.20018864 C232.3345049 66.20295012 227.56025624 66.20718727 222.78600693 66.21169281 C209.57179199 66.2238854 196.35757867 66.2341851 183.14335823 66.2375679 C182.29748459 66.23778747 181.45161094 66.23800703 180.58010476 66.23823325 C179.73219123 66.23845153 178.8842777 66.23866981 178.01066983 66.2388947 C176.29243223 66.23933817 174.57419463 66.23978473 172.85595703 66.24023438 C172.00364926 66.2404558 171.1513415 66.24067723 170.27320622 66.24090537 C156.45778338 66.24485475 142.64241324 66.26231308 128.82701077 66.2855939 C114.64862395 66.30929391 100.4702636 66.32176912 86.29185665 66.32293582 C78.32887138 66.32385328 70.3659548 66.32962353 62.40298843 66.34775543 C55.62343603 66.36313814 48.84397354 66.3682877 42.06440701 66.36001733 C38.60454371 66.35610445 35.14486158 66.3570713 31.68502045 66.37107468 C27.93610637 66.38370391 24.18766141 66.37796622 20.43875122 66.36749268 C19.34255057 66.37554908 18.24634993 66.38360548 17.11693108 66.39190602 C7.78770789 66.33069455 7.78770789 66.33069455 4 63 C-9.14501152 46.5687356 0 21.04228547 0 0 Z " fill="#FFFFFF" transform="translate(104,408)"/>
<path d="M0 0 C4.92788958 2.41745527 7.06039387 4.89577334 9 10 C9.82305437 14.12678312 10.188382 18.10707178 10.25 22.3125 C10.27578125 23.36050781 10.3015625 24.40851563 10.328125 25.48828125 C9.98639459 29.14561029 9.11107381 32.05229427 7.88671875 35.48999023 C6.21186763 40.23094408 4.81223248 45.05783519 3.375 49.875 C3.06304687 50.88691406 2.75109375 51.89882812 2.4296875 52.94140625 C-1.33499908 65.51447741 -1.33499908 65.51447741 1 78 C1 78.99 1 79.98 1 81 C1.66 81 2.32 81 3 81 C4.5078125 83.08203125 4.5078125 83.08203125 6.125 85.8125 C6.66382813 86.70582031 7.20265625 87.59914063 7.7578125 88.51953125 C9 91 9 91 9 94 C9.57234375 94.226875 10.1446875 94.45375 10.734375 94.6875 C13.62129471 96.35992245 15.19470494 98.38140185 17.25 101 C18.30960938 102.3303125 18.30960938 102.3303125 19.390625 103.6875 C21 106 21 106 21 108 C21.78117187 107.7834375 22.56234375 107.566875 23.3671875 107.34375 C32.09549947 105.24428966 40.45975758 104.69759444 49.4375 104.6875 C51.1069165 104.67976563 51.1069165 104.67976563 52.81005859 104.671875 C61.5728197 104.7456334 68.91356336 105.33085069 76 111 C79.90671111 115.02285658 81.87498494 118.09352027 82.25 123.8125 C82.16354161 128.53312813 80.97724779 132.04911551 77.53515625 135.4453125 C72.17538958 140.03190989 68.71241443 140.46755449 61.77734375 140.40625 C47.6290568 138.88461418 33.19583498 129.54128755 23 120 C23 119.34 23 118.68 23 118 C15.61904508 116.30105897 9.12247448 117.97454604 1.90869141 119.75048828 C-0.12375718 120.24969474 -2.16058638 120.72597356 -4.19921875 121.19921875 C-12.90769476 123.24937347 -12.90769476 123.24937347 -21 127 C-22.83456856 130.01354768 -22.83456856 130.01354768 -24.0625 133.5625 C-26.40633165 139.55402701 -29.02847995 145.29362963 -32 151 C-32.66 151 -33.32 151 -34 151 C-34 151.99 -34 152.98 -34 154 C-34.66 154 -35.32 154 -36 154 C-36.061875 154.556875 -36.12375 155.11375 -36.1875 155.6875 C-37.37608305 159.07039021 -39.28028994 160.70335595 -42 163 C-45.3125 164.3125 -45.3125 164.3125 -48 165 C-48 165.66 -48 166.32 -48 167 C-54.93167795 170.26196609 -61.37963078 170.90293437 -69 170 C-73.02290794 168.51426695 -75.82385231 165.66509084 -78 162 C-80.02278329 156.85109707 -79.73584734 151.01845659 -77.5625 146 C-70.73315035 133.7409554 -57.32284941 129.57208194 -45 125 C-43.99839844 124.62488281 -42.99679688 124.24976563 -41.96484375 123.86328125 C-38.08085889 122.42615343 -34.42923951 121.08272282 -30.3515625 120.296875 C-26.77007859 119.3172247 -26.77007859 119.3172247 -25.328125 116.05859375 C-24.97234375 114.86363281 -24.6165625 113.66867188 -24.25 112.4375 C-23.88390625 111.26058594 -23.5178125 110.08367187 -23.140625 108.87109375 C-22.95862549 108.24678467 -22.77662598 107.62247559 -22.58911133 106.97924805 C-21.49047208 103.28812979 -20.22634991 99.65023307 -19 96 C-17.75592812 92.27558951 -16.52980487 88.5457377 -15.3125 84.8125 C-14.99216797 83.85408203 -14.67183594 82.89566406 -14.34179688 81.90820312 C-11.64207863 73.57879524 -11.35364365 69.13887673 -15 61 C-15.83718507 58.25724149 -16.49244782 55.4837973 -17.125 52.6875 C-17.38265137 51.55405151 -17.38265137 51.55405151 -17.64550781 50.39770508 C-18.85813265 44.91793587 -19.81238961 39.62080733 -20 34 C-20.03109863 33.26313965 -20.06219727 32.5262793 -20.09423828 31.76708984 C-20.19500782 29.1364479 -20.25816828 26.50699047 -20.3125 23.875 C-20.3424707 23.02703857 -20.37244141 22.17907715 -20.40332031 21.30541992 C-20.46203934 14.76782242 -19.15480883 9.24609088 -14.48120117 4.43725586 C-9.77790374 0.41167935 -6.16516968 -0.81513417 0 0 Z " fill="#BE484C" transform="translate(257,68)"/>
<path d="M0 0 C5.3625 -0.103125 10.725 -0.20625 16.25 -0.3125 C17.91579102 -0.35802002 19.58158203 -0.40354004 21.29785156 -0.45043945 C32.1500218 -0.62279072 41.65417803 0.71989044 50 8.375 C58.34444668 17.73706213 58.83089269 27.83848956 58.23095703 39.86230469 C57.46275836 46.97260866 53.3197434 52.47821811 48 57 C47.319375 57.680625 46.63875 58.36125 45.9375 59.0625 C31.63934934 68.49319512 16.93641921 65 0 65 C0 43.55 0 22.1 0 0 Z " fill="#FDFBFB" transform="translate(231,303)"/>
<path d="M0 0 C32 0 32 0 44 6 C48.88765665 11.65434788 50.39332236 15.94889004 50.265625 23.23828125 C49.7134702 28.97906721 48.23337849 33.9797145 43.87109375 37.92578125 C38.96821598 41.31014004 34.88470787 43.14306597 28.890625 43.09765625 C27.8701709 43.09390991 27.8701709 43.09390991 26.82910156 43.09008789 C25.55244629 43.07643188 25.55244629 43.07643188 24.25 43.0625 C21.5275 43.041875 18.805 43.02125 16 43 C16 50.59 16 58.18 16 66 C10.72 66 5.44 66 0 66 C0 44.22 0 22.44 0 0 Z " fill="#FDF9F9" transform="translate(173,302)"/>
<path d="M0 0 C4.45604281 3.81946526 8.72160924 7.5751563 12.84350586 11.71411133 C13.38097443 12.24982758 13.91844299 12.78554382 14.47219849 13.3374939 C16.22224593 15.08319114 17.96867098 16.83245896 19.71484375 18.58203125 C20.93780674 19.80431983 22.16091807 21.02645999 23.38417053 22.24845886 C25.93327776 24.79609892 28.48058492 27.34552142 31.02661133 29.89624023 C34.29740478 33.17276689 37.57271631 36.44473478 40.84935665 39.71541309 C43.36891433 42.2313696 45.8861008 44.74968753 48.40255928 47.26874352 C49.61035233 48.47720519 50.8188929 49.68492023 52.02818108 50.89188576 C53.70862984 52.56981138 55.38586782 54.25088007 57.06225586 55.93286133 C57.56554916 56.4341304 58.06884247 56.93539948 58.58738708 57.45185852 C62 60.88573004 62 60.88573004 62 62 C41.54 62 21.08 62 0 62 C0 41.54 0 21.08 0 0 Z " fill="#A1A1A1" transform="translate(345,41)"/>
<path d="M0 0 C13.86 0 27.72 0 42 0 C42 3.96 42 7.92 42 12 C33.09 12 24.18 12 15 12 C15 16.95 15 21.9 15 27 C21.93 27 28.86 27 36 27 C36 30.63 36 34.26 36 38 C29.07 38 22.14 38 15 38 C15 46.91 15 55.82 15 65 C10.05 65 5.1 65 0 65 C0 43.55 0 22.1 0 0 Z " fill="#FFFFFF" transform="translate(299,303)"/>
<path d="M0 0 C16.31301939 0 16.31301939 0 21 4 C25.49845098 9.60333368 27.58577053 14.73644538 27 22 C25.19072636 27.74247721 22.71667145 32.12991061 18 36 C12.29912287 37.90029238 6.00925213 37 0 37 C0 24.79 0 12.58 0 0 Z " fill="#BB4044" transform="translate(247,316)"/>
<path d="M0 0 C13.2 0 26.4 0 40 0 C33.32626895 7.78601955 33.32626895 7.78601955 29.37890625 11.18359375 C23.29895563 16.55241238 17.63172447 22.29226808 11.9375 28.0625 C9.88696752 30.13956841 7.83315133 32.2133105 5.77734375 34.28515625 C4.88265381 35.19144775 3.98796387 36.09773926 3.06616211 37.03149414 C1 39 1 39 0 39 C0 26.13 0 13.26 0 0 Z " fill="#91262D" transform="translate(409,408)"/>
<path d="M0 0 C12.54 0 25.08 0 38 0 C38 12.87 38 25.74 38 39 C33.3089127 34.97906803 28.8664942 30.9950807 24.55078125 26.61328125 C23.97087936 26.02959274 23.39097748 25.44590424 22.79350281 24.8445282 C20.96401976 23.00296071 19.13785389 21.15815977 17.3125 19.3125 C14.8948424 16.86818056 12.47384229 14.427243 10.05078125 11.98828125 C9.50279373 11.43199539 8.95480621 10.87570953 8.39021301 10.30256653 C6.2250811 8.12361888 4.13160369 6.09334256 1.62182617 4.31323242 C1.08662354 3.87986572 0.5514209 3.44649902 0 3 C0 2.01 0 1.02 0 0 Z " fill="#90272E" transform="translate(65,408)"/>
<path d="M0 0 C-3.20054976 11.60199289 -8.90916706 23.03446552 -19 30 C-19.57492188 30.42925781 -20.14984375 30.85851562 -20.7421875 31.30078125 C-24.69364717 33.95026227 -28.2609632 34.68777375 -32.91015625 34.44140625 C-35 34 -35 34 -38.0625 32 C-40.04452305 28.93106108 -40.88248698 26.7923991 -40.578125 23.10546875 C-38.96388865 17.22659447 -34.61138166 13.83140526 -29.5 10.89453125 C-9.17672872 0 -9.17672872 0 0 0 Z " fill="#FDFBFB" transform="translate(226,197)"/>
<path d="M0 0 C0.83821289 -0.02578125 1.67642578 -0.0515625 2.54003906 -0.078125 C9.84983314 -0.10101281 15.48530277 2.01740189 21.5 6.125 C23.24436936 8.85531726 23.62440503 11.1704589 23.44921875 14.40234375 C22.9375 16.375 22.9375 16.375 20.375 19.375 C16.34339298 21.72066226 14.53644684 21.71691123 9.9375 21.375 C0.3765302 18.66002528 -14.0997958 13.02137996 -19.41796875 4.1015625 C-19.63066406 3.53179687 -19.84335937 2.96203125 -20.0625 2.375 C-13.35896536 0.58739076 -6.90497962 0.10195614 0 0 Z " fill="#FDFBFB" transform="translate(308.0625,179.625)"/>
<path d="M0 0 C4.04925372 5.16628923 4.68690493 10.6217485 4 17 C2.72994893 22.59012688 1.12683075 28.06754857 -0.5 33.5625 C-0.93468702 35.06283472 -1.36829028 36.56348389 -1.80078125 38.06445312 C-2.85471827 41.71338332 -3.92326188 45.35773604 -5 49 C-5.66 49 -6.32 49 -7 49 C-7.64974205 46.31339217 -8.29488418 43.62581326 -8.9375 40.9375 C-9.11990234 40.18533203 -9.30230469 39.43316406 -9.49023438 38.65820312 C-12.12940357 27.57369251 -15.28743808 13.2461954 -9 3 C-6.5881053 -0.56041599 -4.14712016 -0.69118669 0 0 Z " fill="#FDFAFA" transform="translate(256,76)"/>
<path d="M0 0 C3.92420023 1.30806674 4.19545107 2.71906467 6.125 6.3125 C9.40628699 12.17946925 13.1365944 17.3340316 17.27734375 22.6015625 C19 25 19 25 19 27 C18.26362305 27.176521 17.52724609 27.35304199 16.76855469 27.53491211 C13.42898876 28.33557594 10.08949364 29.13653473 6.75 29.9375 C5.01169922 30.35418945 5.01169922 30.35418945 3.23828125 30.77929688 C2.12324219 31.04677734 1.00820312 31.31425781 -0.140625 31.58984375 C-1.68024902 31.95903931 -1.68024902 31.95903931 -3.25097656 32.33569336 C-5.50346502 32.8800114 -7.75299707 33.43354843 -10 34 C-8.61672651 27.19485051 -6.69628405 20.74961696 -4.4375 14.1875 C-3.80988152 12.34810489 -3.18352906 10.5082772 -2.55859375 8.66796875 C-2.28329834 7.86641357 -2.00800293 7.0648584 -1.72436523 6.23901367 C-1.05594477 4.17292533 -0.49794497 2.11286899 0 0 Z " fill="#FDFAFA" transform="translate(250,151)"/>
<path d="M0 0 C12.65513393 -0.27511161 12.65513393 -0.27511161 16 2 C18.50031654 5.75047482 18.53603554 7.55856266 18 12 C15.8272578 14.63016161 14.05326212 16.47336894 11 18 C7.32984725 18.1377685 3.67388652 18.04271961 0 18 C0 12.06 0 6.12 0 0 Z " fill="#BF4A4D" transform="translate(189,315)"/>
</svg>
