<?xml version="1.0" encoding="UTF-8"?>
<svg version="1.1" xmlns="http://www.w3.org/2000/svg" width="512" height="512">
<path d="M0 0 C5.50018013 4.7751093 9.55093598 10.4271368 10.27734375 17.82421875 C10.58700898 27.69634614 8.65964023 33.85182426 1.9375 41.078125 C-0.51538096 43.51122466 -3.06541156 45.78463078 -5.69921875 48.01953125 C-8.52395086 50.45100694 -11.26169627 52.97240064 -14 55.5 C-17.27816041 58.51967838 -20.56582193 61.52203207 -23.9375 64.4375 C-28.11286388 68.05498645 -32.14868643 71.81871384 -36.19824219 75.57543945 C-39.91335167 79.01545652 -43.67406306 82.39180589 -47.51171875 85.6953125 C-48.71614326 86.75115971 -49.86742512 87.86742512 -51 89 C-49.94398732 89.00496522 -49.94398732 89.00496522 -48.86664104 89.01003075 C-31.65210198 89.09162875 -14.43765149 89.18383772 2.77676868 89.28752708 C11.1018933 89.33742283 19.42700919 89.38386612 27.75219727 89.421875 C35.01741763 89.45505367 42.28256528 89.49502254 49.54770488 89.54279006 C53.38636588 89.56780112 57.22498027 89.58965364 61.06369972 89.60334396 C101.17630162 89.7522188 138.3436523 93.94121528 170 121 C170.51401367 121.43570313 171.02802734 121.87140625 171.55761719 122.3203125 C191.11808012 139.07592508 204.77679381 160.57138904 212.3125 185.125 C212.67649902 186.30497559 212.67649902 186.30497559 213.04785156 187.50878906 C216.45597808 199.22753809 217.39094215 210.89787762 217.375 223.0625 C217.37478851 223.73676025 217.37457703 224.41102051 217.37435913 225.10571289 C217.33804426 236.76915392 216.17796955 247.75045783 213 259 C212.81808105 259.66837891 212.63616211 260.33675781 212.44873047 261.02539062 C206.45490596 282.51531371 194.45300912 301.15664741 179 317 C178.30777344 317.76570313 177.61554688 318.53140625 176.90234375 319.3203125 C156.53097785 341.22247469 124.30957006 354.61507063 94.65985394 356.11867404 C88.14091737 356.31852912 81.62001335 356.30494176 75.09863281 356.30639648 C72.91577373 356.31403124 70.73291731 356.32246096 68.55006409 356.33161926 C62.65990835 356.35342762 56.76980446 356.36234339 50.87961292 356.36744571 C47.19457456 356.37110223 43.50954954 356.37734862 39.8245163 356.3844471 C26.95543324 356.40888354 14.08639023 356.42198317 1.21728516 356.42553711 C-10.76059175 356.42917903 -22.73809504 356.45913621 -34.71589351 356.50094169 C-45.02198814 356.53564638 -55.32799807 356.5510855 -65.63415074 356.55178314 C-71.78018184 356.55257517 -77.92595185 356.56128242 -84.0719223 356.58978081 C-89.84726621 356.61596779 -95.6221324 356.61816277 -101.39750862 356.60212517 C-103.51223099 356.60031186 -105.62698093 356.60699061 -107.74164391 356.62294388 C-129.17529671 356.77474894 -129.17529671 356.77474894 -138.4375 348.9375 C-138.953125 348.298125 -139.46875 347.65875 -140 347 C-140.53625 346.360625 -141.0725 345.72125 -141.625 345.0625 C-145.99518704 338.50721945 -145.6620239 331.63024984 -145 324 C-143.54626548 317.71581851 -140.24365327 313.72349562 -135.48828125 309.5078125 C-128.95051767 305.54615356 -122.25697292 304.55764091 -114.73579407 304.62145996 C-113.84776775 304.61692983 -112.95974143 304.6123997 -112.04480523 304.6077323 C-109.09262443 304.59617858 -106.14090291 304.60572694 -103.1887207 304.61523438 C-101.06234954 304.61112591 -98.93598063 304.60566342 -96.80961609 304.59895325 C-92.2409186 304.58725093 -87.67234186 304.58473593 -83.10363197 304.58930969 C-75.86974078 304.59613577 -68.63600752 304.58022202 -61.40214539 304.56091309 C-46.03893875 304.52309003 -30.67574604 304.51026873 -15.3125 304.5 C1.25824433 304.48891511 17.82891551 304.47346131 34.39960986 304.42928743 C41.5803349 304.41099681 48.76087848 304.40701557 55.94162118 304.41422272 C60.42299152 304.41575191 64.90427231 304.40491425 69.38561821 304.39084435 C71.45187796 304.38686472 73.51815506 304.38792701 75.58440781 304.39461708 C101.53168397 304.47212487 123.28309674 298.62446345 142.6953125 280.390625 C158.77780854 263.70844267 165.65446923 242.58109156 165.4753418 219.80175781 C165.23144073 211.34920833 163.92213204 203.97818945 161 196 C160.649375 194.97132813 160.29875 193.94265625 159.9375 192.8828125 C152.90009977 174.06754106 138.06329258 158.73073724 120.05810547 150.06542969 C105.2146738 143.38570132 91.11206354 141.84160067 74.94311523 141.88647461 C73.54279075 141.88675717 72.14246612 141.8865974 70.74214172 141.8860321 C66.96592242 141.88574682 63.1897353 141.89159985 59.41352344 141.89860606 C55.45773659 141.90488459 51.5019489 141.90544695 47.54615784 141.90663147 C40.0665982 141.90973157 32.5870533 141.91792706 25.10750014 141.92798096 C16.58750393 141.93918324 8.067507 141.9446629 -0.45249474 141.94967639 C-17.96833833 141.96011085 -35.4841676 141.97768457 -53 142 C-52.18011093 142.75096451 -51.36022186 143.50192902 -50.51548767 144.27565002 C-49.42690346 145.27303319 -48.33832657 146.27042436 -47.24975586 147.26782227 C-46.710895 147.76134438 -46.17203415 148.25486649 -45.61684418 148.76334381 C-41.5771053 152.46516289 -37.56048018 156.19060621 -33.5625 159.9375 C-28.84651442 164.34774121 -24.12105909 168.74713229 -19.375 173.125 C-18.85309082 173.60710937 -18.33118164 174.08921875 -17.79345703 174.5859375 C-15.01867546 177.14701025 -12.2352152 179.69797194 -9.44140625 182.23828125 C-8.85504395 182.77372559 -8.26868164 183.30916992 -7.66455078 183.86083984 C-6.54979825 184.87852034 -5.4324636 185.89338297 -4.31201172 186.90478516 C1.68567158 192.39105289 6.43753324 197.75482803 7.32421875 206.0234375 C7.60143475 214.22520744 6.77854827 220.71987453 1.234375 227 C-4.69294403 232.6006164 -10.31141947 235.07533485 -18.4375 235.4375 C-29.46380305 235.01341142 -35.6940517 229.01498373 -43.31396484 221.62548828 C-46.3168814 218.73040887 -49.38298983 215.90290534 -52.4375 213.0625 C-53.71767704 211.86613054 -54.99762597 210.66951695 -56.27734375 209.47265625 C-59.67250237 206.30156585 -63.08289184 203.14740577 -66.5 200 C-71.18408396 195.68516176 -75.84735735 191.34871907 -80.5 187 C-87.30732385 180.6382591 -94.14686473 174.31232065 -101 168 C-103.12551263 166.04222203 -105.25043211 164.08380312 -107.375 162.125 C-107.90407959 161.63789551 -108.43315918 161.15079102 -108.97827148 160.64892578 C-111.93600163 157.92151251 -114.87678101 155.17763087 -117.80078125 152.4140625 C-119.09601081 151.19234421 -120.3915833 149.97098939 -121.6875 148.75 C-122.31946289 148.15380859 -122.95142578 147.55761719 -123.60253906 146.94335938 C-127.14511302 143.63202393 -130.75564273 140.55720239 -134.625 137.625 C-139.78814553 133.63022018 -142.93942723 129.18171832 -145 123 C-145.82133131 113.97708893 -145.77193879 106.27537639 -140 99 C-133.09751736 91.71393453 -125.41155044 85.22951849 -117.85961914 78.63647461 C-115.24586673 76.33635876 -112.68423416 73.985734 -110.125 71.625 C-104.78480833 66.71080652 -99.40202801 61.84619233 -94 57 C-92.33307353 55.50028872 -90.66640851 54.00028679 -89 52.5 C-86.52497766 50.27170886 -84.04928246 48.0442116 -81.5703125 45.8203125 C-76.9796939 41.69902232 -72.41552893 37.55126212 -67.875 33.375 C-64.00632178 29.81746901 -60.09665875 26.31710425 -56.125 22.875 C-53.38175493 20.45448965 -50.69162407 17.97749394 -48 15.5 C-46.00099062 13.66558204 -44.00056463 11.83272295 -42 10 C-41.26394531 9.32324219 -40.52789062 8.64648438 -39.76953125 7.94921875 C-28.03655729 -2.61279972 -15.04164718 -9.14798645 0 0 Z " fill="#FFFFFF" transform="translate(220,80)"/>
</svg>
