<?xml version="1.0" encoding="UTF-8"?>
<svg version="1.1" xmlns="http://www.w3.org/2000/svg" width="2583" height="518">
<path d="M0 0 C1.13074951 0.00757324 2.26149902 0.01514648 3.42651367 0.02294922 C18.59103593 0.31611786 32.39738408 4.0504948 46.86108398 8.28222656 C72.83592194 15.80360888 99.9741477 15.9289166 125.5 6.4375 C127.82373273 5.72526 130.15503027 5.0770372 132.5 4.4375 C133.86079798 8.51989394 132.61533932 9.89550334 130.8125 13.75 C121.47935666 34.51651492 120.33054616 56.25942577 120.40234375 78.671875 C120.40421304 80.403503 120.40563452 82.13513153 120.40663147 83.86676025 C120.41041644 88.38429267 120.42021152 92.90179201 120.43133545 97.41931152 C120.44163687 102.04516147 120.44614764 106.67101685 120.45117188 111.296875 C120.46183812 120.34376439 120.47886514 129.39062942 120.5 138.4375 C136.43150879 114.92797656 136.43150879 114.92797656 152.33880615 91.40206909 C153.84821543 89.16707141 155.35792176 86.93227459 156.86767578 84.69750977 C161.15869919 78.34571263 165.44916811 71.99354109 169.73925781 65.64111328 C172.95091396 60.88556795 176.16281011 56.13018482 179.375 51.375 C179.89162201 50.61021332 180.40824402 49.84542664 180.94052124 49.0574646 C190.77287285 34.50333926 200.62920604 19.96557744 210.5 5.4375 C214.37618455 6.10443723 217.34420242 7.28739118 220.81420898 9.16796875 C238.8705287 18.94507431 258.44588856 21.37769825 278.41601562 16.10644531 C283.83237795 14.36782854 288.89859004 11.7603138 293.953125 9.1796875 C296.64839688 7.85579845 298.64438593 7.06554692 301.5 6.4375 C302.5 8.4375 302.5 8.4375 301.8203125 10.765625 C292.32437955 33.97790555 276.09088101 52.69202793 253.16796875 63.09765625 C232.20582842 70.7547533 210.65878907 66.12448102 191.03466797 57.08007812 C189.18497772 56.20934519 187.34171792 55.32497109 185.5 54.4375 C185.05374268 55.10942383 184.60748535 55.78134766 184.14770508 56.47363281 C178.69386669 64.67119993 173.19187673 72.83561104 167.67407227 80.99023438 C166.19929077 83.17007235 164.72558663 85.35063585 163.25195312 87.53125 C162.76783966 88.24680054 162.2837262 88.96235107 161.78494263 89.69958496 C160.81626538 91.13184707 159.84870311 92.56486393 158.8822937 93.99865723 C156.3898859 97.68738916 153.86507503 101.34747742 151.28369141 104.97460938 C150.509627 106.07110809 150.509627 106.07110809 149.71992493 107.1897583 C148.73149704 108.58683022 147.73473579 109.97805347 146.72868347 111.36248779 C145.57363566 113.00135348 144.52590917 114.71484897 143.5 116.4375 C144.7826609 120.2854827 147.10100329 121.64119644 150.25 123.9375 C160.01887929 131.25499732 169.20941672 139.18952243 178.2421875 147.39453125 C180.28777589 149.24547023 182.35466525 151.06622245 184.4375 152.875 C185.03361084 153.40738281 185.62972168 153.93976563 186.24389648 154.48828125 C187.84573534 155.87223119 189.49579259 157.20122267 191.17553711 158.48950195 C199.15452978 164.95616779 201.44766136 170.21933472 203.125 180.1875 C203.65403627 182.88055888 204.21543063 185.56672247 204.7734375 188.25390625 C204.91104492 188.93673172 205.04865234 189.61955719 205.19042969 190.32307434 C206.63280677 197.38027777 208.63238556 204.24217702 210.75 211.125 C211.12471436 212.34437256 211.49942871 213.56374512 211.88549805 214.82006836 C212.67068043 217.35755805 213.45922541 219.89374738 214.25244141 222.42871094 C215.34940555 225.94051598 216.42050533 229.45977501 217.48703003 232.98092651 C221.83051461 247.30510133 226.27854043 261.55926743 231.75 275.5 C232.12568115 276.47364502 232.5013623 277.44729004 232.88842773 278.45043945 C240.87600555 298.09500217 257.26459898 312.20757852 276.546875 320.3828125 C285.64164103 323.63094323 294.73668327 325.40311289 304.29833984 326.4934082 C305.08762375 326.58476295 305.87690765 326.67611771 306.69010925 326.77024078 C308.62656703 326.99415716 310.56326062 327.21603257 312.5 327.4375 C312.41795955 294.82511242 312.32588875 262.21277247 312.21994839 229.60045421 C312.20743054 225.74429718 312.19499761 221.88813989 312.18261719 218.03198242 C312.1789182 216.88051649 312.1789182 216.88051649 312.17514448 215.70578862 C312.13549471 203.30020303 312.10271306 190.89460842 312.07250018 178.48899668 C312.04131098 165.74574744 312.00267006 153.00253625 311.95720994 140.25932986 C311.92942384 132.40543037 311.90734837 124.55155849 311.89273749 116.69762326 C311.88088111 110.6602697 311.85862283 104.62299864 311.83261681 98.58568764 C311.82359136 96.11994803 311.81786265 93.65419366 311.81578636 91.18843842 C312.12406361 61.10895268 312.12406361 61.10895268 299.109375 34.75 C297.5 32.4375 297.5 32.4375 297.5 29.4375 C307.72702243 30.62215509 316.02614644 37.76478467 322.5 45.4375 C328.5 53.45463062 328.5 53.45463062 328.5 56.4375 C329.16 56.4375 329.82 56.4375 330.5 56.4375 C330.60570312 55.72851562 330.71140625 55.01953125 330.8203125 54.2890625 C333.91490996 41.30598121 345.08268735 31.02275961 355.875 24.0625 C373.44904499 13.9522553 394.40247664 9.60940031 414.5 13.4375 C414.5 14.4275 414.5 15.4175 414.5 16.4375 C413.44941406 16.78941406 412.39882813 17.14132813 411.31640625 17.50390625 C396.76363949 22.54787128 386.6991813 29.458224 379.75 43.6875 C374.76998954 55.38397195 373.32848238 67.84540424 373.38647461 80.44555664 C373.38625557 81.72036896 373.38625557 81.72036896 373.3860321 83.02093506 C373.3867221 85.79653585 373.39447119 88.57206735 373.40234375 91.34765625 C373.40421118 93.28535424 373.40563355 95.22305271 373.40663147 97.16075134 C373.41043104 102.23563972 373.42023922 107.31049901 373.43133545 112.38537598 C373.44160486 117.57397061 373.44614089 122.76256999 373.45117188 127.95117188 C373.461864 138.11329396 373.47890935 148.27539455 373.5 158.4375 C375.73678316 156.84023664 377.97351008 155.24289462 380.21020508 153.64550781 C380.83908882 153.19644073 381.46797256 152.74737366 382.11591339 152.28469849 C386.81395255 148.92935353 391.50681189 145.56702351 396.1875 142.1875 C396.9287915 141.65229736 397.67008301 141.11709473 398.43383789 140.56567383 C404.12433993 136.44927988 409.78517994 132.29361407 415.4375 128.125 C416.23446289 127.53936279 417.03142578 126.95372559 417.85253906 126.3503418 C421.25933713 123.84440031 424.65558199 121.33097116 428 118.7421875 C428.969375 118.00226563 429.93875 117.26234375 430.9375 116.5 C431.74058594 115.87222656 432.54367187 115.24445313 433.37109375 114.59765625 C435.5 113.4375 435.5 113.4375 437.4453125 113.43359375 C440.45358627 114.90341572 442.62198676 117.07385831 444.9375 119.4375 C445.45683105 119.9644043 445.97616211 120.49130859 446.51123047 121.03417969 C450.67009486 125.36337723 454.45769571 129.93776097 458.125 134.6875 C458.61411865 135.3165625 459.1032373 135.945625 459.60717773 136.59375 C460.63073306 137.95291643 461.61746791 139.34037792 462.57115173 140.74945068 C464.48958301 143.53170714 464.48958301 143.53170714 466.99465942 146.18267822 C477.88337118 159.22040402 475.63781532 175.9435457 475.25482655 191.89343071 C475.16742405 196.14140179 475.14927225 200.38957868 475.12689209 204.63830566 C475.04835697 217.23737114 474.87114331 229.83478619 474.65802002 242.43225098 C474.49248266 252.25644525 474.35783717 262.07881544 474.32043147 271.90444231 C474.29775785 276.94957585 474.21030684 281.9880293 474.07293653 287.03128147 C474.00189392 290.1676973 473.98948529 293.30237622 473.99302483 296.43951035 C473.9828622 297.88785 473.94874305 299.33625995 473.88833046 300.78337479 C473.7062943 305.33142439 473.79724382 309.1901492 475.5 313.4375 C479.39493011 317.3163476 484.5034937 319.35144345 489.5 321.4375 C491.07700287 322.18176364 492.65300198 322.92817322 494.2265625 323.6796875 C495.52242243 324.23252011 496.82176296 324.77728971 498.125 325.3125 C506.25251092 328.73957424 506.25251092 328.73957424 509.5 330.4375 C506.18041015 334.69072449 502.6421484 338.15626869 498.5390625 341.65234375 C496.60516968 343.34542616 494.79831504 345.10223328 493 346.9375 C489.96551634 350.02715609 486.7612454 352.85190192 483.48046875 355.67578125 C481.51256092 357.42632648 479.65849259 359.24697283 477.8125 361.125 C477.23628906 361.69347656 476.66007813 362.26195312 476.06640625 362.84765625 C474.73620692 364.19775881 473.48345263 365.62347193 472.25 367.0625 C468.29433257 369.04033371 465.96588571 368.14602199 461.84765625 366.8046875 C443.7505867 359.41381895 428.26339631 348.20089631 414.5 334.4375 C414.40212848 332.54086246 414.37535435 330.64053986 414.37542725 328.74137878 C414.37158272 326.88476624 414.37158272 326.88476624 414.36766052 324.99064636 C414.36973084 323.60598747 414.37185359 322.22132866 414.37402344 320.83666992 C414.3726294 319.38803045 414.37073057 317.93939138 414.36836243 316.49075317 C414.36385506 313.36195231 414.36200911 310.2331646 414.36190033 307.10436058 C414.36076125 302.14842271 414.34792933 297.19255958 414.33233643 292.23664856 C414.32847715 290.98220539 414.32847715 290.98220539 414.3245399 289.70241994 C414.31927267 287.99158154 414.31398719 286.28074321 414.30868387 284.56990492 C414.27359516 273.02909556 414.2470133 261.48837687 414.24951172 249.94750977 C414.25110518 242.16882907 414.23494487 234.39040157 414.19880509 226.61180192 C414.18041143 222.49770051 414.17094327 218.38402133 414.18328094 214.26988792 C414.19480212 210.38974618 414.1828194 206.51035628 414.15364647 202.63031387 C414.14705893 201.2147043 414.14878061 199.79902471 414.15994453 198.38344383 C414.27277473 182.76616896 408.77201093 171.32955945 398.20703125 159.97265625 C396.33665475 158.08903815 394.44538615 156.24319087 392.5 154.4375 C384.89465741 157.31824211 377.6897721 160.07210462 373.5 167.4375 C370.91247017 177.18633668 371.57222919 187.78783857 371.71823764 197.80395985 C371.76515247 201.84459623 371.74073954 205.88492025 371.72706604 209.92572021 C371.71535541 216.7049495 371.76031144 223.48200451 371.83959961 230.26074219 C371.93045494 238.08671864 371.93197129 245.90887053 371.88578171 253.73515153 C371.84321839 261.28495952 371.86295199 268.83337656 371.91121101 276.38311005 C371.9306619 279.5874413 371.92861607 282.79067918 371.90905571 285.99500275 C371.88889524 289.76913663 371.9234956 293.53898315 371.99970818 297.31236267 C372.0189743 298.69287146 372.01977247 300.07378606 372.00032425 301.4542923 C371.94786657 305.67667312 372.09157719 309.43878846 373.5 313.4375 C376.78836145 316.68134072 380.3070668 318.56869426 384.5 320.4375 C385.41325767 320.8695789 386.32651533 321.30165779 387.26744747 321.74682999 C389.65208845 322.84845142 392.05941884 323.84176965 394.5 324.8125 C395.33144531 325.15410156 396.16289063 325.49570312 397.01953125 325.84765625 C400.16091094 327.13161273 403.27957593 328.36402531 406.5 329.4375 C404.83438163 333.77021613 401.62551302 336.57272766 398.375 339.75 C397.78678467 340.33177002 397.19856934 340.91354004 396.5925293 341.51293945 C392.9953265 345.04685126 389.31181761 348.43001826 385.46484375 351.69140625 C382.99728997 353.88424232 380.6952518 356.2146672 378.375 358.5625 C376.75 360.1875 375.125 361.8125 373.5 363.4375 C372.62988281 364.33855469 372.62988281 364.33855469 371.7421875 365.2578125 C370.25 366.6875 370.25 366.6875 367.5 368.4375 C348.07611109 363.81555053 327.48342378 349.35065532 313.5 335.4375 C308.71007333 336.99764754 305.23812805 339.70569488 301.3125 342.75 C299.89306103 343.83351837 298.47244153 344.91549156 297.05078125 345.99609375 C295.94017334 346.84083252 295.94017334 346.84083252 294.80712891 347.70263672 C290.18971752 351.17473463 285.48678675 354.52915243 280.79223633 357.89575195 C280.08736084 358.40195068 279.38248535 358.90814941 278.65625 359.4296875 C277.96853516 359.92033691 277.28082031 360.41098633 276.57226562 360.91650391 C275.14182471 361.96641518 273.73520918 363.04929792 272.34960938 364.15771484 C271.65673828 364.7089502 270.96386719 365.26018555 270.25 365.828125 C269.32960938 366.58270996 269.32960938 366.58270996 268.390625 367.35253906 C266.04265493 368.6999537 264.65783426 368.64308828 262 368.3125 C254.40109049 366.16802247 247.40966688 362.17714654 240.5 358.4375 C239.89607422 358.11475098 239.29214844 357.79200195 238.66992188 357.45947266 C216.75940268 345.6779784 192.71755921 329.43772067 177.5 309.4375 C177.5 308.7775 177.5 308.1175 177.5 307.4375 C173.15605254 310.18952606 169.36638218 313.2147343 165.625 316.75 C162.35254907 319.79824875 159.08258542 322.83780419 155.6875 325.75 C146.96120848 333.32478088 138.66143062 341.40339956 130.24536133 349.31835938 C128.22738168 351.2125645 126.20398807 353.10083551 124.1796875 354.98828125 C121.90902109 357.10659703 119.66356859 359.24490759 117.4453125 361.41796875 C116.57648438 362.24941406 115.70765625 363.08085937 114.8125 363.9375 C114.08675781 364.6490625 113.36101562 365.360625 112.61328125 366.09375 C110.5 367.4375 110.5 367.4375 108.11328125 367.37890625 C104.91735575 366.22760872 102.2693499 364.65694313 99.375 362.875 C73.27073045 347.48214512 43.50791021 341.49855318 13.5 340.4375 C12.54996094 340.39625 11.59992188 340.355 10.62109375 340.3125 C-20.85407813 339.59613762 -52.99176878 347.16888627 -80.5 362.4375 C-81.58539063 363.01242187 -82.67078125 363.58734375 -83.7890625 364.1796875 C-90.9129615 368.09332315 -96.68895241 372.7771092 -102.5 378.4375 C-103.8303125 379.675 -103.8303125 379.675 -105.1875 380.9375 C-115.62205091 392.21809557 -120.87185838 403.62871899 -120.71484375 419.0859375 C-120.15835883 427.76710223 -117.0926162 436.03836431 -110.73828125 442.125 C-101.6882092 449.02029299 -88.61079818 450.90332701 -77.5 451.4375 C-76.875 453.25 -76.875 453.25 -76.5 455.4375 C-77.16 456.4275 -77.82 457.4175 -78.5 458.4375 C-91.01913993 459.88201615 -104.54654352 455.23534678 -114.58984375 447.9140625 C-123.05562312 440.31894315 -127.05121968 428.92805146 -127.71484375 417.8515625 C-128.62070483 390.71249936 -116.71662021 366.05624469 -98.65332031 346.43115234 C-90.27334126 337.54753864 -81.5748741 329.38103233 -71.5 322.4375 C-70.85981934 321.99599609 -70.21963867 321.55449219 -69.56005859 321.09960938 C-45.67748557 304.81733075 -17.95783494 290.67435309 11.203125 287.82421875 C20.66240268 287.31492181 20.66240268 287.31492181 28.9765625 283.48828125 C30.63553184 280.8466916 31.5658894 278.41075417 32.5 275.4375 C32.93699219 274.45265625 33.37398437 273.4678125 33.82421875 272.453125 C40.66762125 256.68780807 41.64245121 239.39842247 41.65771484 222.4296875 C41.66279556 221.17778625 41.66787628 219.92588501 41.67311096 218.63604736 C41.68375514 215.9357568 41.69277255 213.23551566 41.69923019 210.53521729 C41.71002059 206.25504592 41.73029085 201.97495049 41.75234985 197.69482422 C41.81391476 185.53161082 41.86826976 173.36840501 41.90136719 161.20507812 C41.91977339 154.46977107 41.94877428 147.73459474 41.9893719 140.99938393 C42.0103225 137.44615061 42.02588224 133.89308103 42.02817917 130.33978271 C42.03074603 126.37482271 42.05630558 122.41018366 42.08349609 118.4453125 C42.07898689 116.70716278 42.07898689 116.70716278 42.0743866 114.93389893 C42.17269975 105.24646117 43.39700587 96.22407872 49.5 88.4375 C50.53465249 91.54145746 50.27656852 93.04054265 49.76807785 96.17332077 C49.16090393 101.30149743 49.34661431 106.5019196 49.34228516 111.65869141 C49.33760949 112.99509343 49.33246469 114.33149388 49.32688904 115.66789246 C49.31565094 118.53791782 49.30719565 121.40793307 49.30076981 124.27797318 C49.29001287 128.83780937 49.26974284 133.39757334 49.24765015 137.95736694 C49.18600017 150.92173905 49.13194998 163.88610773 49.09863281 176.85058594 C49.08013506 184.01737829 49.05100684 191.1840499 49.0106281 198.35075319 C48.98979542 202.13016299 48.97413543 205.90942219 48.97182083 209.68889236 C48.9505478 236.55189323 48.71325914 263.28879445 33.5 286.4375 C40.44344257 286.06386259 40.44344257 286.06386259 46.390625 282.828125 C61.61999092 261.50701271 58.63911255 230.15009466 58.69923019 205.43694496 C58.71009441 201.09246118 58.73037846 196.74805026 58.75234985 192.40361023 C58.81368304 180.06362218 58.86828429 167.72364386 58.90136719 155.38354492 C58.91979964 148.53719791 58.94882518 141.69097895 58.9893719 134.84472626 C59.01026393 131.2395085 59.02587386 127.63445054 59.02817917 124.02916908 C59.03075489 120.00795591 59.05635474 115.98718701 59.08349609 111.96606445 C59.07898689 110.21615456 59.07898689 110.21615456 59.0743866 108.43089294 C59.28018808 87.76797601 66.45113045 69.16580978 81.1875 54.5625 C81.73792969 54.04945312 82.28835937 53.53640625 82.85546875 53.0078125 C84.70013939 51.24639303 86.34005143 49.37349323 88 47.4375 C91.32158717 43.58114482 94.85280293 39.98492572 98.5 36.4375 C97.85675781 36.85 97.21351563 37.2625 96.55078125 37.6875 C94.62108797 38.92074192 92.6885228 40.14949578 90.75390625 41.375 C88.63119346 42.72048902 86.51372036 44.07429089 84.40234375 45.4375 C51.8065046 66.1178837 21.24350664 66.63038537 -15.5 58.4375 C-17.56019492 57.97006624 -19.62009667 57.50133831 -21.6796875 57.03125 C-44.17845702 51.91647973 -62.20864871 50.12622692 -82.5 62.4375 C-83.82534035 63.11991862 -85.15534029 63.79398428 -86.5 64.4375 C-85.06001107 59.17381163 -82.65766959 55.27997373 -79.5625 50.875 C-79.07740967 50.17826172 -78.59231934 49.48152344 -78.0925293 48.76367188 C-73.2878868 41.96606708 -68.06166308 35.62474306 -62.5 29.4375 C-61.85933594 28.71304688 -61.21867187 27.98859375 -60.55859375 27.2421875 C-44.64901623 10.26738988 -23.36100216 -0.22334671 0 0 Z M119.5 180.4375 C119.48541748 181.34814209 119.47083496 182.25878418 119.45581055 183.19702148 C118.9274843 212.72541803 118.12983642 240.9454585 96.4140625 263.7109375 C87.2081539 272.32450881 77.05802445 278.57188181 65.66796875 283.87890625 C62.49310259 285.2295151 62.49310259 285.2295151 60.5 287.4375 C61.72332031 287.53546875 62.94664062 287.6334375 64.20703125 287.734375 C96.28923447 290.49969455 124.66691997 299.39938621 149.5 320.4375 C152.97635388 318.92949261 155.36629902 316.89148105 158.125 314.3125 C163.06770692 309.7743301 168.21290711 305.5659321 173.5 301.4375 C171.49292155 294.60065121 169.33091762 287.83095493 167.05859375 281.078125 C166.04048143 278.02266305 165.02471319 274.96642753 164.0090332 271.91015625 C163.28910782 269.74496712 162.5677314 267.58025996 161.8449707 265.41601562 C158.09503252 254.15206293 154.44427565 242.93703819 151.78515625 231.359375 C151.49201286 230.08626213 151.49201286 230.08626213 151.19294739 228.78742981 C151.00286606 227.95950424 150.81278473 227.13157867 150.61694336 226.27856445 C147.09620811 210.94416819 143.45040388 199.09071884 130.49511719 188.99658203 C127.56908206 186.71003524 124.8370892 184.21351059 122.07080078 181.73803711 C120.71150968 180.33121136 120.71150968 180.33121136 119.5 180.4375 Z " fill="#FFFFFF" transform="translate(149.5,48.5625)"/>
<path d="M0 0 C33.58625329 8.8875883 67.93741356 12.1144724 99.37011719 -5.50830078 C101.58406809 -6.79802204 101.58406809 -6.79802204 103.47949219 -8.84033203 C106.10449219 -8.46533203 106.10449219 -8.46533203 108.47949219 -7.84033203 C104.87950616 14.42273943 95.47365472 36.04960021 76.79199219 49.84716797 C55.34979929 63.83407534 36.32066397 65.15966797 10.47949219 65.15966797 C10.80949219 140.72966797 11.13949219 216.29966797 11.47949219 294.15966797 C24.72482936 288.99575443 24.72482936 288.99575443 36.91699219 282.28466797 C37.57038574 281.86612549 38.2237793 281.44758301 38.89697266 281.01635742 C44.60721371 277.26711666 49.55179711 272.87848195 54.47949219 268.15966797 C55.99542969 266.98404297 55.99542969 266.98404297 57.54199219 265.78466797 C74.26669386 250.83918988 84.86896244 228.86243771 92.47949219 208.15966797 C93.46949219 208.15966797 94.45949219 208.15966797 95.47949219 208.15966797 C96.64095667 243.18508141 78.58561731 280.02630004 55.16699219 305.28466797 C53.29749991 307.26993525 51.39515988 309.21903941 49.47949219 311.15966797 C48.93494385 311.72540527 48.39039551 312.29114258 47.8293457 312.87402344 C30.56938059 330.58189057 7.83561742 342.26788726 -15.77050781 348.97216797 C-16.45419434 349.16713867 -17.13788086 349.36210937 -17.84228516 349.56298828 C-29.86279264 352.78018334 -41.83166591 353.53623374 -54.20800781 353.47216797 C-54.95818176 353.47001282 -55.70835571 353.46785767 -56.48126221 353.46563721 C-67.73706859 353.41377542 -78.58030261 352.98037075 -89.52050781 350.15966797 C-90.67268799 349.87760498 -90.67268799 349.87760498 -91.84814453 349.58984375 C-118.45584581 342.92333378 -141.23797034 329.55137763 -160.52050781 310.15966797 C-161.71546875 308.96470703 -161.71546875 308.96470703 -162.93457031 307.74560547 C-190.62336032 278.4913715 -203.02743034 238.16411285 -202.83300781 198.53466797 C-202.83085266 197.74252899 -202.82869751 196.95039001 -202.82647705 196.13424683 C-202.77329794 183.93578966 -202.33265415 172.08072309 -199.52050781 160.15966797 C-199.32714844 159.33080078 -199.13378906 158.50193359 -198.93457031 157.64794922 C-189.88291453 120.26796329 -168.88978904 85.49674757 -136.70800781 63.65966797 C-136.0734668 63.2257373 -135.43892578 62.79180664 -134.78515625 62.34472656 C-131.40337593 60.11732974 -128.57538869 58.5921886 -124.52050781 58.15966797 C-125.08753472 62.28802177 -127.50413724 65.01644581 -129.95800781 68.22216797 C-153.94571484 100.91449517 -160.88325299 142.59279211 -155.7512207 182.33251953 C-155.16140673 185.98394167 -154.40122269 189.56796551 -153.52050781 193.15966797 C-153.32183105 193.99030762 -153.1231543 194.82094727 -152.91845703 195.67675781 C-146.01815053 223.73800424 -132.97913559 245.98940163 -113.52050781 267.15966797 C-103.92849869 258.31957482 -101.04323059 242.63811776 -99.52050781 230.15966797 C-99.42319344 227.51659629 -99.36596437 224.89914304 -99.36228943 222.25660706 C-99.35735145 221.49108534 -99.35241347 220.72556363 -99.34732586 219.93684429 C-99.3320462 217.3881554 -99.32361628 214.83949152 -99.31518555 212.29077148 C-99.30559952 210.45724775 -99.29558901 208.62372619 -99.28518677 206.79020691 C-99.2582102 201.82385163 -99.23716149 196.85748692 -99.21718478 191.89109921 C-99.19528041 186.69674551 -99.16791354 181.50242063 -99.14112854 176.30809021 C-99.09126177 166.4768666 -99.04630066 156.64562694 -99.00310618 146.814372 C-98.95368233 135.61972405 -98.89878332 124.42510503 -98.84342659 113.23048508 C-98.7296989 90.20690639 -98.62283987 67.18329993 -98.52050781 44.15966797 C-100.28464216 43.99591575 -102.04886532 43.83312023 -103.81312561 43.67073059 C-105.28678888 43.53459209 -105.28678888 43.53459209 -106.79022312 43.39570332 C-137.07665063 40.77741686 -164.48422737 45.9533946 -188.16845703 65.78198242 C-193.85099055 70.49285041 -193.85099055 70.49285041 -198.52050781 76.15966797 C-199.84050781 75.82966797 -201.16050781 75.49966797 -202.52050781 75.15966797 C-197.95542864 46.65795653 -186.51211468 23.45370912 -163.52050781 5.15966797 C-115.59067993 -28.89738053 -52.08249311 -13.8776826 0 0 Z M-92.52050781 46.15966797 C-92.52289617 47.10443528 -92.52528452 48.04920259 -92.52774525 49.02259922 C-92.58666239 72.06068905 -92.66262026 95.09867533 -92.75622272 118.13665104 C-92.80109866 129.27785862 -92.84053209 140.41903482 -92.86694336 151.56030273 C-92.88999002 161.27633192 -92.92346207 170.99226111 -92.96920937 180.70821089 C-92.99305193 185.84791392 -93.01183929 190.98751848 -93.01812172 196.12727547 C-93.02421337 200.97576015 -93.04435881 205.82399315 -93.07478333 210.67238426 C-93.08349865 212.4414914 -93.08729982 214.21063151 -93.08551598 215.97975922 C-93.07264731 234.64939215 -95.2542082 253.01257097 -107.26269531 268.13623047 C-107.67777344 268.80396484 -108.09285156 269.47169922 -108.52050781 270.15966797 C-107.38032779 273.58020803 -106.59592263 274.40228807 -103.52050781 276.15966797 C-100.45455503 275.99897862 -99.52457903 275.16389464 -97.37207031 272.92919922 C-80.88771518 251.03681881 -79.3428169 226.44184574 -79.40698242 200.03491211 C-79.4072653 198.37754824 -79.40710459 196.72018424 -79.40653992 195.06282043 C-79.40625588 190.6134261 -79.41208833 186.16405936 -79.41911387 181.71467137 C-79.42541357 177.04622749 -79.4259564 172.3777828 -79.42713928 167.70933533 C-79.43023325 158.89125299 -79.43842027 150.07318322 -79.44848877 141.25510639 C-79.45971035 131.20658385 -79.46517552 121.15806068 -79.47018421 111.10953343 C-79.48060473 90.45957129 -79.49816629 69.80962043 -79.52050781 49.15966797 C-81.12306889 48.65454553 -82.72762573 48.1557517 -84.33300781 47.65966797 C-85.22632813 47.38123047 -86.11964844 47.10279297 -87.04003906 46.81591797 C-89.57624177 46.03178446 -89.57624177 46.03178446 -92.52050781 46.15966797 Z M-18.52050781 63.15966797 C-18.52197437 63.85098061 -18.52344093 64.54229324 -18.52495193 65.25455475 C-18.5621426 82.14264178 -18.62131817 99.03049807 -18.70441055 115.91841888 C-18.74407488 124.08558952 -18.77653094 132.25266556 -18.79150391 140.41992188 C-18.80458627 147.54563604 -18.83171674 154.67114095 -18.87512088 161.79673719 C-18.89758914 165.56326791 -18.91342741 169.32954197 -18.91239166 173.09614563 C-18.91306964 208.99369646 -18.91306964 208.99369646 -27.27050781 224.53466797 C-27.61412354 225.19474854 -27.95773926 225.8548291 -28.31176758 226.53491211 C-31.40972405 232.3025719 -35.0868052 237.33600298 -39.52050781 242.15966797 C-40.184375 242.90345703 -40.84824219 243.64724609 -41.53222656 244.41357422 C-56.50886155 260.3314395 -77.19318127 269.69733102 -96.52050781 279.15966797 C-95.29497933 282.8362534 -93.85298609 283.29021571 -90.50708008 284.96337891 C-89.81026123 285.2962793 -89.11344238 285.62917969 -88.39550781 285.97216797 C-87.67484131 286.32182617 -86.9541748 286.67148437 -86.21166992 287.03173828 C-58.42618858 300.33087589 -25.63566366 307.19805325 4.47949219 297.15966797 C4.47949219 220.59966797 4.47949219 144.03966797 4.47949219 65.15966797 C-7.14266724 63.42417682 -7.14266724 63.42417682 -18.52050781 63.15966797 Z " fill="#FFFFFF" transform="translate(1685.5205078125,62.84033203125)"/>
<path d="M0 0 C4.03332755 1.84742387 6.62261867 4.49550649 9.5625 7.75 C10.0869873 8.32564697 10.61147461 8.90129395 11.15185547 9.49438477 C31.6205907 32.24118139 31.6205907 32.24118139 38 45 C42.51866085 43.45662438 46.19235234 40.97734371 50.0625 38.25 C50.75657959 37.76684326 51.45065918 37.28368652 52.16577148 36.78588867 C54.4474095 35.19562555 56.72387439 33.59814087 59 32 C60.56228865 30.90724986 62.12479145 29.81480583 63.6875 28.72265625 C66.99120678 26.41246517 70.29295567 24.0995063 73.59375 21.78515625 C79.57465412 17.59429579 85.56759438 13.4207986 91.5625 9.25 C92.55644775 8.55817627 93.55039551 7.86635254 94.57446289 7.15356445 C95.4999292 6.50991943 96.42539551 5.86627441 97.37890625 5.203125 C98.1994751 4.63239258 99.02004395 4.06166016 99.86547852 3.47363281 C104.90970295 -0.00880327 104.90970295 -0.00880327 106.99584961 0.19458008 C109.28067141 1.1127951 110.39666575 2.08722115 112.06640625 3.88671875 C112.91005737 4.78898193 112.91005737 4.78898193 113.77075195 5.70947266 C114.65766724 6.68859619 114.65766724 6.68859619 115.5625 7.6875 C116.48905396 8.69756104 116.48905396 8.69756104 117.43432617 9.72802734 C126.98526667 20.26028789 137.605662 32.211324 144 45 C148.51866085 43.45662438 152.19235234 40.97734371 156.0625 38.25 C156.75657959 37.76684326 157.45065918 37.28368652 158.16577148 36.78588867 C160.4474095 35.19562555 162.72387439 33.59814087 165 32 C166.56228865 30.90724986 168.12479145 29.81480583 169.6875 28.72265625 C172.99120678 26.41246517 176.29295567 24.0995063 179.59375 21.78515625 C185.57465412 17.59429579 191.56759438 13.4207986 197.5625 9.25 C198.55644775 8.55817627 199.55039551 7.86635254 200.57446289 7.15356445 C201.4999292 6.50991943 202.42539551 5.86627441 203.37890625 5.203125 C204.1994751 4.63239258 205.02004395 4.06166016 205.86547852 3.47363281 C210.90970295 -0.00880327 210.90970295 -0.00880327 212.99584961 0.19458008 C215.28067141 1.1127951 216.39666575 2.08722115 218.06640625 3.88671875 C218.62875977 4.48814697 219.19111328 5.0895752 219.77050781 5.70922852 C220.36186523 6.36205811 220.95322266 7.0148877 221.5625 7.6875 C222.18092773 8.36159912 222.79935547 9.03569824 223.43652344 9.73022461 C251.0907011 40.22319408 251.0907011 40.22319408 251.15821838 52.08694458 C251.17290161 54.03473816 251.17290161 54.03473816 251.18788147 56.0218811 C251.19378607 57.46917688 251.19959649 58.91647304 251.20532227 60.36376953 C251.21489801 61.88128935 251.22490791 63.39880649 251.23532104 64.9163208 C251.26240911 69.04415276 251.28339751 73.17199619 251.30332303 77.29986811 C251.32515856 81.61073059 251.35255913 85.92155753 251.37937927 90.23239136 C251.42933913 98.39922739 251.47426572 106.56608311 251.51740164 114.73295772 C251.56674591 124.02910217 251.62167444 133.32521097 251.67708123 142.62132096 C251.79095181 161.74751422 251.89777977 180.87374111 252 200 C254.55515185 201.45246563 257.11200365 202.90178596 259.66992188 204.34936523 C260.38879578 204.75842857 261.10766968 205.16749191 261.84832764 205.58895111 C266.93390902 208.4626243 272.03824453 210.97662958 277.5 213.0625 C278.23863281 213.35576172 278.97726562 213.64902344 279.73828125 213.95117188 C281.48818168 214.64431425 283.24344462 215.3239001 285 216 C283.40584497 219.91209308 280.86106668 222.37218086 277.875 225.3125 C277.38290039 225.7981543 276.89080078 226.28380859 276.38378906 226.78417969 C272.97482259 230.12217223 269.45540844 233.29416353 265.828125 236.390625 C263.36517734 238.55886097 261.0949278 240.8941561 258.796875 243.234375 C256.23420129 245.75248047 253.52543569 248.08622705 250.796875 250.421875 C249.12659942 251.88881269 247.55211328 253.40956293 246 255 C239.74497424 253.04948963 234.29785698 250.1261043 228.5625 247 C227.49370605 246.41766602 226.42491211 245.83533203 225.32373047 245.23535156 C216.92199293 240.60507193 208.61710471 235.85771875 201 230 C200.18141667 229.43491698 199.36283335 228.86983397 198.51944447 228.28762722 C194.5233069 225.22130197 191.51009383 222.77643798 190.08922386 217.82815742 C189.76688188 214.01805168 189.75212248 210.27513565 189.85229492 206.45922852 C189.85344064 205.00616145 189.85010174 203.55308504 189.84265137 202.10003662 C189.83613727 198.98571909 189.86082917 195.87381595 189.91032982 192.7598896 C189.98835634 187.82879377 189.994802 182.8991318 189.99201965 177.96751404 C189.99588807 170.16293302 190.04625266 162.3594753 190.1171363 154.55524057 C190.24360157 140.59063938 190.31411382 126.62591883 190.33277208 112.66076225 C190.34145134 107.76653096 190.37788862 102.87354283 190.43728006 97.9796735 C190.46983796 94.92653521 190.48186323 91.87354444 190.48900604 88.82025146 C190.496679 87.41337953 190.51294166 86.0065217 190.53882027 84.59986687 C190.74093901 73.26384316 188.50416372 65.20929896 180.69824219 56.85229492 C180.19969727 56.3441626 179.70115234 55.83603027 179.1875 55.3125 C178.66704102 54.76505127 178.14658203 54.21760254 177.61035156 53.65356445 C173.62913936 49.51455281 169.46748623 45.61340798 165 42 C163.32976986 42.65768801 161.66417143 43.32712879 160 44 C158.84859024 44.40773651 157.69718048 44.81547302 156.51087952 45.23556519 C151.98404994 47.27692058 148.57034696 49.67642056 146 54 C143.37916646 63.68000069 144.07322239 74.2759084 144.21823764 84.23213434 C144.26511755 88.27230972 144.24074328 92.3121699 144.22706604 96.35250854 C144.2153492 103.13351705 144.26034646 109.91235368 144.33959961 116.69287109 C144.43038465 124.51823953 144.43200018 132.33978188 144.38578171 140.16545403 C144.34319271 147.71472219 144.36297411 155.26260042 144.41121101 162.81179428 C144.43065015 166.01529925 144.42862717 169.21771032 144.40905571 172.42120743 C144.38887105 176.19696913 144.42357901 179.96845232 144.49970818 183.74346161 C144.51895007 185.12354981 144.51979776 186.50404362 144.50032425 187.88412857 C144.37826991 195.92395893 144.37826991 195.92395893 148.38571358 202.56087875 C151.17678865 204.63044462 153.93909908 206.3613211 157 208 C157.82928229 208.4642293 158.65856459 208.9284586 159.51297665 209.40675545 C161.54226892 210.51382002 163.59475608 211.51896347 165.6875 212.5 C166.40099609 212.84546875 167.11449219 213.1909375 167.84960938 213.546875 C169.56177753 214.37423142 171.28019051 215.18864697 173 216 C172.431775 219.66910998 171.05620402 221.24478235 168.375 223.75 C165.75389789 226.27419517 163.23819829 228.79538771 160.875 231.5625 C156.70089337 236.42581959 152.28876455 241.06524153 147.88623047 245.72094727 C145.07924605 248.70418778 142.34833905 251.63064398 140 255 C133.93135624 253.15428613 128.38539559 250.89815739 122.8125 247.875 C122.0812793 247.48175537 121.35005859 247.08851074 120.59667969 246.68334961 C108.64352392 240.16568771 97.5360622 232.62182933 87 224 C86.18697953 223.37580469 86.18697953 223.37580469 85.35753441 222.73899937 C83.36437726 220.1857683 83.62936648 218.22318793 83.63491821 215.01194763 C83.62960587 213.76015213 83.62429352 212.50835663 83.61882019 211.21862793 C83.62796892 209.82861171 83.63736129 208.43859708 83.64697266 207.04858398 C83.64614194 205.58655155 83.64392603 204.12451933 83.64042664 202.66249084 C83.63547221 199.51128483 83.63958473 196.36026475 83.65044022 193.20907402 C83.66679323 188.2198761 83.65833767 183.23091171 83.64559937 178.24171448 C83.61546905 164.9471196 83.61689457 151.65256578 83.63585222 138.35795408 C83.64820899 129.62981024 83.64625296 120.90193079 83.61746442 112.17381722 C83.6022759 107.2213294 83.60964738 102.26956102 83.63417459 97.31711853 C83.64429662 94.22342927 83.63349671 91.13006453 83.61705971 88.03641319 C83.61362836 86.61026692 83.61861796 85.18406939 83.63302803 83.75799179 C83.7474455 71.67872879 81.02734197 63.58599843 72.75 54.8125 C72.27908936 54.31202148 71.80817871 53.81154297 71.32299805 53.29589844 C67.24703584 49.05475935 62.81764478 45.37829906 58 42 C55.61576338 43.27159287 53.31708242 44.61242838 51 46 C50.08823816 46.49388277 49.17647633 46.98776554 48.23708534 47.49661446 C43.95144177 50.11463103 40.6348888 52.15099583 38.95887375 57.03210068 C38.54011511 60.75920241 38.46481067 64.4096252 38.51318359 68.15185547 C38.49169779 69.57529023 38.46561131 70.9986618 38.43530273 72.42193604 C38.36833363 76.26999699 38.37100006 80.11500159 38.39069319 83.96348333 C38.40106962 87.1841532 38.37783899 90.40423784 38.35497153 93.62481606 C38.30181736 101.2277442 38.30592171 108.82916417 38.34619141 116.43212891 C38.38666407 124.25691195 38.33216704 132.0769393 38.23043191 139.90105903 C38.14614704 146.63626066 38.12047019 153.3699708 38.14129889 160.10566628 C38.15318605 164.1211721 38.14362433 168.13356575 38.07783127 172.14861679 C36.90758503 189.29592472 36.90758503 189.29592472 43.20220947 204.10797119 C46.24619648 206.46898708 49.39805938 208.02390109 53.02252579 209.29471207 C55.10345757 210.03689928 57.02923566 210.93948074 59.00643921 211.92330933 C61.97011404 213.39319229 64.9455451 214.73289055 68 216 C67.45354896 219.91329453 65.70064387 221.58718985 62.875 224.25 C60.0701498 226.96267202 57.3461368 229.6572106 54.8125 232.625 C50.63699811 237.50301524 46.21057419 242.14630272 41.7980957 246.80908203 C41.20859131 247.43540527 40.61908691 248.06172852 40.01171875 248.70703125 C39.48022217 249.2688208 38.94872559 249.83061035 38.40112305 250.40942383 C36.7987511 252.15697566 36.7987511 252.15697566 35 255 C28.67344407 253.08719004 22.89169732 250.6694702 17.0625 247.5625 C15.84348999 246.91486694 15.84348999 246.91486694 14.59985352 246.25415039 C8.71338018 243.06292167 3.0279342 239.62146956 -2.5625 235.9375 C-3.2630249 235.47996338 -3.9635498 235.02242676 -4.68530273 234.55102539 C-6.84029257 233.09393384 -8.91207256 231.55172173 -11 230 C-11.84576505 229.42468977 -12.69153009 228.84937954 -13.56292439 228.25663567 C-17.6159782 225.16887726 -20.5213476 222.74021936 -21.90181541 217.72130203 C-22.21986516 213.73797541 -22.22476475 209.82068035 -22.1159668 205.83251953 C-22.11154186 204.31211988 -22.11163566 202.79170145 -22.11587524 201.27130127 C-22.11564259 198.01128667 -22.08434633 194.75361574 -22.02853966 191.4940834 C-21.9409387 186.33174511 -21.92709497 181.17076633 -21.92329407 176.00778198 C-21.90589571 165.97687895 -21.81411767 155.94732857 -21.71446228 145.91696167 C-21.59124276 133.15750034 -21.50233006 120.39813076 -21.47905093 107.63808143 C-21.46727079 102.51465619 -21.41952209 97.39324467 -21.34276807 92.27039742 C-21.301596 89.07295484 -21.28954758 85.87585309 -21.28477859 82.67816925 C-21.27656391 81.20555742 -21.25638576 79.73295122 -21.22276878 78.26070023 C-21.00050221 68.17110579 -22.62250838 61.89554667 -29 54 C-29.7940625 53.01644531 -30.588125 52.03289062 -31.40625 51.01953125 C-32.0971875 50.29121094 -32.788125 49.56289062 -33.5 48.8125 C-34.62728516 47.60400391 -34.62728516 47.60400391 -35.77734375 46.37109375 C-36.51082031 45.58863281 -37.24429687 44.80617187 -38 44 C-39.36091569 42.4642878 -40.71571657 40.92312075 -42.0625 39.375 C-42.63097656 38.72273438 -43.19945312 38.07046875 -43.78515625 37.3984375 C-44.18605469 36.93695313 -44.58695313 36.47546875 -45 36 C-41.13266914 31.98477886 -37.02498348 28.43517962 -32.6875 24.9375 C-31.99398438 24.37603271 -31.30046875 23.81456543 -30.5859375 23.23608398 C-23.81738356 17.79151407 -16.88580259 12.57502498 -9.90234375 7.41064453 C-6.59069313 4.954957 -3.29588492 2.47678606 0 0 Z " fill="#FFFFFF" transform="translate(1922,162)"/>
<path d="M0 0 C3.11511541 0.86334961 5.57958071 1.94958529 8.39868164 3.5222168 C9.90060059 4.3570459 9.90060059 4.3570459 11.43286133 5.20874023 C12.49279297 5.81363281 13.55272461 6.41852539 14.64477539 7.04174805 C15.74724609 7.66597656 16.8497168 8.29020508 17.9855957 8.93334961 C33.38373565 17.76326889 48.39877966 27.5107638 62.08227539 38.85424805 C62.88872324 39.46277634 62.88872324 39.46277634 63.71146297 40.08359814 C65.76360472 42.73430698 65.43780058 44.85365652 65.41371155 48.17292786 C65.41330272 48.81645901 65.41289389 49.45999016 65.41247267 50.12302226 C65.40770177 52.28349464 65.38165265 54.44319841 65.35595703 56.60351562 C65.34860364 58.15084737 65.3427085 59.69818663 65.33816528 61.24552917 C65.32616094 64.58011471 65.30560135 67.91450195 65.27900887 71.24900246 C65.23882441 76.52269186 65.22873287 81.79616632 65.22496033 87.06999207 C65.21071145 102.06743246 65.17577807 117.0644528 65.06542969 132.06152344 C65.00474562 140.34268155 64.97962294 148.62314419 64.99436849 156.90452117 C65.00059436 161.28725533 64.98808931 165.66819818 64.93147469 170.05060768 C64.87826408 174.17418803 64.87133046 178.29525255 64.89967728 182.41905403 C64.90175288 183.93080553 64.88673514 185.44269349 64.85321999 186.95407486 C64.75999686 191.40107064 64.79928901 195.55106232 66.08227539 199.85424805 C69.05748257 202.87953678 72.16345763 204.3384577 76.08227539 205.85424805 C77.57057904 206.58721071 79.05468838 207.32885519 80.53149414 208.0847168 C81.94167093 208.74262696 83.35441548 209.39506367 84.76977539 210.04174805 C85.47682617 210.37110352 86.18387695 210.70045898 86.91235352 211.03979492 C91.26900709 213.05951543 95.66025851 214.98228022 100.08227539 216.85424805 C96.76268554 221.10747254 93.22442379 224.57301673 89.12133789 228.0690918 C87.18744507 229.76217421 85.38059043 231.51898133 83.58227539 233.35424805 C81.19174372 235.78814537 78.73181277 238.06780364 76.14477539 240.29174805 C72.55724803 243.37771818 69.23205806 246.65819157 65.94165039 250.05737305 C65.32805664 250.6503418 64.71446289 251.24331055 64.08227539 251.85424805 C63.46868164 252.4678418 62.85508789 253.08143555 62.22290039 253.71362305 C60.08227539 254.85424805 60.08227539 254.85424805 57.45336914 254.35424805 C40.45721298 246.79164786 24.37438711 237.45105378 10.13305664 225.44799805 C8.1853412 223.93434491 6.32420152 222.86640431 4.08227539 221.85424805 C3.30625977 222.52069336 2.53024414 223.18713867 1.73071289 223.8737793 C-5.19324834 229.79233451 -12.2108053 235.557757 -19.42163086 241.1237793 C-21.80742519 242.96798431 -24.13747076 244.86241899 -26.44506836 246.8034668 C-27.01805664 247.27389404 -27.59104492 247.74432129 -28.18139648 248.22900391 C-29.75823652 249.52456107 -31.32090543 250.83731114 -32.88256836 252.15112305 C-36.88308496 254.39594318 -38.52035186 254.05100139 -42.91772461 252.85424805 C-46.09812309 251.71582439 -49.16058672 250.38731408 -52.23022461 248.97924805 C-53.53975098 248.38140503 -53.53975098 248.38140503 -54.87573242 247.77148438 C-60.82284094 244.98760569 -66.55118175 241.94243058 -72.16772461 238.54174805 C-72.81394775 238.15325684 -73.4601709 237.76476562 -74.12597656 237.36450195 C-75.49221084 236.50941419 -76.82770969 235.60376155 -78.13284302 234.65803528 C-80.39308913 233.19405811 -82.37527208 232.20251972 -84.81764221 231.14173889 C-89.91087734 228.60248594 -93.9094244 225.77229797 -96.91772461 220.85424805 C-99.85827062 210.46430878 -99.08491939 199.09957348 -98.90227485 188.4000349 C-98.84275403 184.08497939 -98.86608951 179.77023729 -98.87739563 175.45489502 C-98.88361058 168.21482016 -98.82613391 160.97741977 -98.72900391 153.73803711 C-98.61756343 145.38209865 -98.60197985 137.03019846 -98.63864011 128.67368865 C-98.67225241 120.61072269 -98.64337506 112.54918133 -98.58439064 104.48639679 C-98.56013039 101.06526564 -98.55658841 97.64505459 -98.56979942 94.22386932 C-98.58215389 90.19362714 -98.53929733 86.16754836 -98.4546032 82.13821411 C-98.43216817 80.66462856 -98.42812172 79.19062443 -98.44431686 77.71695709 C-98.5486132 66.63142966 -98.5486132 66.63142966 -94.55271339 62.27709198 C-91.75866696 60.21974039 -88.95578904 58.52383398 -85.91772461 56.85424805 C-84.16644307 55.66953649 -82.42495587 54.47005616 -80.69897461 53.2487793 C-78.93971259 52.05306826 -77.17926442 50.85910085 -75.41772461 49.66674805 C-73.48403179 48.35309178 -71.55043981 47.03928708 -69.61694336 45.7253418 C-68.1810083 44.75056885 -68.1810083 44.75056885 -66.71606445 43.75610352 C-62.54772505 40.92314557 -58.38848991 38.07696383 -54.23022461 35.22924805 C-52.67423864 34.1641386 -51.11824907 33.09903442 -49.56225586 32.03393555 C-48.7973584 31.51025391 -48.03246094 30.98657227 -47.24438477 30.44702148 C-44.0952031 28.29117037 -40.94546594 26.13613171 -37.7956543 23.98120117 C-36.22199089 22.90451812 -34.64842174 21.82769727 -33.07495117 20.75073242 C-28.9319924 17.91526043 -24.78735696 15.08227944 -20.64038086 12.25268555 C-19.77670898 11.66293945 -18.91303711 11.07319336 -18.02319336 10.46557617 C-16.36875058 9.33592976 -14.7138279 8.20698577 -13.05834961 7.07885742 C-12.31198242 6.5690332 -11.56561523 6.05920898 -10.79663086 5.53393555 C-10.14251221 5.08775879 -9.48839355 4.64158203 -8.81445312 4.18188477 C-6.85321281 2.87318873 -6.85321281 2.87318873 -5.05029297 1.12426758 C-2.91772461 -0.14575195 -2.91772461 -0.14575195 0 0 Z M-36.91772461 48.85424805 C-37.0345425 68.43851044 -37.12270521 88.02270209 -37.17678547 107.60724068 C-37.20256369 116.70076267 -37.23770683 125.79406815 -37.29492188 134.88745117 C-37.34476865 142.8135492 -37.37701841 150.73949043 -37.38816708 158.66574085 C-37.39468374 162.86245249 -37.40999133 167.05871554 -37.44637489 171.25528336 C-37.4803548 175.20668371 -37.49077376 179.15745141 -37.48326302 183.10898399 C-37.4846367 184.55780032 -37.49455803 186.00663816 -37.51375198 187.45532799 C-37.9441171 196.08247569 -37.9441171 196.08247569 -34.5275116 203.65328979 C-25.1362726 211.57337104 -13.53148683 217.04038567 -1.16772461 216.91674805 C0.58797852 216.90321289 0.58797852 216.90321289 2.37915039 216.8894043 C3.71719727 216.87200195 3.71719727 216.87200195 5.08227539 216.85424805 C5.36302014 198.12171664 5.57441079 179.38961401 5.70402145 160.65541267 C5.76581158 151.95600038 5.84999527 143.25789764 5.98754883 134.55932617 C6.10743262 126.97451215 6.18463723 119.39064665 6.21133733 111.80491149 C6.22693876 107.79039836 6.26339529 103.77859779 6.35103607 99.76495743 C6.43300414 95.9801488 6.45752091 92.19914612 6.43956757 88.41353416 C6.44284715 87.03072404 6.46643493 85.647776 6.51274109 84.26573753 C6.70971527 78.07916432 6.62988498 73.63837716 2.46613312 68.83828354 C-0.46717087 66.22039027 -3.62832252 64.00679801 -6.91772461 61.85424805 C-7.69600239 61.32559206 -8.47428017 60.79693607 -9.27614212 60.25226021 C-11.07415018 59.06492187 -12.90233899 58.01184578 -14.79272461 56.97924805 C-15.3844043 56.62862305 -15.97608398 56.27799805 -16.58569336 55.91674805 C-20.95194573 53.47598585 -25.37924527 52.0718134 -30.19555664 50.72875977 C-31.45481964 50.37562714 -32.71408264 50.02249451 -34.01150513 49.65866089 C-34.97055756 49.39320465 -35.92960999 49.12774841 -36.91772461 48.85424805 Z " fill="#FFFFFF" transform="translate(762.917724609375,162.145751953125)"/>
<path d="M0 0 C2.92852292 1.17917733 5.31471413 3.01716886 7.89599609 4.82592773 C27.70549875 18.0022765 54.11307529 25.64826108 77.89599609 22.76342773 C81.08436184 21.96203699 83.8728761 21.04037118 86.83740234 19.63842773 C88.89599609 18.76342773 88.89599609 18.76342773 92.89599609 18.76342773 C93.88599609 19.42342773 94.87599609 20.08342773 95.89599609 20.76342773 C94.36860525 24.1901647 92.35268438 26.82184055 89.95849609 29.70092773 C89.15541016 30.66901367 88.35232422 31.63709961 87.52490234 32.63452148 C84.3593505 36.41053003 81.17438155 40.17014228 77.98413086 43.92529297 C75.08467254 47.34227706 72.22509854 50.7876733 69.39599609 54.26342773 C66.10775869 58.30326226 62.76868149 62.2942605 59.39599609 66.26342773 C54.49049975 72.0388978 49.67826726 77.8853964 44.89599609 83.76342773 C43.29225832 85.72211232 41.68809601 87.68044937 40.08349609 89.63842773 C37.33216441 92.99615493 34.60260132 96.36952724 31.89599609 99.76342773 C32.64937256 100.15498047 32.64937256 100.15498047 33.41796875 100.55444336 C71.52842596 120.3958576 71.52842596 120.3958576 78.89599609 127.76342773 C79.08420565 130.62540223 79.14771402 133.38987564 79.12304688 136.25219727 C79.12333893 137.13031067 79.12363098 138.00842407 79.12393188 138.91314697 C79.12253522 141.82427755 79.10695822 144.73515421 79.09130859 147.64624023 C79.08757966 149.6612026 79.08473212 151.67616677 79.08273315 153.69113159 C79.07508727 159.00125105 79.0554306 164.31126156 79.0333252 169.62133789 C79.01288731 175.03717576 79.00373585 180.45303119 78.99365234 185.86889648 C78.9721856 196.50045484 78.93803816 207.13193224 78.89599609 217.76342773 C66.52905455 224.7953274 54.16076479 231.80049709 41.58349609 238.45092773 C31.8629397 243.59005843 31.8629397 243.59005843 22.29443359 249.00561523 C21.46596924 249.48683838 20.63750488 249.96806152 19.78393555 250.46386719 C18.28363474 251.34262605 16.79177033 252.23602812 15.31079102 253.14697266 C10.5642932 255.91688855 10.5642932 255.91688855 7.25927734 255.15795898 C6.47939453 254.69776367 5.69951172 254.23756836 4.89599609 253.76342773 C-22.22803291 241.71740881 -55.8517141 236.74988757 -84.68603516 245.90014648 C-90.02454807 248.02883654 -94.78908414 250.58356484 -99.38525391 254.04077148 C-101.10400391 254.76342773 -101.10400391 254.76342773 -103.26025391 254.01733398 C-105.10400391 252.76342773 -105.10400391 252.76342773 -106.10400391 250.76342773 C-99.62672715 242.30503163 -93.08905685 233.897262 -86.49511719 225.52954102 C-84.19526153 222.60971725 -81.89984446 219.6864088 -79.60400391 216.76342773 C-78.68735881 215.59674412 -77.77069213 214.43007746 -76.85400391 213.26342773 C-76.40025391 212.68592773 -75.94650391 212.10842773 -75.47900391 211.51342773 C-64.02067057 196.9300944 -52.56233724 182.34676107 -41.10400391 167.76342773 C-44.47765286 164.90684558 -48.13509312 163.36012691 -52.22900391 161.82592773 C-52.82326172 161.58680664 -53.41751953 161.34768555 -54.02978516 161.10131836 C-59.37464043 159.07966152 -64.85325085 157.87512775 -70.42382812 156.66357422 C-71.25925644 156.48000114 -72.09468475 156.29642807 -72.95542908 156.10729218 C-75.00451542 155.65733533 -77.0542008 155.21010798 -79.10400391 154.76342773 C-79.54937229 140.890752 -79.8823385 127.0191947 -80.08843517 113.14081955 C-80.18738814 106.69510908 -80.32142176 100.25421611 -80.53735352 93.8112793 C-80.74466331 87.58624778 -80.8575613 81.36582929 -80.90667152 75.13761139 C-80.94163545 72.76878433 -81.00993068 70.40019548 -81.11287498 68.03334808 C-81.86469811 50.02227023 -81.86469811 50.02227023 -77.30051041 44.63450623 C-72.84462397 40.87748738 -67.91557923 38.32971013 -62.62351704 35.95185375 C-58.44727694 33.98196825 -54.58033683 31.51571805 -50.66650391 29.07592773 C-49.01493093 28.08895971 -47.36275168 27.10300402 -45.70947266 26.11889648 C-37.17401891 21.02200678 -28.68822827 15.84256058 -20.19563293 10.67469788 C-18.53772243 9.6676702 -16.87704335 8.66520503 -15.21630859 7.6628418 C-13.19221542 6.42755431 -11.18142847 5.17010085 -9.18701172 3.88745117 C-8.30625977 3.32832031 -7.42550781 2.76918945 -6.51806641 2.19311523 C-5.75703613 1.6979541 -4.99600586 1.20279297 -4.21191406 0.69262695 C-2.10400391 -0.23657227 -2.10400391 -0.23657227 0 0 Z M-19.10400391 48.76342773 C-19.10400391 67.90342773 -19.10400391 87.04342773 -19.10400391 106.76342773 C-4.82572219 112.23793585 -4.82572219 112.23793585 9.89599609 114.76342773 C11.96136605 112.65047438 11.96136605 112.65047438 14.02099609 109.88842773 C17.04215461 106.06553784 20.1038652 102.35589337 23.39599609 98.76342773 C26.4188203 95.44353287 29.32111771 92.06578662 32.14599609 88.57592773 C35.75069947 84.12490269 39.44975058 79.77149046 43.20849609 75.45092773 C44.02640625 74.51047607 44.02640625 74.51047607 44.86083984 73.55102539 C45.97414411 72.27144416 47.08758912 70.99198537 48.20117188 69.71264648 C51.02429842 66.46576629 53.83818123 63.21105373 56.64599609 59.95092773 C57.1594458 59.35820068 57.67289551 58.76547363 58.2019043 58.15478516 C60.82491076 55.1503473 60.82491076 55.1503473 62.89599609 51.76342773 C61.75001953 52.04057617 60.60404297 52.31772461 59.42333984 52.60327148 C57.89343169 52.96932313 56.36348152 53.33519921 54.83349609 53.70092773 C54.08132812 53.88333008 53.32916016 54.06573242 52.55419922 54.25366211 C30.68639122 59.46028306 4.59216909 59.29568999 -16.10400391 49.76342773 C-17.09400391 49.43342773 -18.08400391 49.10342773 -19.10400391 48.76342773 Z M-16.10400391 148.76342773 C-18.33389956 150.9647357 -18.33389956 150.9647357 -20.60400391 153.88842773 C-21.0397876 154.42612793 -21.47557129 154.96382812 -21.92456055 155.51782227 C-23.32873441 157.25784751 -24.71788588 159.00899422 -26.10400391 160.76342773 C-26.77858643 161.61324219 -26.77858643 161.61324219 -27.46679688 162.48022461 C-30.2321526 165.9676288 -32.97635763 169.4711543 -35.71289062 172.98120117 C-38.00245667 175.91448164 -40.30377556 178.83850665 -42.60400391 181.76342773 C-43.51551255 182.92354446 -44.42697079 184.08370078 -45.33837891 185.24389648 C-47.22319134 187.6428096 -49.1086941 190.04117815 -50.99462891 192.43920898 C-56.04886799 198.86689191 -61.09454881 205.30071775 -66.10400391 211.76342773 C-65.44400391 212.09342773 -64.78400391 212.42342773 -64.10400391 212.76342773 C-61.74462141 211.78314236 -59.46744436 210.74215106 -57.16650391 209.63842773 C-50.91952635 206.76673444 -44.69898198 204.60391566 -38.04150391 202.88842773 C-36.86503296 202.58461182 -36.86503296 202.58461182 -35.66479492 202.2746582 C-17.14599201 197.68505218 0.90587537 198.76672083 18.89599609 204.76342773 C19.04433017 198.71291861 19.15320639 192.66346756 19.22558594 186.61157227 C19.25575716 184.55311651 19.29670051 182.4947893 19.34863281 180.43676758 C19.42143375 177.47762366 19.45544834 174.52017877 19.48193359 171.56030273 C19.51290131 170.64037537 19.54386902 169.720448 19.57577515 168.77264404 C19.57707914 166.29639804 19.51520097 164.16141597 18.89599609 161.76342773 C16.2239887 159.12344856 16.2239887 159.12344856 12.89599609 157.76342773 C12.23889648 157.44752686 11.58179687 157.13162598 10.90478516 156.80615234 C10.32954102 156.59482666 9.75429687 156.38350098 9.16162109 156.16577148 C8.50959717 155.92294434 7.85757324 155.68011719 7.18579102 155.42993164 C6.51265869 155.18936035 5.83952637 154.94878906 5.14599609 154.70092773 C4.44514893 154.4448877 3.74430176 154.18884766 3.0222168 153.92504883 C-6.31795432 150.23629757 -6.31795432 150.23629757 -16.10400391 148.76342773 Z " fill="#FFFFFF" transform="translate(2467.10400390625,162.236572265625)"/>
<path d="M0 0 C6.60158779 5.2869247 11.75371995 12.43291354 17 19 C17.6703125 19.80308594 18.340625 20.60617188 19.03125 21.43359375 C27.13767466 31.22885688 35.16287929 40.98072681 35.12025452 53.93423462 C35.12153615 55.33949813 35.12153615 55.33949813 35.12284368 56.7731508 C35.12449885 59.93163133 35.11897649 63.09005947 35.11352539 66.24853516 C35.1132435 68.50495909 35.11340129 70.76138312 35.1139679 73.01780701 C35.1142558 79.16006265 35.10836019 85.30229891 35.10139394 91.44455004 C35.09515925 97.85743138 35.09455651 104.27031312 35.09336853 110.68319702 C35.09060964 121.45221355 35.08435571 132.22122157 35.07543945 142.99023438 C35.06626413 154.08365849 35.05918388 165.17708067 35.05493164 176.27050781 C35.05453756 177.29575262 35.05453756 177.29575262 35.05413551 178.34170945 C35.0528305 181.77052049 35.05156678 185.19933154 35.05032361 188.6281426 C35.03995245 217.08543331 35.02226119 245.54271627 35 274 C34.4093425 274.10513412 33.818685 274.21026825 33.21012878 274.31858826 C30.48634411 274.80780453 27.7647082 275.30812908 25.04296875 275.80859375 C23.64975403 276.05627502 23.64975403 276.05627502 22.22839355 276.30895996 C2.09998646 280.04362826 -14.86413826 291.07184821 -30.88647461 303.37109375 C-39.01355703 309.60215805 -47.49465492 315.30191263 -56 321 C-56.62616211 321.42410156 -57.25232422 321.84820312 -57.89746094 322.28515625 C-85.32313972 340.82387498 -117.41917084 354.02059706 -150.93359375 354.203125 C-151.76979752 354.20882507 -152.60600128 354.21452515 -153.46754456 354.22039795 C-155.23152424 354.2297931 -156.99552104 354.23635993 -158.75952148 354.24023438 C-161.39925628 354.24986054 -164.03818425 354.2809034 -166.67773438 354.3125 C-192.76118571 354.47563624 -220.56905281 348.63995288 -240 330 C-250.52753244 318.84875379 -256.41907725 305.95667808 -256.3125 290.625 C-256.30512817 289.36937256 -256.30512817 289.36937256 -256.29760742 288.08837891 C-256.18174182 281.97899389 -255.56365009 276.61315322 -253 271 C-252.48953125 269.87271484 -252.48953125 269.87271484 -251.96875 268.72265625 C-245.86344467 256.65642781 -236.11366017 248.63206414 -223.625 243.6875 C-204.66486602 237.47457474 -183.98545424 239.21566576 -166.1875 248.1875 C-157.55087346 253.14851426 -150.22197054 259.47078146 -145 268 C-145 268.66 -145 269.32 -145 270 C-145.99 270.33 -146.98 270.66 -148 271 C-149.9453125 269.671875 -149.9453125 269.671875 -152.125 267.75 C-159.79114851 261.58508764 -166.76145106 260.3402746 -176.5625 260.59375 C-184.60518566 261.54424921 -190.60747557 265.47576698 -195.58984375 271.77734375 C-199.74548811 278.327376 -200.68590335 285.15649674 -199.75390625 292.7890625 C-196.64740154 306.0198753 -188.48571958 316.14918059 -177.06591797 323.28125 C-162.37432939 331.92191697 -146.25535759 335.39929614 -129.3125 335.3125 C-128.17127686 335.30758545 -127.03005371 335.3026709 -125.85424805 335.29760742 C-97.58177667 334.90724192 -68.88090443 323.22261542 -48 304 C-35.02758404 290.19683819 -26.89988645 273.91282383 -26.81918335 254.80404663 C-26.81197883 253.98265815 -26.80477432 253.16126968 -26.79735148 252.31499064 C-26.77464451 249.56466239 -26.75906592 246.81434296 -26.74365234 244.06396484 C-26.72919904 242.09095036 -26.71444132 240.11793808 -26.69940186 238.14492798 C-26.56922455 220.14584544 -26.50327332 202.14614887 -26.45155907 184.14668846 C-26.41264852 170.84763616 -26.34427381 157.54943052 -26.23701131 144.25074995 C-26.16408421 134.89260665 -26.12571274 125.53469458 -26.11253321 116.17627871 C-26.10368075 110.59032589 -26.07952912 105.00542112 -26.01786423 99.41978073 C-25.96046904 94.16135087 -25.94598728 88.90450553 -25.96373749 83.64580917 C-25.96286174 81.72173473 -25.94670439 79.79759361 -25.91369247 77.87380219 C-25.60455618 65.37905677 -25.60455618 65.37905677 -31.29116821 54.55386353 C-32.82045045 52.99528752 -34.38926874 51.47424832 -36 50 C-37.46452209 48.47995349 -38.92492187 46.95591058 -40.37890625 45.42578125 C-41.76821521 44.0493961 -43.16268814 42.6782021 -44.5625 41.3125 C-45.28501953 40.59900391 -46.00753906 39.88550781 -46.75195312 39.15039062 C-48.49667695 37.42877572 -50.2459306 35.71208284 -52 34 C-50.67716996 30.03150987 -48.90760467 29.31476383 -45.4453125 27.0078125 C-44.87610077 26.62497101 -44.30688904 26.24212952 -43.72042847 25.84768677 C-41.86035468 24.59901898 -39.99302283 23.36173778 -38.125 22.125 C-36.20538055 20.84431439 -34.28716432 19.56154718 -32.36907959 18.27856445 C-31.0851057 17.42000188 -29.80047619 16.56241897 -28.51519775 15.70581055 C-24.65669256 13.12942673 -20.84030848 10.50337628 -17.0546875 7.8203125 C-16.18956543 7.2104248 -15.32444336 6.60053711 -14.43310547 5.97216797 C-12.84465288 4.84785083 -11.26259547 3.71442784 -9.68798828 2.57080078 C-8.98657715 2.07821777 -8.28516602 1.58563477 -7.5625 1.078125 C-6.66724609 0.43472168 -6.66724609 0.43472168 -5.75390625 -0.22167969 C-3.44131404 -1.24792467 -2.32754233 -0.88751259 0 0 Z " fill="#FFFFFF" transform="translate(1346,164)"/>
<path d="M0 0 C3.22977004 1.39315317 5.16060817 4.16633025 7.34716797 6.82373047 C7.86867432 7.44530029 8.39018066 8.06687012 8.92749023 8.70727539 C14.02248835 14.83934211 18.86608136 21.16189753 23.65966797 27.53076172 C25.68735196 30.22453029 27.74268009 32.8888036 29.84716797 35.52294922 C38.74839698 46.74935543 46.59770725 58.65237756 54.48364258 70.60107422 C54.95131546 71.30963058 55.41898834 72.01818695 55.90083313 72.74821472 C56.78459681 74.08893244 57.66691315 75.43060573 58.54753113 76.77339172 C60.58039216 79.86343598 62.64447065 82.89872698 64.90966797 85.82373047 C63.52259725 89.13921108 62.1137577 90.67794845 59.12060547 92.63623047 C58.35216309 93.14806885 57.5837207 93.65990723 56.79199219 94.18725586 C55.9645752 94.72729248 55.1371582 95.2673291 54.28466797 95.82373047 C47.99054476 100.02475802 41.80305264 104.29800965 35.78466797 108.88623047 C29.74730513 113.47598125 23.61549935 117.90109263 17.40527344 122.25366211 C12.20717765 125.89919524 7.04978625 129.59695073 1.90966797 133.32373047 C-3.26985487 137.07661869 -8.45828386 140.81469877 -13.69189453 144.49194336 C-15.11657684 145.49942041 -16.53341918 146.51808266 -17.94189453 147.5480957 C-21.27761835 149.96846229 -24.49583968 152.09311713 -28.23095703 153.84716797 C-32.31086133 155.91233584 -35.81086781 157.71778492 -38.09033203 161.82373047 C-40.06210739 170.64342837 -39.59440169 179.85431125 -39.09033203 188.82373047 C-38.17155273 189.11940918 -37.25277344 189.41508789 -36.30615234 189.71972656 C-32.63392331 190.9804174 -29.27674598 192.66644018 -25.84033203 194.44873047 C-13.26956937 200.8231316 -0.48014243 206.44272048 12.72216797 211.38623047 C14.12813232 211.92473633 14.12813232 211.92473633 15.5625 212.47412109 C16.44663574 212.79703125 17.33077148 213.11994141 18.24169922 213.45263672 C19.02262939 213.74211182 19.80355957 214.03158691 20.6081543 214.32983398 C23.38015129 214.92469448 25.20153741 214.61251453 27.90966797 213.82373047 C30.36844344 212.21512197 30.36844344 212.21512197 32.78466797 210.07373047 C33.73212891 209.27451172 34.67958984 208.47529297 35.65576172 207.65185547 C38.0591044 205.57531931 40.44044471 203.47452671 42.81982422 201.37060547 C43.4870752 200.78375977 44.15432617 200.19691406 44.84179688 199.59228516 C46.16167144 198.42827598 47.47535615 197.25720395 48.78222656 196.07861328 C49.39018066 195.54075195 49.99813477 195.00289062 50.62451172 194.44873047 C51.16197021 193.96662109 51.69942871 193.48451172 52.25317383 192.98779297 C54.11650659 191.67837947 55.68602554 191.2399639 57.90966797 190.82373047 C58.70654297 193.52294922 58.70654297 193.52294922 58.90966797 196.82373047 C56.98779297 199.28076172 56.98779297 199.28076172 54.15966797 201.63623047 C53.65814209 202.06363525 53.15661621 202.49104004 52.63989258 202.93139648 C51.08024215 204.25121319 49.49932736 205.5402902 47.90966797 206.82373047 C46.99830078 207.56880859 46.08693359 208.31388672 45.14794922 209.08154297 C43.34426263 210.55082343 41.53688197 212.01557921 39.72607422 213.47607422 C36.16494482 216.44450524 32.7832364 219.58022496 29.39038086 222.73754883 C25.30439318 226.51740082 21.03233458 230.01859286 16.69482422 233.50732422 C13.64938104 236.04021034 10.74868249 238.69190092 7.84716797 241.38623047 C6.83315734 242.30714736 5.81883874 243.22772527 4.80419922 244.14794922 C2.96241008 245.85054781 1.161856 247.59971746 -0.57861328 249.40576172 C-3.84896998 252.54765924 -6.25779061 254.75773867 -10.91064453 254.92529297 C-13.95009741 254.35026134 -16.82562393 253.55121065 -19.76025391 252.57763672 C-22.44046196 251.71044451 -25.14237197 250.95494666 -27.85595703 250.19873047 C-50.89300407 243.63138419 -73.04926066 234.27956822 -94.09033203 222.82373047 C-94.93802658 222.43115492 -95.78572113 222.03857937 -96.65910339 221.63410759 C-99.09033203 219.82373047 -99.09033203 219.82373047 -99.82568359 217.11490059 C-99.87692383 216.01230841 -99.92816406 214.90971622 -99.98095703 213.77371216 C-100.04997223 212.50730392 -100.11898743 211.24089569 -100.19009399 209.93611145 C-100.24098299 208.52905127 -100.29103394 207.12196057 -100.34033203 205.71484375 C-100.40932462 204.2343088 -100.47986901 202.75384546 -100.55184937 201.27345276 C-101.17778039 187.67661035 -101.48639667 174.05989824 -101.72891235 160.45141792 C-101.89468354 151.31454665 -102.14137186 142.19669822 -102.60888672 133.06982422 C-105.64580426 72.55226512 -105.64580426 72.55226512 -95.10256958 58.81915283 C-85.83346592 48.9291822 -73.66569015 43.20309767 -61.31427002 38.08917236 C-54.41835333 35.20920765 -48.67243073 31.23813104 -42.61767578 26.89404297 C-40.80416514 25.68941898 -38.98473832 24.49364015 -37.15869141 23.30810547 C-36.31330811 22.75445312 -35.4679248 22.20080078 -34.59692383 21.63037109 C-33.74912354 21.07542969 -32.90132324 20.52048828 -32.02783203 19.94873047 C-29.28558529 18.1516069 -26.54390169 16.35363999 -23.80337524 14.55389404 C-22.09937419 13.43507404 -20.3943332 12.31783571 -18.68807983 11.20245361 C-13.64807746 7.89589661 -8.73726422 4.48531112 -3.9675293 0.79589844 C-2.09033203 -0.17626953 -2.09033203 -0.17626953 0 0 Z M-39.09033203 49.82373047 C-39.09033203 84.14373047 -39.09033203 118.46373047 -39.09033203 153.82373047 C-33.28191574 150.53106444 -33.28191574 150.53106444 -27.88330078 146.82763672 C-27.14047852 146.27519287 -26.39765625 145.72274902 -25.63232422 145.15356445 C-24.46685059 144.27873413 -24.46685059 144.27873413 -23.27783203 143.38623047 C-21.60000349 142.1380857 -19.92160319 140.89070922 -18.24267578 139.64404297 C-17.3917334 139.01143555 -16.54079102 138.37882812 -15.6640625 137.72705078 C-11.57931802 134.70630823 -7.46195307 131.73136797 -3.34033203 128.76123047 C-2.61483154 128.23795166 -1.88933105 127.71467285 -1.1418457 127.17553711 C3.20046668 124.04674821 7.55255996 120.93187689 11.90966797 117.82373047 C-1.39762984 93.58025336 -18.81258811 69.66087321 -38.09033203 49.82373047 C-38.42033203 49.82373047 -38.75033203 49.82373047 -39.09033203 49.82373047 Z " fill="#FFFFFF" transform="translate(1071.09033203125,162.17626953125)"/>
<path d="M0 0 C1.90234375 1.94140625 1.90234375 1.94140625 3.9375 4.5625 C5.12085938 6.06490234 5.12085938 6.06490234 6.328125 7.59765625 C6.75673828 8.14695801 7.18535156 8.69625977 7.62695312 9.26220703 C9.05510175 11.06973938 10.51431153 12.84751206 11.984375 14.62109375 C30.64794403 37.17386876 47.23898484 61.35607987 63 86 C59.37546189 89.95750093 55.16251986 92.9055037 50.8125 96 C50.01585937 96.57105469 49.21921875 97.14210938 48.3984375 97.73046875 C42.41918101 102.00946273 36.4118967 106.24881589 30.39770508 110.47851562 C25.23616739 114.11284785 20.11171414 117.79598683 15 121.5 C9.19433489 125.70685888 3.36480754 129.8759882 -2.5 134 C-6.90750901 137.10017086 -11.30564987 140.21209142 -15.6796875 143.359375 C-16.45836182 143.91898926 -17.23703613 144.47860352 -18.03930664 145.05517578 C-19.58596724 146.17746259 -21.12441739 147.31115989 -22.65405273 148.45654297 C-25.90685994 150.87862441 -28.84897241 152.92973137 -32.54296875 154.6484375 C-36.02798634 156.35262463 -37.66034987 157.91333829 -40 161 C-40.79752259 164.11076492 -40.79752259 164.11076492 -40.8828125 167.4921875 C-40.95169678 168.71276855 -41.02058105 169.93334961 -41.09155273 171.19091797 C-41.23286286 176.80089407 -41.19737386 182.39202067 -41 188 C-39.93096436 188.41185547 -39.93096436 188.41185547 -38.84033203 188.83203125 C-36.00223355 189.99908154 -33.29437557 191.30606516 -30.5546875 192.6875 C-18.62812735 198.62008805 -6.74646958 204.12639226 5.75 208.75 C7.43440186 209.37648438 7.43440186 209.37648438 9.15283203 210.015625 C16.89610245 213.03773433 16.89610245 213.03773433 25 214 C27.73769297 212.45307959 29.87178917 210.42586538 32.125 208.25 C33.43435115 207.05409088 34.74425806 205.85878998 36.0546875 204.6640625 C36.70920898 204.0546582 37.36373047 203.44525391 38.03808594 202.81738281 C41.05468582 200.02301129 44.13903561 197.31339989 47.25 194.625 C47.78641113 194.14321289 48.32282227 193.66142578 48.87548828 193.16503906 C50.390625 191.8515625 50.390625 191.8515625 53 190 C53.99 190.33 54.98 190.66 56 191 C56.33 192.65 56.66 194.3 57 196 C56.10539062 196.76183594 55.21078125 197.52367187 54.2890625 198.30859375 C48.74174058 203.04264732 43.20379475 207.7752379 37.8125 212.6875 C34.4991692 215.69814479 31.11058071 218.56565178 27.625 221.375 C23.61175623 224.61950975 19.77566304 227.98728819 16 231.5 C11.35115545 235.82466362 6.56814274 239.90621989 1.58203125 243.84375 C-1.03842419 245.95043228 -1.03842419 245.95043228 -3.30078125 248.40625 C-5.46300441 250.64912447 -7.33970642 252.37984133 -10 254 C-12.41943359 254.0090332 -12.41943359 254.0090332 -15.0234375 253.42578125 C-16.4760498 253.10444214 -16.4760498 253.10444214 -17.95800781 252.77661133 C-23.05655603 251.47496752 -28.09931274 250.06036064 -33.125 248.5 C-34.24374512 248.15324219 -35.36249023 247.80648437 -36.51513672 247.44921875 C-56.87223257 240.99153835 -75.97592806 232.47773002 -94.74316406 222.36987305 C-95.64689255 221.88316257 -95.64689255 221.88316257 -96.56887817 221.38661957 C-98.0459434 220.59112542 -99.52297507 219.79556897 -101 219 C-101.25713983 198.92899919 -101.45102316 178.85833327 -101.56993389 158.786026 C-101.62661819 149.46567677 -101.70387314 140.14635183 -101.82983398 130.82666016 C-101.9395903 122.70203842 -102.01046678 114.5781585 -102.03497344 106.45281601 C-102.04929672 102.15134579 -102.08286655 97.85199738 -102.16303062 93.5512085 C-102.23794541 89.49904776 -102.26068294 85.44987266 -102.24418449 81.39708519 C-102.24720028 79.91350226 -102.26894838 78.42981517 -102.31126022 76.94683266 C-102.61437133 65.77087793 -102.61437133 65.77087793 -98.62964153 61.39984512 C-95.83702101 59.34233517 -93.04738566 57.64964957 -90 56 C-88.44946066 54.97308752 -86.90692111 53.93380922 -85.37866211 52.87402344 C-83.84661949 51.86650478 -82.31278693 50.86170363 -80.77734375 49.859375 C-79.92930679 49.30220795 -79.08126984 48.74504089 -78.20753479 48.17098999 C-75.45254787 46.36140036 -72.69520242 44.55544821 -69.9375 42.75 C-66.01821189 40.18169376 -62.1002295 37.6114118 -58.18359375 35.0390625 C-57.18504364 34.38328217 -56.18649353 33.72750183 -55.15768433 33.05184937 C-48.03863782 28.36644293 -40.96557769 23.61649205 -33.91015625 18.8359375 C-31.97480999 17.5287948 -30.03934653 16.2218256 -28.10375977 14.91503906 C-25.31105251 13.02935591 -22.5215181 11.13973082 -19.74093628 9.23620605 C-17.1783803 7.48228843 -14.60604539 5.7436913 -12.03125 4.0078125 C-10.89363976 3.21943497 -10.89363976 3.21943497 -9.73304749 2.41513062 C-9.0328801 1.94700958 -8.33271271 1.47888855 -7.61132812 0.99658203 C-7.0067981 0.58441437 -6.40226807 0.1722467 -5.77941895 -0.25241089 C-3.4455092 -1.23295879 -2.32540352 -0.91646448 0 0 Z M-41 49 C-41 83.32 -41 117.64 -41 153 C-32.15016612 147.42051981 -32.15016612 147.42051981 -23.875 141.3125 C-18.78346745 137.30428891 -13.56113404 133.52419576 -8.25 129.8125 C-2.36799268 125.70039281 3.41788201 121.5165855 9 117 C7.54657151 112.94074524 5.57370312 109.60928133 3.18359375 106.02734375 C2.8082399 105.46358536 2.43288605 104.89982697 2.04615784 104.31898499 C1.25069181 103.12661334 0.45294983 101.93575728 -0.34692383 100.74633789 C-1.5400503 98.97090627 -2.7246794 97.19004597 -3.90820312 95.40820312 C-13.24989041 81.40899261 -23.53268268 68.18997379 -34.4375 55.375 C-34.97028564 54.74609863 -35.50307129 54.11719727 -36.05200195 53.46923828 C-37.34536139 51.95979498 -38.66978705 50.47706846 -40 49 C-40.33 49 -40.66 49 -41 49 Z " fill="#FFFFFF" transform="translate(1244,163)"/>
<path d="M0 0 C1.8046875 1.84375 1.8046875 1.84375 3.875 4.5 C4.67035156 5.50675781 5.46570312 6.51351562 6.28515625 7.55078125 C6.71973145 8.10588379 7.15430664 8.66098633 7.60205078 9.23291016 C9.06625916 11.08375547 10.55789919 12.90910094 12.05859375 14.73046875 C29.41483177 35.80571237 45.13337026 58.1083015 60 81 C60.60457031 81.92941406 61.20914063 82.85882813 61.83203125 83.81640625 C63 86 63 86 63 89 C61.50976562 90.34350586 61.50976562 90.34350586 59.40625 91.71484375 C58.24416016 92.48731445 58.24416016 92.48731445 57.05859375 93.27539062 C55.79208984 94.09813477 55.79208984 94.09813477 54.5 94.9375 C48.19732535 99.13145563 42.0095321 103.39510367 36 108 C29.50840174 112.95295205 22.83081632 117.573397 16.06640625 122.14453125 C10.93465885 125.62946182 5.93238033 129.23898244 1 133 C-3.97019761 136.7874735 -9.00618808 140.43755704 -14.17260742 143.95385742 C-15.80007377 145.06286759 -17.42017166 146.18277329 -19.0324707 147.3137207 C-22.70214866 149.87043565 -26.27226356 152.20824222 -30.31640625 154.12890625 C-36.07044175 157.04584318 -36.07044175 157.04584318 -40 162 C-41.66848287 170.54482507 -40.85810074 179.39447539 -40 188 C-23.81431375 196.91586402 -7.31109933 204.52149721 10 211 C11.08619629 211.40734375 12.17239258 211.8146875 13.29150391 212.234375 C14.34644043 212.61078125 15.40137695 212.9871875 16.48828125 213.375 C17.42841064 213.71273437 18.36854004 214.05046875 19.3371582 214.3984375 C22.34716448 215.07842791 24.07556284 214.94411677 27 214 C28.79469347 212.89008523 28.79469347 212.89008523 30.34765625 211.41015625 C30.94747314 210.87737061 31.54729004 210.34458496 32.1652832 209.7956543 C33.10440552 208.93774292 33.10440552 208.93774292 34.0625 208.0625 C35.38987752 206.8819715 36.71801331 205.70229509 38.046875 204.5234375 C38.70751953 203.93272461 39.36816406 203.34201172 40.04882812 202.73339844 C42.93188013 200.17212851 45.86105276 197.66938841 48.8125 195.1875 C49.76769531 194.37667969 50.72289063 193.56585938 51.70703125 192.73046875 C54 191 54 191 56 191 C56.66 192.98 57.32 194.96 58 197 C57.34515625 197.52207031 56.6903125 198.04414063 56.015625 198.58203125 C50.85533107 202.74379372 45.8507975 206.98469749 41 211.5 C36.41245729 215.76925055 31.66557 219.75758735 26.78125 223.6875 C23.75980516 226.19971256 20.87561617 228.82404088 18 231.5 C13.37361578 235.80434136 8.61147667 239.85952916 3.6484375 243.77734375 C0.93383131 245.97469881 0.93383131 245.97469881 -1.5234375 248.62890625 C-2.74933594 249.89541016 -2.74933594 249.89541016 -4 251.1875 C-4.70125 251.96480469 -5.4025 252.74210938 -6.125 253.54296875 C-13.52372636 257.29259502 -24.91752345 251.71134171 -32.375 249.375 C-34.07619995 248.84386597 -34.07619995 248.84386597 -35.81176758 248.30200195 C-54.49353911 242.38394585 -72.70528585 235.28433243 -90 226 C-90.80056572 225.68797638 -91.60113144 225.37595276 -92.42595673 225.05447388 C-95.46537764 223.65845307 -97.61447745 222.35942833 -100 220 C-101.52917433 215.13104961 -101.37997354 210.27272995 -101.30981445 205.21728516 C-101.32501301 203.70225912 -101.34444594 202.18727055 -101.36778259 200.67234802 C-101.41757353 196.56614045 -101.4041108 192.46240738 -101.37618661 188.35607958 C-101.35893298 184.92414321 -101.3734865 181.49264854 -101.38825864 178.06072366 C-101.42296735 169.96127707 -101.40741089 161.86301696 -101.35864258 153.76367188 C-101.30909531 145.41826179 -101.33544972 137.0756121 -101.40082389 128.73037302 C-101.45482516 121.55628717 -101.4658357 114.38304316 -101.4416768 107.208794 C-101.42742173 102.92794037 -101.42825345 98.64853499 -101.46868324 94.36781693 C-101.50449599 90.33964437 -101.48622739 86.3151878 -101.4271183 82.28732491 C-101.41422558 80.81362083 -101.41985127 79.3396144 -101.44584274 77.86608315 C-101.6246822 66.77085446 -101.6246822 66.77085446 -97.61985683 62.40571594 C-94.83005173 60.35045088 -92.04139938 58.65330558 -89 57 C-87.44968136 55.97275436 -85.90719436 54.93341507 -84.37866211 53.87402344 C-82.84662736 52.86649281 -81.3127945 51.86169203 -79.77734375 50.859375 C-78.92926147 50.30225327 -78.0811792 49.74513153 -77.20739746 49.17112732 C-74.45233968 47.36167226 -71.69498664 45.55575103 -68.9375 43.75 C-65.01956859 41.18030834 -61.10307946 38.60843017 -57.1875 36.03515625 C-56.18915634 35.37916946 -55.19081268 34.72318268 -54.16221619 34.0473175 C-47.04027926 29.36054133 -39.95030214 24.62792408 -32.875 19.87109375 C-31.90647598 19.22091278 -30.93795197 18.57073181 -29.94007874 17.90084839 C-24.29813106 14.11315965 -24.29813106 14.11315965 -18.66549683 10.31164551 C-16.09212989 8.57032583 -13.51342565 6.83718975 -10.93359375 5.10546875 C-9.78824158 4.32483315 -9.78824158 4.32483315 -8.61975098 3.52842712 C-7.5693866 2.82635887 -7.5693866 2.82635887 -6.49780273 2.11010742 C-5.89105209 1.70016037 -5.28430145 1.29021332 -4.65916443 0.86784363 C-3 0 -3 0 0 0 Z M-41 49 C-41 83.65 -41 118.3 -41 154 C-36.43044687 152.18567369 -36.43044687 152.18567369 -32.609375 149.6015625 C-31.68185425 148.89157104 -31.68185425 148.89157104 -30.7355957 148.16723633 C-29.75272583 147.40382935 -29.75272583 147.40382935 -28.75 146.625 C-16.13467034 136.99485448 -3.06868374 128.00034567 10 119 C8.42663888 114.56752028 6.12424385 110.70754145 3.625 106.75 C3.18655762 106.05326172 2.74811523 105.35652344 2.29638672 104.63867188 C-2.84625277 96.55351052 -8.36753366 88.74910293 -14 81 C-14.50853516 80.2977832 -15.01707031 79.59556641 -15.54101562 78.87207031 C-23.34313427 68.14043952 -31.60216887 58.39783113 -41 49 Z " fill="#FFFFFF" transform="translate(2315,162)"/>
<path d="M0 0 C0.73283203 -0.00386719 1.46566406 -0.00773437 2.22070312 -0.01171875 C6.04299616 -0.00482553 9.59770765 0.20179717 13.3125 1.125 C13.3125 2.115 13.3125 3.105 13.3125 4.125 C12.33410156 4.47691406 11.35570312 4.82882813 10.34765625 5.19140625 C-3.44322622 10.31655101 -14.05977663 17.46400385 -20.5234375 31.12109375 C-25.4538026 43.84408289 -26.85118767 56.92891863 -26.80775452 70.47683716 C-26.80860894 71.46951753 -26.80946337 72.46219789 -26.81034368 73.48495948 C-26.81198021 76.78442542 -26.80650725 80.08383959 -26.80102539 83.38330078 C-26.8007431 85.75912983 -26.80090208 88.13495897 -26.8014679 90.51078796 C-26.80175423 96.94181655 -26.795884 103.37282641 -26.78889394 109.80385065 C-26.78278748 115.8494624 -26.7822698 121.89507571 -26.78124207 127.94069003 C-26.77905765 139.90903125 -26.77241414 151.87736562 -26.76293945 163.84570312 C-26.75374953 175.46647101 -26.74667643 187.08723703 -26.74243164 198.70800781 C-26.74203756 199.78386586 -26.74203756 199.78386586 -26.74163551 200.88145842 C-26.7403304 204.47991323 -26.73906671 208.07836806 -26.73782361 211.6768229 C-26.72747 241.49288673 -26.70979358 271.30894256 -26.6875 301.125 C-24.47092522 302.40859417 -22.25242891 303.68865165 -20.03271484 304.96679688 C-19.41126083 305.32715027 -18.78980682 305.68750366 -18.14952087 306.05877686 C-13.0279706 309.00218206 -7.80056544 311.43694777 -2.3125 313.625 C-1.04792969 314.14320313 -1.04792969 314.14320313 0.2421875 314.671875 C2.26211739 315.49820996 4.28677251 316.3129813 6.3125 317.125 C6.3125 320.125 6.3125 320.125 5.08178711 321.62036133 C4.5069458 322.1439624 3.93210449 322.66756348 3.33984375 323.20703125 C2.69466797 323.80257813 2.04949219 324.398125 1.38476562 325.01171875 C0.32805664 325.96498047 0.32805664 325.96498047 -0.75 326.9375 C-2.22014459 328.2876597 -3.6901944 329.6379226 -5.16015625 330.98828125 C-5.91312988 331.67486816 -6.66610352 332.36145508 -7.44189453 333.06884766 C-10.24134674 335.63212081 -13.00883589 338.22811204 -15.7734375 340.82885742 C-17.64182325 342.58213726 -19.52071301 344.32345528 -21.40234375 346.0625 C-23.37249166 347.88540469 -25.29084222 349.72740097 -27.19140625 351.625 C-27.87074219 352.285 -28.55007813 352.945 -29.25 353.625 C-30.05630859 354.44484375 -30.05630859 354.44484375 -30.87890625 355.28125 C-32.6875 356.125 -32.6875 356.125 -35.3515625 355.55859375 C-39.5034839 353.77433713 -43.50599118 351.79964958 -47.5 349.6875 C-48.32878662 349.24937988 -49.15757324 348.81125977 -50.01147461 348.35986328 C-62.26475236 341.77458607 -74.21762142 334.33501768 -84.6875 325.125 C-85.21357015 324.68821243 -85.7396403 324.25142487 -86.28165197 323.80140132 C-88.10176111 321.63101497 -88.06292226 320.45573612 -88.06388092 317.64632893 C-88.07148736 316.72363974 -88.07909381 315.80095055 -88.08693075 314.85030109 C-88.08003682 313.83496128 -88.07314288 312.81962147 -88.06604004 311.77351379 C-88.07057017 310.69601464 -88.0751003 309.6185155 -88.0797677 308.50836486 C-88.09144301 304.87890937 -88.0817235 301.24981881 -88.07226562 297.62036133 C-88.07636863 295.02522035 -88.08182789 292.43008121 -88.08854675 289.83494568 C-88.10112953 284.23485449 -88.10308029 278.6348405 -88.09819031 273.03473854 C-88.09138314 264.92047824 -88.10390004 256.80633428 -88.12169749 248.69209477 C-88.15037283 235.50477727 -88.16786499 222.31747231 -88.17626953 209.13012695 C-88.17677671 208.3405169 -88.17728389 207.55090684 -88.17780644 206.7373692 C-88.18133094 201.13741296 -88.18445932 195.53745652 -88.1875 189.9375 C-88.19096483 183.56323224 -88.19461564 177.18896465 -88.19873047 170.81469727 C-88.19923308 170.02999106 -88.1997357 169.24528486 -88.20025355 168.43679968 C-88.20902229 155.31489955 -88.2295139 142.19304227 -88.25821257 129.07117099 C-88.27532801 120.98748388 -88.28200644 112.90391854 -88.27490652 104.82021572 C-88.27020215 98.60764266 -88.28074462 92.39517928 -88.29665565 86.18262672 C-88.30063858 83.64634478 -88.29956725 81.1100487 -88.29288292 78.57377243 C-87.9002631 54.79703396 -87.9002631 54.79703396 -95.0625 32.4375 C-95.62710938 31.34050781 -96.19171875 30.24351563 -96.7734375 29.11328125 C-98.76663325 26.00145523 -101.07828542 23.72069533 -103.6875 21.125 C-103.5 18.8125 -103.5 18.8125 -102.6875 17.125 C-93.30240167 18.57527274 -85.59072628 24.95592726 -79.6875 32.125 C-77.20310841 35.70725606 -74.89750091 39.36799845 -72.6875 43.125 C-70.56351192 41.00101192 -69.83961358 39.40840856 -68.625 36.6875 C-60.9733732 21.25078779 -47.63196038 11.06793523 -31.6875 5.125 C-21.23654651 1.71987376 -10.97711857 -0.05885854 0 0 Z " fill="#FFFFFF" transform="translate(957.6875,60.875)"/>
<path d="M0 0 C3.83026556 1.54840523 6.26918441 4.82613554 9.01953125 7.81640625 C9.80457031 8.66525391 9.80457031 8.66525391 10.60546875 9.53125 C12.45415765 11.59186178 14.24027949 13.69537732 16.01953125 15.81640625 C16.45958496 16.33734863 16.89963867 16.85829102 17.35302734 17.39501953 C18.87962692 19.21274047 20.38838148 21.04421552 21.89453125 22.87890625 C22.3639917 23.43707031 22.83345215 23.99523437 23.31713867 24.5703125 C24.3129549 25.79821096 25.26873807 27.05929898 26.18943787 28.34448242 C28.00977055 30.88826724 28.00977055 30.88826724 30.28390503 33.31542969 C40.25464279 46.25784477 38.03770765 62.48221608 37.70589542 77.96901393 C37.62863025 82.19170818 37.61385785 86.41454105 37.59539795 90.63783264 C37.52973742 103.16488156 37.37737965 115.69067069 37.18792725 128.21643066 C37.04064988 137.98167328 36.92167842 147.74530287 36.89338088 157.51171118 C36.8756724 162.52714 36.79802872 167.53685759 36.67431593 172.55073822 C36.610751 175.66966067 36.601644 178.78703282 36.60737038 181.90652466 C36.5990736 183.34673109 36.56854994 184.78701617 36.51360893 186.2261982 C36.3495457 190.71320573 36.43977635 194.59074803 38.01953125 198.81640625 C41.98488573 202.48017265 46.07478309 204.61644893 51.01953125 206.81640625 C52.36909849 207.4529811 52.36909849 207.4529811 53.74592972 208.10241604 C55.85417389 209.07160563 57.97671031 209.92777973 60.14453125 210.75390625 C61.23507812 211.18799805 61.23507812 211.18799805 62.34765625 211.63085938 C65.21721273 212.76650488 68.09155801 213.84041517 71.01953125 214.81640625 C67.69453153 222.76352096 59.30076081 228.67996332 52.8828125 234.171875 C50.40873499 236.35549477 48.123599 238.70128005 45.8125 241.0546875 C43.25189435 243.57066386 40.538291 245.89501435 37.8203125 248.23828125 C35.79530935 250.0129044 33.88407268 251.8741756 32.01953125 253.81640625 C25.34438797 251.85824427 19.45014744 249.15669353 13.39453125 245.75390625 C12.09346436 245.02917114 12.09346436 245.02917114 10.76611328 244.28979492 C-1.43543278 237.40523033 -14.02020505 229.77666995 -23.98046875 219.81640625 C-24.23100853 217.13514328 -24.23100853 217.13514328 -24.23202515 213.65594482 C-24.23740799 212.34084427 -24.24279083 211.02574371 -24.24833679 209.67079163 C-24.24432214 208.20468098 -24.24015121 206.73857075 -24.23583984 205.27246094 C-24.23858858 203.73512079 -24.24226776 202.19778206 -24.24681091 200.66044617 C-24.25493614 197.34447055 -24.25708803 194.02856243 -24.25486374 190.71257782 C-24.25203589 185.46834278 -24.26636361 180.22424306 -24.28384399 174.9800415 C-24.33091908 160.06565393 -24.35480807 145.15127494 -24.36132812 130.23681641 C-24.36507932 122.0037285 -24.38311579 113.77079307 -24.41642249 105.53777051 C-24.43664302 100.32588932 -24.43900329 95.11440125 -24.42814231 89.90249681 C-24.42553359 86.65606607 -24.43954744 83.40986371 -24.45822334 80.1634922 C-24.46354238 78.6598907 -24.4620534 77.15624705 -24.45318794 75.65266228 C-24.44204235 73.59616413 -24.45552338 71.54120677 -24.47494507 69.48480225 C-24.4760346 68.33515865 -24.47712414 67.18551506 -24.47824669 66.00103378 C-26.36170775 54.05786679 -41.59775649 43.07146299 -49.98046875 34.81640625 C-48.56826786 31.39039216 -47.06089725 29.88636872 -43.96484375 27.890625 C-42.72130127 27.07706543 -42.72130127 27.07706543 -41.45263672 26.24707031 C-40.10516357 25.3842041 -40.10516357 25.3842041 -38.73046875 24.50390625 C-36.83121633 23.26426848 -34.93280754 22.02333741 -33.03515625 20.78125 C-32.04612305 20.13655762 -31.05708984 19.49186523 -30.03808594 18.82763672 C-24.93417079 15.47039838 -19.89569231 12.0182288 -14.85546875 8.56640625 C-13.01958909 7.31111332 -11.18365589 6.05589869 -9.34765625 4.80078125 C-8.57534668 4.27194336 -7.80303711 3.74310547 -7.00732422 3.19824219 C-2.03894816 -0.18901492 -2.03894816 -0.18901492 0 0 Z " fill="#FFFFFF" transform="translate(1821.98046875,163.18359375)"/>
<path d="M0 0 C4.06236676 1.8919271 7.02224747 4.56666356 10.25 7.625 C10.87463135 8.21168457 11.4992627 8.79836914 12.14282227 9.40283203 C22.65455286 19.36628667 32.80100099 29.71863859 43 40 C40.75222845 43.42189414 38.6748403 46.56590197 35.6875 49.375 C33.24167471 51.74326212 30.95640762 54.15733877 28.75 56.75 C20.41059597 66.40122039 11.04616147 75.15143635 1 83 C-2.5891572 80.07007575 -5.91260356 77.22150609 -8.875 73.65625 C-14.53767815 67.10002132 -20.7944914 61.10058782 -26.9375 55 C-28.20661373 53.7359115 -29.47549589 52.47159044 -30.74414062 51.20703125 C-33.8267632 48.13533276 -36.91250428 45.06679992 -40 42 C-38.56741228 38.72803548 -36.81174684 36.56796044 -34.28466797 34.05761719 C-33.52403046 33.29713074 -32.76339294 32.53664429 -31.97970581 31.75311279 C-31.15882477 30.94255432 -30.33794373 30.13199585 -29.4921875 29.296875 C-28.65156769 28.45908508 -27.81094788 27.62129517 -26.94485474 26.75811768 C-24.25955999 24.08401569 -21.56739345 21.41695276 -18.875 18.75 C-17.05292845 16.93795938 -15.23130823 15.12546482 -13.41015625 13.3125 C-8.94532748 8.86971964 -4.47483717 4.43269835 0 0 Z " fill="#FFFFFF" transform="translate(1344,69)"/>
<path d="M0 0 C4.76013811 2.187372 8.15352401 5.49706891 12 9 C12.96292969 9.87011719 13.92585938 10.74023438 14.91796875 11.63671875 C20.93108294 17.10513306 26.80270087 22.70273028 32.5625 28.4375 C33.43769287 29.30580444 33.43769287 29.30580444 34.33056641 30.19165039 C37.44222904 33.31466283 40.31683248 36.4902332 43 40 C38.65499854 50.03048209 27.84677321 58.26842753 20.22375488 65.95147705 C19.24918651 66.93415809 18.27609631 67.91830753 17.30456543 68.9039917 C12.15442837 74.12107391 7.15661131 78.99480121 1 83 C-1.52516805 80.50434749 -4.04429373 78.00267549 -6.5625 75.5 C-7.61920898 74.45585937 -7.61920898 74.45585937 -8.69726562 73.390625 C-12.07727953 70.02618719 -15.36207197 66.63865953 -18.46484375 63.015625 C-20.99576085 60.07308542 -23.64447287 57.3359813 -26.4375 54.640625 C-27.18644531 53.91746094 -27.93539063 53.19429687 -28.70703125 52.44921875 C-30.25977765 50.95995772 -31.81992667 49.47838324 -33.38671875 48.00390625 C-34.12535156 47.28589844 -34.86398437 46.56789062 -35.625 45.828125 C-36.29789063 45.1877832 -36.97078125 44.54744141 -37.6640625 43.88769531 C-39 42 -39 42 -38.83496094 39.8894043 C-37.57800673 37.04508599 -35.60313166 35.58659206 -33.25 33.5625 C-27.45216292 28.44611312 -21.94024179 23.06710707 -16.47375488 17.59909058 C-15.08470241 16.20970769 -13.69227947 14.82369709 -12.29980469 13.43774414 C-7.98049033 9.11004044 -3.7967795 4.79551482 0 0 Z " fill="#FFFFFF" transform="translate(1821,69)"/>
</svg>
