<?xml version="1.0" encoding="UTF-8"?>
<svg version="1.1" xmlns="http://www.w3.org/2000/svg" width="512" height="512">
<path d="M0 0 C5.21732632 3.91299474 9.89803349 8.37913093 14.5625 12.921875 C15.46613281 13.79714844 16.36976563 14.67242187 17.30078125 15.57421875 C38.39775982 36.35106107 56.9767663 61.63381491 70.5625 87.921875 C70.92311523 88.60894531 71.28373047 89.29601562 71.65527344 90.00390625 C79.80113474 105.56997135 84.8451315 118.19653906 80.5625 135.921875 C75.59271642 148.78286899 65.673947 157.27722418 54.76635742 165.10498047 C48.10313857 169.96087322 40.23186 176.44093002 38.5625 184.921875 C36.30720708 208.85617109 49.86786475 231.18385873 63.5625 249.921875 C64.16312256 250.75356201 64.16312256 250.75356201 64.77587891 251.60205078 C78.44081108 270.39614799 95.14726979 287.12369222 114.5625 299.921875 C115.25794922 300.38803223 115.95339844 300.85418945 116.66992188 301.33447266 C125.86155389 307.46829041 135.25883135 313.00189285 145.125 317.984375 C146.01638672 318.4373999 146.90777344 318.8904248 147.82617188 319.35717773 C157.59959316 324.16816079 167.83933402 328.30166709 178.6875 324.796875 C186.47702684 321.44091284 190.74886131 315.50110094 195.53515625 308.73046875 C204.16238587 296.77868051 215.85712225 287.05580796 230.5625 283.921875 C257.25267164 280.15511691 278.72875702 294.2822855 299.37841797 309.33496094 C301.57724431 310.93258795 303.78853051 312.51135689 306.00390625 314.0859375 C316.09104337 321.2755187 325.9328036 328.74442802 335.65625 336.41796875 C337.28793683 337.70526266 338.92471167 338.98610286 340.5625 340.265625 C342.92098 342.122928 345.25037161 344.00727044 347.5625 345.921875 C348.40039062 346.6128125 349.23828125 347.30375 350.1015625 348.015625 C361.2124514 357.54883481 369.47477771 368.89640055 370.71875 383.79296875 C371.63421095 404.58156105 360.46701236 423.9651431 347.1875 439.046875 C345.65603632 440.68149426 344.11400125 442.30626212 342.5625 443.921875 C341.73105469 444.81648438 340.89960938 445.71109375 340.04296875 446.6328125 C323.32874923 464.10565692 298.65334136 479.55849593 273.84082031 480.21411133 C254.92103581 480.39215465 238.27212077 472.84678428 221.375 464.921875 C220.77844604 464.64286346 220.18189209 464.36385193 219.56726074 464.0763855 C198.99672856 454.4479074 178.88049069 444.31245131 159.39355469 432.61962891 C156.61486934 430.95328035 153.82816897 429.30117734 151.0390625 427.65234375 C142.04154015 422.3182996 133.16204926 416.88339828 124.5625 410.921875 C123.84126953 410.42461914 123.12003906 409.92736328 122.37695312 409.41503906 C84.58059596 383.32915678 46.15954173 353.83190402 16.19921875 318.7734375 C14.59849504 316.96259493 12.92557696 315.28779257 11.1875 313.609375 C7.4236782 309.9127643 4.18480464 305.85008958 0.8828125 301.7421875 C-1.31371375 299.07233573 -3.59330962 296.52459523 -5.9375 293.984375 C-9.9777868 289.54496109 -13.575409 284.87744941 -17.12890625 280.04296875 C-19.0708739 277.41753363 -21.05496146 274.83399205 -23.06860352 272.26342773 C-28.73146375 265.01785641 -33.96703973 257.51532371 -39.10693359 249.89208984 C-40.35156755 248.04911809 -41.60616711 246.21337694 -42.86328125 244.37890625 C-123.682838 125.71092938 -123.682838 125.71092938 -112.85009766 66.35571289 C-108.47032732 44.45931349 -95.88316384 25.66985865 -77.9375 12.359375 C-55.60458365 -2.35199053 -25.16269008 -16.29122883 0 0 Z " fill="#FFFFFF" transform="translate(120.4375,32.078125)"/>
<path d="M0 0 C0.84804199 0.18191895 1.69608398 0.36383789 2.56982422 0.55126953 C51.74762656 11.48509843 98.418353 42.06742632 129 82 C130.19109375 83.48306641 130.19109375 83.48306641 131.40625 84.99609375 C162.93582598 124.47692564 177.60946238 171.99517645 179 222 C179.02336426 222.77569336 179.04672852 223.55138672 179.07080078 224.35058594 C179.57964062 243.10496859 179.57964062 243.10496859 174.3125 249.875 C169.73757454 254.61488671 165.0657445 256.15044045 158.5625 256.375 C151.84796622 256.15394539 147.14787125 255.00467983 142.1875 250.375 C137.22985311 243.60630278 136.54254137 235.49015184 136.0625 227.375 C132.68776356 182.47979239 119.18423848 134.45714338 89 100 C88.32066406 99.19949219 87.64132812 98.39898437 86.94140625 97.57421875 C55.128435 60.67613319 2.99400155 44.35497948 -43.6875 38.234375 C-44.62875732 38.1096582 -45.57001465 37.98494141 -46.53979492 37.85644531 C-48.32452254 37.62700952 -50.11114853 37.4116716 -51.8996582 37.21386719 C-58.77650177 36.35519878 -64.57419646 34.55020372 -69.4375 29.4375 C-73.18531683 23.59090575 -72.73229238 16.34981671 -71.609375 9.6796875 C-69.86364796 3.97250294 -65.90520584 0.24816894 -61 -3 C-43.54405294 -8.77735858 -17.33317489 -3.75146254 0 0 Z " fill="#FFFFFF" transform="translate(327,4)"/>
<path d="M0 0 C9.99221293 5.37059673 19.47387277 11.49460631 28 19 C28.8146875 19.70640625 29.629375 20.4128125 30.46875 21.140625 C52.88397388 40.92690287 69.59754651 64.48477324 78.375 93.25 C78.61371826 94.02883545 78.85243652 94.8076709 79.09838867 95.61010742 C82.47960694 107.34593084 83.35146333 118.98328836 83.31567383 131.12255859 C83.31247411 133.39337544 83.33621775 135.66293304 83.36132812 137.93359375 C83.36359835 139.40104005 83.3643059 140.8684898 83.36328125 142.3359375 C83.36626221 143.64095215 83.36924316 144.9459668 83.37231445 146.29052734 C82.83475006 151.64643118 81.1710855 156.60118231 77.0625 160.3125 C71.84878913 164.43265711 65.16783664 165.34789955 58.66015625 164.8046875 C53.65488638 163.74791267 48.81282449 161.72956218 45.90698242 157.35424805 C43.16795116 152.07835051 42.19120505 147.3119453 41.5625 141.4375 C37.79987574 111.6838659 30.86271943 79.18983752 8 58 C7.42507813 57.41992188 6.85015625 56.83984375 6.2578125 56.2421875 C-13.33379045 37.38989032 -43.77812732 29.81529439 -69.8125 25.4375 C-77.71547805 24.01985239 -85.06651663 22.15589917 -90.125 15.5 C-93.40061842 9.36692721 -92.78066217 2.24873658 -91.55859375 -4.40234375 C-89.94334783 -9.69506779 -86.60798461 -13.04712823 -82 -16 C-59.97938768 -26.62813024 -20.21475176 -10.09780994 0 0 Z " fill="#FFFFFF" transform="translate(355,83)"/>
<path d="M0 0 C14.87094792 14.49474835 25.86035161 33.51024644 26.34643555 54.58227539 C26.36057495 55.90279907 26.36057495 55.90279907 26.375 57.25 C26.38893799 58.08974365 26.40287598 58.9294873 26.41723633 59.79467773 C26.35628453 67.80627658 24.34088163 74.54380475 18.7890625 80.51953125 C14.08168862 84.41493453 8.78914037 85.28800974 2.8125 84.9375 C-3.57417356 84.00816979 -7.96136535 80.89987474 -11.9140625 75.7890625 C-14.86504742 70.92736792 -15.77052563 65.21452557 -16.859375 59.703125 C-19.85619395 44.75197958 -24.52754563 35.1723784 -37.5234375 26.4296875 C-43.32551522 23.08022308 -48.9429569 21.41807242 -55.4375 20.0625 C-64.52612168 18.02175878 -71.42145275 15.94520366 -77 8 C-79.29029326 1.12912023 -78.20681316 -5.15321504 -75.3359375 -11.69921875 C-72.72900497 -16.18893589 -69.10324523 -18.83768027 -64.625 -21.3125 C-40.28415188 -27.68748403 -17.61500485 -16.12087497 0 0 Z " fill="#FFFFFF" transform="translate(348,155)"/>
</svg>
