<svg width="58" height="58" viewBox="0 0 58 58" fill="none" xmlns="http://www.w3.org/2000/svg">
<path d="M29 0.5625C13.291 0.5625 0.5625 13.291 0.5625 29C0.5625 44.709 13.291 57.4375 29 57.4375C44.709 57.4375 57.4375 44.709 57.4375 29C57.4375 13.291 44.709 0.5625 29 0.5625ZM29 55.0723C20.9883 55.0723 13.8105 51.4355 9.02539 45.7344C11.459 44.6816 17.5293 42.4941 21.3711 41.373C21.6719 41.2773 21.7266 41.2637 21.7266 39.9102C21.7266 38.4609 21.5625 37.4355 21.207 36.6836C20.7285 35.6582 20.1543 33.9219 19.9492 32.3633C19.375 31.6934 18.5957 30.3809 18.0898 27.8652C17.6523 25.6504 17.8574 24.8438 18.1445 24.0918C18.1719 24.0098 18.2129 23.9277 18.2266 23.8457C18.3359 23.3398 18.1855 20.6328 17.8027 18.541C17.543 17.1055 17.8711 14.0566 19.8535 11.5273C21.0977 9.92773 23.4902 7.97266 27.7832 7.69922H30.1758C34.5371 7.97266 36.9297 9.92773 38.1738 11.5273C40.1562 14.0566 40.4844 17.1055 40.2109 18.541C39.8281 20.6328 39.6777 23.3262 39.7871 23.8457C39.8008 23.9277 39.8418 24.0098 39.8691 24.0781C40.1562 24.8301 40.375 25.6367 39.9238 27.8516C39.418 30.3672 38.6387 31.6797 38.0645 32.3496C37.8594 33.9082 37.2852 35.6309 36.8066 36.6699C36.3555 37.6133 35.9043 38.7344 35.9043 39.8555C35.9043 41.209 35.959 41.2227 36.2734 41.3184C39.9238 42.3984 46.2129 44.5723 48.9883 45.707C44.2031 51.4219 37.0254 55.0723 29 55.0723Z" fill="#D6D6D6"/>
</svg>
