<svg xmlns="http://www.w3.org/2000/svg" id="Layer_1" data-name="Layer 1" version="1.1" viewBox="0 0 878 265"><defs><style>.cls-1{fill:#fff;stroke-width:0}</style></defs><path d="M561.35 114.63c5.54 0 9.42-1.04 11.05-1.42V36.79c-2.82-.1-6.27-.54-8.06-.76v41.51c0 20.11-20.56 27.03-26.3 30.01 6.29 4.23 14.42 7.08 23.31 7.08m-24.17-7.75c3.76-3.62 7.23-9.97 7.23-19.94V31.63c-1.1-.3-3.4-.91-4.4-1.13v56.51c0 10.89-3.69 15.22-5.5 17.79.7.59 1.9 1.53 2.67 2.08m68.56-93.58c-.32 2.63-3.55 23.66-27.46 23.66-1.4 0-3.19-.04-4.36-.1v75.89c12.51-3.86 22.85-14.19 27.33-28.73l.58.07c-1.74 26.62-23.1 47.59-48.86 47.59-27.96 0-48.69-21.63-48.69-51.18 0-19.47 9.82-37.08 25.05-45.73l.35.4c-7.34 8.59-11.27 18.74-11.27 31.55 0 16.13 6.24 29.04 15.16 37.26 1.96-2.8 4.91-7.65 4.91-17.74V30.15c-.78-.16-4.24-.96-7.7-.96-9.98 0-18.47 2.69-25.99 11.46l-.48-.26c2.42-17.01 14.51-29.32 36.63-29.32 19.92 0 30.19 7.48 45.64 7.48 10.33 0 16.43-4.06 18.64-5.52l.51.26Zm8.54 4.28 13.34 13.35-13.34 13.35-13.34-13.35 13.34-13.35Zm247.86 31.29-21.41 29.36 17.42 12.72v21.51l-25.41 19.45c-1.59-1.1-7.48-5.35-16.65-5.35-7.63 0-12.3 3.52-14.99 5.39l-.89-.77 22.57-30.96-16.06-9.08V67.36l24.91-19.4c2.22 1.6 6.78 4.9 15.33 4.9 7.57 0 12.12-3.42 14.02-4.91l1.15.92Zm-6.55 6.36-.44-.35c-1.7 1.96-9.06 9.8-18.16 9.8-6.21 0-9.54-2.24-10.97-3.22V79.4l8.39 4.89 21.19-29.05Zm-16.75 47.25-10.42-7.35-21.81 29.93.39.39c3.08-3.09 10.08-10.01 19.58-10.01 6.94 0 10.88 2.51 12.27 3.21v-16.17Zm-239.41-43 14.86-11.42 12.15 15.82v45.81s2.58 2.32 4.39 3.98c2.22 2.03 4.37 2.68 6.32 2.68 2.19 0 3.71-.91 4.37-1.34V69.42l-7.7-9.94 14.86-11.42 12.16 15.8 23.7-15.77 12.14 15.77 24.28-15.81 12.16 15.8v45.85l5.28 4.76c2.13 1.94 4.32 2.99 6.74 2.99 1.86 0 2.78-.54 3.53-1.04l.44-.3V69.59l32.19-21.53 21.51 28.73-34.33 21.93v9.06s13.9 6.94 18.81 9.36c2.23 1.1 4.53 2.1 7.57 2.1 3.35 0 6.61-1.28 8.32-2.05l2.62-1.22.61 1.39-28.18 14.56-28.56-14.89-17.83 14.67-18.01-15.35V69.33l-7.67-9.81-9.5 6.19v44.02l11.33 10.13-12.62 11.88-18.01-15.39V69.37l-7.5-9.67-9.03 6.01v44l11.32 10.15-12.61 11.88-18.01-15.39-16.47 15.3c-2.56-2.33-17.91-15.24-17.91-15.24V69.47l-7.7-9.99Zm169.08 37.45 16.87-10.85-16.87-22.59v33.44Zm-530.1-27.47 31.41-21.38 21.42 20.21v41.48s3.26 2.59 6.13 4.97c2.54 2.1 3.91 2.38 4.88 2.38 1.81 0 3.48-1.4 4.63-2.45l-.02-79.55c0-4.24-.74-9.95-5.16-13.97l.31-.46c5.06 1.41 8.95 6.2 10.11 9.92 3.57-12.32 17.12-16.75 27.76-15.35v.65c-7.87 1.63-13.72 7.21-13.72 20.9v73.4s3.44 3.14 4.34 3.92c2.09 2.03 3.39 3.07 5.43 3.07 1.83 0 3.45-.97 4.25-1.58l.62-.5V69.59L373 48.06l21.51 28.73-34.33 21.93v9.06s13.89 6.94 18.81 9.36c2.23 1.1 4.53 2.1 7.57 2.1 3.36 0 6.61-1.28 8.32-2.05 1.54-.73 2.88-1.34 3.21-1.49V69.59l32.2-21.53 21.5 28.73-34.32 21.93v9.06s13.89 6.94 18.81 9.36c2.23 1.1 4.91 1.68 7.67 1.68 3.6 0 6.58-1.53 8.23-2.32l4.19-2.16V71.8l-8.3-10.75 15.28-12.99 12.3 15.83v74.89c-20.1 0-29.8 26.22-64.7 26.22-20.31 0-30.58-9.36-30.58-21.19 0-8.99 7.88-16.03 17.38-16.03 10.99 0 16.26 5.19 19.02 9.24l-.88.48c-1.56-1.6-3.88-3.48-8.29-3.48-4.8 0-9.45 3.45-9.45 9.18 0 8.93 10.28 16.44 24.05 16.44 13.04 0 34.15-9.36 34.15-27.59v-15.93l-29.16 15.8-29.12-14.38-28.17 14.38-29.09-15.17-18.2 14.98-15.77-15.27-18.02 15.28-16.48-14.98-14.53 14.98-19.41-15.23-18.24 15.17-16.92-15.34V71.7l-7.74-11.22-7.61 5.25v43.84l10.66 9.55-14.16 12.62-15.8-15.32-15.72 15.23-17.64-8.03c-6.23-2.79-10.93-6.35-14.38-13.34-7.15 6.24-16.07 14.46-23.23 21.19-5.71-3.69-15.87-9.62-32.9-9.62-24.69 0-46.48 11.84-46.48 25.87 0 8.9 6.47 13.6 14.26 13.6l-.08 1.3c-10.46 0-15.91-7.17-15.91-15.5 0-23.62 29.76-41.43 55.81-43.17 2.66-3.57 6.53-8 6.53-20.38V48.78c0-5.6 1.81-7.96 2.51-8.88-.26.89-.99 3.15-.99 9.31v35.74c0 11.12-3.82 15.36-6.47 18.91.94-.04 1.87-.07 2.8-.07l1.61.02c5.79-6.55 6.39-13.87 6.39-20.8 0 0-.05-24.89 0-34.85.06-11.69 3.8-16.04 10.91-23.13 1.72-1.72 3.48-3.45 4.81-4.75l-.3-.35c-8.7 6.64-15.87 11.93-27.15 11.93-8.97 0-16.8-3.97-25.29-3.97-6.42 0-9.7 3.02-10.95 3.93 3.39-6.4 13.22-20.79 27.98-20.79 10.94 0 16.11 4.66 26.91 4.66 6.28 0 11.84-.82 16.65-3.23l.42.41c-3.17 5.13-4.49 12.24-4.49 21.22V57.8l30.33-45.42c3.6 2.32 7.48 5 14.49 5 8.31 0 11.82-2.4 14.68-4.11l.35.21c-1.73 5.41-10.05 19.15-23.34 19.15-7.01 0-12.42-3.21-14.78-4.62l-14.51 21.74 16.55 13.39s7.06 24.02 9.9 33.27c3.17 10.29 6.02 11.63 11.99 14.41 2.36 1.09 4.74 2.16 8.18 3.7 3.67 1.64 4.77 1.6 6.62 1.6 1.94 0 3.41-.82 3.92-1.18V34.92c0-7.53-2.62-11.39-5.18-13.78l.32-.46c2.57.52 7.96 3.64 10.11 9.93 2.15-8.49 12.12-17.09 27.7-15.37V16c-8.59 1.69-13.65 7.96-13.65 21.42v26.46l22.66-15.6 12 15.54v46.42l5.11 4.29c1.69 1.42 3.29 2.53 5.78 2.53 2.25 0 4.03-1.5 4.97-2.21V69.47Zm19.3 39.74 7.09 5.57c1.99 1.56 3.09 1.87 4.3 1.87 1.62 0 2.83-1.09 2.83-1.09l.03-37.46-14.25-14.05v45.16Zm159.76-12.27 16.87-10.85-16.87-22.59v33.44Zm-57.28 0 16.87-10.85-16.87-22.59v33.44Zm-248.05 19.08 8-7.27c-.34-.91-1.42-4.19-2.73-8.26-2.71-9.93-6.86-24.99-6.86-24.99l-6.33-5.94v6.7c0 14.41-10.16 21.63-23.99 27.62 19.33 1.09 29.81 10.32 31.9 12.14m364.74-85.08-13.34 13.35-13.34-13.35 13.34-13.35 13.34 13.35Z" class="cls-1"/><path d="M306.86 35.11c0-4.24-.74-9.95-5.16-13.97l.31-.47c5.06 1.41 8.95 6.2 10.11 9.92 3.57-12.33 17.12-16.75 27.76-15.35v.65c-7.87 1.63-13.72 7.21-13.72 20.9v73.4s3.44 3.14 4.34 3.92c2.09 2.03 3.39 3.07 5.43 3.07 1.83 0 3.45-.98 4.25-1.58.31-.23.68-.55.68-.55l.71 1.06-18.95 15.6-15.77-15.27V35.11ZM239.19 115.86l-.77-1.02c-.94.71-2.73 2.21-4.97 2.21-2.49 0-4.09-1.11-5.78-2.53-2.9-2.43-5.11-4.29-5.11-4.29V63.81l-12-15.54-22.65 15.6V37.41c0-13.46 5.05-19.73 13.65-21.42v-.76c-15.58-1.71-25.55 6.88-27.7 15.37-2.15-6.3-7.54-9.42-10.11-9.93l-.32.46c2.56 2.39 5.18 6.25 5.18 13.78v81.48l15.8 15.32 14.15-12.62-10.66-9.55V65.7l7.61-5.25 7.74 11.22v44.64l16.92 15.34 19.02-15.82ZM476.87 30.93l-13.34 13.35-13.34-13.35 13.34-13.35 13.34 13.35Zm-60.1 106.09c-2.76-4.05-8.04-9.24-19.02-9.24-9.5 0-17.37 7.03-17.37 16.03 0 11.83 10.26 21.19 30.57 21.19 34.9 0 44.6-26.22 64.7-26.22V63.89l-12.3-15.83-15.28 12.99 8.3 10.75v60.25c0 18.23-21.1 27.59-34.15 27.59-13.77 0-24.05-7.51-24.05-16.44 0-5.73 4.64-9.18 9.45-9.18 4.41 0 6.73 1.88 8.29 3.48l.87-.48Z" class="cls-1"/><path d="m112.14 116.01 8.01-7.27c-.34-.91-1.42-4.19-2.74-8.26-2.71-9.93-6.86-24.99-6.86-24.99l-6.33-5.94v6.7c0 14.41-10.16 21.63-23.99 27.62 19.33 1.09 29.81 10.32 31.9 12.14m-3.41-103.16c-3.17 5.13-4.49 12.24-4.49 21.22v23.71l30.33-45.42c3.6 2.32 7.48 5 14.49 5 8.31 0 11.82-2.4 14.68-4.11l.35.21c-1.73 5.41-10.05 19.15-23.34 19.15-7.01 0-12.42-3.21-14.78-4.62l-14.51 21.74L128 63.12s7.06 24.02 9.9 33.27c3.17 10.29 6.02 11.63 11.99 14.41 2.36 1.09 4.74 2.16 8.18 3.7 3.67 1.64 4.77 1.6 6.62 1.6 2.24 0 3.86-1.1 4.09-1.3l.67.86-16.55 16s-10.33-4.71-17.64-8.03c-6.23-2.79-10.93-6.35-14.38-13.34-7.15 6.24-16.07 14.46-23.23 21.19-5.71-3.69-15.87-9.62-32.9-9.62-24.69 0-46.48 11.84-46.48 25.86 0 8.9 6.47 13.6 14.26 13.6l-.08 1.3c-10.46 0-15.91-7.17-15.91-15.51 0-23.62 29.76-41.43 55.81-43.17 2.66-3.57 6.53-8 6.53-20.38V48.77c0-5.6 1.81-7.96 2.51-8.88h.02c-.26.9-1 3.15-1 9.31v35.74c0 11.12-3.82 15.36-6.47 18.91.94-.04 1.87-.07 2.8-.07.54 0 1.08 0 1.61.02 5.79-6.55 6.39-13.87 6.39-20.8 0 0-.05-24.89 0-34.85.06-11.69 3.8-16.04 10.91-23.13 1.72-1.72 3.48-3.45 4.81-4.75l-.3-.35c-8.7 6.64-15.87 11.93-27.15 11.93-8.97 0-16.8-3.97-25.29-3.97-6.42 0-9.7 3.02-10.95 3.93l-.24-.2c3.63-6.21 13.46-20.59 28.21-20.59 10.94 0 16.11 4.66 26.91 4.66 6.28 0 11.84-.82 16.65-3.23l.42.41ZM360.19 96.93l16.87-10.85-16.87-22.59v33.44ZM340.8 69.58 373 48.05l21.51 28.73-34.33 21.93v9.06s13.89 6.94 18.81 9.36c2.23 1.09 4.53 2.1 7.57 2.1 3.36 0 6.61-1.28 8.32-2.05 1.77-.84 3.29-1.52 3.29-1.52v1.82l-28.24 14.44-29.12-15.18V69.59ZM768.51 96.93l16.87-10.85-16.87-22.59v33.44Zm-19.39-27.35 32.19-21.53 21.51 28.73-34.33 21.93v9.06s13.9 6.94 18.82 9.36c2.23 1.09 4.53 2.1 7.56 2.1 3.35 0 6.61-1.28 8.32-2.05.5-.23 2.62-1.22 2.62-1.22l.61 1.39-28.18 14.56-29.12-15.18V69.58Z" class="cls-1"/><path d="m417.47 96.93 16.87-10.85-16.87-22.59v33.44Zm-19.39-27.35 32.2-21.53 21.5 28.73-34.33 21.93v9.06s13.9 6.94 18.81 9.36c2.23 1.09 4.91 1.68 7.68 1.68 3.6 0 6.58-1.53 8.23-2.32 1.56-.79 4.57-2.36 4.57-2.36v1.77l-29.54 16-29.12-14.38V69.57ZM238.41 69.46l31.41-21.38 21.42 20.21v41.47s3.26 2.59 6.13 4.97c2.54 2.09 3.91 2.38 4.88 2.38 1.8 0 3.48-1.4 4.62-2.45l.84 1.08-18.88 16-16.48-14.98-14.53 14.98-19.41-15.23V69.46Zm19.3 39.74 7.09 5.57c1.99 1.56 3.09 1.87 4.3 1.87 1.62 0 2.83-1.09 2.83-1.09l.03-37.46-14.25-14.05v45.16ZM696.68 63.86l-12.14-15.77-23.7 15.77-12.16-15.8-14.86 11.42 7.7 9.94v46.92l18.01 15.39 12.61-11.88-11.32-10.15v-44l9.03-6.01 7.5 9.67v46.98l18.01 15.39 12.61-11.88-11.33-10.13V65.7l9.51-6.19 7.67 9.81v47.02l18.01 15.35 17.97-14.78-.6-.87s-.26.18-.54.36c-.75.49-1.67 1.03-3.53 1.03-2.42 0-4.61-1.05-6.74-2.99-1.39-1.26-5.28-4.76-5.28-4.76V63.83l-12.16-15.8-24.28 15.81ZM862.14 48.87l-21.41 29.36 17.42 12.72v21.51l-25.41 19.45c-1.59-1.1-7.48-5.35-16.65-5.35-7.63 0-12.3 3.52-14.99 5.39l-.89-.77 22.57-30.96-16.06-9.08V67.36l24.91-19.4c2.22 1.6 6.78 4.89 15.33 4.89 7.57 0 12.12-3.42 14.02-4.91l1.15.92Zm-6.55 6.36-.44-.35c-1.7 1.96-9.06 9.8-18.16 9.8-6.21 0-9.54-2.24-10.97-3.22V79.4l8.39 4.89 21.19-29.05Zm-16.75 47.25-10.42-7.35-21.81 29.93.39.39c3.08-3.09 10.08-10.01 19.58-10.01 6.94 0 10.88 2.51 12.27 3.21v-16.17Z" class="cls-1"/><path d="m599.43 59.48 14.86-11.42 12.15 15.82v45.81s2.58 2.32 4.39 3.98c2.22 2.03 4.37 2.68 6.32 2.68 2.32 0 3.89-1.02 4.48-1.41.14.19.59.76.59.76l-17.17 15.95c-2.56-2.33-17.91-15.24-17.91-15.24V69.47l-7.7-9.99Zm14.85-41.9-13.35 13.35 13.35 13.35 13.34-13.35-13.34-13.35Z" class="cls-1"/><path d="M561.35 114.62c5.54 0 9.42-1.04 11.05-1.42V36.79c-2.82-.1-6.27-.54-8.06-.76v41.51c0 20.11-20.57 27.03-26.3 30.01 6.29 4.23 14.42 7.08 23.31 7.08m-24.17-7.75c3.76-3.62 7.23-9.97 7.23-19.94V31.63c-1.1-.3-3.4-.91-4.4-1.13v56.51c0 10.89-3.69 15.22-5.5 17.79.7.6 1.9 1.53 2.67 2.08m68.56-93.58c-.32 2.63-3.55 23.66-27.46 23.66-1.4 0-3.19-.04-4.36-.1v75.89c12.51-3.86 22.85-14.19 27.33-28.74l.58.07c-1.74 26.62-23.1 47.59-48.86 47.59-27.96 0-48.69-21.63-48.69-51.18 0-19.47 9.82-37.08 25.05-45.73l.35.4c-7.34 8.59-11.27 18.74-11.27 31.55 0 16.13 6.24 29.04 15.16 37.26 1.96-2.8 4.91-7.65 4.91-17.74V30.15c-.78-.16-4.24-.96-7.7-.96-9.98 0-18.47 2.7-25.99 11.47l-.48-.26c2.42-17.01 14.51-29.32 36.63-29.32 19.92 0 30.19 7.48 45.64 7.48 10.33 0 16.43-4.06 18.64-5.52l.51.26ZM257.21 199.72c0 5.71-3.18 9.32-9.14 9.32h-5.5V219h-4.38v-28.68h9.14c7.43 0 9.88 3.99 9.88 9.4m-14.64-5.67v11.25h5.71c2.32 0 4.46-1.2 4.46-5.58 0-3.31-1.55-5.67-4.46-5.67h-5.71ZM275.35 205.82v9.49c0 .73.3 1.12 1.03 1.12.39 0 .69 0 1.03-.13l.52 2.32c-1.03.51-1.85.69-3.26.69-3.01 0-3.39-2.15-3.39-2.92-.64 1.16-2.02 2.92-5.88 2.92-4.42 0-6.48-2.28-6.48-5.97 0-5.32 4.34-7 9.06-7 1.12 0 2.83.21 3.31.26v-1.89c0-2.88-2.45-3.09-4.89-3.09s-4.55.56-6.01 1.12l.69-3.39c1.42-.51 3.99-1.07 6.48-1.07 5.24 0 7.81 1.5 7.81 7.56m-12.17 7.06c0 2.92 2.58 3.05 3.61 3.05 2.45 0 4.46-1.85 4.46-4.42v-2.06c-.64-.04-2.06-.17-2.92-.17-3.31 0-5.15.86-5.15 3.61M292.61 199.33l-.77 3.39c-1.07-.39-2.06-.6-3.35-.6-1.8 0-3.09 1.89-3.52 2.7v14.17h-4.12V198.6h4.12v2.66c.82-1.93 2.41-3 3.82-3 1.55 0 2.83.56 3.82 1.07M301.37 198.6h4.25v3.26h-4.25v11.72c0 2.1.56 2.36 2.1 2.36.56 0 1.55-.26 2.02-.51l.6 3.09c-1.37.47-2.23.77-4.51.77-2.83 0-4.25-1.2-4.25-5.2v-12.24h-3.26l.69-3.26h2.58v-5.45l4.04-1.33v6.78ZM336.62 208.87c0 8.46-4.68 10.43-9.88 10.43s-9.87-1.98-9.87-10.43 4.64-10.6 9.87-10.6 9.88 2.19 9.88 10.6m-15.42 0c0 6.27 2.28 7.3 5.54 7.3s5.58-1.03 5.58-7.3-2.41-7.47-5.58-7.47-5.54 1.16-5.54 7.47M352.33 189.85l-.73 3.35c-.9-.21-1.89-.47-2.75-.47-1.8 0-2.32.43-2.32 2.45v3.43h4.42v3.26h-4.42V219h-4.08v-17.13h-3.26l.69-3.26h2.58v-2.88c0-3.61.64-6.57 5.67-6.57 1.59 0 2.92.17 4.21.69M450.56 203.97v.68c0 3.26-.64 6.02-1.89 8.28-1.25 2.24-2.96 3.92-5.11 5.03-2.16 1.11-4.6 1.66-7.33 1.66-1.36 0-2.67-.14-3.9-.43-1.33-.32-2.6-.8-3.78-1.45-2.29-1.25-4.08-3.02-5.39-5.3-1.29-2.27-1.95-4.88-1.95-7.83s.66-5.55 1.95-7.8c1.3-2.27 3.08-4.02 5.36-5.27 2.27-1.24 4.85-1.87 7.71-1.87 2.68 0 5.05.54 7.12 1.61.33.17.68.35 1 .58.09.04.17.09.25.15 2.34 1.56 4 3.68 4.95 6.39l.19.6h-5.25c-.48-1.11-1.09-2.05-1.86-2.8a5.81 5.81 0 0 0-.92-.79c-1.45-1.03-3.27-1.56-5.49-1.56-1.9 0-3.6.42-5.09 1.26-1.51.85-2.68 2.08-3.52 3.72-.85 1.64-1.26 3.56-1.26 5.78s.42 4.18 1.26 5.82c.84 1.64 2.01 2.87 3.52 3.73a9.45 9.45 0 0 0 3.95 1.22c.37.04.75.06 1.14.06 1.82 0 3.39-.33 4.72-1.03 1.32-.7 2.34-1.62 3.07-2.74a7.424 7.424 0 0 0 1.2-3.62h-8.12l1.61-4.08h11.84ZM482.13 218.98h-5.53l-2.21-5.94h-13.67l-2.19 5.94h-5.47l11.28-28.67h6.51l11.27 28.67Zm-9.25-10-5.28-14.21h-.15l-5.23 14.21h10.67ZM506.81 214.64l-1.7 4.34h-18.09v-28.66h5.09v24.32h14.7zM538.09 218.98h-5.54l-2.21-5.94h-13.67l-2.19 5.94h-5.47l11.28-28.67h6.51l11.27 28.67Zm-9.25-10-5.28-14.21h-.15l-5.23 14.21h10.67ZM568.74 204.64c0 4.69-1.25 8.24-3.73 10.68-2.49 2.44-5.88 3.66-10.16 3.66h-11.83v-28.67h11.83c4.29 0 7.67 1.22 10.16 3.65 2.49 2.44 3.73 6 3.73 10.68m-5.14 0c0-3.37-.81-5.91-2.44-7.62-1.64-1.72-3.96-2.57-6.99-2.57h-6.09v20.4h6.09c3.02 0 5.35-.86 6.99-2.57 1.63-1.72 2.44-4.25 2.44-7.63M600.27 218.98h-5.53l-2.21-5.94h-13.67l-2.19 5.94h-5.47l11.28-28.67h6.51l11.27 28.67Zm-9.25-10-5.28-14.21h-.15l-5.23 14.21h10.67ZM621.32 207.62c2.11-.53 3.73-1.54 4.86-3 1.12-1.48 1.68-3.29 1.68-5.47 0-2.72-.88-4.88-2.65-6.46s-4.25-2.37-7.46-2.37H605.2v28.67h5.06v-24.53h6.8c1.83 0 3.22.41 4.2 1.22.98.82 1.46 1.98 1.46 3.47s-.49 2.7-1.44 3.52c-.97.81-2.37 1.22-4.22 1.22h-3.71v4.14h1.66c3.15 1.76 6.72 6.73 7.96 10.96h5.37c-1.17-4.01-4.61-9.48-7.02-11.37M633.94 190.32H639v28.67h-5.06zM373.71 242.2c-3.95 0-7.15 3.2-7.15 7.15s3.2 7.15 7.15 7.15 7.15-3.2 7.15-7.15-3.2-7.15-7.15-7.15" class="cls-1"/><path d="M371.43 221.27c-.99 2.92.78 4.59 1.68 5.19 1.68 1.12 3.73 2.28 11.87 2.54 10.08.32 14.6.61 18.17 2.98 4.13 2.75 7.82 9.57 2.74 17.39-5.04 7.76-16.14 7.46-19.85 6.83 6.8-.9 11.03-3.18 12.23-7 1.2-3.82-.51-6.32-2.54-7.56-2.54-1.55-7.98-1.74-11.96-2.06-4.22-.33-10.97-.52-13.96-2.26-3.46-2.01-5.23-5.1-4.39-8.96.84-3.85 4.87-6.42 6-7.08M403.18 193.94a7.149 7.149 0 0 1-11.3-5.82c0-.5.05-1 .15-1.47-1.79-.47-3.67-.72-5.62-.72-11.3 0-20.45 8.39-20.45 18.74s9.16 18.74 20.45 18.74 20.45-8.39 20.45-18.74c0-3.99-1.36-7.68-3.68-10.72m-5.13 10.71c0 6.19-5.21 11.21-11.65 11.21s-11.65-5.02-11.65-11.21 5.21-11.21 11.65-11.21 11.65 5.02 11.65 11.21" class="cls-1"/><path d="M403.17 193.94a7.14 7.14 0 0 0 3.01-5.82c0-3.95-3.2-7.15-7.15-7.15-3.45 0-6.32 2.44-7 5.68 4.57 1.2 8.49 3.81 11.14 7.29" class="cls-1"/></svg>