<svg width="16" height="16" viewBox="0 0 16 16" fill="none" xmlns="http://www.w3.org/2000/svg">
<path d="M3.49311 2.16652C3.4929 2.60855 3.32589 3.03239 3.02881 3.34479C2.73172 3.6572 2.32891 3.83258 1.90899 3.83236C1.48906 3.83214 1.08642 3.65633 0.789634 3.34361C0.49285 3.0309 0.326237 2.60688 0.326447 2.16486C0.326657 1.72283 0.493673 1.29899 0.790754 0.98659C1.08784 0.674185 1.49065 0.498803 1.91057 0.499024C2.3305 0.499245 2.73314 0.675051 3.02993 0.987768C3.32671 1.30049 3.49332 1.7245 3.49311 2.16652ZM3.54061 5.06652H0.373947V15.4999H3.54061V5.06652ZM8.54395 5.06652H5.39311V15.4999H8.51228V10.0249C8.51228 6.97486 12.2885 6.69152 12.2885 10.0249V15.4999H15.4156V8.89152C15.4156 3.74986 9.82645 3.94152 8.51228 6.46652L8.54395 5.06652Z" fill="url(#paint0_linear_1_2596)"/>
<defs>
<linearGradient id="paint0_linear_1_2596" x1="7.87103" y1="0.499023" x2="7.87103" y2="15.4999" gradientUnits="userSpaceOnUse">
<stop stop-color="#0095E1"/>
<stop offset="1" stop-color="#0078B5"/>
</linearGradient>
</defs>
</svg>
