<svg width="22" height="18" viewBox="0 0 22 18" fill="none" xmlns="http://www.w3.org/2000/svg">
<path d="M18.3641 17.135H3.61154C1.68666 17.135 0.12088 15.5692 0.12088 13.6443V4.33099C0.12088 2.40636 1.68691 0.840332 3.61154 0.840332H18.3641C20.2887 0.840332 21.8545 2.40636 21.8545 4.33099V13.6443C21.8545 15.5692 20.2887 17.135 18.3641 17.135ZM3.61154 1.86109C2.24956 1.86109 1.14163 2.96902 1.14163 4.33099V13.6443C1.14163 15.0063 2.24956 16.1145 3.61154 16.1145H18.3641C19.726 16.1145 20.834 15.0063 20.834 13.6443V4.33099C20.834 2.96902 19.726 1.86109 18.3641 1.86109H3.61154Z" fill="#0171BB"/>
<path d="M2.78719 4.37969C5.39619 6.92203 8.00519 9.46414 10.6142 12.0065C11.1005 12.4803 11.847 11.7355 11.3599 11.2608C8.75089 8.71868 6.14189 6.17633 3.53289 3.63422C3.04655 3.16019 2.30012 3.90517 2.78719 4.37969Z" fill="#0171BB"/>
<path d="M11.3609 12.0065C13.9699 9.46435 16.5789 6.922 19.1879 4.3799C19.6748 3.90538 18.9288 3.16016 18.4422 3.63419C15.8332 6.1763 13.2242 8.71865 10.6152 11.2608C10.1284 11.7353 10.8744 12.4805 11.3609 12.0065Z" fill="#0171BB"/>
<path d="M19.1588 13.8059C17.4228 12.1595 15.6865 10.5133 13.9505 8.86685C13.4581 8.40006 12.7112 9.14432 13.2048 9.61256C14.9408 11.259 16.6771 12.9052 18.4131 14.5516C18.9055 15.0184 19.6524 14.2739 19.1588 13.8059Z" fill="#0171BB"/>
<path d="M3.61045 14.5512C5.34648 12.9048 7.08276 11.2586 8.81879 9.61214C9.31214 9.14414 8.56571 8.3994 8.07308 8.86643C6.33705 10.5129 4.60078 12.1591 2.86475 13.8055C2.37139 14.2735 3.11782 15.0185 3.61045 14.5512Z" fill="#0171BB"/>
</svg>
