<svg width="16" height="17" viewBox="0 0 16 17" fill="none" xmlns="http://www.w3.org/2000/svg">
<path fill-rule="evenodd" clip-rule="evenodd" d="M11.6655 9.63419C11.4664 9.53456 10.4878 9.05306 10.3053 8.98656C10.1228 8.92013 9.99016 8.88697 9.85744 9.08619C9.72475 9.28544 9.34325 9.73384 9.22713 9.86669C9.11103 9.99953 8.99491 10.0162 8.79587 9.9165C8.59681 9.81691 7.95541 9.60672 7.19509 8.9285C6.60337 8.40069 6.20384 7.74884 6.08775 7.54956C5.97162 7.35028 6.07534 7.24256 6.175 7.14331C6.26459 7.05412 6.37409 6.91081 6.47359 6.79456C6.57316 6.67837 6.60631 6.59528 6.67266 6.4625C6.739 6.32963 6.70584 6.21341 6.65603 6.11378C6.60631 6.01416 6.20822 5.03434 6.04234 4.63572C5.88075 4.24762 5.71666 4.30019 5.59447 4.29403C5.4785 4.28828 5.34562 4.28706 5.21297 4.28706C5.08028 4.28706 4.86459 4.33687 4.68213 4.53609C4.49969 4.73537 3.98547 5.217 3.98547 6.19672C3.98547 7.17656 4.69872 8.12303 4.79825 8.25591C4.89778 8.38878 6.20187 10.3993 8.19875 11.2616C8.67362 11.4667 9.04444 11.5892 9.3335 11.6809C9.81034 11.8324 10.2443 11.811 10.5873 11.7598C10.9697 11.7027 11.765 11.2782 11.9309 10.8133C12.0967 10.3483 12.0967 9.94972 12.047 9.86669C11.9972 9.78366 11.8645 9.73384 11.6655 9.63419ZM8.03347 14.5933H8.03078C6.84259 14.5929 5.67725 14.2737 4.66062 13.6704L4.41881 13.5269L1.91275 14.1843L2.58166 11.7408L2.42425 11.4903C1.76141 10.4361 1.41131 9.21762 1.41184 7.96647C1.41331 4.31569 4.38372 1.34553 8.03609 1.34553C9.80469 1.34613 11.4672 2.03578 12.7174 3.28738C13.9675 4.53894 14.6556 6.20256 14.6549 7.97181C14.6534 11.6229 11.683 14.5933 8.03347 14.5933ZM13.6688 2.33634C12.1648 0.830531 10.1645 0.000875 8.03337 0C3.64231 0 0.0685312 3.57356 0.06675 7.96597C0.0661875 9.37009 0.433 10.7405 1.13019 11.9487L0 16.0769L4.22316 14.9691C5.38678 15.6038 6.69688 15.9383 8.03022 15.9388H8.0335C12.4241 15.9388 15.9982 12.3648 16 7.97234C16.0008 5.84369 15.1729 3.84216 13.6688 2.33634Z" fill="url(#paint0_linear_1_2586)"/>
<defs>
<linearGradient id="paint0_linear_1_2586" x1="8" y1="0" x2="8" y2="16.0769" gradientUnits="userSpaceOnUse">
<stop stop-color="#25D366"/>
<stop offset="0.59" stop-color="#4DCB5B"/>
</linearGradient>
</defs>
</svg>
