<svg xmlns="http://www.w3.org/2000/svg" width="141.48" height="132.048" viewBox="0 0 141.48 132.048">
  <g id="Outline" transform="translate(-16 -32)">
    <path id="Path_284" data-name="Path 284" d="M152.764,116.888H20.716V53.222H16v73.1a11.8,11.8,0,0,0,11.79,11.79H69.5l-5.788,21.222H56.086v4.716h61.308v-4.716h-7.631l-4.671-17.125-4.55,1.241,4.332,15.884H68.605l5.788-21.222h71.3a11.8,11.8,0,0,0,11.79-11.79V107.456h-4.716Zm-7.074,16.506H27.79a7.082,7.082,0,0,1-7.074-7.074V121.6H152.764v4.716a7.082,7.082,0,0,1-7.074,7.074Zm11.79-89.6v58.95h-4.716V43.79a7.082,7.082,0,0,0-7.074-7.074H27.79a7.082,7.082,0,0,0-7.074,7.074v4.716H16V43.79A11.8,11.8,0,0,1,27.79,32h117.9a11.8,11.8,0,0,1,11.79,11.79ZM56.512,97.906a3.231,3.231,0,0,0,2.806,4.834h54.845a3.232,3.232,0,0,0,2.806-4.834L91.749,53.771a5.768,5.768,0,0,0-10.017,0l-4.4,7.7-4.094-2.34,4.4-7.7a10.485,10.485,0,0,1,18.207,0l25.219,44.135a7.948,7.948,0,0,1-6.9,11.891H59.318a7.947,7.947,0,0,1-6.9-11.891L70.545,63.842l4.095,2.34ZM89.1,88.592H84.382V62.654H89.1Zm-4.716,4.716H89.1v4.716H84.382ZM30.148,50.864H25.432V46.148h4.716ZM25.432,55.58h4.716V79.16H25.432Z" fill="#2296e3"/>
  </g>
</svg>
